G04 #@! TF.GenerationSoftware,KiCad,Pcbnew,8.0.4*
G04 #@! TF.CreationDate,2025-04-22T14:39:34+02:00*
G04 #@! TF.ProjectId,MarvinProjekt,4d617276-696e-4507-926f-6a656b742e6b,rev?*
G04 #@! TF.SameCoordinates,Original*
G04 #@! TF.FileFunction,Other,User*
%FSLAX46Y46*%
G04 Gerber Fmt 4.6, Leading zero omitted, Abs format (unit mm)*
G04 Created by KiCad (PCBNEW 8.0.4) date 2025-04-22 14:39:34*
%MOMM*%
%LPD*%
G01*
G04 APERTURE LIST*
%ADD10C,0.200000*%
G04 APERTURE END LIST*
G04 #@! TO.C,SW2*
D10*
X99800000Y-109979456D02*
X105800000Y-109979456D01*
X105800000Y-115979456D01*
X99800000Y-115979456D01*
X99800000Y-109979456D01*
X104270544Y-112979456D02*
G75*
G02*
X101329456Y-112979456I-1470544J0D01*
G01*
X101329456Y-112979456D02*
G75*
G02*
X104270544Y-112979456I1470544J0D01*
G01*
G04 #@! TO.C,SW6*
X87779456Y-154500000D02*
X93779456Y-154500000D01*
X93779456Y-148500000D01*
X87779456Y-148500000D01*
X87779456Y-154500000D01*
X92250000Y-151500000D02*
G75*
G02*
X89308912Y-151500000I-1470544J0D01*
G01*
X89308912Y-151500000D02*
G75*
G02*
X92250000Y-151500000I1470544J0D01*
G01*
G04 #@! TO.C,SW3*
X87779456Y-129200000D02*
X93779456Y-129200000D01*
X93779456Y-123200000D01*
X87779456Y-123200000D01*
X87779456Y-129200000D01*
X92250000Y-126200000D02*
G75*
G02*
X89308912Y-126200000I-1470544J0D01*
G01*
X89308912Y-126200000D02*
G75*
G02*
X92250000Y-126200000I1470544J0D01*
G01*
G04 #@! TO.C,SW1*
X105800000Y-123120544D02*
X99800000Y-123120544D01*
X99800000Y-117120544D01*
X105800000Y-117120544D01*
X105800000Y-123120544D01*
X104270544Y-120120544D02*
G75*
G02*
X101329456Y-120120544I-1470544J0D01*
G01*
X101329456Y-120120544D02*
G75*
G02*
X104270544Y-120120544I1470544J0D01*
G01*
G04 #@! TO.C,SW4*
X87779456Y-115900000D02*
X93779456Y-115900000D01*
X93779456Y-109900000D01*
X87779456Y-109900000D01*
X87779456Y-115900000D01*
X92250000Y-112900000D02*
G75*
G02*
X89308912Y-112900000I-1470544J0D01*
G01*
X89308912Y-112900000D02*
G75*
G02*
X92250000Y-112900000I1470544J0D01*
G01*
G04 #@! TO.C,SW5*
X87779456Y-141800000D02*
X93779456Y-141800000D01*
X93779456Y-135800000D01*
X87779456Y-135800000D01*
X87779456Y-141800000D01*
X92250000Y-138800000D02*
G75*
G02*
X89308912Y-138800000I-1470544J0D01*
G01*
X89308912Y-138800000D02*
G75*
G02*
X92250000Y-138800000I1470544J0D01*
G01*
G04 #@! TO.C,SW9*
X99800000Y-115979456D02*
X105800000Y-115979456D01*
X105800000Y-109979456D01*
X99800000Y-109979456D01*
X99800000Y-115979456D01*
X104270544Y-112979456D02*
G75*
G02*
X101329456Y-112979456I-1470544J0D01*
G01*
X101329456Y-112979456D02*
G75*
G02*
X104270544Y-112979456I1470544J0D01*
G01*
G04 #@! TO.C,SW8*
X105800000Y-117120544D02*
X99800000Y-117120544D01*
X99800000Y-123120544D01*
X105800000Y-123120544D01*
X105800000Y-117120544D01*
X104270544Y-120120544D02*
G75*
G02*
X101329456Y-120120544I-1470544J0D01*
G01*
X101329456Y-120120544D02*
G75*
G02*
X104270544Y-120120544I1470544J0D01*
G01*
G04 #@! TD*
M02*
