M48
; DRILL file {KiCad 8.0.4} date 2025-04-22T14:39:34+0200
; FORMAT={-:-/ absolute / metric / decimal}
; #@! TF.CreationDate,2025-04-22T14:39:34+02:00
; #@! TF.GenerationSoftware,Kicad,Pcbnew,8.0.4
; #@! TF.FileFunction,Plated,1,4,PTH
FMAT,2
METRIC
; #@! TA.AperFunction,Plated,PTH,ViaDrill
T1C0.300
; #@! TA.AperFunction,Plated,PTH,ComponentDrill
T2C0.300
; #@! TA.AperFunction,Plated,PTH,ViaDrill
T3C0.500
; #@! TA.AperFunction,Plated,PTH,ComponentDrill
T4C0.700
; #@! TA.AperFunction,Plated,PTH,ComponentDrill
T5C0.800
; #@! TA.AperFunction,Plated,PTH,ComponentDrill
T6C1.000
; #@! TA.AperFunction,Plated,PTH,ComponentDrill
T7C1.600
; #@! TA.AperFunction,Plated,PTH,ComponentDrill
T8C2.390
%
G90
G05
T1
X88.0Y-126.4
X91.775Y-93.165
X91.775Y-98.165
X91.775Y-108.165
X91.775Y-138.165
X91.775Y-143.165
X91.775Y-153.165
X91.775Y-158.165
X92.1Y-119.6
X95.1Y-111.7
X95.1Y-113.3
X95.1Y-114.1
X96.775Y-128.165
X96.775Y-138.165
X96.775Y-143.165
X96.775Y-153.165
X96.775Y-158.165
X96.775Y-163.165
X100.8Y-110.7
X100.8Y-121.5
X100.9Y-123.8
X101.3Y-116.7
X101.6Y-155.0
X101.775Y-98.165
X101.775Y-163.165
X101.775Y-168.165
X102.3Y-116.6
X103.1Y-116.6
X103.7Y-109.4
X103.9Y-111.379
X103.9Y-112.179
X103.9Y-112.979
X103.9Y-113.779
X103.9Y-116.6
X104.15Y-101.6
X104.55Y-132.637
X104.6Y-137.1
X104.65Y-105.204
X105.05Y-134.787
X105.3Y-122.4
X105.65Y-136.3
X105.91Y-101.99
X106.077Y-98.238
X106.3Y-139.0
X106.775Y-143.165
X106.775Y-168.165
X107.5Y-99.8
X107.8Y-106.2
X107.9Y-105.2
X108.4Y-154.3
X108.9Y-143.5
X109.0Y-152.9
X109.947Y-109.503
X109.947Y-110.353
X110.7Y-120.0
X110.9Y-127.7
X110.9Y-128.8
X110.9Y-129.9
X110.992Y-112.406
X111.003Y-111.606
X111.063Y-113.203
X111.211Y-113.989
X111.4Y-106.8
X111.6Y-150.2
X111.6Y-152.8
X111.76Y-102.46
X111.775Y-93.165
X111.775Y-158.165
X111.775Y-168.165
X111.9Y-133.3
X111.9Y-142.5
X112.1Y-101.2
X113.0Y-152.8
X113.4Y-150.2
X113.8Y-153.1
X114.4Y-135.2
X114.5Y-131.0
X114.7Y-153.15
X115.5Y-153.1
X116.249Y-119.947
X116.775Y-93.165
X116.775Y-138.165
X116.775Y-143.165
X116.775Y-158.165
X116.775Y-163.165
X116.8Y-110.753
X118.037Y-110.763
X118.2Y-160.2
X118.5Y-147.3
X119.235Y-111.035
X119.5Y-106.7
X120.5Y-111.3
X120.8Y-113.6
X121.775Y-98.165
X121.775Y-103.165
X121.775Y-118.165
X121.775Y-123.165
X121.775Y-148.165
X121.775Y-163.165
X122.2Y-111.4
X123.0Y-106.8
X123.4Y-105.2
X123.6Y-117.8
X124.3Y-106.3
X124.5Y-117.6
X124.9Y-105.1
X125.5Y-107.0
X125.5Y-142.5
X125.6Y-91.9
X125.6Y-93.3
X125.9Y-111.3
X126.1Y-113.0
X126.775Y-108.165
X126.775Y-143.165
X126.775Y-148.165
X126.775Y-153.165
X126.8Y-113.7
X127.9Y-124.4
X128.0Y-113.465
X128.5Y-137.1
X128.8Y-98.3
X129.7Y-142.5
X130.7Y-104.9
X131.0Y-98.7
X131.35Y-105.5
X131.775Y-93.165
X131.775Y-118.165
X131.775Y-148.165
X131.775Y-158.165
X131.775Y-163.165
X131.775Y-168.165
X131.9Y-97.4
X132.0Y-104.6
X132.9Y-128.8
X133.5Y-131.1
X133.6Y-126.1
X134.1Y-111.3
X134.8Y-137.1
X135.1Y-111.0
X135.9Y-110.6
X136.1Y-125.9
X136.775Y-93.165
X136.775Y-103.165
X136.775Y-143.165
X136.775Y-158.165
X136.775Y-168.165
X136.9Y-138.4
X139.5Y-133.2
X141.775Y-138.165
X141.775Y-158.165
X141.775Y-168.165
X142.825Y-97.975
X142.825Y-98.825
X144.643Y-134.4
X146.775Y-88.165
X146.775Y-93.165
X146.775Y-108.165
X146.775Y-113.165
X146.775Y-118.165
X146.775Y-138.165
X146.775Y-153.165
X146.775Y-158.165
X146.775Y-163.165
X146.775Y-168.165
X150.4Y-104.0
X150.7Y-91.0
X150.7Y-92.2
X151.2Y-100.9
X151.775Y-88.165
X151.775Y-108.165
X151.775Y-143.165
X151.775Y-153.165
X151.775Y-158.165
X151.775Y-163.165
X151.775Y-168.165
X156.775Y-113.165
X156.775Y-118.165
X156.775Y-123.165
X156.775Y-128.165
X156.775Y-133.165
X156.775Y-153.165
X156.775Y-158.165
T2
X115.7Y-97.7
X115.7Y-99.1
X116.4Y-97.0
X116.4Y-98.4
X116.4Y-99.8
X117.1Y-97.7
X117.1Y-99.1
X117.8Y-97.0
X117.8Y-98.4
X117.8Y-99.8
X118.5Y-97.7
X118.5Y-99.1
T3
X88.65Y-119.8
X88.65Y-136.6
X88.8Y-111.1
X90.8Y-146.8
X98.4Y-109.2
X98.4Y-119.9
X98.4Y-132.5
X98.4Y-145.5
X99.7Y-104.7
X99.7Y-139.0
X101.8Y-132.1
X102.8Y-92.6
X106.4Y-146.4
X107.3Y-120.3
X107.85Y-124.65
X109.3Y-117.0
X110.2Y-115.1
X113.6Y-128.8
X115.5Y-128.0
X129.8Y-100.7
X130.1Y-110.6
X130.3Y-95.6
X131.6Y-142.6
X134.649Y-143.951
X134.7Y-139.5
X137.4Y-155.037
X137.7Y-110.6
X137.9Y-124.0
X138.3Y-117.2
X140.3Y-119.4
X140.7Y-161.938
X143.3Y-111.0
X143.4Y-108.9
X144.6Y-145.9
X146.0Y-122.1
X148.9Y-134.3
X149.25Y-141.25
X152.2Y-139.0
X154.5Y-111.1
X158.9Y-97.1
T5
X158.0Y-143.9
X158.0Y-145.9
X158.0Y-147.9
T6
X89.4Y-94.26
X89.4Y-96.8
X89.4Y-99.34
X89.4Y-101.88
X121.0Y-153.16
X121.0Y-155.7
X121.0Y-158.24
X123.54Y-153.16
X123.54Y-155.7
X123.54Y-158.24
T7
X97.725Y-166.9
X103.925Y-166.9
X108.8Y-166.9
X115.0Y-166.9
X121.2Y-166.9
X127.4Y-166.9
T8
X141.6Y-93.5
X141.6Y-165.1
T4
G00X153.03Y-95.2
M15
G01X153.93Y-95.2
M16
G05
G00X153.03Y-103.84
M15
G01X153.93Y-103.84
M16
G05
G00X157.33Y-95.2
M15
G01X158.03Y-95.2
M16
G05
G00X157.33Y-103.84
M15
G01X158.03Y-103.84
M16
G05
T5
G00X157.65Y-141.8
M15
G01X158.35Y-141.8
M16
G05
G00X157.65Y-150.0
M15
G01X158.35Y-150.0
M16
G05
M30
