G04 #@! TF.GenerationSoftware,KiCad,Pcbnew,8.0.4*
G04 #@! TF.CreationDate,2025-04-22T14:39:34+02:00*
G04 #@! TF.ProjectId,MarvinProjekt,4d617276-696e-4507-926f-6a656b742e6b,rev?*
G04 #@! TF.SameCoordinates,Original*
G04 #@! TF.FileFunction,Other,User*
%FSLAX46Y46*%
G04 Gerber Fmt 4.6, Leading zero omitted, Abs format (unit mm)*
G04 Created by KiCad (PCBNEW 8.0.4) date 2025-04-22 14:39:34*
%MOMM*%
%LPD*%
G01*
G04 APERTURE LIST*
%ADD10C,0.050000*%
G04 APERTURE END LIST*
D10*
G04 #@! TO.C,C15*
X113950000Y-135957500D02*
X116250000Y-135957500D01*
X113950000Y-140917500D02*
X113950000Y-135957500D01*
X116250000Y-135957500D02*
X116250000Y-140917500D01*
X116250000Y-140917500D02*
X113950000Y-140917500D01*
G04 #@! TO.C,C9*
X123050000Y-132857500D02*
X125350000Y-132857500D01*
X123050000Y-137817500D02*
X123050000Y-132857500D01*
X125350000Y-132857500D02*
X125350000Y-137817500D01*
X125350000Y-137817500D02*
X123050000Y-137817500D01*
G04 #@! TO.C,R24*
X103650000Y-150650000D02*
X107350000Y-150650000D01*
X103650000Y-152550000D02*
X103650000Y-150650000D01*
X107350000Y-150650000D02*
X107350000Y-152550000D01*
X107350000Y-152550000D02*
X103650000Y-152550000D01*
G04 #@! TO.C,R41*
X151887500Y-90050000D02*
X155587500Y-90050000D01*
X151887500Y-91950000D02*
X151887500Y-90050000D01*
X155587500Y-90050000D02*
X155587500Y-91950000D01*
X155587500Y-91950000D02*
X151887500Y-91950000D01*
G04 #@! TO.C,R46*
X95250000Y-144650000D02*
X97150000Y-144650000D01*
X95250000Y-148350000D02*
X95250000Y-144650000D01*
X97150000Y-144650000D02*
X97150000Y-148350000D01*
X97150000Y-148350000D02*
X95250000Y-148350000D01*
G04 #@! TO.C,R16*
X111450000Y-112350000D02*
X113350000Y-112350000D01*
X111450000Y-116050000D02*
X111450000Y-112350000D01*
X113350000Y-112350000D02*
X113350000Y-116050000D01*
X113350000Y-116050000D02*
X111450000Y-116050000D01*
G04 #@! TO.C,R7*
X129450000Y-132887500D02*
X133150000Y-132887500D01*
X129450000Y-134787500D02*
X129450000Y-132887500D01*
X133150000Y-132887500D02*
X133150000Y-134787500D01*
X133150000Y-134787500D02*
X129450000Y-134787500D01*
G04 #@! TO.C,R21*
X133950000Y-159050000D02*
X135850000Y-159050000D01*
X133950000Y-162750000D02*
X133950000Y-159050000D01*
X135850000Y-159050000D02*
X135850000Y-162750000D01*
X135850000Y-162750000D02*
X133950000Y-162750000D01*
G04 #@! TO.C,C40*
X136720000Y-118957500D02*
X138680000Y-118957500D01*
X136720000Y-122717500D02*
X136720000Y-118957500D01*
X138680000Y-118957500D02*
X138680000Y-122717500D01*
X138680000Y-122717500D02*
X136720000Y-122717500D01*
G04 #@! TO.C,R29*
X131050000Y-123150000D02*
X132950000Y-123150000D01*
X131050000Y-126850000D02*
X131050000Y-123150000D01*
X132950000Y-123150000D02*
X132950000Y-126850000D01*
X132950000Y-126850000D02*
X131050000Y-126850000D01*
G04 #@! TO.C,C14*
X121120000Y-130250000D02*
X126080000Y-130250000D01*
X121120000Y-132550000D02*
X121120000Y-130250000D01*
X126080000Y-130250000D02*
X126080000Y-132550000D01*
X126080000Y-132550000D02*
X121120000Y-132550000D01*
G04 #@! TO.C,U6*
X132850000Y-101850000D02*
X132850000Y-105350000D01*
X132850000Y-105350000D02*
X140550000Y-105350000D01*
X140550000Y-101850000D02*
X132850000Y-101850000D01*
X140550000Y-105350000D02*
X140550000Y-101850000D01*
G04 #@! TO.C,U12*
X153280000Y-135350000D02*
X153280000Y-137850000D01*
X153280000Y-137850000D02*
X156320000Y-137850000D01*
X156320000Y-135350000D02*
X153280000Y-135350000D01*
X156320000Y-137850000D02*
X156320000Y-135350000D01*
G04 #@! TO.C,R20*
X118650000Y-142850000D02*
X120550000Y-142850000D01*
X118650000Y-146550000D02*
X118650000Y-142850000D01*
X120550000Y-142850000D02*
X120550000Y-146550000D01*
X120550000Y-146550000D02*
X118650000Y-146550000D01*
G04 #@! TO.C,R17*
X116850000Y-120087500D02*
X118750000Y-120087500D01*
X116850000Y-123787500D02*
X116850000Y-120087500D01*
X118750000Y-120087500D02*
X118750000Y-123787500D01*
X118750000Y-123787500D02*
X116850000Y-123787500D01*
G04 #@! TO.C,R39*
X129050000Y-121050000D02*
X132750000Y-121050000D01*
X129050000Y-122950000D02*
X129050000Y-121050000D01*
X132750000Y-121050000D02*
X132750000Y-122950000D01*
X132750000Y-122950000D02*
X129050000Y-122950000D01*
G04 #@! TO.C,D2*
X144150000Y-126837500D02*
X144150000Y-132037500D01*
X144150000Y-126837500D02*
X147550000Y-126837500D01*
X147550000Y-132037500D02*
X144150000Y-132037500D01*
X147550000Y-132037500D02*
X147550000Y-126837500D01*
G04 #@! TO.C,U2*
X114900000Y-128937500D02*
X114900000Y-134137500D01*
X114900000Y-134137500D02*
X120100000Y-134137500D01*
X120100000Y-128937500D02*
X114900000Y-128937500D01*
X120100000Y-134137500D02*
X120100000Y-128937500D01*
G04 #@! TO.C,X1*
X151550000Y-104720000D02*
X160450000Y-104720000D01*
X160450000Y-94320000D01*
X151550000Y-94320000D01*
X151550000Y-104720000D01*
G04 #@! TO.C,R18*
X116850000Y-123987500D02*
X118750000Y-123987500D01*
X116850000Y-127687500D02*
X116850000Y-123987500D01*
X118750000Y-123987500D02*
X118750000Y-127687500D01*
X118750000Y-127687500D02*
X116850000Y-127687500D01*
G04 #@! TO.C,R3*
X102250000Y-93950000D02*
X105950000Y-93950000D01*
X102250000Y-95850000D02*
X102250000Y-93950000D01*
X105950000Y-93950000D02*
X105950000Y-95850000D01*
X105950000Y-95850000D02*
X102250000Y-95850000D01*
G04 #@! TO.C,R42*
X140550000Y-112150000D02*
X142450000Y-112150000D01*
X140550000Y-115850000D02*
X140550000Y-112150000D01*
X142450000Y-112150000D02*
X142450000Y-115850000D01*
X142450000Y-115850000D02*
X140550000Y-115850000D01*
G04 #@! TO.C,C13*
X121082500Y-125750000D02*
X126042500Y-125750000D01*
X121082500Y-128050000D02*
X121082500Y-125750000D01*
X126042500Y-125750000D02*
X126042500Y-128050000D01*
X126042500Y-128050000D02*
X121082500Y-128050000D01*
G04 #@! TO.C,R38*
X151950000Y-91950000D02*
X155650000Y-91950000D01*
X151950000Y-93850000D02*
X151950000Y-91950000D01*
X155650000Y-91950000D02*
X155650000Y-93850000D01*
X155650000Y-93850000D02*
X151950000Y-93850000D01*
G04 #@! TO.C,C42*
X100420000Y-137920000D02*
X104180000Y-137920000D01*
X100420000Y-139880000D02*
X100420000Y-137920000D01*
X104180000Y-137920000D02*
X104180000Y-139880000D01*
X104180000Y-139880000D02*
X100420000Y-139880000D01*
G04 #@! TO.C,R25*
X99450000Y-156450000D02*
X101350000Y-156450000D01*
X99450000Y-160150000D02*
X99450000Y-156450000D01*
X101350000Y-156450000D02*
X101350000Y-160150000D01*
X101350000Y-160150000D02*
X99450000Y-160150000D01*
G04 #@! TO.C,R12*
X106550000Y-131687500D02*
X110250000Y-131687500D01*
X106550000Y-133587500D02*
X106550000Y-131687500D01*
X110250000Y-131687500D02*
X110250000Y-133587500D01*
X110250000Y-133587500D02*
X106550000Y-133587500D01*
G04 #@! TO.C,D5*
X155757500Y-89950000D02*
X159117500Y-89950000D01*
X155757500Y-91850000D02*
X155757500Y-89950000D01*
X159117500Y-89950000D02*
X159117500Y-91850000D01*
X159117500Y-91850000D02*
X155757500Y-91850000D01*
G04 #@! TO.C,C21*
X151800000Y-146720000D02*
X154100000Y-146720000D01*
X151800000Y-151680000D02*
X151800000Y-146720000D01*
X154100000Y-146720000D02*
X154100000Y-151680000D01*
X154100000Y-151680000D02*
X151800000Y-151680000D01*
G04 #@! TO.C,C34*
X134620000Y-133750000D02*
X139580000Y-133750000D01*
X134620000Y-136050000D02*
X134620000Y-133750000D01*
X139580000Y-133750000D02*
X139580000Y-136050000D01*
X139580000Y-136050000D02*
X134620000Y-136050000D01*
G04 #@! TO.C,R35*
X139350000Y-97850000D02*
X141250000Y-97850000D01*
X139350000Y-101550000D02*
X139350000Y-97850000D01*
X141250000Y-97850000D02*
X141250000Y-101550000D01*
X141250000Y-101550000D02*
X139350000Y-101550000D01*
G04 #@! TO.C,R2*
X144450000Y-103150000D02*
X148150000Y-103150000D01*
X144450000Y-105050000D02*
X144450000Y-103150000D01*
X148150000Y-103150000D02*
X148150000Y-105050000D01*
X148150000Y-105050000D02*
X144450000Y-105050000D01*
G04 #@! TO.C,R1*
X147550000Y-93150000D02*
X151250000Y-93150000D01*
X147550000Y-95050000D02*
X147550000Y-93150000D01*
X151250000Y-93150000D02*
X151250000Y-95050000D01*
X151250000Y-95050000D02*
X147550000Y-95050000D01*
G04 #@! TO.C,R51*
X113450000Y-112350000D02*
X115350000Y-112350000D01*
X113450000Y-116050000D02*
X113450000Y-112350000D01*
X115350000Y-112350000D02*
X115350000Y-116050000D01*
X115350000Y-116050000D02*
X113450000Y-116050000D01*
G04 #@! TO.C,C37*
X149070000Y-147320000D02*
X151030000Y-147320000D01*
X149070000Y-151080000D02*
X149070000Y-147320000D01*
X151030000Y-147320000D02*
X151030000Y-151080000D01*
X151030000Y-151080000D02*
X149070000Y-151080000D01*
G04 #@! TO.C,R10*
X111450000Y-116187500D02*
X113350000Y-116187500D01*
X111450000Y-119887500D02*
X111450000Y-116187500D01*
X113350000Y-116187500D02*
X113350000Y-119887500D01*
X113350000Y-119887500D02*
X111450000Y-119887500D01*
G04 #@! TO.C,R31*
X139900000Y-131487500D02*
X141800000Y-131487500D01*
X139900000Y-135187500D02*
X139900000Y-131487500D01*
X141800000Y-131487500D02*
X141800000Y-135187500D01*
X141800000Y-135187500D02*
X139900000Y-135187500D01*
G04 #@! TO.C,C23*
X115020000Y-144520000D02*
X116980000Y-144520000D01*
X115020000Y-148280000D02*
X115020000Y-144520000D01*
X116980000Y-144520000D02*
X116980000Y-148280000D01*
X116980000Y-148280000D02*
X115020000Y-148280000D01*
G04 #@! TO.C,C19*
X120720000Y-138920000D02*
X122680000Y-138920000D01*
X120720000Y-142680000D02*
X120720000Y-138920000D01*
X122680000Y-138920000D02*
X122680000Y-142680000D01*
X122680000Y-142680000D02*
X120720000Y-142680000D01*
G04 #@! TO.C,J2*
X87600000Y-92460000D02*
X87600000Y-103660000D01*
X87600000Y-103660000D02*
X91200000Y-103660000D01*
X91200000Y-92460000D02*
X87600000Y-92460000D01*
X91200000Y-103660000D02*
X91200000Y-92460000D01*
G04 #@! TO.C,R5*
X102087500Y-126887500D02*
X105787500Y-126887500D01*
X102087500Y-128787500D02*
X102087500Y-126887500D01*
X105787500Y-126887500D02*
X105787500Y-128787500D01*
X105787500Y-128787500D02*
X102087500Y-128787500D01*
G04 #@! TO.C,R30*
X135150000Y-127450000D02*
X137050000Y-127450000D01*
X135150000Y-131150000D02*
X135150000Y-127450000D01*
X137050000Y-127450000D02*
X137050000Y-131150000D01*
X137050000Y-131150000D02*
X135150000Y-131150000D01*
G04 #@! TO.C,REF\u002A\u002A*
X94150000Y-86600000D02*
G75*
G02*
X87250000Y-86600000I-3450000J0D01*
G01*
X87250000Y-86600000D02*
G75*
G02*
X94150000Y-86600000I3450000J0D01*
G01*
G04 #@! TO.C,C31*
X105420000Y-158220000D02*
X109180000Y-158220000D01*
X105420000Y-160180000D02*
X105420000Y-158220000D01*
X109180000Y-158220000D02*
X109180000Y-160180000D01*
X109180000Y-160180000D02*
X105420000Y-160180000D01*
G04 #@! TO.C,C17*
X121120000Y-128220000D02*
X124880000Y-128220000D01*
X121120000Y-130180000D02*
X121120000Y-128220000D01*
X124880000Y-128220000D02*
X124880000Y-130180000D01*
X124880000Y-130180000D02*
X121120000Y-130180000D01*
G04 #@! TO.C,C7*
X120920000Y-132857500D02*
X122880000Y-132857500D01*
X120920000Y-136617500D02*
X120920000Y-132857500D01*
X122880000Y-132857500D02*
X122880000Y-136617500D01*
X122880000Y-136617500D02*
X120920000Y-136617500D01*
G04 #@! TO.C,C24*
X112920000Y-144482500D02*
X114880000Y-144482500D01*
X112920000Y-148242500D02*
X112920000Y-144482500D01*
X114880000Y-144482500D02*
X114880000Y-148242500D01*
X114880000Y-148242500D02*
X112920000Y-148242500D01*
G04 #@! TO.C,C36*
X135620000Y-105550000D02*
X140580000Y-105550000D01*
X135620000Y-107850000D02*
X135620000Y-105550000D01*
X140580000Y-105550000D02*
X140580000Y-107850000D01*
X140580000Y-107850000D02*
X135620000Y-107850000D01*
G04 #@! TO.C,R48*
X139687500Y-141500000D02*
X143387500Y-141500000D01*
X139687500Y-143400000D02*
X139687500Y-141500000D01*
X143387500Y-141500000D02*
X143387500Y-143400000D01*
X143387500Y-143400000D02*
X139687500Y-143400000D01*
G04 #@! TO.C,R33*
X102250000Y-98150000D02*
X105950000Y-98150000D01*
X102250000Y-100050000D02*
X102250000Y-98150000D01*
X105950000Y-98150000D02*
X105950000Y-100050000D01*
X105950000Y-100050000D02*
X102250000Y-100050000D01*
G04 #@! TO.C,R8*
X111450000Y-119987500D02*
X113350000Y-119987500D01*
X111450000Y-123687500D02*
X111450000Y-119987500D01*
X113350000Y-119987500D02*
X113350000Y-123687500D01*
X113350000Y-123687500D02*
X111450000Y-123687500D01*
G04 #@! TO.C,R11*
X113550000Y-116187500D02*
X115450000Y-116187500D01*
X113550000Y-119887500D02*
X113550000Y-116187500D01*
X115450000Y-116187500D02*
X115450000Y-119887500D01*
X115450000Y-119887500D02*
X113550000Y-119887500D01*
G04 #@! TO.C,U1*
X94600000Y-68190000D02*
X94600000Y-89190000D01*
X94600000Y-89190000D02*
X108850000Y-89190000D01*
X108850000Y-109390000D02*
X108850000Y-89190000D01*
X108850000Y-109390000D02*
X128350000Y-109390000D01*
X128350000Y-89190000D02*
X128350000Y-109390000D01*
X128350000Y-89190000D02*
X142600000Y-89190000D01*
X142600000Y-68190000D02*
X94600000Y-68190000D01*
X142600000Y-89190000D02*
X142600000Y-68190000D01*
G04 #@! TO.C,C2*
X103920000Y-89982500D02*
X105880000Y-89982500D01*
X103920000Y-93742500D02*
X103920000Y-89982500D01*
X105880000Y-89982500D02*
X105880000Y-93742500D01*
X105880000Y-93742500D02*
X103920000Y-93742500D01*
G04 #@! TO.C,C35*
X132920000Y-97820000D02*
X134880000Y-97820000D01*
X132920000Y-101580000D02*
X132920000Y-97820000D01*
X134880000Y-97820000D02*
X134880000Y-101580000D01*
X134880000Y-101580000D02*
X132920000Y-101580000D01*
G04 #@! TO.C,R15*
X106550000Y-135950000D02*
X110250000Y-135950000D01*
X106550000Y-137850000D02*
X106550000Y-135950000D01*
X110250000Y-135950000D02*
X110250000Y-137850000D01*
X110250000Y-137850000D02*
X106550000Y-137850000D01*
G04 #@! TO.C,C6*
X100857500Y-128887500D02*
X105817500Y-128887500D01*
X100857500Y-131187500D02*
X100857500Y-128887500D01*
X105817500Y-128887500D02*
X105817500Y-131187500D01*
X105817500Y-131187500D02*
X100857500Y-131187500D01*
G04 #@! TO.C,C29*
X99720000Y-150620000D02*
X103480000Y-150620000D01*
X99720000Y-152580000D02*
X99720000Y-150620000D01*
X103480000Y-150620000D02*
X103480000Y-152580000D01*
X103480000Y-152580000D02*
X99720000Y-152580000D01*
G04 #@! TO.C,U13*
X153280000Y-105550000D02*
X153280000Y-108050000D01*
X153280000Y-108050000D02*
X156320000Y-108050000D01*
X156320000Y-105550000D02*
X153280000Y-105550000D01*
X156320000Y-108050000D02*
X156320000Y-105550000D01*
G04 #@! TO.C,REF\u002A\u002A*
X159650000Y-165700000D02*
G75*
G02*
X152750000Y-165700000I-3450000J0D01*
G01*
X152750000Y-165700000D02*
G75*
G02*
X159650000Y-165700000I3450000J0D01*
G01*
G04 #@! TO.C,C4*
X106120000Y-94020000D02*
X108080000Y-94020000D01*
X106120000Y-97780000D02*
X106120000Y-94020000D01*
X108080000Y-94020000D02*
X108080000Y-97780000D01*
X108080000Y-97780000D02*
X106120000Y-97780000D01*
G04 #@! TO.C,D1*
X144500000Y-95800000D02*
X144500000Y-101000000D01*
X144500000Y-95800000D02*
X147900000Y-95800000D01*
X147900000Y-101000000D02*
X144500000Y-101000000D01*
X147900000Y-101000000D02*
X147900000Y-95800000D01*
G04 #@! TO.C,R4*
X108287500Y-126887500D02*
X110187500Y-126887500D01*
X108287500Y-130587500D02*
X108287500Y-126887500D01*
X110187500Y-126887500D02*
X110187500Y-130587500D01*
X110187500Y-130587500D02*
X108287500Y-130587500D01*
G04 #@! TO.C,U11*
X100980000Y-135250000D02*
X100980000Y-137750000D01*
X100980000Y-137750000D02*
X104020000Y-137750000D01*
X104020000Y-135250000D02*
X100980000Y-135250000D01*
X104020000Y-137750000D02*
X104020000Y-135250000D01*
G04 #@! TO.C,Q2*
X143587500Y-141750000D02*
X143587500Y-145150000D01*
X143587500Y-145150000D02*
X147687500Y-145150000D01*
X147687500Y-141750000D02*
X143587500Y-141750000D01*
X147687500Y-145150000D02*
X147687500Y-141750000D01*
G04 #@! TO.C,D3*
X133100000Y-118237500D02*
X133100000Y-123437500D01*
X133100000Y-118237500D02*
X136500000Y-118237500D01*
X136500000Y-123437500D02*
X133100000Y-123437500D01*
X136500000Y-123437500D02*
X136500000Y-118237500D01*
G04 #@! TO.C,C32*
X103420000Y-160320000D02*
X107180000Y-160320000D01*
X103420000Y-162280000D02*
X103420000Y-160320000D01*
X107180000Y-160320000D02*
X107180000Y-162280000D01*
X107180000Y-162280000D02*
X103420000Y-162280000D01*
G04 #@! TO.C,R9*
X113550000Y-119987500D02*
X115450000Y-119987500D01*
X113550000Y-123687500D02*
X113550000Y-119987500D01*
X115450000Y-119987500D02*
X115450000Y-123687500D01*
X115450000Y-123687500D02*
X113550000Y-123687500D01*
G04 #@! TO.C,U7*
X128390000Y-111560000D02*
X128390000Y-116640000D01*
X128390000Y-116640000D02*
X140030000Y-116640000D01*
X140030000Y-111560000D02*
X128390000Y-111560000D01*
X140030000Y-116640000D02*
X140030000Y-111560000D01*
G04 #@! TO.C,U5*
X135050000Y-98000000D02*
X135050000Y-101400000D01*
X135050000Y-101400000D02*
X139150000Y-101400000D01*
X139150000Y-98000000D02*
X135050000Y-98000000D01*
X139150000Y-101400000D02*
X139150000Y-98000000D01*
G04 #@! TO.C,C28*
X99720000Y-152720000D02*
X103480000Y-152720000D01*
X99720000Y-154680000D02*
X99720000Y-152720000D01*
X103480000Y-152720000D02*
X103480000Y-154680000D01*
X103480000Y-154680000D02*
X99720000Y-154680000D01*
G04 #@! TO.C,C41*
X98820000Y-104920000D02*
X100780000Y-104920000D01*
X98820000Y-108680000D02*
X98820000Y-104920000D01*
X100780000Y-104920000D02*
X100780000Y-108680000D01*
X100780000Y-108680000D02*
X98820000Y-108680000D01*
G04 #@! TO.C,R32*
X142000000Y-131487500D02*
X143900000Y-131487500D01*
X142000000Y-135187500D02*
X142000000Y-131487500D01*
X143900000Y-131487500D02*
X143900000Y-135187500D01*
X143900000Y-135187500D02*
X142000000Y-135187500D01*
G04 #@! TO.C,R19*
X120750000Y-142850000D02*
X122650000Y-142850000D01*
X120750000Y-146550000D02*
X120750000Y-142850000D01*
X122650000Y-142850000D02*
X122650000Y-146550000D01*
X122650000Y-146550000D02*
X120750000Y-146550000D01*
G04 #@! TO.C,Q1*
X136300000Y-158750000D02*
X136300000Y-162850000D01*
X136300000Y-162850000D02*
X139700000Y-162850000D01*
X139700000Y-158750000D02*
X136300000Y-158750000D01*
X139700000Y-162850000D02*
X139700000Y-158750000D01*
G04 #@! TO.C,C43*
X152920000Y-138020000D02*
X156680000Y-138020000D01*
X152920000Y-139980000D02*
X152920000Y-138020000D01*
X156680000Y-138020000D02*
X156680000Y-139980000D01*
X156680000Y-139980000D02*
X152920000Y-139980000D01*
G04 #@! TO.C,U8*
X143370000Y-147300000D02*
X143370000Y-150900000D01*
X143370000Y-147300000D02*
X148130000Y-147300000D01*
X148130000Y-150900000D02*
X143370000Y-150900000D01*
X148130000Y-150900000D02*
X148130000Y-147300000D01*
G04 #@! TO.C,R43*
X95150000Y-119050000D02*
X97050000Y-119050000D01*
X95150000Y-122750000D02*
X95150000Y-119050000D01*
X97050000Y-119050000D02*
X97050000Y-122750000D01*
X97050000Y-122750000D02*
X95150000Y-122750000D01*
G04 #@! TO.C,C26*
X99720000Y-148520000D02*
X103480000Y-148520000D01*
X99720000Y-150480000D02*
X99720000Y-148520000D01*
X103480000Y-148520000D02*
X103480000Y-150480000D01*
X103480000Y-150480000D02*
X99720000Y-150480000D01*
G04 #@! TO.C,R44*
X95450000Y-131650000D02*
X97350000Y-131650000D01*
X95450000Y-135350000D02*
X95450000Y-131650000D01*
X97350000Y-131650000D02*
X97350000Y-135350000D01*
X97350000Y-135350000D02*
X95450000Y-135350000D01*
G04 #@! TO.C,R26*
X109250000Y-156450000D02*
X111150000Y-156450000D01*
X109250000Y-160150000D02*
X109250000Y-156450000D01*
X111150000Y-156450000D02*
X111150000Y-160150000D01*
X111150000Y-160150000D02*
X109250000Y-160150000D01*
G04 #@! TO.C,C44*
X152920000Y-108220000D02*
X156680000Y-108220000D01*
X152920000Y-110180000D02*
X152920000Y-108220000D01*
X156680000Y-108220000D02*
X156680000Y-110180000D01*
X156680000Y-110180000D02*
X152920000Y-110180000D01*
G04 #@! TO.C,REF\u002A\u002A*
X94150000Y-165700000D02*
G75*
G02*
X87250000Y-165700000I-3450000J0D01*
G01*
X87250000Y-165700000D02*
G75*
G02*
X94150000Y-165700000I3450000J0D01*
G01*
G04 #@! TO.C,J1*
X119200000Y-151360000D02*
X119200000Y-160010000D01*
X119200000Y-160010000D02*
X125350000Y-160010000D01*
X125350000Y-151360000D02*
X119200000Y-151360000D01*
X125350000Y-160010000D02*
X125350000Y-151360000D01*
G04 #@! TO.C,C25*
X110820000Y-144482500D02*
X112780000Y-144482500D01*
X110820000Y-148242500D02*
X110820000Y-144482500D01*
X112780000Y-144482500D02*
X112780000Y-148242500D01*
X112780000Y-148242500D02*
X110820000Y-148242500D01*
G04 #@! TO.C,C12*
X111420000Y-123857500D02*
X113380000Y-123857500D01*
X111420000Y-127617500D02*
X111420000Y-123857500D01*
X113380000Y-123857500D02*
X113380000Y-127617500D01*
X113380000Y-127617500D02*
X111420000Y-127617500D01*
G04 #@! TO.C,R27*
X102250000Y-96050000D02*
X105950000Y-96050000D01*
X102250000Y-97950000D02*
X102250000Y-96050000D01*
X105950000Y-96050000D02*
X105950000Y-97950000D01*
X105950000Y-97950000D02*
X102250000Y-97950000D01*
G04 #@! TO.C,R13*
X106550000Y-133837500D02*
X110250000Y-133837500D01*
X106550000Y-135737500D02*
X106550000Y-133837500D01*
X110250000Y-133837500D02*
X110250000Y-135737500D01*
X110250000Y-135737500D02*
X106550000Y-135737500D01*
G04 #@! TO.C,R50*
X139687500Y-139400000D02*
X143387500Y-139400000D01*
X139687500Y-141300000D02*
X139687500Y-139400000D01*
X143387500Y-139400000D02*
X143387500Y-141300000D01*
X143387500Y-141300000D02*
X139687500Y-141300000D01*
G04 #@! TO.C,R45*
X95450000Y-106150000D02*
X97350000Y-106150000D01*
X95450000Y-109850000D02*
X95450000Y-106150000D01*
X97350000Y-106150000D02*
X97350000Y-109850000D01*
X97350000Y-109850000D02*
X95450000Y-109850000D01*
G04 #@! TO.C,R34*
X132950000Y-95850000D02*
X136650000Y-95850000D01*
X132950000Y-97750000D02*
X132950000Y-95850000D01*
X136650000Y-95850000D02*
X136650000Y-97750000D01*
X136650000Y-97750000D02*
X132950000Y-97750000D01*
G04 #@! TO.C,R6*
X125550000Y-132887500D02*
X129250000Y-132887500D01*
X125550000Y-134787500D02*
X125550000Y-132887500D01*
X129250000Y-132887500D02*
X129250000Y-134787500D01*
X129250000Y-134787500D02*
X125550000Y-134787500D01*
G04 #@! TO.C,C20*
X118620000Y-138920000D02*
X120580000Y-138920000D01*
X118620000Y-142680000D02*
X118620000Y-138920000D01*
X120580000Y-138920000D02*
X120580000Y-142680000D01*
X120580000Y-142680000D02*
X118620000Y-142680000D01*
G04 #@! TO.C,R49*
X143587500Y-139400000D02*
X147287500Y-139400000D01*
X143587500Y-141300000D02*
X143587500Y-139400000D01*
X147287500Y-139400000D02*
X147287500Y-141300000D01*
X147287500Y-141300000D02*
X143587500Y-141300000D01*
G04 #@! TO.C,C11*
X113520000Y-123857500D02*
X115480000Y-123857500D01*
X113520000Y-127617500D02*
X113520000Y-123857500D01*
X115480000Y-123857500D02*
X115480000Y-127617500D01*
X115480000Y-127617500D02*
X113520000Y-127617500D01*
G04 #@! TO.C,C5*
X105957500Y-126857500D02*
X107917500Y-126857500D01*
X105957500Y-130617500D02*
X105957500Y-126857500D01*
X107917500Y-126857500D02*
X107917500Y-130617500D01*
X107917500Y-130617500D02*
X105957500Y-130617500D01*
G04 #@! TO.C,R14*
X106550000Y-138050000D02*
X110250000Y-138050000D01*
X106550000Y-139950000D02*
X106550000Y-138050000D01*
X110250000Y-138050000D02*
X110250000Y-139950000D01*
X110250000Y-139950000D02*
X106550000Y-139950000D01*
G04 #@! TO.C,R47*
X136250000Y-163050000D02*
X138150000Y-163050000D01*
X136250000Y-166750000D02*
X136250000Y-163050000D01*
X138150000Y-163050000D02*
X138150000Y-166750000D01*
X138150000Y-166750000D02*
X136250000Y-166750000D01*
G04 #@! TO.C,C16*
X121120000Y-123720000D02*
X124880000Y-123720000D01*
X121120000Y-125680000D02*
X121120000Y-123720000D01*
X124880000Y-123720000D02*
X124880000Y-125680000D01*
X124880000Y-125680000D02*
X121120000Y-125680000D01*
G04 #@! TO.C,FB1*
X107187500Y-146550000D02*
X110687500Y-146550000D01*
X107187500Y-148250000D02*
X107187500Y-146550000D01*
X110687500Y-146550000D02*
X110687500Y-148250000D01*
X110687500Y-148250000D02*
X107187500Y-148250000D01*
G04 #@! TO.C,R40*
X129050000Y-118950000D02*
X132750000Y-118950000D01*
X129050000Y-120850000D02*
X129050000Y-118950000D01*
X132750000Y-118950000D02*
X132750000Y-120850000D01*
X132750000Y-120850000D02*
X129050000Y-120850000D01*
G04 #@! TO.C,REF\u002A\u002A*
X159550000Y-86400000D02*
G75*
G02*
X152650000Y-86400000I-3450000J0D01*
G01*
X152650000Y-86400000D02*
G75*
G02*
X159550000Y-86400000I3450000J0D01*
G01*
G04 #@! TO.C,C1*
X146820000Y-101120000D02*
X150580000Y-101120000D01*
X146820000Y-103080000D02*
X146820000Y-101120000D01*
X150580000Y-101120000D02*
X150580000Y-103080000D01*
X150580000Y-103080000D02*
X146820000Y-103080000D01*
G04 #@! TO.C,C39*
X140050000Y-153987500D02*
X140050000Y-156087500D01*
X140050000Y-156087500D02*
X141300000Y-156087500D01*
X141300000Y-152637500D02*
X141300000Y-153987500D01*
X141300000Y-152637500D02*
X142450000Y-151487500D01*
X141300000Y-153987500D02*
X140050000Y-153987500D01*
X141300000Y-156087500D02*
X141300000Y-157437500D01*
X141300000Y-157437500D02*
X142450000Y-158587500D01*
X142450000Y-151487500D02*
X148400000Y-151487500D01*
X142450000Y-158587500D02*
X148400000Y-158587500D01*
X148400000Y-151487500D02*
X148400000Y-153987500D01*
X148400000Y-153987500D02*
X149650000Y-153987500D01*
X148400000Y-156087500D02*
X148400000Y-158587500D01*
X149650000Y-153987500D02*
X149650000Y-156087500D01*
X149650000Y-156087500D02*
X148400000Y-156087500D01*
G04 #@! TO.C,R37*
X140150000Y-127250000D02*
X143850000Y-127250000D01*
X140150000Y-129150000D02*
X140150000Y-127250000D01*
X143850000Y-127250000D02*
X143850000Y-129150000D01*
X143850000Y-129150000D02*
X140150000Y-129150000D01*
G04 #@! TO.C,C3*
X106120000Y-89982500D02*
X108080000Y-89982500D01*
X106120000Y-93742500D02*
X106120000Y-89982500D01*
X108080000Y-89982500D02*
X108080000Y-93742500D01*
X108080000Y-93742500D02*
X106120000Y-93742500D01*
G04 #@! TO.C,C10*
X125550000Y-134957500D02*
X127850000Y-134957500D01*
X125550000Y-139917500D02*
X125550000Y-134957500D01*
X127850000Y-134957500D02*
X127850000Y-139917500D01*
X127850000Y-139917500D02*
X125550000Y-139917500D01*
G04 #@! TO.C,R36*
X140150000Y-129350000D02*
X143850000Y-129350000D01*
X140150000Y-131250000D02*
X140150000Y-129350000D01*
X143850000Y-129350000D02*
X143850000Y-131250000D01*
X143850000Y-131250000D02*
X140150000Y-131250000D01*
G04 #@! TO.C,C8*
X129120000Y-134920000D02*
X131080000Y-134920000D01*
X129120000Y-138680000D02*
X129120000Y-134920000D01*
X131080000Y-134920000D02*
X131080000Y-138680000D01*
X131080000Y-138680000D02*
X129120000Y-138680000D01*
G04 #@! TO.C,C22*
X147770000Y-127557500D02*
X149730000Y-127557500D01*
X147770000Y-131317500D02*
X147770000Y-127557500D01*
X149730000Y-127557500D02*
X149730000Y-131317500D01*
X149730000Y-131317500D02*
X147770000Y-131317500D01*
G04 #@! TO.C,R28*
X128950000Y-123150000D02*
X130850000Y-123150000D01*
X128950000Y-126850000D02*
X128950000Y-123150000D01*
X130850000Y-123150000D02*
X130850000Y-126850000D01*
X130850000Y-126850000D02*
X128950000Y-126850000D01*
G04 #@! TO.C,Q3*
X135655000Y-139450000D02*
X135655000Y-142850000D01*
X135655000Y-142850000D02*
X139495000Y-142850000D01*
X139495000Y-139450000D02*
X135655000Y-139450000D01*
X139495000Y-142850000D02*
X139495000Y-139450000D01*
G04 #@! TO.C,C30*
X101520000Y-158220000D02*
X105280000Y-158220000D01*
X101520000Y-160180000D02*
X101520000Y-158220000D01*
X105280000Y-158220000D02*
X105280000Y-160180000D01*
X105280000Y-160180000D02*
X101520000Y-160180000D01*
G04 #@! TO.C,U9*
X101250000Y-105280000D02*
X101250000Y-108320000D01*
X101250000Y-108320000D02*
X103750000Y-108320000D01*
X103750000Y-105280000D02*
X101250000Y-105280000D01*
X103750000Y-108320000D02*
X103750000Y-105280000D01*
G04 #@! TO.C,R23*
X103650000Y-152750000D02*
X107350000Y-152750000D01*
X103650000Y-154650000D02*
X103650000Y-152750000D01*
X107350000Y-152750000D02*
X107350000Y-154650000D01*
X107350000Y-154650000D02*
X103650000Y-154650000D01*
G04 #@! TO.C,R22*
X103650000Y-148550000D02*
X107350000Y-148550000D01*
X103650000Y-150450000D02*
X103650000Y-148550000D01*
X107350000Y-148550000D02*
X107350000Y-150450000D01*
X107350000Y-150450000D02*
X103650000Y-150450000D01*
G04 #@! TO.C,C18*
X111720000Y-135995000D02*
X113680000Y-135995000D01*
X111720000Y-139755000D02*
X111720000Y-135995000D01*
X113680000Y-135995000D02*
X113680000Y-139755000D01*
X113680000Y-139755000D02*
X111720000Y-139755000D01*
G04 #@! TO.C,C33*
X135220000Y-131420000D02*
X138980000Y-131420000D01*
X135220000Y-133380000D02*
X135220000Y-131420000D01*
X138980000Y-131420000D02*
X138980000Y-133380000D01*
X138980000Y-133380000D02*
X135220000Y-133380000D01*
G04 #@! TO.C,C27*
X99720000Y-146420000D02*
X103480000Y-146420000D01*
X99720000Y-148380000D02*
X99720000Y-146420000D01*
X103480000Y-146420000D02*
X103480000Y-148380000D01*
X103480000Y-148380000D02*
X99720000Y-148380000D01*
G04 #@! TO.C,C38*
X141070000Y-147320000D02*
X143030000Y-147320000D01*
X141070000Y-151080000D02*
X141070000Y-147320000D01*
X143030000Y-147320000D02*
X143030000Y-151080000D01*
X143030000Y-151080000D02*
X141070000Y-151080000D01*
G04 #@! TO.C,D4*
X155820000Y-92050000D02*
X159180000Y-92050000D01*
X155820000Y-93950000D02*
X155820000Y-92050000D01*
X159180000Y-92050000D02*
X159180000Y-93950000D01*
X159180000Y-93950000D02*
X155820000Y-93950000D01*
G04 #@! TD*
M02*
