%TF.GenerationSoftware,KiCad,Pcbnew,8.0.4*%
%TF.CreationDate,2025-04-22T14:39:34+02:00*%
%TF.ProjectId,MarvinProjekt,4d617276-696e-4507-926f-6a656b742e6b,rev?*%
%TF.SameCoordinates,Original*%
%TF.FileFunction,Drillmap*%
%TF.FilePolarity,Positive*%
%FSLAX45Y45*%
G04 Gerber Fmt 4.5, Leading zero omitted, Abs format (unit mm)*
G04 Created by KiCad (PCBNEW 8.0.4) date 2025-04-22 14:39:34*
%MOMM*%
%LPD*%
G01*
G04 APERTURE LIST*
%ADD10C,0.050000*%
%ADD11C,0.200000*%
%ADD12C,0.100000*%
%ADD13C,0.160000*%
%ADD14C,0.239000*%
G04 APERTURE END LIST*
D10*
X8680000Y-8270000D02*
X15990000Y-8270000D01*
X15990000Y-16950000D01*
X8680000Y-16950000D01*
X8680000Y-8270000D01*
D11*
D12*
X8785000Y-12625000D02*
X8815000Y-12655000D01*
X8815000Y-12625000D02*
X8785000Y-12655000D01*
X9162500Y-9301500D02*
X9192500Y-9331500D01*
X9192500Y-9301500D02*
X9162500Y-9331500D01*
X9162500Y-9801500D02*
X9192500Y-9831500D01*
X9192500Y-9801500D02*
X9162500Y-9831500D01*
X9162500Y-10801500D02*
X9192500Y-10831500D01*
X9192500Y-10801500D02*
X9162500Y-10831500D01*
X9162500Y-13801500D02*
X9192500Y-13831500D01*
X9192500Y-13801500D02*
X9162500Y-13831500D01*
X9162500Y-14301500D02*
X9192500Y-14331500D01*
X9192500Y-14301500D02*
X9162500Y-14331500D01*
X9162500Y-15301500D02*
X9192500Y-15331500D01*
X9192500Y-15301500D02*
X9162500Y-15331500D01*
X9162500Y-15801500D02*
X9192500Y-15831500D01*
X9192500Y-15801500D02*
X9162500Y-15831500D01*
X9195000Y-11945000D02*
X9225000Y-11975000D01*
X9225000Y-11945000D02*
X9195000Y-11975000D01*
X9495000Y-11155000D02*
X9525000Y-11185000D01*
X9525000Y-11155000D02*
X9495000Y-11185000D01*
X9495000Y-11315000D02*
X9525000Y-11345000D01*
X9525000Y-11315000D02*
X9495000Y-11345000D01*
X9495000Y-11395000D02*
X9525000Y-11425000D01*
X9525000Y-11395000D02*
X9495000Y-11425000D01*
X9662500Y-12801500D02*
X9692500Y-12831500D01*
X9692500Y-12801500D02*
X9662500Y-12831500D01*
X9662500Y-13801500D02*
X9692500Y-13831500D01*
X9692500Y-13801500D02*
X9662500Y-13831500D01*
X9662500Y-14301500D02*
X9692500Y-14331500D01*
X9692500Y-14301500D02*
X9662500Y-14331500D01*
X9662500Y-15301500D02*
X9692500Y-15331500D01*
X9692500Y-15301500D02*
X9662500Y-15331500D01*
X9662500Y-15801500D02*
X9692500Y-15831500D01*
X9692500Y-15801500D02*
X9662500Y-15831500D01*
X9662500Y-16301500D02*
X9692500Y-16331500D01*
X9692500Y-16301500D02*
X9662500Y-16331500D01*
X10065000Y-11055000D02*
X10095000Y-11085000D01*
X10095000Y-11055000D02*
X10065000Y-11085000D01*
X10065000Y-12135000D02*
X10095000Y-12165000D01*
X10095000Y-12135000D02*
X10065000Y-12165000D01*
X10075000Y-12365000D02*
X10105000Y-12395000D01*
X10105000Y-12365000D02*
X10075000Y-12395000D01*
X10115000Y-11655000D02*
X10145000Y-11685000D01*
X10145000Y-11655000D02*
X10115000Y-11685000D01*
X10145000Y-15485000D02*
X10175000Y-15515000D01*
X10175000Y-15485000D02*
X10145000Y-15515000D01*
X10162500Y-9801500D02*
X10192500Y-9831500D01*
X10192500Y-9801500D02*
X10162500Y-9831500D01*
X10162500Y-16301500D02*
X10192500Y-16331500D01*
X10192500Y-16301500D02*
X10162500Y-16331500D01*
X10162500Y-16801500D02*
X10192500Y-16831500D01*
X10192500Y-16801500D02*
X10162500Y-16831500D01*
X10214999Y-11645000D02*
X10244999Y-11675000D01*
X10244999Y-11645000D02*
X10214999Y-11675000D01*
X10295000Y-11645000D02*
X10325000Y-11675000D01*
X10325000Y-11645000D02*
X10295000Y-11675000D01*
X10355000Y-10925000D02*
X10385000Y-10955000D01*
X10385000Y-10925000D02*
X10355000Y-10955000D01*
X10375000Y-11122946D02*
X10405000Y-11152946D01*
X10405000Y-11122946D02*
X10375000Y-11152946D01*
X10375000Y-11202946D02*
X10405000Y-11232946D01*
X10405000Y-11202946D02*
X10375000Y-11232946D01*
X10375000Y-11282946D02*
X10405000Y-11312946D01*
X10405000Y-11282946D02*
X10375000Y-11312946D01*
X10375000Y-11362946D02*
X10405000Y-11392946D01*
X10405000Y-11362946D02*
X10375000Y-11392946D01*
X10375000Y-11645000D02*
X10405000Y-11675000D01*
X10405000Y-11645000D02*
X10375000Y-11675000D01*
X10400000Y-10145000D02*
X10430000Y-10175000D01*
X10430000Y-10145000D02*
X10400000Y-10175000D01*
X10440000Y-13248750D02*
X10470000Y-13278750D01*
X10470000Y-13248750D02*
X10440000Y-13278750D01*
X10445000Y-13695000D02*
X10475000Y-13725000D01*
X10475000Y-13695000D02*
X10445000Y-13725000D01*
X10450000Y-10505424D02*
X10480000Y-10535424D01*
X10480000Y-10505424D02*
X10450000Y-10535424D01*
X10490000Y-13463750D02*
X10520000Y-13493750D01*
X10520000Y-13463750D02*
X10490000Y-13493750D01*
X10515000Y-12225000D02*
X10545000Y-12255000D01*
X10545000Y-12225000D02*
X10515000Y-12255000D01*
X10550000Y-13615000D02*
X10580000Y-13645000D01*
X10580000Y-13615000D02*
X10550000Y-13645000D01*
X10575962Y-10184038D02*
X10605962Y-10214038D01*
X10605962Y-10184038D02*
X10575962Y-10214038D01*
X10592703Y-9808845D02*
X10622703Y-9838845D01*
X10622703Y-9808845D02*
X10592703Y-9838845D01*
X10615000Y-13885000D02*
X10645000Y-13915000D01*
X10645000Y-13885000D02*
X10615000Y-13915000D01*
X10662500Y-14301500D02*
X10692500Y-14331500D01*
X10692500Y-14301500D02*
X10662500Y-14331500D01*
X10662500Y-16801500D02*
X10692500Y-16831500D01*
X10692500Y-16801500D02*
X10662500Y-16831500D01*
X10735000Y-9965000D02*
X10765000Y-9995000D01*
X10765000Y-9965000D02*
X10735000Y-9995000D01*
X10765000Y-10605000D02*
X10795000Y-10635000D01*
X10795000Y-10605000D02*
X10765000Y-10635000D01*
X10775000Y-10505000D02*
X10805000Y-10535000D01*
X10805000Y-10505000D02*
X10775000Y-10535000D01*
X10825000Y-15415000D02*
X10855000Y-15445000D01*
X10855000Y-15415000D02*
X10825000Y-15445000D01*
X10875000Y-14335000D02*
X10905000Y-14365000D01*
X10905000Y-14335000D02*
X10875000Y-14365000D01*
X10885000Y-15275000D02*
X10915000Y-15305000D01*
X10915000Y-15275000D02*
X10885000Y-15305000D01*
X10979665Y-10935263D02*
X11009665Y-10965263D01*
X11009665Y-10935263D02*
X10979665Y-10965263D01*
X10979665Y-11020263D02*
X11009665Y-11050263D01*
X11009665Y-11020263D02*
X10979665Y-11050263D01*
X11055000Y-11985000D02*
X11085000Y-12015000D01*
X11085000Y-11985000D02*
X11055000Y-12015000D01*
X11075000Y-12755000D02*
X11105000Y-12785000D01*
X11105000Y-12755000D02*
X11075000Y-12785000D01*
X11075000Y-12865000D02*
X11105000Y-12895000D01*
X11105000Y-12865000D02*
X11075000Y-12895000D01*
X11075000Y-12975000D02*
X11105000Y-13005000D01*
X11105000Y-12975000D02*
X11075000Y-13005000D01*
X11084160Y-11225627D02*
X11114160Y-11255627D01*
X11114160Y-11225627D02*
X11084160Y-11255627D01*
X11085268Y-11145635D02*
X11115268Y-11175635D01*
X11115268Y-11145635D02*
X11085268Y-11175635D01*
X11091302Y-11305308D02*
X11121302Y-11335308D01*
X11121302Y-11305308D02*
X11091302Y-11335308D01*
X11106066Y-11383934D02*
X11136066Y-11413934D01*
X11136066Y-11383934D02*
X11106066Y-11413934D01*
X11125000Y-10665000D02*
X11155000Y-10695000D01*
X11155000Y-10665000D02*
X11125000Y-10695000D01*
X11145000Y-15005000D02*
X11175000Y-15035000D01*
X11175000Y-15005000D02*
X11145000Y-15035000D01*
X11145000Y-15265000D02*
X11175000Y-15295000D01*
X11175000Y-15265000D02*
X11145000Y-15295000D01*
X11160962Y-10230962D02*
X11190962Y-10260962D01*
X11190962Y-10230962D02*
X11160962Y-10260962D01*
X11162500Y-9301500D02*
X11192500Y-9331500D01*
X11192500Y-9301500D02*
X11162500Y-9331500D01*
X11162500Y-15801500D02*
X11192500Y-15831500D01*
X11192500Y-15801500D02*
X11162500Y-15831500D01*
X11162500Y-16801500D02*
X11192500Y-16831500D01*
X11192500Y-16801500D02*
X11162500Y-16831500D01*
X11175000Y-13315000D02*
X11205000Y-13345000D01*
X11205000Y-13315000D02*
X11175000Y-13345000D01*
X11175000Y-14235000D02*
X11205000Y-14265000D01*
X11205000Y-14235000D02*
X11175000Y-14265000D01*
X11195000Y-10105000D02*
X11225000Y-10135000D01*
X11225000Y-10105000D02*
X11195000Y-10135000D01*
X11285000Y-15265000D02*
X11315000Y-15295000D01*
X11315000Y-15265000D02*
X11285000Y-15295000D01*
X11325000Y-15005000D02*
X11355000Y-15035000D01*
X11355000Y-15005000D02*
X11325000Y-15035000D01*
X11365000Y-15295000D02*
X11395000Y-15325000D01*
X11395000Y-15295000D02*
X11365000Y-15325000D01*
X11425000Y-13505000D02*
X11455000Y-13535000D01*
X11455000Y-13505000D02*
X11425000Y-13535000D01*
X11435000Y-13085000D02*
X11465000Y-13115000D01*
X11465000Y-13085000D02*
X11435000Y-13115000D01*
X11455000Y-15300000D02*
X11485000Y-15330000D01*
X11485000Y-15300000D02*
X11455000Y-15330000D01*
X11535000Y-15295000D02*
X11565000Y-15325000D01*
X11565000Y-15295000D02*
X11535000Y-15325000D01*
X11609936Y-11979728D02*
X11639936Y-12009728D01*
X11639936Y-11979728D02*
X11609936Y-12009728D01*
X11662500Y-9301500D02*
X11692500Y-9331500D01*
X11692500Y-9301500D02*
X11662500Y-9331500D01*
X11662500Y-13801500D02*
X11692500Y-13831500D01*
X11692500Y-13801500D02*
X11662500Y-13831500D01*
X11662500Y-14301500D02*
X11692500Y-14331500D01*
X11692500Y-14301500D02*
X11662500Y-14331500D01*
X11662500Y-15801500D02*
X11692500Y-15831500D01*
X11692500Y-15801500D02*
X11662500Y-15831500D01*
X11662500Y-16301500D02*
X11692500Y-16331500D01*
X11692500Y-16301500D02*
X11662500Y-16331500D01*
X11665000Y-11060264D02*
X11695000Y-11090264D01*
X11695000Y-11060264D02*
X11665000Y-11090264D01*
X11788712Y-11061288D02*
X11818712Y-11091288D01*
X11818712Y-11061288D02*
X11788712Y-11091288D01*
X11805000Y-16005000D02*
X11835000Y-16035000D01*
X11835000Y-16005000D02*
X11805000Y-16035000D01*
X11835000Y-14715000D02*
X11865000Y-14745000D01*
X11865000Y-14715000D02*
X11835000Y-14745000D01*
X11908500Y-11088500D02*
X11938500Y-11118500D01*
X11938500Y-11088500D02*
X11908500Y-11118500D01*
X11935000Y-10655000D02*
X11965000Y-10685000D01*
X11965000Y-10655000D02*
X11935000Y-10685000D01*
X12035000Y-11115000D02*
X12065000Y-11145000D01*
X12065000Y-11115000D02*
X12035000Y-11145000D01*
X12065000Y-11345000D02*
X12095000Y-11375000D01*
X12095000Y-11345000D02*
X12065000Y-11375000D01*
X12162500Y-9801500D02*
X12192500Y-9831500D01*
X12192500Y-9801500D02*
X12162500Y-9831500D01*
X12162500Y-10301500D02*
X12192500Y-10331500D01*
X12192500Y-10301500D02*
X12162500Y-10331500D01*
X12162500Y-11801500D02*
X12192500Y-11831500D01*
X12192500Y-11801500D02*
X12162500Y-11831500D01*
X12162500Y-12301500D02*
X12192500Y-12331500D01*
X12192500Y-12301500D02*
X12162500Y-12331500D01*
X12162500Y-14801500D02*
X12192500Y-14831500D01*
X12192500Y-14801500D02*
X12162500Y-14831500D01*
X12162500Y-16301500D02*
X12192500Y-16331500D01*
X12192500Y-16301500D02*
X12162500Y-16331500D01*
X12205000Y-11125000D02*
X12235000Y-11155000D01*
X12235000Y-11125000D02*
X12205000Y-11155000D01*
X12285000Y-10665000D02*
X12315000Y-10695000D01*
X12315000Y-10665000D02*
X12285000Y-10695000D01*
X12325000Y-10505000D02*
X12355000Y-10535000D01*
X12355000Y-10505000D02*
X12325000Y-10535000D01*
X12345000Y-11765000D02*
X12375000Y-11795000D01*
X12375000Y-11765000D02*
X12345000Y-11795000D01*
X12415000Y-10615000D02*
X12445000Y-10645000D01*
X12445000Y-10615000D02*
X12415000Y-10645000D01*
X12435000Y-11745000D02*
X12465000Y-11775000D01*
X12465000Y-11745000D02*
X12435000Y-11775000D01*
X12475000Y-10495000D02*
X12505000Y-10525000D01*
X12505000Y-10495000D02*
X12475000Y-10525000D01*
X12535000Y-10685000D02*
X12565000Y-10715000D01*
X12565000Y-10685000D02*
X12535000Y-10715000D01*
X12535000Y-14235000D02*
X12565000Y-14265000D01*
X12565000Y-14235000D02*
X12535000Y-14265000D01*
X12545000Y-9175000D02*
X12575000Y-9205000D01*
X12575000Y-9175000D02*
X12545000Y-9205000D01*
X12545000Y-9315000D02*
X12575000Y-9345000D01*
X12575000Y-9315000D02*
X12545000Y-9345000D01*
X12575000Y-11115000D02*
X12605000Y-11145000D01*
X12605000Y-11115000D02*
X12575000Y-11145000D01*
X12595000Y-11285000D02*
X12625000Y-11315000D01*
X12625000Y-11285000D02*
X12595000Y-11315000D01*
X12662500Y-10801500D02*
X12692500Y-10831500D01*
X12692500Y-10801500D02*
X12662500Y-10831500D01*
X12662500Y-14301500D02*
X12692500Y-14331500D01*
X12692500Y-14301500D02*
X12662500Y-14331500D01*
X12662500Y-14801500D02*
X12692500Y-14831500D01*
X12692500Y-14801500D02*
X12662500Y-14831500D01*
X12662500Y-15301500D02*
X12692500Y-15331500D01*
X12692500Y-15301500D02*
X12662500Y-15331500D01*
X12665000Y-11355000D02*
X12695000Y-11385000D01*
X12695000Y-11355000D02*
X12665000Y-11385000D01*
X12775000Y-12425000D02*
X12805000Y-12455000D01*
X12805000Y-12425000D02*
X12775000Y-12455000D01*
X12785000Y-11331500D02*
X12815000Y-11361500D01*
X12815000Y-11331500D02*
X12785000Y-11361500D01*
X12835000Y-13695000D02*
X12865000Y-13725000D01*
X12865000Y-13695000D02*
X12835000Y-13725000D01*
X12865000Y-9815000D02*
X12895000Y-9845000D01*
X12895000Y-9815000D02*
X12865000Y-9845000D01*
X12955000Y-14235000D02*
X12985000Y-14265000D01*
X12985000Y-14235000D02*
X12955000Y-14265000D01*
X13055000Y-10475000D02*
X13085000Y-10505000D01*
X13085000Y-10475000D02*
X13055000Y-10505000D01*
X13085000Y-9855000D02*
X13115000Y-9885000D01*
X13115000Y-9855000D02*
X13085000Y-9885000D01*
X13120000Y-10535000D02*
X13150000Y-10565000D01*
X13150000Y-10535000D02*
X13120000Y-10565000D01*
X13162500Y-9301500D02*
X13192500Y-9331500D01*
X13192500Y-9301500D02*
X13162500Y-9331500D01*
X13162500Y-11801500D02*
X13192500Y-11831500D01*
X13192500Y-11801500D02*
X13162500Y-11831500D01*
X13162500Y-14801500D02*
X13192500Y-14831500D01*
X13192500Y-14801500D02*
X13162500Y-14831500D01*
X13162500Y-15801500D02*
X13192500Y-15831500D01*
X13192500Y-15801500D02*
X13162500Y-15831500D01*
X13162500Y-16301500D02*
X13192500Y-16331500D01*
X13192500Y-16301500D02*
X13162500Y-16331500D01*
X13162500Y-16801500D02*
X13192500Y-16831500D01*
X13192500Y-16801500D02*
X13162500Y-16831500D01*
X13175000Y-9725000D02*
X13205000Y-9755000D01*
X13205000Y-9725000D02*
X13175000Y-9755000D01*
X13185000Y-10445000D02*
X13215000Y-10475000D01*
X13215000Y-10445000D02*
X13185000Y-10475000D01*
X13275000Y-12865000D02*
X13305000Y-12895000D01*
X13305000Y-12865000D02*
X13275000Y-12895000D01*
X13335000Y-13095000D02*
X13365000Y-13125000D01*
X13365000Y-13095000D02*
X13335000Y-13125000D01*
X13345000Y-12595000D02*
X13375000Y-12625000D01*
X13375000Y-12595000D02*
X13345000Y-12625000D01*
X13395000Y-11115000D02*
X13425000Y-11145000D01*
X13425000Y-11115000D02*
X13395000Y-11145000D01*
X13465000Y-13695000D02*
X13495000Y-13725000D01*
X13495000Y-13695000D02*
X13465000Y-13725000D01*
X13495000Y-11085000D02*
X13525000Y-11115000D01*
X13525000Y-11085000D02*
X13495000Y-11115000D01*
X13575000Y-11045000D02*
X13605000Y-11075000D01*
X13605000Y-11045000D02*
X13575000Y-11075000D01*
X13595000Y-12575000D02*
X13625000Y-12605000D01*
X13625000Y-12575000D02*
X13595000Y-12605000D01*
X13662500Y-9301500D02*
X13692500Y-9331500D01*
X13692500Y-9301500D02*
X13662500Y-9331500D01*
X13662500Y-10301500D02*
X13692500Y-10331500D01*
X13692500Y-10301500D02*
X13662500Y-10331500D01*
X13662500Y-14301500D02*
X13692500Y-14331500D01*
X13692500Y-14301500D02*
X13662500Y-14331500D01*
X13662500Y-15801500D02*
X13692500Y-15831500D01*
X13692500Y-15801500D02*
X13662500Y-15831500D01*
X13662500Y-16801500D02*
X13692500Y-16831500D01*
X13692500Y-16801500D02*
X13662500Y-16831500D01*
X13675000Y-13825000D02*
X13705000Y-13855000D01*
X13705000Y-13825000D02*
X13675000Y-13855000D01*
X13935000Y-13305000D02*
X13965000Y-13335000D01*
X13965000Y-13305000D02*
X13935000Y-13335000D01*
X14162500Y-13801500D02*
X14192500Y-13831500D01*
X14192500Y-13801500D02*
X14162500Y-13831500D01*
X14162500Y-15801500D02*
X14192500Y-15831500D01*
X14192500Y-15801500D02*
X14162500Y-15831500D01*
X14162500Y-16801500D02*
X14192500Y-16831500D01*
X14192500Y-16801500D02*
X14162500Y-16831500D01*
X14267500Y-9782500D02*
X14297500Y-9812500D01*
X14297500Y-9782500D02*
X14267500Y-9812500D01*
X14267500Y-9867500D02*
X14297500Y-9897500D01*
X14297500Y-9867500D02*
X14267500Y-9897500D01*
X14449289Y-13425000D02*
X14479289Y-13455000D01*
X14479289Y-13425000D02*
X14449289Y-13455000D01*
X14662500Y-8801500D02*
X14692500Y-8831500D01*
X14692500Y-8801500D02*
X14662500Y-8831500D01*
X14662500Y-9301500D02*
X14692500Y-9331500D01*
X14692500Y-9301500D02*
X14662500Y-9331500D01*
X14662500Y-10801500D02*
X14692500Y-10831500D01*
X14692500Y-10801500D02*
X14662500Y-10831500D01*
X14662500Y-11301500D02*
X14692500Y-11331500D01*
X14692500Y-11301500D02*
X14662500Y-11331500D01*
X14662500Y-11801500D02*
X14692500Y-11831500D01*
X14692500Y-11801500D02*
X14662500Y-11831500D01*
X14662500Y-13801500D02*
X14692500Y-13831500D01*
X14692500Y-13801500D02*
X14662500Y-13831500D01*
X14662500Y-15301500D02*
X14692500Y-15331500D01*
X14692500Y-15301500D02*
X14662500Y-15331500D01*
X14662500Y-15801500D02*
X14692500Y-15831500D01*
X14692500Y-15801500D02*
X14662500Y-15831500D01*
X14662500Y-16301500D02*
X14692500Y-16331500D01*
X14692500Y-16301500D02*
X14662500Y-16331500D01*
X14662500Y-16801500D02*
X14692500Y-16831500D01*
X14692500Y-16801500D02*
X14662500Y-16831500D01*
X15025000Y-10385000D02*
X15055000Y-10415000D01*
X15055000Y-10385000D02*
X15025000Y-10415000D01*
X15055000Y-9085000D02*
X15085000Y-9115000D01*
X15085000Y-9085000D02*
X15055000Y-9115000D01*
X15055000Y-9205000D02*
X15085000Y-9235000D01*
X15085000Y-9205000D02*
X15055000Y-9235000D01*
X15105000Y-10075000D02*
X15135000Y-10105000D01*
X15135000Y-10075000D02*
X15105000Y-10105000D01*
X15162500Y-8801500D02*
X15192500Y-8831500D01*
X15192500Y-8801500D02*
X15162500Y-8831500D01*
X15162500Y-10801500D02*
X15192500Y-10831500D01*
X15192500Y-10801500D02*
X15162500Y-10831500D01*
X15162500Y-14301500D02*
X15192500Y-14331500D01*
X15192500Y-14301500D02*
X15162500Y-14331500D01*
X15162500Y-15301500D02*
X15192500Y-15331500D01*
X15192500Y-15301500D02*
X15162500Y-15331500D01*
X15162500Y-15801500D02*
X15192500Y-15831500D01*
X15192500Y-15801500D02*
X15162500Y-15831500D01*
X15162500Y-16301500D02*
X15192500Y-16331500D01*
X15192500Y-16301500D02*
X15162500Y-16331500D01*
X15162500Y-16801500D02*
X15192500Y-16831500D01*
X15192500Y-16801500D02*
X15162500Y-16831500D01*
X15662500Y-11301500D02*
X15692500Y-11331500D01*
X15692500Y-11301500D02*
X15662500Y-11331500D01*
X15662500Y-11801500D02*
X15692500Y-11831500D01*
X15692500Y-11801500D02*
X15662500Y-11831500D01*
X15662500Y-12301500D02*
X15692500Y-12331500D01*
X15692500Y-12301500D02*
X15662500Y-12331500D01*
X15662500Y-12801500D02*
X15692500Y-12831500D01*
X15692500Y-12801500D02*
X15662500Y-12831500D01*
X15662500Y-13301500D02*
X15692500Y-13331500D01*
X15692500Y-13301500D02*
X15662500Y-13331500D01*
X15662500Y-15301500D02*
X15692500Y-15331500D01*
X15692500Y-15301500D02*
X15662500Y-15331500D01*
X15662500Y-15801500D02*
X15692500Y-15831500D01*
X15692500Y-15801500D02*
X15662500Y-15831500D01*
X11585000Y-9770000D02*
G75*
G02*
X11555000Y-9770000I-15000J0D01*
G01*
X11555000Y-9770000D02*
G75*
G02*
X11585000Y-9770000I15000J0D01*
G01*
X11585000Y-9910000D02*
G75*
G02*
X11555000Y-9910000I-15000J0D01*
G01*
X11555000Y-9910000D02*
G75*
G02*
X11585000Y-9910000I15000J0D01*
G01*
X11655000Y-9700000D02*
G75*
G02*
X11625000Y-9700000I-15000J0D01*
G01*
X11625000Y-9700000D02*
G75*
G02*
X11655000Y-9700000I15000J0D01*
G01*
X11655000Y-9840000D02*
G75*
G02*
X11625000Y-9840000I-15000J0D01*
G01*
X11625000Y-9840000D02*
G75*
G02*
X11655000Y-9840000I15000J0D01*
G01*
X11655000Y-9980000D02*
G75*
G02*
X11625000Y-9980000I-15000J0D01*
G01*
X11625000Y-9980000D02*
G75*
G02*
X11655000Y-9980000I15000J0D01*
G01*
X11725000Y-9770000D02*
G75*
G02*
X11695000Y-9770000I-15000J0D01*
G01*
X11695000Y-9770000D02*
G75*
G02*
X11725000Y-9770000I15000J0D01*
G01*
X11725000Y-9910000D02*
G75*
G02*
X11695000Y-9910000I-15000J0D01*
G01*
X11695000Y-9910000D02*
G75*
G02*
X11725000Y-9910000I15000J0D01*
G01*
X11795000Y-9700000D02*
G75*
G02*
X11765000Y-9700000I-15000J0D01*
G01*
X11765000Y-9700000D02*
G75*
G02*
X11795000Y-9700000I15000J0D01*
G01*
X11795000Y-9840000D02*
G75*
G02*
X11765000Y-9840000I-15000J0D01*
G01*
X11765000Y-9840000D02*
G75*
G02*
X11795000Y-9840000I15000J0D01*
G01*
X11795000Y-9980000D02*
G75*
G02*
X11765000Y-9980000I-15000J0D01*
G01*
X11765000Y-9980000D02*
G75*
G02*
X11795000Y-9980000I15000J0D01*
G01*
X11865000Y-9770000D02*
G75*
G02*
X11835000Y-9770000I-15000J0D01*
G01*
X11835000Y-9770000D02*
G75*
G02*
X11865000Y-9770000I15000J0D01*
G01*
X11865000Y-9910000D02*
G75*
G02*
X11835000Y-9910000I-15000J0D01*
G01*
X11835000Y-9910000D02*
G75*
G02*
X11865000Y-9910000I15000J0D01*
G01*
X8865000Y-11955000D02*
X8865000Y-12005000D01*
X8840000Y-11980000D02*
X8890000Y-11980000D01*
X8865000Y-13635000D02*
X8865000Y-13685000D01*
X8840000Y-13660000D02*
X8890000Y-13660000D01*
X8880000Y-11085000D02*
X8880000Y-11135000D01*
X8855000Y-11110000D02*
X8905000Y-11110000D01*
X9080000Y-14655000D02*
X9080000Y-14705000D01*
X9055000Y-14680000D02*
X9105000Y-14680000D01*
X9840000Y-10895000D02*
X9840000Y-10945000D01*
X9815000Y-10920000D02*
X9865000Y-10920000D01*
X9840000Y-11965000D02*
X9840000Y-12015000D01*
X9815000Y-11990000D02*
X9865000Y-11990000D01*
X9840000Y-13225000D02*
X9840000Y-13275000D01*
X9815000Y-13250000D02*
X9865000Y-13250000D01*
X9840000Y-14525000D02*
X9840000Y-14575000D01*
X9815000Y-14550000D02*
X9865000Y-14550000D01*
X9970000Y-10445000D02*
X9970000Y-10495000D01*
X9945000Y-10470000D02*
X9995000Y-10470000D01*
X9970000Y-13875000D02*
X9970000Y-13925000D01*
X9945000Y-13900000D02*
X9995000Y-13900000D01*
X10180000Y-13185000D02*
X10180000Y-13235000D01*
X10155000Y-13210000D02*
X10205000Y-13210000D01*
X10280000Y-9235000D02*
X10280000Y-9285000D01*
X10255000Y-9260000D02*
X10305000Y-9260000D01*
X10640000Y-14615000D02*
X10640000Y-14665000D01*
X10615000Y-14640000D02*
X10665000Y-14640000D01*
X10730000Y-12005000D02*
X10730000Y-12055000D01*
X10705000Y-12030000D02*
X10755000Y-12030000D01*
X10785000Y-12440000D02*
X10785000Y-12490000D01*
X10760000Y-12465000D02*
X10810000Y-12465000D01*
X10930000Y-11675000D02*
X10930000Y-11725000D01*
X10905000Y-11700000D02*
X10955000Y-11700000D01*
X11020000Y-11485000D02*
X11020000Y-11535000D01*
X10995000Y-11510000D02*
X11045000Y-11510000D01*
X11360000Y-12855000D02*
X11360000Y-12905000D01*
X11335000Y-12880000D02*
X11385000Y-12880000D01*
X11550000Y-12775000D02*
X11550000Y-12825000D01*
X11525000Y-12800000D02*
X11575000Y-12800000D01*
X12980000Y-10045000D02*
X12980000Y-10095000D01*
X12955000Y-10070000D02*
X13005000Y-10070000D01*
X13010000Y-11035000D02*
X13010000Y-11085000D01*
X12985000Y-11060000D02*
X13035000Y-11060000D01*
X13030000Y-9535000D02*
X13030000Y-9585000D01*
X13005000Y-9560000D02*
X13055000Y-9560000D01*
X13160000Y-14235000D02*
X13160000Y-14285000D01*
X13135000Y-14260000D02*
X13185000Y-14260000D01*
X13464853Y-14370147D02*
X13464853Y-14420147D01*
X13439853Y-14395147D02*
X13489853Y-14395147D01*
X13470000Y-13925000D02*
X13470000Y-13975000D01*
X13445000Y-13950000D02*
X13495000Y-13950000D01*
X13740000Y-15478750D02*
X13740000Y-15528750D01*
X13715000Y-15503750D02*
X13765000Y-15503750D01*
X13770000Y-11035000D02*
X13770000Y-11085000D01*
X13745000Y-11060000D02*
X13795000Y-11060000D01*
X13790000Y-12375000D02*
X13790000Y-12425000D01*
X13765000Y-12400000D02*
X13815000Y-12400000D01*
X13830000Y-11695000D02*
X13830000Y-11745000D01*
X13805000Y-11720000D02*
X13855000Y-11720000D01*
X14030000Y-11915000D02*
X14030000Y-11965000D01*
X14005000Y-11940000D02*
X14055000Y-11940000D01*
X14070000Y-16168750D02*
X14070000Y-16218750D01*
X14045000Y-16193750D02*
X14095000Y-16193750D01*
X14330000Y-11075000D02*
X14330000Y-11125000D01*
X14305000Y-11100000D02*
X14355000Y-11100000D01*
X14340000Y-10865000D02*
X14340000Y-10915000D01*
X14315000Y-10890000D02*
X14365000Y-10890000D01*
X14460000Y-14565000D02*
X14460000Y-14615000D01*
X14435000Y-14590000D02*
X14485000Y-14590000D01*
X14600000Y-12185000D02*
X14600000Y-12235000D01*
X14575000Y-12210000D02*
X14625000Y-12210000D01*
X14890000Y-13405000D02*
X14890000Y-13455000D01*
X14865000Y-13430000D02*
X14915000Y-13430000D01*
X14925000Y-14100000D02*
X14925000Y-14150000D01*
X14900000Y-14125000D02*
X14950000Y-14125000D01*
X15220000Y-13875000D02*
X15220000Y-13925000D01*
X15195000Y-13900000D02*
X15245000Y-13900000D01*
X15450000Y-11085000D02*
X15450000Y-11135000D01*
X15425000Y-11110000D02*
X15475000Y-11110000D01*
X15890000Y-9685000D02*
X15890000Y-9735000D01*
X15865000Y-9710000D02*
X15915000Y-9710000D01*
X15372750Y-9544750D02*
X15372750Y-9495250D01*
X15323250Y-9495250D01*
X15323250Y-9544750D01*
X15372750Y-9544750D01*
X15303003Y-9555001D02*
X15392997Y-9555001D01*
X15392997Y-9484999D02*
G75*
G02*
X15392997Y-9555001I0J-35001D01*
G01*
X15392997Y-9484999D02*
X15303003Y-9484999D01*
X15303003Y-9484999D02*
G75*
G03*
X15303003Y-9555001I0J-35001D01*
G01*
X15372750Y-10408750D02*
X15372750Y-10359250D01*
X15323250Y-10359250D01*
X15323250Y-10408750D01*
X15372750Y-10408750D01*
X15303000Y-10419001D02*
X15393000Y-10419001D01*
X15393000Y-10348999D02*
G75*
G02*
X15393000Y-10419001I0J-35001D01*
G01*
X15393000Y-10348999D02*
X15303000Y-10348999D01*
X15303000Y-10348999D02*
G75*
G03*
X15303000Y-10419001I0J-35001D01*
G01*
X15792750Y-9544750D02*
X15792750Y-9495250D01*
X15743250Y-9495250D01*
X15743250Y-9544750D01*
X15792750Y-9544750D01*
X15733001Y-9555001D02*
X15802999Y-9555001D01*
X15802999Y-9484999D02*
G75*
G02*
X15802999Y-9555001I0J-35001D01*
G01*
X15802999Y-9484999D02*
X15733001Y-9484999D01*
X15733001Y-9484999D02*
G75*
G03*
X15733001Y-9555001I0J-35001D01*
G01*
X15792750Y-10408750D02*
X15792750Y-10359250D01*
X15743250Y-10359250D01*
X15743250Y-10408750D01*
X15792750Y-10408750D01*
X15733001Y-10419001D02*
X15802999Y-10419001D01*
X15802999Y-10348999D02*
G75*
G02*
X15802999Y-10419001I0J-35001D01*
G01*
X15802999Y-10348999D02*
X15733001Y-10348999D01*
X15733001Y-10348999D02*
G75*
G03*
X15733001Y-10419001I0J-35001D01*
G01*
X15800000Y-14220000D02*
X15840000Y-14180000D01*
X15800000Y-14140000D01*
X15760000Y-14180000D01*
X15800000Y-14220000D01*
X15765000Y-14220000D02*
X15835000Y-14220000D01*
X15835000Y-14140000D02*
G75*
G02*
X15835000Y-14220000I0J-40000D01*
G01*
X15835000Y-14140000D02*
X15765000Y-14140000D01*
X15765000Y-14140000D02*
G75*
G03*
X15765000Y-14220000I0J-40000D01*
G01*
X15800000Y-14430000D02*
X15840000Y-14390000D01*
X15800000Y-14350000D01*
X15760000Y-14390000D01*
X15800000Y-14430000D01*
X15800000Y-14630000D02*
X15840000Y-14590000D01*
X15800000Y-14550000D01*
X15760000Y-14590000D01*
X15800000Y-14630000D01*
X15800000Y-14830000D02*
X15840000Y-14790000D01*
X15800000Y-14750000D01*
X15760000Y-14790000D01*
X15800000Y-14830000D01*
X15800000Y-15040000D02*
X15840000Y-15000000D01*
X15800000Y-14960000D01*
X15760000Y-15000000D01*
X15800000Y-15040000D01*
X15765000Y-15040000D02*
X15835000Y-15040000D01*
X15835000Y-14960000D02*
G75*
G02*
X15835000Y-15040000I0J-40000D01*
G01*
X15835000Y-14960000D02*
X15765000Y-14960000D01*
X15765000Y-14960000D02*
G75*
G03*
X15765000Y-15040000I0J-40000D01*
G01*
X8890000Y-9376000D02*
X8990000Y-9476000D01*
X8990000Y-9376000D02*
X8890000Y-9476000D01*
X8990000Y-9426000D02*
G75*
G02*
X8890000Y-9426000I-50000J0D01*
G01*
X8890000Y-9426000D02*
G75*
G02*
X8990000Y-9426000I50000J0D01*
G01*
X8890000Y-9630000D02*
X8990000Y-9730000D01*
X8990000Y-9630000D02*
X8890000Y-9730000D01*
X8990000Y-9680000D02*
G75*
G02*
X8890000Y-9680000I-50000J0D01*
G01*
X8890000Y-9680000D02*
G75*
G02*
X8990000Y-9680000I50000J0D01*
G01*
X8890000Y-9884000D02*
X8990000Y-9984000D01*
X8990000Y-9884000D02*
X8890000Y-9984000D01*
X8990000Y-9934000D02*
G75*
G02*
X8890000Y-9934000I-50000J0D01*
G01*
X8890000Y-9934000D02*
G75*
G02*
X8990000Y-9934000I50000J0D01*
G01*
X8890000Y-10138000D02*
X8990000Y-10238000D01*
X8990000Y-10138000D02*
X8890000Y-10238000D01*
X8990000Y-10188000D02*
G75*
G02*
X8890000Y-10188000I-50000J0D01*
G01*
X8890000Y-10188000D02*
G75*
G02*
X8990000Y-10188000I50000J0D01*
G01*
X12050000Y-15266000D02*
X12150000Y-15366000D01*
X12150000Y-15266000D02*
X12050000Y-15366000D01*
X12150000Y-15316000D02*
G75*
G02*
X12050000Y-15316000I-50000J0D01*
G01*
X12050000Y-15316000D02*
G75*
G02*
X12150000Y-15316000I50000J0D01*
G01*
X12050000Y-15520000D02*
X12150000Y-15620000D01*
X12150000Y-15520000D02*
X12050000Y-15620000D01*
X12150000Y-15570000D02*
G75*
G02*
X12050000Y-15570000I-50000J0D01*
G01*
X12050000Y-15570000D02*
G75*
G02*
X12150000Y-15570000I50000J0D01*
G01*
X12050000Y-15774000D02*
X12150000Y-15874000D01*
X12150000Y-15774000D02*
X12050000Y-15874000D01*
X12150000Y-15824000D02*
G75*
G02*
X12050000Y-15824000I-50000J0D01*
G01*
X12050000Y-15824000D02*
G75*
G02*
X12150000Y-15824000I50000J0D01*
G01*
X12304000Y-15266000D02*
X12404000Y-15366000D01*
X12404000Y-15266000D02*
X12304000Y-15366000D01*
X12404000Y-15316000D02*
G75*
G02*
X12304000Y-15316000I-50000J0D01*
G01*
X12304000Y-15316000D02*
G75*
G02*
X12404000Y-15316000I50000J0D01*
G01*
X12304000Y-15520000D02*
X12404000Y-15620000D01*
X12404000Y-15520000D02*
X12304000Y-15620000D01*
X12404000Y-15570000D02*
G75*
G02*
X12304000Y-15570000I-50000J0D01*
G01*
X12304000Y-15570000D02*
G75*
G02*
X12404000Y-15570000I50000J0D01*
G01*
X12304000Y-15774000D02*
X12404000Y-15874000D01*
X12404000Y-15774000D02*
X12304000Y-15874000D01*
X12404000Y-15824000D02*
G75*
G02*
X12304000Y-15824000I-50000J0D01*
G01*
X12304000Y-15824000D02*
G75*
G02*
X12404000Y-15824000I50000J0D01*
G01*
D13*
X9692500Y-16610000D02*
X9852500Y-16770000D01*
X9852500Y-16610000D02*
X9692500Y-16770000D01*
X9772500Y-16610000D02*
X9772500Y-16770000D01*
X9692500Y-16690000D02*
X9852500Y-16690000D01*
X10312500Y-16610000D02*
X10472500Y-16770000D01*
X10472500Y-16610000D02*
X10312500Y-16770000D01*
X10392500Y-16610000D02*
X10392500Y-16770000D01*
X10312500Y-16690000D02*
X10472500Y-16690000D01*
X10800000Y-16610000D02*
X10960000Y-16770000D01*
X10960000Y-16610000D02*
X10800000Y-16770000D01*
X10880000Y-16610000D02*
X10880000Y-16770000D01*
X10800000Y-16690000D02*
X10960000Y-16690000D01*
X11420000Y-16610000D02*
X11580000Y-16770000D01*
X11580000Y-16610000D02*
X11420000Y-16770000D01*
X11500000Y-16610000D02*
X11500000Y-16770000D01*
X11420000Y-16690000D02*
X11580000Y-16690000D01*
X12040000Y-16610000D02*
X12200000Y-16770000D01*
X12200000Y-16610000D02*
X12040000Y-16770000D01*
X12120000Y-16610000D02*
X12120000Y-16770000D01*
X12040000Y-16690000D02*
X12200000Y-16690000D01*
X12660000Y-16610000D02*
X12820000Y-16770000D01*
X12820000Y-16610000D02*
X12660000Y-16770000D01*
X12740000Y-16610000D02*
X12740000Y-16770000D01*
X12660000Y-16690000D02*
X12820000Y-16690000D01*
D14*
X14040500Y-9230500D02*
X14279500Y-9469500D01*
X14279500Y-9230500D02*
X14040500Y-9469500D01*
X14244500Y-9434500D02*
X14244500Y-9265500D01*
X14075500Y-9265500D01*
X14075500Y-9434500D01*
X14244500Y-9434500D01*
X14040500Y-16390500D02*
X14279500Y-16629500D01*
X14279500Y-16390500D02*
X14040500Y-16629500D01*
X14244500Y-16594500D02*
X14244500Y-16425500D01*
X14075500Y-16425500D01*
X14075500Y-16594500D01*
X14244500Y-16594500D01*
D11*
X8938277Y-17263984D02*
X8938277Y-17063984D01*
X8938277Y-17063984D02*
X8985896Y-17063984D01*
X8985896Y-17063984D02*
X9014467Y-17073508D01*
X9014467Y-17073508D02*
X9033515Y-17092555D01*
X9033515Y-17092555D02*
X9043039Y-17111603D01*
X9043039Y-17111603D02*
X9052563Y-17149698D01*
X9052563Y-17149698D02*
X9052563Y-17178270D01*
X9052563Y-17178270D02*
X9043039Y-17216365D01*
X9043039Y-17216365D02*
X9033515Y-17235412D01*
X9033515Y-17235412D02*
X9014467Y-17254460D01*
X9014467Y-17254460D02*
X8985896Y-17263984D01*
X8985896Y-17263984D02*
X8938277Y-17263984D01*
X9138277Y-17263984D02*
X9138277Y-17130650D01*
X9138277Y-17168746D02*
X9147801Y-17149698D01*
X9147801Y-17149698D02*
X9157324Y-17140174D01*
X9157324Y-17140174D02*
X9176372Y-17130650D01*
X9176372Y-17130650D02*
X9195420Y-17130650D01*
X9262086Y-17263984D02*
X9262086Y-17130650D01*
X9262086Y-17063984D02*
X9252563Y-17073508D01*
X9252563Y-17073508D02*
X9262086Y-17083031D01*
X9262086Y-17083031D02*
X9271610Y-17073508D01*
X9271610Y-17073508D02*
X9262086Y-17063984D01*
X9262086Y-17063984D02*
X9262086Y-17083031D01*
X9385896Y-17263984D02*
X9366848Y-17254460D01*
X9366848Y-17254460D02*
X9357324Y-17235412D01*
X9357324Y-17235412D02*
X9357324Y-17063984D01*
X9490658Y-17263984D02*
X9471610Y-17254460D01*
X9471610Y-17254460D02*
X9462086Y-17235412D01*
X9462086Y-17235412D02*
X9462086Y-17063984D01*
X9719229Y-17263984D02*
X9719229Y-17063984D01*
X9719229Y-17063984D02*
X9785896Y-17206841D01*
X9785896Y-17206841D02*
X9852563Y-17063984D01*
X9852563Y-17063984D02*
X9852563Y-17263984D01*
X10033515Y-17263984D02*
X10033515Y-17159222D01*
X10033515Y-17159222D02*
X10023991Y-17140174D01*
X10023991Y-17140174D02*
X10004944Y-17130650D01*
X10004944Y-17130650D02*
X9966848Y-17130650D01*
X9966848Y-17130650D02*
X9947801Y-17140174D01*
X10033515Y-17254460D02*
X10014467Y-17263984D01*
X10014467Y-17263984D02*
X9966848Y-17263984D01*
X9966848Y-17263984D02*
X9947801Y-17254460D01*
X9947801Y-17254460D02*
X9938277Y-17235412D01*
X9938277Y-17235412D02*
X9938277Y-17216365D01*
X9938277Y-17216365D02*
X9947801Y-17197317D01*
X9947801Y-17197317D02*
X9966848Y-17187793D01*
X9966848Y-17187793D02*
X10014467Y-17187793D01*
X10014467Y-17187793D02*
X10033515Y-17178270D01*
X10128753Y-17130650D02*
X10128753Y-17330650D01*
X10128753Y-17140174D02*
X10147801Y-17130650D01*
X10147801Y-17130650D02*
X10185896Y-17130650D01*
X10185896Y-17130650D02*
X10204944Y-17140174D01*
X10204944Y-17140174D02*
X10214467Y-17149698D01*
X10214467Y-17149698D02*
X10223991Y-17168746D01*
X10223991Y-17168746D02*
X10223991Y-17225889D01*
X10223991Y-17225889D02*
X10214467Y-17244936D01*
X10214467Y-17244936D02*
X10204944Y-17254460D01*
X10204944Y-17254460D02*
X10185896Y-17263984D01*
X10185896Y-17263984D02*
X10147801Y-17263984D01*
X10147801Y-17263984D02*
X10128753Y-17254460D01*
X10309705Y-17244936D02*
X10319229Y-17254460D01*
X10319229Y-17254460D02*
X10309705Y-17263984D01*
X10309705Y-17263984D02*
X10300182Y-17254460D01*
X10300182Y-17254460D02*
X10309705Y-17244936D01*
X10309705Y-17244936D02*
X10309705Y-17263984D01*
X10309705Y-17140174D02*
X10319229Y-17149698D01*
X10319229Y-17149698D02*
X10309705Y-17159222D01*
X10309705Y-17159222D02*
X10300182Y-17149698D01*
X10300182Y-17149698D02*
X10309705Y-17140174D01*
X10309705Y-17140174D02*
X10309705Y-17159222D01*
D12*
X8647500Y-17577500D02*
X8677500Y-17607500D01*
X8677500Y-17577500D02*
X8647500Y-17607500D01*
D11*
X8976372Y-17483984D02*
X8995420Y-17483984D01*
X8995420Y-17483984D02*
X9014467Y-17493508D01*
X9014467Y-17493508D02*
X9023991Y-17503031D01*
X9023991Y-17503031D02*
X9033515Y-17522079D01*
X9033515Y-17522079D02*
X9043039Y-17560174D01*
X9043039Y-17560174D02*
X9043039Y-17607793D01*
X9043039Y-17607793D02*
X9033515Y-17645889D01*
X9033515Y-17645889D02*
X9023991Y-17664936D01*
X9023991Y-17664936D02*
X9014467Y-17674460D01*
X9014467Y-17674460D02*
X8995420Y-17683984D01*
X8995420Y-17683984D02*
X8976372Y-17683984D01*
X8976372Y-17683984D02*
X8957324Y-17674460D01*
X8957324Y-17674460D02*
X8947801Y-17664936D01*
X8947801Y-17664936D02*
X8938277Y-17645889D01*
X8938277Y-17645889D02*
X8928753Y-17607793D01*
X8928753Y-17607793D02*
X8928753Y-17560174D01*
X8928753Y-17560174D02*
X8938277Y-17522079D01*
X8938277Y-17522079D02*
X8947801Y-17503031D01*
X8947801Y-17503031D02*
X8957324Y-17493508D01*
X8957324Y-17493508D02*
X8976372Y-17483984D01*
X9128753Y-17664936D02*
X9138277Y-17674460D01*
X9138277Y-17674460D02*
X9128753Y-17683984D01*
X9128753Y-17683984D02*
X9119229Y-17674460D01*
X9119229Y-17674460D02*
X9128753Y-17664936D01*
X9128753Y-17664936D02*
X9128753Y-17683984D01*
X9204944Y-17483984D02*
X9328753Y-17483984D01*
X9328753Y-17483984D02*
X9262086Y-17560174D01*
X9262086Y-17560174D02*
X9290658Y-17560174D01*
X9290658Y-17560174D02*
X9309705Y-17569698D01*
X9309705Y-17569698D02*
X9319229Y-17579222D01*
X9319229Y-17579222D02*
X9328753Y-17598270D01*
X9328753Y-17598270D02*
X9328753Y-17645889D01*
X9328753Y-17645889D02*
X9319229Y-17664936D01*
X9319229Y-17664936D02*
X9309705Y-17674460D01*
X9309705Y-17674460D02*
X9290658Y-17683984D01*
X9290658Y-17683984D02*
X9233515Y-17683984D01*
X9233515Y-17683984D02*
X9214467Y-17674460D01*
X9214467Y-17674460D02*
X9204944Y-17664936D01*
X9452563Y-17483984D02*
X9471610Y-17483984D01*
X9471610Y-17483984D02*
X9490658Y-17493508D01*
X9490658Y-17493508D02*
X9500182Y-17503031D01*
X9500182Y-17503031D02*
X9509705Y-17522079D01*
X9509705Y-17522079D02*
X9519229Y-17560174D01*
X9519229Y-17560174D02*
X9519229Y-17607793D01*
X9519229Y-17607793D02*
X9509705Y-17645889D01*
X9509705Y-17645889D02*
X9500182Y-17664936D01*
X9500182Y-17664936D02*
X9490658Y-17674460D01*
X9490658Y-17674460D02*
X9471610Y-17683984D01*
X9471610Y-17683984D02*
X9452563Y-17683984D01*
X9452563Y-17683984D02*
X9433515Y-17674460D01*
X9433515Y-17674460D02*
X9423991Y-17664936D01*
X9423991Y-17664936D02*
X9414467Y-17645889D01*
X9414467Y-17645889D02*
X9404944Y-17607793D01*
X9404944Y-17607793D02*
X9404944Y-17560174D01*
X9404944Y-17560174D02*
X9414467Y-17522079D01*
X9414467Y-17522079D02*
X9423991Y-17503031D01*
X9423991Y-17503031D02*
X9433515Y-17493508D01*
X9433515Y-17493508D02*
X9452563Y-17483984D01*
X9643039Y-17483984D02*
X9662086Y-17483984D01*
X9662086Y-17483984D02*
X9681134Y-17493508D01*
X9681134Y-17493508D02*
X9690658Y-17503031D01*
X9690658Y-17503031D02*
X9700182Y-17522079D01*
X9700182Y-17522079D02*
X9709705Y-17560174D01*
X9709705Y-17560174D02*
X9709705Y-17607793D01*
X9709705Y-17607793D02*
X9700182Y-17645889D01*
X9700182Y-17645889D02*
X9690658Y-17664936D01*
X9690658Y-17664936D02*
X9681134Y-17674460D01*
X9681134Y-17674460D02*
X9662086Y-17683984D01*
X9662086Y-17683984D02*
X9643039Y-17683984D01*
X9643039Y-17683984D02*
X9623991Y-17674460D01*
X9623991Y-17674460D02*
X9614467Y-17664936D01*
X9614467Y-17664936D02*
X9604944Y-17645889D01*
X9604944Y-17645889D02*
X9595420Y-17607793D01*
X9595420Y-17607793D02*
X9595420Y-17560174D01*
X9595420Y-17560174D02*
X9604944Y-17522079D01*
X9604944Y-17522079D02*
X9614467Y-17503031D01*
X9614467Y-17503031D02*
X9623991Y-17493508D01*
X9623991Y-17493508D02*
X9643039Y-17483984D01*
X9795420Y-17683984D02*
X9795420Y-17550650D01*
X9795420Y-17569698D02*
X9804944Y-17560174D01*
X9804944Y-17560174D02*
X9823991Y-17550650D01*
X9823991Y-17550650D02*
X9852563Y-17550650D01*
X9852563Y-17550650D02*
X9871610Y-17560174D01*
X9871610Y-17560174D02*
X9881134Y-17579222D01*
X9881134Y-17579222D02*
X9881134Y-17683984D01*
X9881134Y-17579222D02*
X9890658Y-17560174D01*
X9890658Y-17560174D02*
X9909705Y-17550650D01*
X9909705Y-17550650D02*
X9938277Y-17550650D01*
X9938277Y-17550650D02*
X9957325Y-17560174D01*
X9957325Y-17560174D02*
X9966848Y-17579222D01*
X9966848Y-17579222D02*
X9966848Y-17683984D01*
X10062086Y-17683984D02*
X10062086Y-17550650D01*
X10062086Y-17569698D02*
X10071610Y-17560174D01*
X10071610Y-17560174D02*
X10090658Y-17550650D01*
X10090658Y-17550650D02*
X10119229Y-17550650D01*
X10119229Y-17550650D02*
X10138277Y-17560174D01*
X10138277Y-17560174D02*
X10147801Y-17579222D01*
X10147801Y-17579222D02*
X10147801Y-17683984D01*
X10147801Y-17579222D02*
X10157325Y-17560174D01*
X10157325Y-17560174D02*
X10176372Y-17550650D01*
X10176372Y-17550650D02*
X10204944Y-17550650D01*
X10204944Y-17550650D02*
X10223991Y-17560174D01*
X10223991Y-17560174D02*
X10233515Y-17579222D01*
X10233515Y-17579222D02*
X10233515Y-17683984D01*
X10623991Y-17474460D02*
X10452563Y-17731603D01*
X10881134Y-17483984D02*
X10900182Y-17483984D01*
X10900182Y-17483984D02*
X10919229Y-17493508D01*
X10919229Y-17493508D02*
X10928753Y-17503031D01*
X10928753Y-17503031D02*
X10938277Y-17522079D01*
X10938277Y-17522079D02*
X10947801Y-17560174D01*
X10947801Y-17560174D02*
X10947801Y-17607793D01*
X10947801Y-17607793D02*
X10938277Y-17645889D01*
X10938277Y-17645889D02*
X10928753Y-17664936D01*
X10928753Y-17664936D02*
X10919229Y-17674460D01*
X10919229Y-17674460D02*
X10900182Y-17683984D01*
X10900182Y-17683984D02*
X10881134Y-17683984D01*
X10881134Y-17683984D02*
X10862087Y-17674460D01*
X10862087Y-17674460D02*
X10852563Y-17664936D01*
X10852563Y-17664936D02*
X10843039Y-17645889D01*
X10843039Y-17645889D02*
X10833515Y-17607793D01*
X10833515Y-17607793D02*
X10833515Y-17560174D01*
X10833515Y-17560174D02*
X10843039Y-17522079D01*
X10843039Y-17522079D02*
X10852563Y-17503031D01*
X10852563Y-17503031D02*
X10862087Y-17493508D01*
X10862087Y-17493508D02*
X10881134Y-17483984D01*
X11033515Y-17664936D02*
X11043039Y-17674460D01*
X11043039Y-17674460D02*
X11033515Y-17683984D01*
X11033515Y-17683984D02*
X11023991Y-17674460D01*
X11023991Y-17674460D02*
X11033515Y-17664936D01*
X11033515Y-17664936D02*
X11033515Y-17683984D01*
X11166848Y-17483984D02*
X11185896Y-17483984D01*
X11185896Y-17483984D02*
X11204944Y-17493508D01*
X11204944Y-17493508D02*
X11214467Y-17503031D01*
X11214467Y-17503031D02*
X11223991Y-17522079D01*
X11223991Y-17522079D02*
X11233515Y-17560174D01*
X11233515Y-17560174D02*
X11233515Y-17607793D01*
X11233515Y-17607793D02*
X11223991Y-17645889D01*
X11223991Y-17645889D02*
X11214467Y-17664936D01*
X11214467Y-17664936D02*
X11204944Y-17674460D01*
X11204944Y-17674460D02*
X11185896Y-17683984D01*
X11185896Y-17683984D02*
X11166848Y-17683984D01*
X11166848Y-17683984D02*
X11147801Y-17674460D01*
X11147801Y-17674460D02*
X11138277Y-17664936D01*
X11138277Y-17664936D02*
X11128753Y-17645889D01*
X11128753Y-17645889D02*
X11119229Y-17607793D01*
X11119229Y-17607793D02*
X11119229Y-17560174D01*
X11119229Y-17560174D02*
X11128753Y-17522079D01*
X11128753Y-17522079D02*
X11138277Y-17503031D01*
X11138277Y-17503031D02*
X11147801Y-17493508D01*
X11147801Y-17493508D02*
X11166848Y-17483984D01*
X11423991Y-17683984D02*
X11309706Y-17683984D01*
X11366848Y-17683984D02*
X11366848Y-17483984D01*
X11366848Y-17483984D02*
X11347801Y-17512555D01*
X11347801Y-17512555D02*
X11328753Y-17531603D01*
X11328753Y-17531603D02*
X11309706Y-17541127D01*
X11614467Y-17683984D02*
X11500182Y-17683984D01*
X11557325Y-17683984D02*
X11557325Y-17483984D01*
X11557325Y-17483984D02*
X11538277Y-17512555D01*
X11538277Y-17512555D02*
X11519229Y-17531603D01*
X11519229Y-17531603D02*
X11500182Y-17541127D01*
X11728753Y-17569698D02*
X11709706Y-17560174D01*
X11709706Y-17560174D02*
X11700182Y-17550650D01*
X11700182Y-17550650D02*
X11690658Y-17531603D01*
X11690658Y-17531603D02*
X11690658Y-17522079D01*
X11690658Y-17522079D02*
X11700182Y-17503031D01*
X11700182Y-17503031D02*
X11709706Y-17493508D01*
X11709706Y-17493508D02*
X11728753Y-17483984D01*
X11728753Y-17483984D02*
X11766848Y-17483984D01*
X11766848Y-17483984D02*
X11785896Y-17493508D01*
X11785896Y-17493508D02*
X11795420Y-17503031D01*
X11795420Y-17503031D02*
X11804944Y-17522079D01*
X11804944Y-17522079D02*
X11804944Y-17531603D01*
X11804944Y-17531603D02*
X11795420Y-17550650D01*
X11795420Y-17550650D02*
X11785896Y-17560174D01*
X11785896Y-17560174D02*
X11766848Y-17569698D01*
X11766848Y-17569698D02*
X11728753Y-17569698D01*
X11728753Y-17569698D02*
X11709706Y-17579222D01*
X11709706Y-17579222D02*
X11700182Y-17588746D01*
X11700182Y-17588746D02*
X11690658Y-17607793D01*
X11690658Y-17607793D02*
X11690658Y-17645889D01*
X11690658Y-17645889D02*
X11700182Y-17664936D01*
X11700182Y-17664936D02*
X11709706Y-17674460D01*
X11709706Y-17674460D02*
X11728753Y-17683984D01*
X11728753Y-17683984D02*
X11766848Y-17683984D01*
X11766848Y-17683984D02*
X11785896Y-17674460D01*
X11785896Y-17674460D02*
X11795420Y-17664936D01*
X11795420Y-17664936D02*
X11804944Y-17645889D01*
X11804944Y-17645889D02*
X11804944Y-17607793D01*
X11804944Y-17607793D02*
X11795420Y-17588746D01*
X11795420Y-17588746D02*
X11785896Y-17579222D01*
X11785896Y-17579222D02*
X11766848Y-17569698D01*
X11881134Y-17483984D02*
X11881134Y-17522079D01*
X11957325Y-17483984D02*
X11957325Y-17522079D01*
X12252563Y-17760174D02*
X12243039Y-17750650D01*
X12243039Y-17750650D02*
X12223991Y-17722079D01*
X12223991Y-17722079D02*
X12214468Y-17703031D01*
X12214468Y-17703031D02*
X12204944Y-17674460D01*
X12204944Y-17674460D02*
X12195420Y-17626841D01*
X12195420Y-17626841D02*
X12195420Y-17588746D01*
X12195420Y-17588746D02*
X12204944Y-17541127D01*
X12204944Y-17541127D02*
X12214468Y-17512555D01*
X12214468Y-17512555D02*
X12223991Y-17493508D01*
X12223991Y-17493508D02*
X12243039Y-17464936D01*
X12243039Y-17464936D02*
X12252563Y-17455412D01*
X12433515Y-17683984D02*
X12319229Y-17683984D01*
X12376372Y-17683984D02*
X12376372Y-17483984D01*
X12376372Y-17483984D02*
X12357325Y-17512555D01*
X12357325Y-17512555D02*
X12338277Y-17531603D01*
X12338277Y-17531603D02*
X12319229Y-17541127D01*
X12547801Y-17569698D02*
X12528753Y-17560174D01*
X12528753Y-17560174D02*
X12519229Y-17550650D01*
X12519229Y-17550650D02*
X12509706Y-17531603D01*
X12509706Y-17531603D02*
X12509706Y-17522079D01*
X12509706Y-17522079D02*
X12519229Y-17503031D01*
X12519229Y-17503031D02*
X12528753Y-17493508D01*
X12528753Y-17493508D02*
X12547801Y-17483984D01*
X12547801Y-17483984D02*
X12585896Y-17483984D01*
X12585896Y-17483984D02*
X12604944Y-17493508D01*
X12604944Y-17493508D02*
X12614468Y-17503031D01*
X12614468Y-17503031D02*
X12623991Y-17522079D01*
X12623991Y-17522079D02*
X12623991Y-17531603D01*
X12623991Y-17531603D02*
X12614468Y-17550650D01*
X12614468Y-17550650D02*
X12604944Y-17560174D01*
X12604944Y-17560174D02*
X12585896Y-17569698D01*
X12585896Y-17569698D02*
X12547801Y-17569698D01*
X12547801Y-17569698D02*
X12528753Y-17579222D01*
X12528753Y-17579222D02*
X12519229Y-17588746D01*
X12519229Y-17588746D02*
X12509706Y-17607793D01*
X12509706Y-17607793D02*
X12509706Y-17645889D01*
X12509706Y-17645889D02*
X12519229Y-17664936D01*
X12519229Y-17664936D02*
X12528753Y-17674460D01*
X12528753Y-17674460D02*
X12547801Y-17683984D01*
X12547801Y-17683984D02*
X12585896Y-17683984D01*
X12585896Y-17683984D02*
X12604944Y-17674460D01*
X12604944Y-17674460D02*
X12614468Y-17664936D01*
X12614468Y-17664936D02*
X12623991Y-17645889D01*
X12623991Y-17645889D02*
X12623991Y-17607793D01*
X12623991Y-17607793D02*
X12614468Y-17588746D01*
X12614468Y-17588746D02*
X12604944Y-17579222D01*
X12604944Y-17579222D02*
X12585896Y-17569698D01*
X12700182Y-17503031D02*
X12709706Y-17493508D01*
X12709706Y-17493508D02*
X12728753Y-17483984D01*
X12728753Y-17483984D02*
X12776372Y-17483984D01*
X12776372Y-17483984D02*
X12795420Y-17493508D01*
X12795420Y-17493508D02*
X12804944Y-17503031D01*
X12804944Y-17503031D02*
X12814468Y-17522079D01*
X12814468Y-17522079D02*
X12814468Y-17541127D01*
X12814468Y-17541127D02*
X12804944Y-17569698D01*
X12804944Y-17569698D02*
X12690658Y-17683984D01*
X12690658Y-17683984D02*
X12814468Y-17683984D01*
X13052563Y-17683984D02*
X13052563Y-17483984D01*
X13138277Y-17683984D02*
X13138277Y-17579222D01*
X13138277Y-17579222D02*
X13128753Y-17560174D01*
X13128753Y-17560174D02*
X13109706Y-17550650D01*
X13109706Y-17550650D02*
X13081134Y-17550650D01*
X13081134Y-17550650D02*
X13062087Y-17560174D01*
X13062087Y-17560174D02*
X13052563Y-17569698D01*
X13262087Y-17683984D02*
X13243039Y-17674460D01*
X13243039Y-17674460D02*
X13233515Y-17664936D01*
X13233515Y-17664936D02*
X13223991Y-17645889D01*
X13223991Y-17645889D02*
X13223991Y-17588746D01*
X13223991Y-17588746D02*
X13233515Y-17569698D01*
X13233515Y-17569698D02*
X13243039Y-17560174D01*
X13243039Y-17560174D02*
X13262087Y-17550650D01*
X13262087Y-17550650D02*
X13290658Y-17550650D01*
X13290658Y-17550650D02*
X13309706Y-17560174D01*
X13309706Y-17560174D02*
X13319230Y-17569698D01*
X13319230Y-17569698D02*
X13328753Y-17588746D01*
X13328753Y-17588746D02*
X13328753Y-17645889D01*
X13328753Y-17645889D02*
X13319230Y-17664936D01*
X13319230Y-17664936D02*
X13309706Y-17674460D01*
X13309706Y-17674460D02*
X13290658Y-17683984D01*
X13290658Y-17683984D02*
X13262087Y-17683984D01*
X13443039Y-17683984D02*
X13423991Y-17674460D01*
X13423991Y-17674460D02*
X13414468Y-17655412D01*
X13414468Y-17655412D02*
X13414468Y-17483984D01*
X13595420Y-17674460D02*
X13576372Y-17683984D01*
X13576372Y-17683984D02*
X13538277Y-17683984D01*
X13538277Y-17683984D02*
X13519230Y-17674460D01*
X13519230Y-17674460D02*
X13509706Y-17655412D01*
X13509706Y-17655412D02*
X13509706Y-17579222D01*
X13509706Y-17579222D02*
X13519230Y-17560174D01*
X13519230Y-17560174D02*
X13538277Y-17550650D01*
X13538277Y-17550650D02*
X13576372Y-17550650D01*
X13576372Y-17550650D02*
X13595420Y-17560174D01*
X13595420Y-17560174D02*
X13604944Y-17579222D01*
X13604944Y-17579222D02*
X13604944Y-17598270D01*
X13604944Y-17598270D02*
X13509706Y-17617317D01*
X13681134Y-17674460D02*
X13700182Y-17683984D01*
X13700182Y-17683984D02*
X13738277Y-17683984D01*
X13738277Y-17683984D02*
X13757325Y-17674460D01*
X13757325Y-17674460D02*
X13766849Y-17655412D01*
X13766849Y-17655412D02*
X13766849Y-17645889D01*
X13766849Y-17645889D02*
X13757325Y-17626841D01*
X13757325Y-17626841D02*
X13738277Y-17617317D01*
X13738277Y-17617317D02*
X13709706Y-17617317D01*
X13709706Y-17617317D02*
X13690658Y-17607793D01*
X13690658Y-17607793D02*
X13681134Y-17588746D01*
X13681134Y-17588746D02*
X13681134Y-17579222D01*
X13681134Y-17579222D02*
X13690658Y-17560174D01*
X13690658Y-17560174D02*
X13709706Y-17550650D01*
X13709706Y-17550650D02*
X13738277Y-17550650D01*
X13738277Y-17550650D02*
X13757325Y-17560174D01*
X13833515Y-17760174D02*
X13843039Y-17750650D01*
X13843039Y-17750650D02*
X13862087Y-17722079D01*
X13862087Y-17722079D02*
X13871611Y-17703031D01*
X13871611Y-17703031D02*
X13881134Y-17674460D01*
X13881134Y-17674460D02*
X13890658Y-17626841D01*
X13890658Y-17626841D02*
X13890658Y-17588746D01*
X13890658Y-17588746D02*
X13881134Y-17541127D01*
X13881134Y-17541127D02*
X13871611Y-17512555D01*
X13871611Y-17512555D02*
X13862087Y-17493508D01*
X13862087Y-17493508D02*
X13843039Y-17464936D01*
X13843039Y-17464936D02*
X13833515Y-17455412D01*
D12*
X8677500Y-17856500D02*
G75*
G02*
X8647500Y-17856500I-15000J0D01*
G01*
X8647500Y-17856500D02*
G75*
G02*
X8677500Y-17856500I15000J0D01*
G01*
D11*
X8976372Y-17747984D02*
X8995420Y-17747984D01*
X8995420Y-17747984D02*
X9014467Y-17757508D01*
X9014467Y-17757508D02*
X9023991Y-17767031D01*
X9023991Y-17767031D02*
X9033515Y-17786079D01*
X9033515Y-17786079D02*
X9043039Y-17824174D01*
X9043039Y-17824174D02*
X9043039Y-17871793D01*
X9043039Y-17871793D02*
X9033515Y-17909889D01*
X9033515Y-17909889D02*
X9023991Y-17928936D01*
X9023991Y-17928936D02*
X9014467Y-17938460D01*
X9014467Y-17938460D02*
X8995420Y-17947984D01*
X8995420Y-17947984D02*
X8976372Y-17947984D01*
X8976372Y-17947984D02*
X8957324Y-17938460D01*
X8957324Y-17938460D02*
X8947801Y-17928936D01*
X8947801Y-17928936D02*
X8938277Y-17909889D01*
X8938277Y-17909889D02*
X8928753Y-17871793D01*
X8928753Y-17871793D02*
X8928753Y-17824174D01*
X8928753Y-17824174D02*
X8938277Y-17786079D01*
X8938277Y-17786079D02*
X8947801Y-17767031D01*
X8947801Y-17767031D02*
X8957324Y-17757508D01*
X8957324Y-17757508D02*
X8976372Y-17747984D01*
X9128753Y-17928936D02*
X9138277Y-17938460D01*
X9138277Y-17938460D02*
X9128753Y-17947984D01*
X9128753Y-17947984D02*
X9119229Y-17938460D01*
X9119229Y-17938460D02*
X9128753Y-17928936D01*
X9128753Y-17928936D02*
X9128753Y-17947984D01*
X9204944Y-17747984D02*
X9328753Y-17747984D01*
X9328753Y-17747984D02*
X9262086Y-17824174D01*
X9262086Y-17824174D02*
X9290658Y-17824174D01*
X9290658Y-17824174D02*
X9309705Y-17833698D01*
X9309705Y-17833698D02*
X9319229Y-17843222D01*
X9319229Y-17843222D02*
X9328753Y-17862270D01*
X9328753Y-17862270D02*
X9328753Y-17909889D01*
X9328753Y-17909889D02*
X9319229Y-17928936D01*
X9319229Y-17928936D02*
X9309705Y-17938460D01*
X9309705Y-17938460D02*
X9290658Y-17947984D01*
X9290658Y-17947984D02*
X9233515Y-17947984D01*
X9233515Y-17947984D02*
X9214467Y-17938460D01*
X9214467Y-17938460D02*
X9204944Y-17928936D01*
X9452563Y-17747984D02*
X9471610Y-17747984D01*
X9471610Y-17747984D02*
X9490658Y-17757508D01*
X9490658Y-17757508D02*
X9500182Y-17767031D01*
X9500182Y-17767031D02*
X9509705Y-17786079D01*
X9509705Y-17786079D02*
X9519229Y-17824174D01*
X9519229Y-17824174D02*
X9519229Y-17871793D01*
X9519229Y-17871793D02*
X9509705Y-17909889D01*
X9509705Y-17909889D02*
X9500182Y-17928936D01*
X9500182Y-17928936D02*
X9490658Y-17938460D01*
X9490658Y-17938460D02*
X9471610Y-17947984D01*
X9471610Y-17947984D02*
X9452563Y-17947984D01*
X9452563Y-17947984D02*
X9433515Y-17938460D01*
X9433515Y-17938460D02*
X9423991Y-17928936D01*
X9423991Y-17928936D02*
X9414467Y-17909889D01*
X9414467Y-17909889D02*
X9404944Y-17871793D01*
X9404944Y-17871793D02*
X9404944Y-17824174D01*
X9404944Y-17824174D02*
X9414467Y-17786079D01*
X9414467Y-17786079D02*
X9423991Y-17767031D01*
X9423991Y-17767031D02*
X9433515Y-17757508D01*
X9433515Y-17757508D02*
X9452563Y-17747984D01*
X9643039Y-17747984D02*
X9662086Y-17747984D01*
X9662086Y-17747984D02*
X9681134Y-17757508D01*
X9681134Y-17757508D02*
X9690658Y-17767031D01*
X9690658Y-17767031D02*
X9700182Y-17786079D01*
X9700182Y-17786079D02*
X9709705Y-17824174D01*
X9709705Y-17824174D02*
X9709705Y-17871793D01*
X9709705Y-17871793D02*
X9700182Y-17909889D01*
X9700182Y-17909889D02*
X9690658Y-17928936D01*
X9690658Y-17928936D02*
X9681134Y-17938460D01*
X9681134Y-17938460D02*
X9662086Y-17947984D01*
X9662086Y-17947984D02*
X9643039Y-17947984D01*
X9643039Y-17947984D02*
X9623991Y-17938460D01*
X9623991Y-17938460D02*
X9614467Y-17928936D01*
X9614467Y-17928936D02*
X9604944Y-17909889D01*
X9604944Y-17909889D02*
X9595420Y-17871793D01*
X9595420Y-17871793D02*
X9595420Y-17824174D01*
X9595420Y-17824174D02*
X9604944Y-17786079D01*
X9604944Y-17786079D02*
X9614467Y-17767031D01*
X9614467Y-17767031D02*
X9623991Y-17757508D01*
X9623991Y-17757508D02*
X9643039Y-17747984D01*
X9795420Y-17947984D02*
X9795420Y-17814650D01*
X9795420Y-17833698D02*
X9804944Y-17824174D01*
X9804944Y-17824174D02*
X9823991Y-17814650D01*
X9823991Y-17814650D02*
X9852563Y-17814650D01*
X9852563Y-17814650D02*
X9871610Y-17824174D01*
X9871610Y-17824174D02*
X9881134Y-17843222D01*
X9881134Y-17843222D02*
X9881134Y-17947984D01*
X9881134Y-17843222D02*
X9890658Y-17824174D01*
X9890658Y-17824174D02*
X9909705Y-17814650D01*
X9909705Y-17814650D02*
X9938277Y-17814650D01*
X9938277Y-17814650D02*
X9957325Y-17824174D01*
X9957325Y-17824174D02*
X9966848Y-17843222D01*
X9966848Y-17843222D02*
X9966848Y-17947984D01*
X10062086Y-17947984D02*
X10062086Y-17814650D01*
X10062086Y-17833698D02*
X10071610Y-17824174D01*
X10071610Y-17824174D02*
X10090658Y-17814650D01*
X10090658Y-17814650D02*
X10119229Y-17814650D01*
X10119229Y-17814650D02*
X10138277Y-17824174D01*
X10138277Y-17824174D02*
X10147801Y-17843222D01*
X10147801Y-17843222D02*
X10147801Y-17947984D01*
X10147801Y-17843222D02*
X10157325Y-17824174D01*
X10157325Y-17824174D02*
X10176372Y-17814650D01*
X10176372Y-17814650D02*
X10204944Y-17814650D01*
X10204944Y-17814650D02*
X10223991Y-17824174D01*
X10223991Y-17824174D02*
X10233515Y-17843222D01*
X10233515Y-17843222D02*
X10233515Y-17947984D01*
X10623991Y-17738460D02*
X10452563Y-17995603D01*
X10881134Y-17747984D02*
X10900182Y-17747984D01*
X10900182Y-17747984D02*
X10919229Y-17757508D01*
X10919229Y-17757508D02*
X10928753Y-17767031D01*
X10928753Y-17767031D02*
X10938277Y-17786079D01*
X10938277Y-17786079D02*
X10947801Y-17824174D01*
X10947801Y-17824174D02*
X10947801Y-17871793D01*
X10947801Y-17871793D02*
X10938277Y-17909889D01*
X10938277Y-17909889D02*
X10928753Y-17928936D01*
X10928753Y-17928936D02*
X10919229Y-17938460D01*
X10919229Y-17938460D02*
X10900182Y-17947984D01*
X10900182Y-17947984D02*
X10881134Y-17947984D01*
X10881134Y-17947984D02*
X10862087Y-17938460D01*
X10862087Y-17938460D02*
X10852563Y-17928936D01*
X10852563Y-17928936D02*
X10843039Y-17909889D01*
X10843039Y-17909889D02*
X10833515Y-17871793D01*
X10833515Y-17871793D02*
X10833515Y-17824174D01*
X10833515Y-17824174D02*
X10843039Y-17786079D01*
X10843039Y-17786079D02*
X10852563Y-17767031D01*
X10852563Y-17767031D02*
X10862087Y-17757508D01*
X10862087Y-17757508D02*
X10881134Y-17747984D01*
X11033515Y-17928936D02*
X11043039Y-17938460D01*
X11043039Y-17938460D02*
X11033515Y-17947984D01*
X11033515Y-17947984D02*
X11023991Y-17938460D01*
X11023991Y-17938460D02*
X11033515Y-17928936D01*
X11033515Y-17928936D02*
X11033515Y-17947984D01*
X11166848Y-17747984D02*
X11185896Y-17747984D01*
X11185896Y-17747984D02*
X11204944Y-17757508D01*
X11204944Y-17757508D02*
X11214467Y-17767031D01*
X11214467Y-17767031D02*
X11223991Y-17786079D01*
X11223991Y-17786079D02*
X11233515Y-17824174D01*
X11233515Y-17824174D02*
X11233515Y-17871793D01*
X11233515Y-17871793D02*
X11223991Y-17909889D01*
X11223991Y-17909889D02*
X11214467Y-17928936D01*
X11214467Y-17928936D02*
X11204944Y-17938460D01*
X11204944Y-17938460D02*
X11185896Y-17947984D01*
X11185896Y-17947984D02*
X11166848Y-17947984D01*
X11166848Y-17947984D02*
X11147801Y-17938460D01*
X11147801Y-17938460D02*
X11138277Y-17928936D01*
X11138277Y-17928936D02*
X11128753Y-17909889D01*
X11128753Y-17909889D02*
X11119229Y-17871793D01*
X11119229Y-17871793D02*
X11119229Y-17824174D01*
X11119229Y-17824174D02*
X11128753Y-17786079D01*
X11128753Y-17786079D02*
X11138277Y-17767031D01*
X11138277Y-17767031D02*
X11147801Y-17757508D01*
X11147801Y-17757508D02*
X11166848Y-17747984D01*
X11423991Y-17947984D02*
X11309706Y-17947984D01*
X11366848Y-17947984D02*
X11366848Y-17747984D01*
X11366848Y-17747984D02*
X11347801Y-17776555D01*
X11347801Y-17776555D02*
X11328753Y-17795603D01*
X11328753Y-17795603D02*
X11309706Y-17805127D01*
X11614467Y-17947984D02*
X11500182Y-17947984D01*
X11557325Y-17947984D02*
X11557325Y-17747984D01*
X11557325Y-17747984D02*
X11538277Y-17776555D01*
X11538277Y-17776555D02*
X11519229Y-17795603D01*
X11519229Y-17795603D02*
X11500182Y-17805127D01*
X11728753Y-17833698D02*
X11709706Y-17824174D01*
X11709706Y-17824174D02*
X11700182Y-17814650D01*
X11700182Y-17814650D02*
X11690658Y-17795603D01*
X11690658Y-17795603D02*
X11690658Y-17786079D01*
X11690658Y-17786079D02*
X11700182Y-17767031D01*
X11700182Y-17767031D02*
X11709706Y-17757508D01*
X11709706Y-17757508D02*
X11728753Y-17747984D01*
X11728753Y-17747984D02*
X11766848Y-17747984D01*
X11766848Y-17747984D02*
X11785896Y-17757508D01*
X11785896Y-17757508D02*
X11795420Y-17767031D01*
X11795420Y-17767031D02*
X11804944Y-17786079D01*
X11804944Y-17786079D02*
X11804944Y-17795603D01*
X11804944Y-17795603D02*
X11795420Y-17814650D01*
X11795420Y-17814650D02*
X11785896Y-17824174D01*
X11785896Y-17824174D02*
X11766848Y-17833698D01*
X11766848Y-17833698D02*
X11728753Y-17833698D01*
X11728753Y-17833698D02*
X11709706Y-17843222D01*
X11709706Y-17843222D02*
X11700182Y-17852746D01*
X11700182Y-17852746D02*
X11690658Y-17871793D01*
X11690658Y-17871793D02*
X11690658Y-17909889D01*
X11690658Y-17909889D02*
X11700182Y-17928936D01*
X11700182Y-17928936D02*
X11709706Y-17938460D01*
X11709706Y-17938460D02*
X11728753Y-17947984D01*
X11728753Y-17947984D02*
X11766848Y-17947984D01*
X11766848Y-17947984D02*
X11785896Y-17938460D01*
X11785896Y-17938460D02*
X11795420Y-17928936D01*
X11795420Y-17928936D02*
X11804944Y-17909889D01*
X11804944Y-17909889D02*
X11804944Y-17871793D01*
X11804944Y-17871793D02*
X11795420Y-17852746D01*
X11795420Y-17852746D02*
X11785896Y-17843222D01*
X11785896Y-17843222D02*
X11766848Y-17833698D01*
X11881134Y-17747984D02*
X11881134Y-17786079D01*
X11957325Y-17747984D02*
X11957325Y-17786079D01*
X12252563Y-18024174D02*
X12243039Y-18014650D01*
X12243039Y-18014650D02*
X12223991Y-17986079D01*
X12223991Y-17986079D02*
X12214468Y-17967031D01*
X12214468Y-17967031D02*
X12204944Y-17938460D01*
X12204944Y-17938460D02*
X12195420Y-17890841D01*
X12195420Y-17890841D02*
X12195420Y-17852746D01*
X12195420Y-17852746D02*
X12204944Y-17805127D01*
X12204944Y-17805127D02*
X12214468Y-17776555D01*
X12214468Y-17776555D02*
X12223991Y-17757508D01*
X12223991Y-17757508D02*
X12243039Y-17728936D01*
X12243039Y-17728936D02*
X12252563Y-17719412D01*
X12433515Y-17947984D02*
X12319229Y-17947984D01*
X12376372Y-17947984D02*
X12376372Y-17747984D01*
X12376372Y-17747984D02*
X12357325Y-17776555D01*
X12357325Y-17776555D02*
X12338277Y-17795603D01*
X12338277Y-17795603D02*
X12319229Y-17805127D01*
X12509706Y-17767031D02*
X12519229Y-17757508D01*
X12519229Y-17757508D02*
X12538277Y-17747984D01*
X12538277Y-17747984D02*
X12585896Y-17747984D01*
X12585896Y-17747984D02*
X12604944Y-17757508D01*
X12604944Y-17757508D02*
X12614468Y-17767031D01*
X12614468Y-17767031D02*
X12623991Y-17786079D01*
X12623991Y-17786079D02*
X12623991Y-17805127D01*
X12623991Y-17805127D02*
X12614468Y-17833698D01*
X12614468Y-17833698D02*
X12500182Y-17947984D01*
X12500182Y-17947984D02*
X12623991Y-17947984D01*
X12862087Y-17947984D02*
X12862087Y-17747984D01*
X12947801Y-17947984D02*
X12947801Y-17843222D01*
X12947801Y-17843222D02*
X12938277Y-17824174D01*
X12938277Y-17824174D02*
X12919230Y-17814650D01*
X12919230Y-17814650D02*
X12890658Y-17814650D01*
X12890658Y-17814650D02*
X12871610Y-17824174D01*
X12871610Y-17824174D02*
X12862087Y-17833698D01*
X13071610Y-17947984D02*
X13052563Y-17938460D01*
X13052563Y-17938460D02*
X13043039Y-17928936D01*
X13043039Y-17928936D02*
X13033515Y-17909889D01*
X13033515Y-17909889D02*
X13033515Y-17852746D01*
X13033515Y-17852746D02*
X13043039Y-17833698D01*
X13043039Y-17833698D02*
X13052563Y-17824174D01*
X13052563Y-17824174D02*
X13071610Y-17814650D01*
X13071610Y-17814650D02*
X13100182Y-17814650D01*
X13100182Y-17814650D02*
X13119230Y-17824174D01*
X13119230Y-17824174D02*
X13128753Y-17833698D01*
X13128753Y-17833698D02*
X13138277Y-17852746D01*
X13138277Y-17852746D02*
X13138277Y-17909889D01*
X13138277Y-17909889D02*
X13128753Y-17928936D01*
X13128753Y-17928936D02*
X13119230Y-17938460D01*
X13119230Y-17938460D02*
X13100182Y-17947984D01*
X13100182Y-17947984D02*
X13071610Y-17947984D01*
X13252563Y-17947984D02*
X13233515Y-17938460D01*
X13233515Y-17938460D02*
X13223991Y-17919412D01*
X13223991Y-17919412D02*
X13223991Y-17747984D01*
X13404944Y-17938460D02*
X13385896Y-17947984D01*
X13385896Y-17947984D02*
X13347801Y-17947984D01*
X13347801Y-17947984D02*
X13328753Y-17938460D01*
X13328753Y-17938460D02*
X13319230Y-17919412D01*
X13319230Y-17919412D02*
X13319230Y-17843222D01*
X13319230Y-17843222D02*
X13328753Y-17824174D01*
X13328753Y-17824174D02*
X13347801Y-17814650D01*
X13347801Y-17814650D02*
X13385896Y-17814650D01*
X13385896Y-17814650D02*
X13404944Y-17824174D01*
X13404944Y-17824174D02*
X13414468Y-17843222D01*
X13414468Y-17843222D02*
X13414468Y-17862270D01*
X13414468Y-17862270D02*
X13319230Y-17881317D01*
X13490658Y-17938460D02*
X13509706Y-17947984D01*
X13509706Y-17947984D02*
X13547801Y-17947984D01*
X13547801Y-17947984D02*
X13566849Y-17938460D01*
X13566849Y-17938460D02*
X13576372Y-17919412D01*
X13576372Y-17919412D02*
X13576372Y-17909889D01*
X13576372Y-17909889D02*
X13566849Y-17890841D01*
X13566849Y-17890841D02*
X13547801Y-17881317D01*
X13547801Y-17881317D02*
X13519230Y-17881317D01*
X13519230Y-17881317D02*
X13500182Y-17871793D01*
X13500182Y-17871793D02*
X13490658Y-17852746D01*
X13490658Y-17852746D02*
X13490658Y-17843222D01*
X13490658Y-17843222D02*
X13500182Y-17824174D01*
X13500182Y-17824174D02*
X13519230Y-17814650D01*
X13519230Y-17814650D02*
X13547801Y-17814650D01*
X13547801Y-17814650D02*
X13566849Y-17824174D01*
X13643039Y-18024174D02*
X13652563Y-18014650D01*
X13652563Y-18014650D02*
X13671611Y-17986079D01*
X13671611Y-17986079D02*
X13681134Y-17967031D01*
X13681134Y-17967031D02*
X13690658Y-17938460D01*
X13690658Y-17938460D02*
X13700182Y-17890841D01*
X13700182Y-17890841D02*
X13700182Y-17852746D01*
X13700182Y-17852746D02*
X13690658Y-17805127D01*
X13690658Y-17805127D02*
X13681134Y-17776555D01*
X13681134Y-17776555D02*
X13671611Y-17757508D01*
X13671611Y-17757508D02*
X13652563Y-17728936D01*
X13652563Y-17728936D02*
X13643039Y-17719412D01*
D12*
X8652500Y-18095500D02*
X8652500Y-18145500D01*
X8627500Y-18120500D02*
X8677500Y-18120500D01*
D11*
X8976372Y-18011984D02*
X8995420Y-18011984D01*
X8995420Y-18011984D02*
X9014467Y-18021508D01*
X9014467Y-18021508D02*
X9023991Y-18031031D01*
X9023991Y-18031031D02*
X9033515Y-18050079D01*
X9033515Y-18050079D02*
X9043039Y-18088174D01*
X9043039Y-18088174D02*
X9043039Y-18135793D01*
X9043039Y-18135793D02*
X9033515Y-18173889D01*
X9033515Y-18173889D02*
X9023991Y-18192936D01*
X9023991Y-18192936D02*
X9014467Y-18202460D01*
X9014467Y-18202460D02*
X8995420Y-18211984D01*
X8995420Y-18211984D02*
X8976372Y-18211984D01*
X8976372Y-18211984D02*
X8957324Y-18202460D01*
X8957324Y-18202460D02*
X8947801Y-18192936D01*
X8947801Y-18192936D02*
X8938277Y-18173889D01*
X8938277Y-18173889D02*
X8928753Y-18135793D01*
X8928753Y-18135793D02*
X8928753Y-18088174D01*
X8928753Y-18088174D02*
X8938277Y-18050079D01*
X8938277Y-18050079D02*
X8947801Y-18031031D01*
X8947801Y-18031031D02*
X8957324Y-18021508D01*
X8957324Y-18021508D02*
X8976372Y-18011984D01*
X9128753Y-18192936D02*
X9138277Y-18202460D01*
X9138277Y-18202460D02*
X9128753Y-18211984D01*
X9128753Y-18211984D02*
X9119229Y-18202460D01*
X9119229Y-18202460D02*
X9128753Y-18192936D01*
X9128753Y-18192936D02*
X9128753Y-18211984D01*
X9319229Y-18011984D02*
X9223991Y-18011984D01*
X9223991Y-18011984D02*
X9214467Y-18107222D01*
X9214467Y-18107222D02*
X9223991Y-18097698D01*
X9223991Y-18097698D02*
X9243039Y-18088174D01*
X9243039Y-18088174D02*
X9290658Y-18088174D01*
X9290658Y-18088174D02*
X9309705Y-18097698D01*
X9309705Y-18097698D02*
X9319229Y-18107222D01*
X9319229Y-18107222D02*
X9328753Y-18126270D01*
X9328753Y-18126270D02*
X9328753Y-18173889D01*
X9328753Y-18173889D02*
X9319229Y-18192936D01*
X9319229Y-18192936D02*
X9309705Y-18202460D01*
X9309705Y-18202460D02*
X9290658Y-18211984D01*
X9290658Y-18211984D02*
X9243039Y-18211984D01*
X9243039Y-18211984D02*
X9223991Y-18202460D01*
X9223991Y-18202460D02*
X9214467Y-18192936D01*
X9452563Y-18011984D02*
X9471610Y-18011984D01*
X9471610Y-18011984D02*
X9490658Y-18021508D01*
X9490658Y-18021508D02*
X9500182Y-18031031D01*
X9500182Y-18031031D02*
X9509705Y-18050079D01*
X9509705Y-18050079D02*
X9519229Y-18088174D01*
X9519229Y-18088174D02*
X9519229Y-18135793D01*
X9519229Y-18135793D02*
X9509705Y-18173889D01*
X9509705Y-18173889D02*
X9500182Y-18192936D01*
X9500182Y-18192936D02*
X9490658Y-18202460D01*
X9490658Y-18202460D02*
X9471610Y-18211984D01*
X9471610Y-18211984D02*
X9452563Y-18211984D01*
X9452563Y-18211984D02*
X9433515Y-18202460D01*
X9433515Y-18202460D02*
X9423991Y-18192936D01*
X9423991Y-18192936D02*
X9414467Y-18173889D01*
X9414467Y-18173889D02*
X9404944Y-18135793D01*
X9404944Y-18135793D02*
X9404944Y-18088174D01*
X9404944Y-18088174D02*
X9414467Y-18050079D01*
X9414467Y-18050079D02*
X9423991Y-18031031D01*
X9423991Y-18031031D02*
X9433515Y-18021508D01*
X9433515Y-18021508D02*
X9452563Y-18011984D01*
X9643039Y-18011984D02*
X9662086Y-18011984D01*
X9662086Y-18011984D02*
X9681134Y-18021508D01*
X9681134Y-18021508D02*
X9690658Y-18031031D01*
X9690658Y-18031031D02*
X9700182Y-18050079D01*
X9700182Y-18050079D02*
X9709705Y-18088174D01*
X9709705Y-18088174D02*
X9709705Y-18135793D01*
X9709705Y-18135793D02*
X9700182Y-18173889D01*
X9700182Y-18173889D02*
X9690658Y-18192936D01*
X9690658Y-18192936D02*
X9681134Y-18202460D01*
X9681134Y-18202460D02*
X9662086Y-18211984D01*
X9662086Y-18211984D02*
X9643039Y-18211984D01*
X9643039Y-18211984D02*
X9623991Y-18202460D01*
X9623991Y-18202460D02*
X9614467Y-18192936D01*
X9614467Y-18192936D02*
X9604944Y-18173889D01*
X9604944Y-18173889D02*
X9595420Y-18135793D01*
X9595420Y-18135793D02*
X9595420Y-18088174D01*
X9595420Y-18088174D02*
X9604944Y-18050079D01*
X9604944Y-18050079D02*
X9614467Y-18031031D01*
X9614467Y-18031031D02*
X9623991Y-18021508D01*
X9623991Y-18021508D02*
X9643039Y-18011984D01*
X9795420Y-18211984D02*
X9795420Y-18078650D01*
X9795420Y-18097698D02*
X9804944Y-18088174D01*
X9804944Y-18088174D02*
X9823991Y-18078650D01*
X9823991Y-18078650D02*
X9852563Y-18078650D01*
X9852563Y-18078650D02*
X9871610Y-18088174D01*
X9871610Y-18088174D02*
X9881134Y-18107222D01*
X9881134Y-18107222D02*
X9881134Y-18211984D01*
X9881134Y-18107222D02*
X9890658Y-18088174D01*
X9890658Y-18088174D02*
X9909705Y-18078650D01*
X9909705Y-18078650D02*
X9938277Y-18078650D01*
X9938277Y-18078650D02*
X9957325Y-18088174D01*
X9957325Y-18088174D02*
X9966848Y-18107222D01*
X9966848Y-18107222D02*
X9966848Y-18211984D01*
X10062086Y-18211984D02*
X10062086Y-18078650D01*
X10062086Y-18097698D02*
X10071610Y-18088174D01*
X10071610Y-18088174D02*
X10090658Y-18078650D01*
X10090658Y-18078650D02*
X10119229Y-18078650D01*
X10119229Y-18078650D02*
X10138277Y-18088174D01*
X10138277Y-18088174D02*
X10147801Y-18107222D01*
X10147801Y-18107222D02*
X10147801Y-18211984D01*
X10147801Y-18107222D02*
X10157325Y-18088174D01*
X10157325Y-18088174D02*
X10176372Y-18078650D01*
X10176372Y-18078650D02*
X10204944Y-18078650D01*
X10204944Y-18078650D02*
X10223991Y-18088174D01*
X10223991Y-18088174D02*
X10233515Y-18107222D01*
X10233515Y-18107222D02*
X10233515Y-18211984D01*
X10623991Y-18002460D02*
X10452563Y-18259603D01*
X10881134Y-18011984D02*
X10900182Y-18011984D01*
X10900182Y-18011984D02*
X10919229Y-18021508D01*
X10919229Y-18021508D02*
X10928753Y-18031031D01*
X10928753Y-18031031D02*
X10938277Y-18050079D01*
X10938277Y-18050079D02*
X10947801Y-18088174D01*
X10947801Y-18088174D02*
X10947801Y-18135793D01*
X10947801Y-18135793D02*
X10938277Y-18173889D01*
X10938277Y-18173889D02*
X10928753Y-18192936D01*
X10928753Y-18192936D02*
X10919229Y-18202460D01*
X10919229Y-18202460D02*
X10900182Y-18211984D01*
X10900182Y-18211984D02*
X10881134Y-18211984D01*
X10881134Y-18211984D02*
X10862087Y-18202460D01*
X10862087Y-18202460D02*
X10852563Y-18192936D01*
X10852563Y-18192936D02*
X10843039Y-18173889D01*
X10843039Y-18173889D02*
X10833515Y-18135793D01*
X10833515Y-18135793D02*
X10833515Y-18088174D01*
X10833515Y-18088174D02*
X10843039Y-18050079D01*
X10843039Y-18050079D02*
X10852563Y-18031031D01*
X10852563Y-18031031D02*
X10862087Y-18021508D01*
X10862087Y-18021508D02*
X10881134Y-18011984D01*
X11033515Y-18192936D02*
X11043039Y-18202460D01*
X11043039Y-18202460D02*
X11033515Y-18211984D01*
X11033515Y-18211984D02*
X11023991Y-18202460D01*
X11023991Y-18202460D02*
X11033515Y-18192936D01*
X11033515Y-18192936D02*
X11033515Y-18211984D01*
X11166848Y-18011984D02*
X11185896Y-18011984D01*
X11185896Y-18011984D02*
X11204944Y-18021508D01*
X11204944Y-18021508D02*
X11214467Y-18031031D01*
X11214467Y-18031031D02*
X11223991Y-18050079D01*
X11223991Y-18050079D02*
X11233515Y-18088174D01*
X11233515Y-18088174D02*
X11233515Y-18135793D01*
X11233515Y-18135793D02*
X11223991Y-18173889D01*
X11223991Y-18173889D02*
X11214467Y-18192936D01*
X11214467Y-18192936D02*
X11204944Y-18202460D01*
X11204944Y-18202460D02*
X11185896Y-18211984D01*
X11185896Y-18211984D02*
X11166848Y-18211984D01*
X11166848Y-18211984D02*
X11147801Y-18202460D01*
X11147801Y-18202460D02*
X11138277Y-18192936D01*
X11138277Y-18192936D02*
X11128753Y-18173889D01*
X11128753Y-18173889D02*
X11119229Y-18135793D01*
X11119229Y-18135793D02*
X11119229Y-18088174D01*
X11119229Y-18088174D02*
X11128753Y-18050079D01*
X11128753Y-18050079D02*
X11138277Y-18031031D01*
X11138277Y-18031031D02*
X11147801Y-18021508D01*
X11147801Y-18021508D02*
X11166848Y-18011984D01*
X11423991Y-18211984D02*
X11309706Y-18211984D01*
X11366848Y-18211984D02*
X11366848Y-18011984D01*
X11366848Y-18011984D02*
X11347801Y-18040555D01*
X11347801Y-18040555D02*
X11328753Y-18059603D01*
X11328753Y-18059603D02*
X11309706Y-18069127D01*
X11519229Y-18211984D02*
X11557325Y-18211984D01*
X11557325Y-18211984D02*
X11576372Y-18202460D01*
X11576372Y-18202460D02*
X11585896Y-18192936D01*
X11585896Y-18192936D02*
X11604944Y-18164365D01*
X11604944Y-18164365D02*
X11614467Y-18126270D01*
X11614467Y-18126270D02*
X11614467Y-18050079D01*
X11614467Y-18050079D02*
X11604944Y-18031031D01*
X11604944Y-18031031D02*
X11595420Y-18021508D01*
X11595420Y-18021508D02*
X11576372Y-18011984D01*
X11576372Y-18011984D02*
X11538277Y-18011984D01*
X11538277Y-18011984D02*
X11519229Y-18021508D01*
X11519229Y-18021508D02*
X11509706Y-18031031D01*
X11509706Y-18031031D02*
X11500182Y-18050079D01*
X11500182Y-18050079D02*
X11500182Y-18097698D01*
X11500182Y-18097698D02*
X11509706Y-18116746D01*
X11509706Y-18116746D02*
X11519229Y-18126270D01*
X11519229Y-18126270D02*
X11538277Y-18135793D01*
X11538277Y-18135793D02*
X11576372Y-18135793D01*
X11576372Y-18135793D02*
X11595420Y-18126270D01*
X11595420Y-18126270D02*
X11604944Y-18116746D01*
X11604944Y-18116746D02*
X11614467Y-18097698D01*
X11681134Y-18011984D02*
X11814467Y-18011984D01*
X11814467Y-18011984D02*
X11728753Y-18211984D01*
X11881134Y-18011984D02*
X11881134Y-18050079D01*
X11957325Y-18011984D02*
X11957325Y-18050079D01*
X12252563Y-18288174D02*
X12243039Y-18278650D01*
X12243039Y-18278650D02*
X12223991Y-18250079D01*
X12223991Y-18250079D02*
X12214468Y-18231031D01*
X12214468Y-18231031D02*
X12204944Y-18202460D01*
X12204944Y-18202460D02*
X12195420Y-18154841D01*
X12195420Y-18154841D02*
X12195420Y-18116746D01*
X12195420Y-18116746D02*
X12204944Y-18069127D01*
X12204944Y-18069127D02*
X12214468Y-18040555D01*
X12214468Y-18040555D02*
X12223991Y-18021508D01*
X12223991Y-18021508D02*
X12243039Y-17992936D01*
X12243039Y-17992936D02*
X12252563Y-17983412D01*
X12414468Y-18078650D02*
X12414468Y-18211984D01*
X12366848Y-18002460D02*
X12319229Y-18145317D01*
X12319229Y-18145317D02*
X12443039Y-18145317D01*
X12557325Y-18011984D02*
X12576372Y-18011984D01*
X12576372Y-18011984D02*
X12595420Y-18021508D01*
X12595420Y-18021508D02*
X12604944Y-18031031D01*
X12604944Y-18031031D02*
X12614468Y-18050079D01*
X12614468Y-18050079D02*
X12623991Y-18088174D01*
X12623991Y-18088174D02*
X12623991Y-18135793D01*
X12623991Y-18135793D02*
X12614468Y-18173889D01*
X12614468Y-18173889D02*
X12604944Y-18192936D01*
X12604944Y-18192936D02*
X12595420Y-18202460D01*
X12595420Y-18202460D02*
X12576372Y-18211984D01*
X12576372Y-18211984D02*
X12557325Y-18211984D01*
X12557325Y-18211984D02*
X12538277Y-18202460D01*
X12538277Y-18202460D02*
X12528753Y-18192936D01*
X12528753Y-18192936D02*
X12519229Y-18173889D01*
X12519229Y-18173889D02*
X12509706Y-18135793D01*
X12509706Y-18135793D02*
X12509706Y-18088174D01*
X12509706Y-18088174D02*
X12519229Y-18050079D01*
X12519229Y-18050079D02*
X12528753Y-18031031D01*
X12528753Y-18031031D02*
X12538277Y-18021508D01*
X12538277Y-18021508D02*
X12557325Y-18011984D01*
X12862087Y-18211984D02*
X12862087Y-18011984D01*
X12947801Y-18211984D02*
X12947801Y-18107222D01*
X12947801Y-18107222D02*
X12938277Y-18088174D01*
X12938277Y-18088174D02*
X12919230Y-18078650D01*
X12919230Y-18078650D02*
X12890658Y-18078650D01*
X12890658Y-18078650D02*
X12871610Y-18088174D01*
X12871610Y-18088174D02*
X12862087Y-18097698D01*
X13071610Y-18211984D02*
X13052563Y-18202460D01*
X13052563Y-18202460D02*
X13043039Y-18192936D01*
X13043039Y-18192936D02*
X13033515Y-18173889D01*
X13033515Y-18173889D02*
X13033515Y-18116746D01*
X13033515Y-18116746D02*
X13043039Y-18097698D01*
X13043039Y-18097698D02*
X13052563Y-18088174D01*
X13052563Y-18088174D02*
X13071610Y-18078650D01*
X13071610Y-18078650D02*
X13100182Y-18078650D01*
X13100182Y-18078650D02*
X13119230Y-18088174D01*
X13119230Y-18088174D02*
X13128753Y-18097698D01*
X13128753Y-18097698D02*
X13138277Y-18116746D01*
X13138277Y-18116746D02*
X13138277Y-18173889D01*
X13138277Y-18173889D02*
X13128753Y-18192936D01*
X13128753Y-18192936D02*
X13119230Y-18202460D01*
X13119230Y-18202460D02*
X13100182Y-18211984D01*
X13100182Y-18211984D02*
X13071610Y-18211984D01*
X13252563Y-18211984D02*
X13233515Y-18202460D01*
X13233515Y-18202460D02*
X13223991Y-18183412D01*
X13223991Y-18183412D02*
X13223991Y-18011984D01*
X13404944Y-18202460D02*
X13385896Y-18211984D01*
X13385896Y-18211984D02*
X13347801Y-18211984D01*
X13347801Y-18211984D02*
X13328753Y-18202460D01*
X13328753Y-18202460D02*
X13319230Y-18183412D01*
X13319230Y-18183412D02*
X13319230Y-18107222D01*
X13319230Y-18107222D02*
X13328753Y-18088174D01*
X13328753Y-18088174D02*
X13347801Y-18078650D01*
X13347801Y-18078650D02*
X13385896Y-18078650D01*
X13385896Y-18078650D02*
X13404944Y-18088174D01*
X13404944Y-18088174D02*
X13414468Y-18107222D01*
X13414468Y-18107222D02*
X13414468Y-18126270D01*
X13414468Y-18126270D02*
X13319230Y-18145317D01*
X13490658Y-18202460D02*
X13509706Y-18211984D01*
X13509706Y-18211984D02*
X13547801Y-18211984D01*
X13547801Y-18211984D02*
X13566849Y-18202460D01*
X13566849Y-18202460D02*
X13576372Y-18183412D01*
X13576372Y-18183412D02*
X13576372Y-18173889D01*
X13576372Y-18173889D02*
X13566849Y-18154841D01*
X13566849Y-18154841D02*
X13547801Y-18145317D01*
X13547801Y-18145317D02*
X13519230Y-18145317D01*
X13519230Y-18145317D02*
X13500182Y-18135793D01*
X13500182Y-18135793D02*
X13490658Y-18116746D01*
X13490658Y-18116746D02*
X13490658Y-18107222D01*
X13490658Y-18107222D02*
X13500182Y-18088174D01*
X13500182Y-18088174D02*
X13519230Y-18078650D01*
X13519230Y-18078650D02*
X13547801Y-18078650D01*
X13547801Y-18078650D02*
X13566849Y-18088174D01*
X13643039Y-18288174D02*
X13652563Y-18278650D01*
X13652563Y-18278650D02*
X13671611Y-18250079D01*
X13671611Y-18250079D02*
X13681134Y-18231031D01*
X13681134Y-18231031D02*
X13690658Y-18202460D01*
X13690658Y-18202460D02*
X13700182Y-18154841D01*
X13700182Y-18154841D02*
X13700182Y-18116746D01*
X13700182Y-18116746D02*
X13690658Y-18069127D01*
X13690658Y-18069127D02*
X13681134Y-18040555D01*
X13681134Y-18040555D02*
X13671611Y-18021508D01*
X13671611Y-18021508D02*
X13652563Y-17992936D01*
X13652563Y-17992936D02*
X13643039Y-17983412D01*
D12*
X8667249Y-18409250D02*
X8667249Y-18359750D01*
X8617749Y-18359750D01*
X8617749Y-18409250D01*
X8667249Y-18409250D01*
D11*
X8976372Y-18275984D02*
X8995420Y-18275984D01*
X8995420Y-18275984D02*
X9014467Y-18285508D01*
X9014467Y-18285508D02*
X9023991Y-18295031D01*
X9023991Y-18295031D02*
X9033515Y-18314079D01*
X9033515Y-18314079D02*
X9043039Y-18352174D01*
X9043039Y-18352174D02*
X9043039Y-18399793D01*
X9043039Y-18399793D02*
X9033515Y-18437889D01*
X9033515Y-18437889D02*
X9023991Y-18456936D01*
X9023991Y-18456936D02*
X9014467Y-18466460D01*
X9014467Y-18466460D02*
X8995420Y-18475984D01*
X8995420Y-18475984D02*
X8976372Y-18475984D01*
X8976372Y-18475984D02*
X8957324Y-18466460D01*
X8957324Y-18466460D02*
X8947801Y-18456936D01*
X8947801Y-18456936D02*
X8938277Y-18437889D01*
X8938277Y-18437889D02*
X8928753Y-18399793D01*
X8928753Y-18399793D02*
X8928753Y-18352174D01*
X8928753Y-18352174D02*
X8938277Y-18314079D01*
X8938277Y-18314079D02*
X8947801Y-18295031D01*
X8947801Y-18295031D02*
X8957324Y-18285508D01*
X8957324Y-18285508D02*
X8976372Y-18275984D01*
X9128753Y-18456936D02*
X9138277Y-18466460D01*
X9138277Y-18466460D02*
X9128753Y-18475984D01*
X9128753Y-18475984D02*
X9119229Y-18466460D01*
X9119229Y-18466460D02*
X9128753Y-18456936D01*
X9128753Y-18456936D02*
X9128753Y-18475984D01*
X9204944Y-18275984D02*
X9338277Y-18275984D01*
X9338277Y-18275984D02*
X9252563Y-18475984D01*
X9452563Y-18275984D02*
X9471610Y-18275984D01*
X9471610Y-18275984D02*
X9490658Y-18285508D01*
X9490658Y-18285508D02*
X9500182Y-18295031D01*
X9500182Y-18295031D02*
X9509705Y-18314079D01*
X9509705Y-18314079D02*
X9519229Y-18352174D01*
X9519229Y-18352174D02*
X9519229Y-18399793D01*
X9519229Y-18399793D02*
X9509705Y-18437889D01*
X9509705Y-18437889D02*
X9500182Y-18456936D01*
X9500182Y-18456936D02*
X9490658Y-18466460D01*
X9490658Y-18466460D02*
X9471610Y-18475984D01*
X9471610Y-18475984D02*
X9452563Y-18475984D01*
X9452563Y-18475984D02*
X9433515Y-18466460D01*
X9433515Y-18466460D02*
X9423991Y-18456936D01*
X9423991Y-18456936D02*
X9414467Y-18437889D01*
X9414467Y-18437889D02*
X9404944Y-18399793D01*
X9404944Y-18399793D02*
X9404944Y-18352174D01*
X9404944Y-18352174D02*
X9414467Y-18314079D01*
X9414467Y-18314079D02*
X9423991Y-18295031D01*
X9423991Y-18295031D02*
X9433515Y-18285508D01*
X9433515Y-18285508D02*
X9452563Y-18275984D01*
X9643039Y-18275984D02*
X9662086Y-18275984D01*
X9662086Y-18275984D02*
X9681134Y-18285508D01*
X9681134Y-18285508D02*
X9690658Y-18295031D01*
X9690658Y-18295031D02*
X9700182Y-18314079D01*
X9700182Y-18314079D02*
X9709705Y-18352174D01*
X9709705Y-18352174D02*
X9709705Y-18399793D01*
X9709705Y-18399793D02*
X9700182Y-18437889D01*
X9700182Y-18437889D02*
X9690658Y-18456936D01*
X9690658Y-18456936D02*
X9681134Y-18466460D01*
X9681134Y-18466460D02*
X9662086Y-18475984D01*
X9662086Y-18475984D02*
X9643039Y-18475984D01*
X9643039Y-18475984D02*
X9623991Y-18466460D01*
X9623991Y-18466460D02*
X9614467Y-18456936D01*
X9614467Y-18456936D02*
X9604944Y-18437889D01*
X9604944Y-18437889D02*
X9595420Y-18399793D01*
X9595420Y-18399793D02*
X9595420Y-18352174D01*
X9595420Y-18352174D02*
X9604944Y-18314079D01*
X9604944Y-18314079D02*
X9614467Y-18295031D01*
X9614467Y-18295031D02*
X9623991Y-18285508D01*
X9623991Y-18285508D02*
X9643039Y-18275984D01*
X9795420Y-18475984D02*
X9795420Y-18342650D01*
X9795420Y-18361698D02*
X9804944Y-18352174D01*
X9804944Y-18352174D02*
X9823991Y-18342650D01*
X9823991Y-18342650D02*
X9852563Y-18342650D01*
X9852563Y-18342650D02*
X9871610Y-18352174D01*
X9871610Y-18352174D02*
X9881134Y-18371222D01*
X9881134Y-18371222D02*
X9881134Y-18475984D01*
X9881134Y-18371222D02*
X9890658Y-18352174D01*
X9890658Y-18352174D02*
X9909705Y-18342650D01*
X9909705Y-18342650D02*
X9938277Y-18342650D01*
X9938277Y-18342650D02*
X9957325Y-18352174D01*
X9957325Y-18352174D02*
X9966848Y-18371222D01*
X9966848Y-18371222D02*
X9966848Y-18475984D01*
X10062086Y-18475984D02*
X10062086Y-18342650D01*
X10062086Y-18361698D02*
X10071610Y-18352174D01*
X10071610Y-18352174D02*
X10090658Y-18342650D01*
X10090658Y-18342650D02*
X10119229Y-18342650D01*
X10119229Y-18342650D02*
X10138277Y-18352174D01*
X10138277Y-18352174D02*
X10147801Y-18371222D01*
X10147801Y-18371222D02*
X10147801Y-18475984D01*
X10147801Y-18371222D02*
X10157325Y-18352174D01*
X10157325Y-18352174D02*
X10176372Y-18342650D01*
X10176372Y-18342650D02*
X10204944Y-18342650D01*
X10204944Y-18342650D02*
X10223991Y-18352174D01*
X10223991Y-18352174D02*
X10233515Y-18371222D01*
X10233515Y-18371222D02*
X10233515Y-18475984D01*
X10623991Y-18266460D02*
X10452563Y-18523603D01*
X10881134Y-18275984D02*
X10900182Y-18275984D01*
X10900182Y-18275984D02*
X10919229Y-18285508D01*
X10919229Y-18285508D02*
X10928753Y-18295031D01*
X10928753Y-18295031D02*
X10938277Y-18314079D01*
X10938277Y-18314079D02*
X10947801Y-18352174D01*
X10947801Y-18352174D02*
X10947801Y-18399793D01*
X10947801Y-18399793D02*
X10938277Y-18437889D01*
X10938277Y-18437889D02*
X10928753Y-18456936D01*
X10928753Y-18456936D02*
X10919229Y-18466460D01*
X10919229Y-18466460D02*
X10900182Y-18475984D01*
X10900182Y-18475984D02*
X10881134Y-18475984D01*
X10881134Y-18475984D02*
X10862087Y-18466460D01*
X10862087Y-18466460D02*
X10852563Y-18456936D01*
X10852563Y-18456936D02*
X10843039Y-18437889D01*
X10843039Y-18437889D02*
X10833515Y-18399793D01*
X10833515Y-18399793D02*
X10833515Y-18352174D01*
X10833515Y-18352174D02*
X10843039Y-18314079D01*
X10843039Y-18314079D02*
X10852563Y-18295031D01*
X10852563Y-18295031D02*
X10862087Y-18285508D01*
X10862087Y-18285508D02*
X10881134Y-18275984D01*
X11033515Y-18456936D02*
X11043039Y-18466460D01*
X11043039Y-18466460D02*
X11033515Y-18475984D01*
X11033515Y-18475984D02*
X11023991Y-18466460D01*
X11023991Y-18466460D02*
X11033515Y-18456936D01*
X11033515Y-18456936D02*
X11033515Y-18475984D01*
X11166848Y-18275984D02*
X11185896Y-18275984D01*
X11185896Y-18275984D02*
X11204944Y-18285508D01*
X11204944Y-18285508D02*
X11214467Y-18295031D01*
X11214467Y-18295031D02*
X11223991Y-18314079D01*
X11223991Y-18314079D02*
X11233515Y-18352174D01*
X11233515Y-18352174D02*
X11233515Y-18399793D01*
X11233515Y-18399793D02*
X11223991Y-18437889D01*
X11223991Y-18437889D02*
X11214467Y-18456936D01*
X11214467Y-18456936D02*
X11204944Y-18466460D01*
X11204944Y-18466460D02*
X11185896Y-18475984D01*
X11185896Y-18475984D02*
X11166848Y-18475984D01*
X11166848Y-18475984D02*
X11147801Y-18466460D01*
X11147801Y-18466460D02*
X11138277Y-18456936D01*
X11138277Y-18456936D02*
X11128753Y-18437889D01*
X11128753Y-18437889D02*
X11119229Y-18399793D01*
X11119229Y-18399793D02*
X11119229Y-18352174D01*
X11119229Y-18352174D02*
X11128753Y-18314079D01*
X11128753Y-18314079D02*
X11138277Y-18295031D01*
X11138277Y-18295031D02*
X11147801Y-18285508D01*
X11147801Y-18285508D02*
X11166848Y-18275984D01*
X11309706Y-18295031D02*
X11319229Y-18285508D01*
X11319229Y-18285508D02*
X11338277Y-18275984D01*
X11338277Y-18275984D02*
X11385896Y-18275984D01*
X11385896Y-18275984D02*
X11404944Y-18285508D01*
X11404944Y-18285508D02*
X11414467Y-18295031D01*
X11414467Y-18295031D02*
X11423991Y-18314079D01*
X11423991Y-18314079D02*
X11423991Y-18333127D01*
X11423991Y-18333127D02*
X11414467Y-18361698D01*
X11414467Y-18361698D02*
X11300182Y-18475984D01*
X11300182Y-18475984D02*
X11423991Y-18475984D01*
X11490658Y-18275984D02*
X11623991Y-18275984D01*
X11623991Y-18275984D02*
X11538277Y-18475984D01*
X11785896Y-18275984D02*
X11747801Y-18275984D01*
X11747801Y-18275984D02*
X11728753Y-18285508D01*
X11728753Y-18285508D02*
X11719229Y-18295031D01*
X11719229Y-18295031D02*
X11700182Y-18323603D01*
X11700182Y-18323603D02*
X11690658Y-18361698D01*
X11690658Y-18361698D02*
X11690658Y-18437889D01*
X11690658Y-18437889D02*
X11700182Y-18456936D01*
X11700182Y-18456936D02*
X11709706Y-18466460D01*
X11709706Y-18466460D02*
X11728753Y-18475984D01*
X11728753Y-18475984D02*
X11766848Y-18475984D01*
X11766848Y-18475984D02*
X11785896Y-18466460D01*
X11785896Y-18466460D02*
X11795420Y-18456936D01*
X11795420Y-18456936D02*
X11804944Y-18437889D01*
X11804944Y-18437889D02*
X11804944Y-18390270D01*
X11804944Y-18390270D02*
X11795420Y-18371222D01*
X11795420Y-18371222D02*
X11785896Y-18361698D01*
X11785896Y-18361698D02*
X11766848Y-18352174D01*
X11766848Y-18352174D02*
X11728753Y-18352174D01*
X11728753Y-18352174D02*
X11709706Y-18361698D01*
X11709706Y-18361698D02*
X11700182Y-18371222D01*
X11700182Y-18371222D02*
X11690658Y-18390270D01*
X11881134Y-18275984D02*
X11881134Y-18314079D01*
X11957325Y-18275984D02*
X11957325Y-18314079D01*
X12252563Y-18552174D02*
X12243039Y-18542650D01*
X12243039Y-18542650D02*
X12223991Y-18514079D01*
X12223991Y-18514079D02*
X12214468Y-18495031D01*
X12214468Y-18495031D02*
X12204944Y-18466460D01*
X12204944Y-18466460D02*
X12195420Y-18418841D01*
X12195420Y-18418841D02*
X12195420Y-18380746D01*
X12195420Y-18380746D02*
X12204944Y-18333127D01*
X12204944Y-18333127D02*
X12214468Y-18304555D01*
X12214468Y-18304555D02*
X12223991Y-18285508D01*
X12223991Y-18285508D02*
X12243039Y-18256936D01*
X12243039Y-18256936D02*
X12252563Y-18247412D01*
X12366848Y-18275984D02*
X12385896Y-18275984D01*
X12385896Y-18275984D02*
X12404944Y-18285508D01*
X12404944Y-18285508D02*
X12414468Y-18295031D01*
X12414468Y-18295031D02*
X12423991Y-18314079D01*
X12423991Y-18314079D02*
X12433515Y-18352174D01*
X12433515Y-18352174D02*
X12433515Y-18399793D01*
X12433515Y-18399793D02*
X12423991Y-18437889D01*
X12423991Y-18437889D02*
X12414468Y-18456936D01*
X12414468Y-18456936D02*
X12404944Y-18466460D01*
X12404944Y-18466460D02*
X12385896Y-18475984D01*
X12385896Y-18475984D02*
X12366848Y-18475984D01*
X12366848Y-18475984D02*
X12347801Y-18466460D01*
X12347801Y-18466460D02*
X12338277Y-18456936D01*
X12338277Y-18456936D02*
X12328753Y-18437889D01*
X12328753Y-18437889D02*
X12319229Y-18399793D01*
X12319229Y-18399793D02*
X12319229Y-18352174D01*
X12319229Y-18352174D02*
X12328753Y-18314079D01*
X12328753Y-18314079D02*
X12338277Y-18295031D01*
X12338277Y-18295031D02*
X12347801Y-18285508D01*
X12347801Y-18285508D02*
X12366848Y-18275984D01*
X12671610Y-18475984D02*
X12671610Y-18275984D01*
X12757325Y-18475984D02*
X12757325Y-18371222D01*
X12757325Y-18371222D02*
X12747801Y-18352174D01*
X12747801Y-18352174D02*
X12728753Y-18342650D01*
X12728753Y-18342650D02*
X12700182Y-18342650D01*
X12700182Y-18342650D02*
X12681134Y-18352174D01*
X12681134Y-18352174D02*
X12671610Y-18361698D01*
X12881134Y-18475984D02*
X12862087Y-18466460D01*
X12862087Y-18466460D02*
X12852563Y-18456936D01*
X12852563Y-18456936D02*
X12843039Y-18437889D01*
X12843039Y-18437889D02*
X12843039Y-18380746D01*
X12843039Y-18380746D02*
X12852563Y-18361698D01*
X12852563Y-18361698D02*
X12862087Y-18352174D01*
X12862087Y-18352174D02*
X12881134Y-18342650D01*
X12881134Y-18342650D02*
X12909706Y-18342650D01*
X12909706Y-18342650D02*
X12928753Y-18352174D01*
X12928753Y-18352174D02*
X12938277Y-18361698D01*
X12938277Y-18361698D02*
X12947801Y-18380746D01*
X12947801Y-18380746D02*
X12947801Y-18437889D01*
X12947801Y-18437889D02*
X12938277Y-18456936D01*
X12938277Y-18456936D02*
X12928753Y-18466460D01*
X12928753Y-18466460D02*
X12909706Y-18475984D01*
X12909706Y-18475984D02*
X12881134Y-18475984D01*
X13062087Y-18475984D02*
X13043039Y-18466460D01*
X13043039Y-18466460D02*
X13033515Y-18447412D01*
X13033515Y-18447412D02*
X13033515Y-18275984D01*
X13214468Y-18466460D02*
X13195420Y-18475984D01*
X13195420Y-18475984D02*
X13157325Y-18475984D01*
X13157325Y-18475984D02*
X13138277Y-18466460D01*
X13138277Y-18466460D02*
X13128753Y-18447412D01*
X13128753Y-18447412D02*
X13128753Y-18371222D01*
X13128753Y-18371222D02*
X13138277Y-18352174D01*
X13138277Y-18352174D02*
X13157325Y-18342650D01*
X13157325Y-18342650D02*
X13195420Y-18342650D01*
X13195420Y-18342650D02*
X13214468Y-18352174D01*
X13214468Y-18352174D02*
X13223991Y-18371222D01*
X13223991Y-18371222D02*
X13223991Y-18390270D01*
X13223991Y-18390270D02*
X13128753Y-18409317D01*
X13300182Y-18466460D02*
X13319230Y-18475984D01*
X13319230Y-18475984D02*
X13357325Y-18475984D01*
X13357325Y-18475984D02*
X13376372Y-18466460D01*
X13376372Y-18466460D02*
X13385896Y-18447412D01*
X13385896Y-18447412D02*
X13385896Y-18437889D01*
X13385896Y-18437889D02*
X13376372Y-18418841D01*
X13376372Y-18418841D02*
X13357325Y-18409317D01*
X13357325Y-18409317D02*
X13328753Y-18409317D01*
X13328753Y-18409317D02*
X13309706Y-18399793D01*
X13309706Y-18399793D02*
X13300182Y-18380746D01*
X13300182Y-18380746D02*
X13300182Y-18371222D01*
X13300182Y-18371222D02*
X13309706Y-18352174D01*
X13309706Y-18352174D02*
X13328753Y-18342650D01*
X13328753Y-18342650D02*
X13357325Y-18342650D01*
X13357325Y-18342650D02*
X13376372Y-18352174D01*
X13623992Y-18399793D02*
X13776373Y-18399793D01*
X13700182Y-18475984D02*
X13700182Y-18323603D01*
X14109706Y-18342650D02*
X14109706Y-18475984D01*
X14062087Y-18266460D02*
X14014468Y-18409317D01*
X14014468Y-18409317D02*
X14138277Y-18409317D01*
X14357325Y-18466460D02*
X14376373Y-18475984D01*
X14376373Y-18475984D02*
X14414468Y-18475984D01*
X14414468Y-18475984D02*
X14433515Y-18466460D01*
X14433515Y-18466460D02*
X14443039Y-18447412D01*
X14443039Y-18447412D02*
X14443039Y-18437889D01*
X14443039Y-18437889D02*
X14433515Y-18418841D01*
X14433515Y-18418841D02*
X14414468Y-18409317D01*
X14414468Y-18409317D02*
X14385896Y-18409317D01*
X14385896Y-18409317D02*
X14366849Y-18399793D01*
X14366849Y-18399793D02*
X14357325Y-18380746D01*
X14357325Y-18380746D02*
X14357325Y-18371222D01*
X14357325Y-18371222D02*
X14366849Y-18352174D01*
X14366849Y-18352174D02*
X14385896Y-18342650D01*
X14385896Y-18342650D02*
X14414468Y-18342650D01*
X14414468Y-18342650D02*
X14433515Y-18352174D01*
X14557325Y-18475984D02*
X14538277Y-18466460D01*
X14538277Y-18466460D02*
X14528754Y-18447412D01*
X14528754Y-18447412D02*
X14528754Y-18275984D01*
X14662087Y-18475984D02*
X14643039Y-18466460D01*
X14643039Y-18466460D02*
X14633515Y-18456936D01*
X14633515Y-18456936D02*
X14623992Y-18437889D01*
X14623992Y-18437889D02*
X14623992Y-18380746D01*
X14623992Y-18380746D02*
X14633515Y-18361698D01*
X14633515Y-18361698D02*
X14643039Y-18352174D01*
X14643039Y-18352174D02*
X14662087Y-18342650D01*
X14662087Y-18342650D02*
X14690658Y-18342650D01*
X14690658Y-18342650D02*
X14709706Y-18352174D01*
X14709706Y-18352174D02*
X14719230Y-18361698D01*
X14719230Y-18361698D02*
X14728754Y-18380746D01*
X14728754Y-18380746D02*
X14728754Y-18437889D01*
X14728754Y-18437889D02*
X14719230Y-18456936D01*
X14719230Y-18456936D02*
X14709706Y-18466460D01*
X14709706Y-18466460D02*
X14690658Y-18475984D01*
X14690658Y-18475984D02*
X14662087Y-18475984D01*
X14785896Y-18342650D02*
X14862087Y-18342650D01*
X14814468Y-18275984D02*
X14814468Y-18447412D01*
X14814468Y-18447412D02*
X14823992Y-18466460D01*
X14823992Y-18466460D02*
X14843039Y-18475984D01*
X14843039Y-18475984D02*
X14862087Y-18475984D01*
X14919230Y-18466460D02*
X14938277Y-18475984D01*
X14938277Y-18475984D02*
X14976373Y-18475984D01*
X14976373Y-18475984D02*
X14995420Y-18466460D01*
X14995420Y-18466460D02*
X15004944Y-18447412D01*
X15004944Y-18447412D02*
X15004944Y-18437889D01*
X15004944Y-18437889D02*
X14995420Y-18418841D01*
X14995420Y-18418841D02*
X14976373Y-18409317D01*
X14976373Y-18409317D02*
X14947801Y-18409317D01*
X14947801Y-18409317D02*
X14928754Y-18399793D01*
X14928754Y-18399793D02*
X14919230Y-18380746D01*
X14919230Y-18380746D02*
X14919230Y-18371222D01*
X14919230Y-18371222D02*
X14928754Y-18352174D01*
X14928754Y-18352174D02*
X14947801Y-18342650D01*
X14947801Y-18342650D02*
X14976373Y-18342650D01*
X14976373Y-18342650D02*
X14995420Y-18352174D01*
X15071611Y-18552174D02*
X15081135Y-18542650D01*
X15081135Y-18542650D02*
X15100182Y-18514079D01*
X15100182Y-18514079D02*
X15109706Y-18495031D01*
X15109706Y-18495031D02*
X15119230Y-18466460D01*
X15119230Y-18466460D02*
X15128754Y-18418841D01*
X15128754Y-18418841D02*
X15128754Y-18380746D01*
X15128754Y-18380746D02*
X15119230Y-18333127D01*
X15119230Y-18333127D02*
X15109706Y-18304555D01*
X15109706Y-18304555D02*
X15100182Y-18285508D01*
X15100182Y-18285508D02*
X15081135Y-18256936D01*
X15081135Y-18256936D02*
X15071611Y-18247412D01*
D12*
X8637500Y-18688500D02*
X8677500Y-18648500D01*
X8637500Y-18608500D01*
X8597500Y-18648500D01*
X8637500Y-18688500D01*
D11*
X8976372Y-18539984D02*
X8995420Y-18539984D01*
X8995420Y-18539984D02*
X9014467Y-18549508D01*
X9014467Y-18549508D02*
X9023991Y-18559031D01*
X9023991Y-18559031D02*
X9033515Y-18578079D01*
X9033515Y-18578079D02*
X9043039Y-18616174D01*
X9043039Y-18616174D02*
X9043039Y-18663793D01*
X9043039Y-18663793D02*
X9033515Y-18701889D01*
X9033515Y-18701889D02*
X9023991Y-18720936D01*
X9023991Y-18720936D02*
X9014467Y-18730460D01*
X9014467Y-18730460D02*
X8995420Y-18739984D01*
X8995420Y-18739984D02*
X8976372Y-18739984D01*
X8976372Y-18739984D02*
X8957324Y-18730460D01*
X8957324Y-18730460D02*
X8947801Y-18720936D01*
X8947801Y-18720936D02*
X8938277Y-18701889D01*
X8938277Y-18701889D02*
X8928753Y-18663793D01*
X8928753Y-18663793D02*
X8928753Y-18616174D01*
X8928753Y-18616174D02*
X8938277Y-18578079D01*
X8938277Y-18578079D02*
X8947801Y-18559031D01*
X8947801Y-18559031D02*
X8957324Y-18549508D01*
X8957324Y-18549508D02*
X8976372Y-18539984D01*
X9128753Y-18720936D02*
X9138277Y-18730460D01*
X9138277Y-18730460D02*
X9128753Y-18739984D01*
X9128753Y-18739984D02*
X9119229Y-18730460D01*
X9119229Y-18730460D02*
X9128753Y-18720936D01*
X9128753Y-18720936D02*
X9128753Y-18739984D01*
X9252563Y-18625698D02*
X9233515Y-18616174D01*
X9233515Y-18616174D02*
X9223991Y-18606650D01*
X9223991Y-18606650D02*
X9214467Y-18587603D01*
X9214467Y-18587603D02*
X9214467Y-18578079D01*
X9214467Y-18578079D02*
X9223991Y-18559031D01*
X9223991Y-18559031D02*
X9233515Y-18549508D01*
X9233515Y-18549508D02*
X9252563Y-18539984D01*
X9252563Y-18539984D02*
X9290658Y-18539984D01*
X9290658Y-18539984D02*
X9309705Y-18549508D01*
X9309705Y-18549508D02*
X9319229Y-18559031D01*
X9319229Y-18559031D02*
X9328753Y-18578079D01*
X9328753Y-18578079D02*
X9328753Y-18587603D01*
X9328753Y-18587603D02*
X9319229Y-18606650D01*
X9319229Y-18606650D02*
X9309705Y-18616174D01*
X9309705Y-18616174D02*
X9290658Y-18625698D01*
X9290658Y-18625698D02*
X9252563Y-18625698D01*
X9252563Y-18625698D02*
X9233515Y-18635222D01*
X9233515Y-18635222D02*
X9223991Y-18644746D01*
X9223991Y-18644746D02*
X9214467Y-18663793D01*
X9214467Y-18663793D02*
X9214467Y-18701889D01*
X9214467Y-18701889D02*
X9223991Y-18720936D01*
X9223991Y-18720936D02*
X9233515Y-18730460D01*
X9233515Y-18730460D02*
X9252563Y-18739984D01*
X9252563Y-18739984D02*
X9290658Y-18739984D01*
X9290658Y-18739984D02*
X9309705Y-18730460D01*
X9309705Y-18730460D02*
X9319229Y-18720936D01*
X9319229Y-18720936D02*
X9328753Y-18701889D01*
X9328753Y-18701889D02*
X9328753Y-18663793D01*
X9328753Y-18663793D02*
X9319229Y-18644746D01*
X9319229Y-18644746D02*
X9309705Y-18635222D01*
X9309705Y-18635222D02*
X9290658Y-18625698D01*
X9452563Y-18539984D02*
X9471610Y-18539984D01*
X9471610Y-18539984D02*
X9490658Y-18549508D01*
X9490658Y-18549508D02*
X9500182Y-18559031D01*
X9500182Y-18559031D02*
X9509705Y-18578079D01*
X9509705Y-18578079D02*
X9519229Y-18616174D01*
X9519229Y-18616174D02*
X9519229Y-18663793D01*
X9519229Y-18663793D02*
X9509705Y-18701889D01*
X9509705Y-18701889D02*
X9500182Y-18720936D01*
X9500182Y-18720936D02*
X9490658Y-18730460D01*
X9490658Y-18730460D02*
X9471610Y-18739984D01*
X9471610Y-18739984D02*
X9452563Y-18739984D01*
X9452563Y-18739984D02*
X9433515Y-18730460D01*
X9433515Y-18730460D02*
X9423991Y-18720936D01*
X9423991Y-18720936D02*
X9414467Y-18701889D01*
X9414467Y-18701889D02*
X9404944Y-18663793D01*
X9404944Y-18663793D02*
X9404944Y-18616174D01*
X9404944Y-18616174D02*
X9414467Y-18578079D01*
X9414467Y-18578079D02*
X9423991Y-18559031D01*
X9423991Y-18559031D02*
X9433515Y-18549508D01*
X9433515Y-18549508D02*
X9452563Y-18539984D01*
X9643039Y-18539984D02*
X9662086Y-18539984D01*
X9662086Y-18539984D02*
X9681134Y-18549508D01*
X9681134Y-18549508D02*
X9690658Y-18559031D01*
X9690658Y-18559031D02*
X9700182Y-18578079D01*
X9700182Y-18578079D02*
X9709705Y-18616174D01*
X9709705Y-18616174D02*
X9709705Y-18663793D01*
X9709705Y-18663793D02*
X9700182Y-18701889D01*
X9700182Y-18701889D02*
X9690658Y-18720936D01*
X9690658Y-18720936D02*
X9681134Y-18730460D01*
X9681134Y-18730460D02*
X9662086Y-18739984D01*
X9662086Y-18739984D02*
X9643039Y-18739984D01*
X9643039Y-18739984D02*
X9623991Y-18730460D01*
X9623991Y-18730460D02*
X9614467Y-18720936D01*
X9614467Y-18720936D02*
X9604944Y-18701889D01*
X9604944Y-18701889D02*
X9595420Y-18663793D01*
X9595420Y-18663793D02*
X9595420Y-18616174D01*
X9595420Y-18616174D02*
X9604944Y-18578079D01*
X9604944Y-18578079D02*
X9614467Y-18559031D01*
X9614467Y-18559031D02*
X9623991Y-18549508D01*
X9623991Y-18549508D02*
X9643039Y-18539984D01*
X9795420Y-18739984D02*
X9795420Y-18606650D01*
X9795420Y-18625698D02*
X9804944Y-18616174D01*
X9804944Y-18616174D02*
X9823991Y-18606650D01*
X9823991Y-18606650D02*
X9852563Y-18606650D01*
X9852563Y-18606650D02*
X9871610Y-18616174D01*
X9871610Y-18616174D02*
X9881134Y-18635222D01*
X9881134Y-18635222D02*
X9881134Y-18739984D01*
X9881134Y-18635222D02*
X9890658Y-18616174D01*
X9890658Y-18616174D02*
X9909705Y-18606650D01*
X9909705Y-18606650D02*
X9938277Y-18606650D01*
X9938277Y-18606650D02*
X9957325Y-18616174D01*
X9957325Y-18616174D02*
X9966848Y-18635222D01*
X9966848Y-18635222D02*
X9966848Y-18739984D01*
X10062086Y-18739984D02*
X10062086Y-18606650D01*
X10062086Y-18625698D02*
X10071610Y-18616174D01*
X10071610Y-18616174D02*
X10090658Y-18606650D01*
X10090658Y-18606650D02*
X10119229Y-18606650D01*
X10119229Y-18606650D02*
X10138277Y-18616174D01*
X10138277Y-18616174D02*
X10147801Y-18635222D01*
X10147801Y-18635222D02*
X10147801Y-18739984D01*
X10147801Y-18635222D02*
X10157325Y-18616174D01*
X10157325Y-18616174D02*
X10176372Y-18606650D01*
X10176372Y-18606650D02*
X10204944Y-18606650D01*
X10204944Y-18606650D02*
X10223991Y-18616174D01*
X10223991Y-18616174D02*
X10233515Y-18635222D01*
X10233515Y-18635222D02*
X10233515Y-18739984D01*
X10623991Y-18530460D02*
X10452563Y-18787603D01*
X10881134Y-18539984D02*
X10900182Y-18539984D01*
X10900182Y-18539984D02*
X10919229Y-18549508D01*
X10919229Y-18549508D02*
X10928753Y-18559031D01*
X10928753Y-18559031D02*
X10938277Y-18578079D01*
X10938277Y-18578079D02*
X10947801Y-18616174D01*
X10947801Y-18616174D02*
X10947801Y-18663793D01*
X10947801Y-18663793D02*
X10938277Y-18701889D01*
X10938277Y-18701889D02*
X10928753Y-18720936D01*
X10928753Y-18720936D02*
X10919229Y-18730460D01*
X10919229Y-18730460D02*
X10900182Y-18739984D01*
X10900182Y-18739984D02*
X10881134Y-18739984D01*
X10881134Y-18739984D02*
X10862087Y-18730460D01*
X10862087Y-18730460D02*
X10852563Y-18720936D01*
X10852563Y-18720936D02*
X10843039Y-18701889D01*
X10843039Y-18701889D02*
X10833515Y-18663793D01*
X10833515Y-18663793D02*
X10833515Y-18616174D01*
X10833515Y-18616174D02*
X10843039Y-18578079D01*
X10843039Y-18578079D02*
X10852563Y-18559031D01*
X10852563Y-18559031D02*
X10862087Y-18549508D01*
X10862087Y-18549508D02*
X10881134Y-18539984D01*
X11033515Y-18720936D02*
X11043039Y-18730460D01*
X11043039Y-18730460D02*
X11033515Y-18739984D01*
X11033515Y-18739984D02*
X11023991Y-18730460D01*
X11023991Y-18730460D02*
X11033515Y-18720936D01*
X11033515Y-18720936D02*
X11033515Y-18739984D01*
X11166848Y-18539984D02*
X11185896Y-18539984D01*
X11185896Y-18539984D02*
X11204944Y-18549508D01*
X11204944Y-18549508D02*
X11214467Y-18559031D01*
X11214467Y-18559031D02*
X11223991Y-18578079D01*
X11223991Y-18578079D02*
X11233515Y-18616174D01*
X11233515Y-18616174D02*
X11233515Y-18663793D01*
X11233515Y-18663793D02*
X11223991Y-18701889D01*
X11223991Y-18701889D02*
X11214467Y-18720936D01*
X11214467Y-18720936D02*
X11204944Y-18730460D01*
X11204944Y-18730460D02*
X11185896Y-18739984D01*
X11185896Y-18739984D02*
X11166848Y-18739984D01*
X11166848Y-18739984D02*
X11147801Y-18730460D01*
X11147801Y-18730460D02*
X11138277Y-18720936D01*
X11138277Y-18720936D02*
X11128753Y-18701889D01*
X11128753Y-18701889D02*
X11119229Y-18663793D01*
X11119229Y-18663793D02*
X11119229Y-18616174D01*
X11119229Y-18616174D02*
X11128753Y-18578079D01*
X11128753Y-18578079D02*
X11138277Y-18559031D01*
X11138277Y-18559031D02*
X11147801Y-18549508D01*
X11147801Y-18549508D02*
X11166848Y-18539984D01*
X11300182Y-18539984D02*
X11423991Y-18539984D01*
X11423991Y-18539984D02*
X11357325Y-18616174D01*
X11357325Y-18616174D02*
X11385896Y-18616174D01*
X11385896Y-18616174D02*
X11404944Y-18625698D01*
X11404944Y-18625698D02*
X11414467Y-18635222D01*
X11414467Y-18635222D02*
X11423991Y-18654270D01*
X11423991Y-18654270D02*
X11423991Y-18701889D01*
X11423991Y-18701889D02*
X11414467Y-18720936D01*
X11414467Y-18720936D02*
X11404944Y-18730460D01*
X11404944Y-18730460D02*
X11385896Y-18739984D01*
X11385896Y-18739984D02*
X11328753Y-18739984D01*
X11328753Y-18739984D02*
X11309706Y-18730460D01*
X11309706Y-18730460D02*
X11300182Y-18720936D01*
X11614467Y-18739984D02*
X11500182Y-18739984D01*
X11557325Y-18739984D02*
X11557325Y-18539984D01*
X11557325Y-18539984D02*
X11538277Y-18568555D01*
X11538277Y-18568555D02*
X11519229Y-18587603D01*
X11519229Y-18587603D02*
X11500182Y-18597127D01*
X11795420Y-18539984D02*
X11700182Y-18539984D01*
X11700182Y-18539984D02*
X11690658Y-18635222D01*
X11690658Y-18635222D02*
X11700182Y-18625698D01*
X11700182Y-18625698D02*
X11719229Y-18616174D01*
X11719229Y-18616174D02*
X11766848Y-18616174D01*
X11766848Y-18616174D02*
X11785896Y-18625698D01*
X11785896Y-18625698D02*
X11795420Y-18635222D01*
X11795420Y-18635222D02*
X11804944Y-18654270D01*
X11804944Y-18654270D02*
X11804944Y-18701889D01*
X11804944Y-18701889D02*
X11795420Y-18720936D01*
X11795420Y-18720936D02*
X11785896Y-18730460D01*
X11785896Y-18730460D02*
X11766848Y-18739984D01*
X11766848Y-18739984D02*
X11719229Y-18739984D01*
X11719229Y-18739984D02*
X11700182Y-18730460D01*
X11700182Y-18730460D02*
X11690658Y-18720936D01*
X11881134Y-18539984D02*
X11881134Y-18578079D01*
X11957325Y-18539984D02*
X11957325Y-18578079D01*
X12252563Y-18816174D02*
X12243039Y-18806650D01*
X12243039Y-18806650D02*
X12223991Y-18778079D01*
X12223991Y-18778079D02*
X12214468Y-18759031D01*
X12214468Y-18759031D02*
X12204944Y-18730460D01*
X12204944Y-18730460D02*
X12195420Y-18682841D01*
X12195420Y-18682841D02*
X12195420Y-18644746D01*
X12195420Y-18644746D02*
X12204944Y-18597127D01*
X12204944Y-18597127D02*
X12214468Y-18568555D01*
X12214468Y-18568555D02*
X12223991Y-18549508D01*
X12223991Y-18549508D02*
X12243039Y-18520936D01*
X12243039Y-18520936D02*
X12252563Y-18511412D01*
X12309706Y-18539984D02*
X12433515Y-18539984D01*
X12433515Y-18539984D02*
X12366848Y-18616174D01*
X12366848Y-18616174D02*
X12395420Y-18616174D01*
X12395420Y-18616174D02*
X12414468Y-18625698D01*
X12414468Y-18625698D02*
X12423991Y-18635222D01*
X12423991Y-18635222D02*
X12433515Y-18654270D01*
X12433515Y-18654270D02*
X12433515Y-18701889D01*
X12433515Y-18701889D02*
X12423991Y-18720936D01*
X12423991Y-18720936D02*
X12414468Y-18730460D01*
X12414468Y-18730460D02*
X12395420Y-18739984D01*
X12395420Y-18739984D02*
X12338277Y-18739984D01*
X12338277Y-18739984D02*
X12319229Y-18730460D01*
X12319229Y-18730460D02*
X12309706Y-18720936D01*
X12671610Y-18739984D02*
X12671610Y-18539984D01*
X12757325Y-18739984D02*
X12757325Y-18635222D01*
X12757325Y-18635222D02*
X12747801Y-18616174D01*
X12747801Y-18616174D02*
X12728753Y-18606650D01*
X12728753Y-18606650D02*
X12700182Y-18606650D01*
X12700182Y-18606650D02*
X12681134Y-18616174D01*
X12681134Y-18616174D02*
X12671610Y-18625698D01*
X12881134Y-18739984D02*
X12862087Y-18730460D01*
X12862087Y-18730460D02*
X12852563Y-18720936D01*
X12852563Y-18720936D02*
X12843039Y-18701889D01*
X12843039Y-18701889D02*
X12843039Y-18644746D01*
X12843039Y-18644746D02*
X12852563Y-18625698D01*
X12852563Y-18625698D02*
X12862087Y-18616174D01*
X12862087Y-18616174D02*
X12881134Y-18606650D01*
X12881134Y-18606650D02*
X12909706Y-18606650D01*
X12909706Y-18606650D02*
X12928753Y-18616174D01*
X12928753Y-18616174D02*
X12938277Y-18625698D01*
X12938277Y-18625698D02*
X12947801Y-18644746D01*
X12947801Y-18644746D02*
X12947801Y-18701889D01*
X12947801Y-18701889D02*
X12938277Y-18720936D01*
X12938277Y-18720936D02*
X12928753Y-18730460D01*
X12928753Y-18730460D02*
X12909706Y-18739984D01*
X12909706Y-18739984D02*
X12881134Y-18739984D01*
X13062087Y-18739984D02*
X13043039Y-18730460D01*
X13043039Y-18730460D02*
X13033515Y-18711412D01*
X13033515Y-18711412D02*
X13033515Y-18539984D01*
X13214468Y-18730460D02*
X13195420Y-18739984D01*
X13195420Y-18739984D02*
X13157325Y-18739984D01*
X13157325Y-18739984D02*
X13138277Y-18730460D01*
X13138277Y-18730460D02*
X13128753Y-18711412D01*
X13128753Y-18711412D02*
X13128753Y-18635222D01*
X13128753Y-18635222D02*
X13138277Y-18616174D01*
X13138277Y-18616174D02*
X13157325Y-18606650D01*
X13157325Y-18606650D02*
X13195420Y-18606650D01*
X13195420Y-18606650D02*
X13214468Y-18616174D01*
X13214468Y-18616174D02*
X13223991Y-18635222D01*
X13223991Y-18635222D02*
X13223991Y-18654270D01*
X13223991Y-18654270D02*
X13128753Y-18673317D01*
X13300182Y-18730460D02*
X13319230Y-18739984D01*
X13319230Y-18739984D02*
X13357325Y-18739984D01*
X13357325Y-18739984D02*
X13376372Y-18730460D01*
X13376372Y-18730460D02*
X13385896Y-18711412D01*
X13385896Y-18711412D02*
X13385896Y-18701889D01*
X13385896Y-18701889D02*
X13376372Y-18682841D01*
X13376372Y-18682841D02*
X13357325Y-18673317D01*
X13357325Y-18673317D02*
X13328753Y-18673317D01*
X13328753Y-18673317D02*
X13309706Y-18663793D01*
X13309706Y-18663793D02*
X13300182Y-18644746D01*
X13300182Y-18644746D02*
X13300182Y-18635222D01*
X13300182Y-18635222D02*
X13309706Y-18616174D01*
X13309706Y-18616174D02*
X13328753Y-18606650D01*
X13328753Y-18606650D02*
X13357325Y-18606650D01*
X13357325Y-18606650D02*
X13376372Y-18616174D01*
X13623992Y-18663793D02*
X13776373Y-18663793D01*
X13700182Y-18739984D02*
X13700182Y-18587603D01*
X14014468Y-18559031D02*
X14023992Y-18549508D01*
X14023992Y-18549508D02*
X14043039Y-18539984D01*
X14043039Y-18539984D02*
X14090658Y-18539984D01*
X14090658Y-18539984D02*
X14109706Y-18549508D01*
X14109706Y-18549508D02*
X14119230Y-18559031D01*
X14119230Y-18559031D02*
X14128753Y-18578079D01*
X14128753Y-18578079D02*
X14128753Y-18597127D01*
X14128753Y-18597127D02*
X14119230Y-18625698D01*
X14119230Y-18625698D02*
X14004944Y-18739984D01*
X14004944Y-18739984D02*
X14128753Y-18739984D01*
X14357325Y-18730460D02*
X14376373Y-18739984D01*
X14376373Y-18739984D02*
X14414468Y-18739984D01*
X14414468Y-18739984D02*
X14433515Y-18730460D01*
X14433515Y-18730460D02*
X14443039Y-18711412D01*
X14443039Y-18711412D02*
X14443039Y-18701889D01*
X14443039Y-18701889D02*
X14433515Y-18682841D01*
X14433515Y-18682841D02*
X14414468Y-18673317D01*
X14414468Y-18673317D02*
X14385896Y-18673317D01*
X14385896Y-18673317D02*
X14366849Y-18663793D01*
X14366849Y-18663793D02*
X14357325Y-18644746D01*
X14357325Y-18644746D02*
X14357325Y-18635222D01*
X14357325Y-18635222D02*
X14366849Y-18616174D01*
X14366849Y-18616174D02*
X14385896Y-18606650D01*
X14385896Y-18606650D02*
X14414468Y-18606650D01*
X14414468Y-18606650D02*
X14433515Y-18616174D01*
X14557325Y-18739984D02*
X14538277Y-18730460D01*
X14538277Y-18730460D02*
X14528754Y-18711412D01*
X14528754Y-18711412D02*
X14528754Y-18539984D01*
X14662087Y-18739984D02*
X14643039Y-18730460D01*
X14643039Y-18730460D02*
X14633515Y-18720936D01*
X14633515Y-18720936D02*
X14623992Y-18701889D01*
X14623992Y-18701889D02*
X14623992Y-18644746D01*
X14623992Y-18644746D02*
X14633515Y-18625698D01*
X14633515Y-18625698D02*
X14643039Y-18616174D01*
X14643039Y-18616174D02*
X14662087Y-18606650D01*
X14662087Y-18606650D02*
X14690658Y-18606650D01*
X14690658Y-18606650D02*
X14709706Y-18616174D01*
X14709706Y-18616174D02*
X14719230Y-18625698D01*
X14719230Y-18625698D02*
X14728754Y-18644746D01*
X14728754Y-18644746D02*
X14728754Y-18701889D01*
X14728754Y-18701889D02*
X14719230Y-18720936D01*
X14719230Y-18720936D02*
X14709706Y-18730460D01*
X14709706Y-18730460D02*
X14690658Y-18739984D01*
X14690658Y-18739984D02*
X14662087Y-18739984D01*
X14785896Y-18606650D02*
X14862087Y-18606650D01*
X14814468Y-18539984D02*
X14814468Y-18711412D01*
X14814468Y-18711412D02*
X14823992Y-18730460D01*
X14823992Y-18730460D02*
X14843039Y-18739984D01*
X14843039Y-18739984D02*
X14862087Y-18739984D01*
X14919230Y-18730460D02*
X14938277Y-18739984D01*
X14938277Y-18739984D02*
X14976373Y-18739984D01*
X14976373Y-18739984D02*
X14995420Y-18730460D01*
X14995420Y-18730460D02*
X15004944Y-18711412D01*
X15004944Y-18711412D02*
X15004944Y-18701889D01*
X15004944Y-18701889D02*
X14995420Y-18682841D01*
X14995420Y-18682841D02*
X14976373Y-18673317D01*
X14976373Y-18673317D02*
X14947801Y-18673317D01*
X14947801Y-18673317D02*
X14928754Y-18663793D01*
X14928754Y-18663793D02*
X14919230Y-18644746D01*
X14919230Y-18644746D02*
X14919230Y-18635222D01*
X14919230Y-18635222D02*
X14928754Y-18616174D01*
X14928754Y-18616174D02*
X14947801Y-18606650D01*
X14947801Y-18606650D02*
X14976373Y-18606650D01*
X14976373Y-18606650D02*
X14995420Y-18616174D01*
X15071611Y-18816174D02*
X15081135Y-18806650D01*
X15081135Y-18806650D02*
X15100182Y-18778079D01*
X15100182Y-18778079D02*
X15109706Y-18759031D01*
X15109706Y-18759031D02*
X15119230Y-18730460D01*
X15119230Y-18730460D02*
X15128754Y-18682841D01*
X15128754Y-18682841D02*
X15128754Y-18644746D01*
X15128754Y-18644746D02*
X15119230Y-18597127D01*
X15119230Y-18597127D02*
X15109706Y-18568555D01*
X15109706Y-18568555D02*
X15100182Y-18549508D01*
X15100182Y-18549508D02*
X15081135Y-18520936D01*
X15081135Y-18520936D02*
X15071611Y-18511412D01*
D12*
X8577500Y-18862500D02*
X8677500Y-18962500D01*
X8677500Y-18862500D02*
X8577500Y-18962500D01*
X8677500Y-18912500D02*
G75*
G02*
X8577500Y-18912500I-50000J0D01*
G01*
X8577500Y-18912500D02*
G75*
G02*
X8677500Y-18912500I50000J0D01*
G01*
D11*
X9043039Y-19003984D02*
X8928753Y-19003984D01*
X8985896Y-19003984D02*
X8985896Y-18803984D01*
X8985896Y-18803984D02*
X8966848Y-18832555D01*
X8966848Y-18832555D02*
X8947801Y-18851603D01*
X8947801Y-18851603D02*
X8928753Y-18861127D01*
X9128753Y-18984936D02*
X9138277Y-18994460D01*
X9138277Y-18994460D02*
X9128753Y-19003984D01*
X9128753Y-19003984D02*
X9119229Y-18994460D01*
X9119229Y-18994460D02*
X9128753Y-18984936D01*
X9128753Y-18984936D02*
X9128753Y-19003984D01*
X9262086Y-18803984D02*
X9281134Y-18803984D01*
X9281134Y-18803984D02*
X9300182Y-18813508D01*
X9300182Y-18813508D02*
X9309705Y-18823031D01*
X9309705Y-18823031D02*
X9319229Y-18842079D01*
X9319229Y-18842079D02*
X9328753Y-18880174D01*
X9328753Y-18880174D02*
X9328753Y-18927793D01*
X9328753Y-18927793D02*
X9319229Y-18965889D01*
X9319229Y-18965889D02*
X9309705Y-18984936D01*
X9309705Y-18984936D02*
X9300182Y-18994460D01*
X9300182Y-18994460D02*
X9281134Y-19003984D01*
X9281134Y-19003984D02*
X9262086Y-19003984D01*
X9262086Y-19003984D02*
X9243039Y-18994460D01*
X9243039Y-18994460D02*
X9233515Y-18984936D01*
X9233515Y-18984936D02*
X9223991Y-18965889D01*
X9223991Y-18965889D02*
X9214467Y-18927793D01*
X9214467Y-18927793D02*
X9214467Y-18880174D01*
X9214467Y-18880174D02*
X9223991Y-18842079D01*
X9223991Y-18842079D02*
X9233515Y-18823031D01*
X9233515Y-18823031D02*
X9243039Y-18813508D01*
X9243039Y-18813508D02*
X9262086Y-18803984D01*
X9452563Y-18803984D02*
X9471610Y-18803984D01*
X9471610Y-18803984D02*
X9490658Y-18813508D01*
X9490658Y-18813508D02*
X9500182Y-18823031D01*
X9500182Y-18823031D02*
X9509705Y-18842079D01*
X9509705Y-18842079D02*
X9519229Y-18880174D01*
X9519229Y-18880174D02*
X9519229Y-18927793D01*
X9519229Y-18927793D02*
X9509705Y-18965889D01*
X9509705Y-18965889D02*
X9500182Y-18984936D01*
X9500182Y-18984936D02*
X9490658Y-18994460D01*
X9490658Y-18994460D02*
X9471610Y-19003984D01*
X9471610Y-19003984D02*
X9452563Y-19003984D01*
X9452563Y-19003984D02*
X9433515Y-18994460D01*
X9433515Y-18994460D02*
X9423991Y-18984936D01*
X9423991Y-18984936D02*
X9414467Y-18965889D01*
X9414467Y-18965889D02*
X9404944Y-18927793D01*
X9404944Y-18927793D02*
X9404944Y-18880174D01*
X9404944Y-18880174D02*
X9414467Y-18842079D01*
X9414467Y-18842079D02*
X9423991Y-18823031D01*
X9423991Y-18823031D02*
X9433515Y-18813508D01*
X9433515Y-18813508D02*
X9452563Y-18803984D01*
X9643039Y-18803984D02*
X9662086Y-18803984D01*
X9662086Y-18803984D02*
X9681134Y-18813508D01*
X9681134Y-18813508D02*
X9690658Y-18823031D01*
X9690658Y-18823031D02*
X9700182Y-18842079D01*
X9700182Y-18842079D02*
X9709705Y-18880174D01*
X9709705Y-18880174D02*
X9709705Y-18927793D01*
X9709705Y-18927793D02*
X9700182Y-18965889D01*
X9700182Y-18965889D02*
X9690658Y-18984936D01*
X9690658Y-18984936D02*
X9681134Y-18994460D01*
X9681134Y-18994460D02*
X9662086Y-19003984D01*
X9662086Y-19003984D02*
X9643039Y-19003984D01*
X9643039Y-19003984D02*
X9623991Y-18994460D01*
X9623991Y-18994460D02*
X9614467Y-18984936D01*
X9614467Y-18984936D02*
X9604944Y-18965889D01*
X9604944Y-18965889D02*
X9595420Y-18927793D01*
X9595420Y-18927793D02*
X9595420Y-18880174D01*
X9595420Y-18880174D02*
X9604944Y-18842079D01*
X9604944Y-18842079D02*
X9614467Y-18823031D01*
X9614467Y-18823031D02*
X9623991Y-18813508D01*
X9623991Y-18813508D02*
X9643039Y-18803984D01*
X9795420Y-19003984D02*
X9795420Y-18870650D01*
X9795420Y-18889698D02*
X9804944Y-18880174D01*
X9804944Y-18880174D02*
X9823991Y-18870650D01*
X9823991Y-18870650D02*
X9852563Y-18870650D01*
X9852563Y-18870650D02*
X9871610Y-18880174D01*
X9871610Y-18880174D02*
X9881134Y-18899222D01*
X9881134Y-18899222D02*
X9881134Y-19003984D01*
X9881134Y-18899222D02*
X9890658Y-18880174D01*
X9890658Y-18880174D02*
X9909705Y-18870650D01*
X9909705Y-18870650D02*
X9938277Y-18870650D01*
X9938277Y-18870650D02*
X9957325Y-18880174D01*
X9957325Y-18880174D02*
X9966848Y-18899222D01*
X9966848Y-18899222D02*
X9966848Y-19003984D01*
X10062086Y-19003984D02*
X10062086Y-18870650D01*
X10062086Y-18889698D02*
X10071610Y-18880174D01*
X10071610Y-18880174D02*
X10090658Y-18870650D01*
X10090658Y-18870650D02*
X10119229Y-18870650D01*
X10119229Y-18870650D02*
X10138277Y-18880174D01*
X10138277Y-18880174D02*
X10147801Y-18899222D01*
X10147801Y-18899222D02*
X10147801Y-19003984D01*
X10147801Y-18899222D02*
X10157325Y-18880174D01*
X10157325Y-18880174D02*
X10176372Y-18870650D01*
X10176372Y-18870650D02*
X10204944Y-18870650D01*
X10204944Y-18870650D02*
X10223991Y-18880174D01*
X10223991Y-18880174D02*
X10233515Y-18899222D01*
X10233515Y-18899222D02*
X10233515Y-19003984D01*
X10623991Y-18794460D02*
X10452563Y-19051603D01*
X10881134Y-18803984D02*
X10900182Y-18803984D01*
X10900182Y-18803984D02*
X10919229Y-18813508D01*
X10919229Y-18813508D02*
X10928753Y-18823031D01*
X10928753Y-18823031D02*
X10938277Y-18842079D01*
X10938277Y-18842079D02*
X10947801Y-18880174D01*
X10947801Y-18880174D02*
X10947801Y-18927793D01*
X10947801Y-18927793D02*
X10938277Y-18965889D01*
X10938277Y-18965889D02*
X10928753Y-18984936D01*
X10928753Y-18984936D02*
X10919229Y-18994460D01*
X10919229Y-18994460D02*
X10900182Y-19003984D01*
X10900182Y-19003984D02*
X10881134Y-19003984D01*
X10881134Y-19003984D02*
X10862087Y-18994460D01*
X10862087Y-18994460D02*
X10852563Y-18984936D01*
X10852563Y-18984936D02*
X10843039Y-18965889D01*
X10843039Y-18965889D02*
X10833515Y-18927793D01*
X10833515Y-18927793D02*
X10833515Y-18880174D01*
X10833515Y-18880174D02*
X10843039Y-18842079D01*
X10843039Y-18842079D02*
X10852563Y-18823031D01*
X10852563Y-18823031D02*
X10862087Y-18813508D01*
X10862087Y-18813508D02*
X10881134Y-18803984D01*
X11033515Y-18984936D02*
X11043039Y-18994460D01*
X11043039Y-18994460D02*
X11033515Y-19003984D01*
X11033515Y-19003984D02*
X11023991Y-18994460D01*
X11023991Y-18994460D02*
X11033515Y-18984936D01*
X11033515Y-18984936D02*
X11033515Y-19003984D01*
X11166848Y-18803984D02*
X11185896Y-18803984D01*
X11185896Y-18803984D02*
X11204944Y-18813508D01*
X11204944Y-18813508D02*
X11214467Y-18823031D01*
X11214467Y-18823031D02*
X11223991Y-18842079D01*
X11223991Y-18842079D02*
X11233515Y-18880174D01*
X11233515Y-18880174D02*
X11233515Y-18927793D01*
X11233515Y-18927793D02*
X11223991Y-18965889D01*
X11223991Y-18965889D02*
X11214467Y-18984936D01*
X11214467Y-18984936D02*
X11204944Y-18994460D01*
X11204944Y-18994460D02*
X11185896Y-19003984D01*
X11185896Y-19003984D02*
X11166848Y-19003984D01*
X11166848Y-19003984D02*
X11147801Y-18994460D01*
X11147801Y-18994460D02*
X11138277Y-18984936D01*
X11138277Y-18984936D02*
X11128753Y-18965889D01*
X11128753Y-18965889D02*
X11119229Y-18927793D01*
X11119229Y-18927793D02*
X11119229Y-18880174D01*
X11119229Y-18880174D02*
X11128753Y-18842079D01*
X11128753Y-18842079D02*
X11138277Y-18823031D01*
X11138277Y-18823031D02*
X11147801Y-18813508D01*
X11147801Y-18813508D02*
X11166848Y-18803984D01*
X11300182Y-18803984D02*
X11423991Y-18803984D01*
X11423991Y-18803984D02*
X11357325Y-18880174D01*
X11357325Y-18880174D02*
X11385896Y-18880174D01*
X11385896Y-18880174D02*
X11404944Y-18889698D01*
X11404944Y-18889698D02*
X11414467Y-18899222D01*
X11414467Y-18899222D02*
X11423991Y-18918270D01*
X11423991Y-18918270D02*
X11423991Y-18965889D01*
X11423991Y-18965889D02*
X11414467Y-18984936D01*
X11414467Y-18984936D02*
X11404944Y-18994460D01*
X11404944Y-18994460D02*
X11385896Y-19003984D01*
X11385896Y-19003984D02*
X11328753Y-19003984D01*
X11328753Y-19003984D02*
X11309706Y-18994460D01*
X11309706Y-18994460D02*
X11300182Y-18984936D01*
X11519229Y-19003984D02*
X11557325Y-19003984D01*
X11557325Y-19003984D02*
X11576372Y-18994460D01*
X11576372Y-18994460D02*
X11585896Y-18984936D01*
X11585896Y-18984936D02*
X11604944Y-18956365D01*
X11604944Y-18956365D02*
X11614467Y-18918270D01*
X11614467Y-18918270D02*
X11614467Y-18842079D01*
X11614467Y-18842079D02*
X11604944Y-18823031D01*
X11604944Y-18823031D02*
X11595420Y-18813508D01*
X11595420Y-18813508D02*
X11576372Y-18803984D01*
X11576372Y-18803984D02*
X11538277Y-18803984D01*
X11538277Y-18803984D02*
X11519229Y-18813508D01*
X11519229Y-18813508D02*
X11509706Y-18823031D01*
X11509706Y-18823031D02*
X11500182Y-18842079D01*
X11500182Y-18842079D02*
X11500182Y-18889698D01*
X11500182Y-18889698D02*
X11509706Y-18908746D01*
X11509706Y-18908746D02*
X11519229Y-18918270D01*
X11519229Y-18918270D02*
X11538277Y-18927793D01*
X11538277Y-18927793D02*
X11576372Y-18927793D01*
X11576372Y-18927793D02*
X11595420Y-18918270D01*
X11595420Y-18918270D02*
X11604944Y-18908746D01*
X11604944Y-18908746D02*
X11614467Y-18889698D01*
X11785896Y-18870650D02*
X11785896Y-19003984D01*
X11738277Y-18794460D02*
X11690658Y-18937317D01*
X11690658Y-18937317D02*
X11814467Y-18937317D01*
X11881134Y-18803984D02*
X11881134Y-18842079D01*
X11957325Y-18803984D02*
X11957325Y-18842079D01*
X12252563Y-19080174D02*
X12243039Y-19070650D01*
X12243039Y-19070650D02*
X12223991Y-19042079D01*
X12223991Y-19042079D02*
X12214468Y-19023031D01*
X12214468Y-19023031D02*
X12204944Y-18994460D01*
X12204944Y-18994460D02*
X12195420Y-18946841D01*
X12195420Y-18946841D02*
X12195420Y-18908746D01*
X12195420Y-18908746D02*
X12204944Y-18861127D01*
X12204944Y-18861127D02*
X12214468Y-18832555D01*
X12214468Y-18832555D02*
X12223991Y-18813508D01*
X12223991Y-18813508D02*
X12243039Y-18784936D01*
X12243039Y-18784936D02*
X12252563Y-18775412D01*
X12433515Y-19003984D02*
X12319229Y-19003984D01*
X12376372Y-19003984D02*
X12376372Y-18803984D01*
X12376372Y-18803984D02*
X12357325Y-18832555D01*
X12357325Y-18832555D02*
X12338277Y-18851603D01*
X12338277Y-18851603D02*
X12319229Y-18861127D01*
X12557325Y-18803984D02*
X12576372Y-18803984D01*
X12576372Y-18803984D02*
X12595420Y-18813508D01*
X12595420Y-18813508D02*
X12604944Y-18823031D01*
X12604944Y-18823031D02*
X12614468Y-18842079D01*
X12614468Y-18842079D02*
X12623991Y-18880174D01*
X12623991Y-18880174D02*
X12623991Y-18927793D01*
X12623991Y-18927793D02*
X12614468Y-18965889D01*
X12614468Y-18965889D02*
X12604944Y-18984936D01*
X12604944Y-18984936D02*
X12595420Y-18994460D01*
X12595420Y-18994460D02*
X12576372Y-19003984D01*
X12576372Y-19003984D02*
X12557325Y-19003984D01*
X12557325Y-19003984D02*
X12538277Y-18994460D01*
X12538277Y-18994460D02*
X12528753Y-18984936D01*
X12528753Y-18984936D02*
X12519229Y-18965889D01*
X12519229Y-18965889D02*
X12509706Y-18927793D01*
X12509706Y-18927793D02*
X12509706Y-18880174D01*
X12509706Y-18880174D02*
X12519229Y-18842079D01*
X12519229Y-18842079D02*
X12528753Y-18823031D01*
X12528753Y-18823031D02*
X12538277Y-18813508D01*
X12538277Y-18813508D02*
X12557325Y-18803984D01*
X12862087Y-19003984D02*
X12862087Y-18803984D01*
X12947801Y-19003984D02*
X12947801Y-18899222D01*
X12947801Y-18899222D02*
X12938277Y-18880174D01*
X12938277Y-18880174D02*
X12919230Y-18870650D01*
X12919230Y-18870650D02*
X12890658Y-18870650D01*
X12890658Y-18870650D02*
X12871610Y-18880174D01*
X12871610Y-18880174D02*
X12862087Y-18889698D01*
X13071610Y-19003984D02*
X13052563Y-18994460D01*
X13052563Y-18994460D02*
X13043039Y-18984936D01*
X13043039Y-18984936D02*
X13033515Y-18965889D01*
X13033515Y-18965889D02*
X13033515Y-18908746D01*
X13033515Y-18908746D02*
X13043039Y-18889698D01*
X13043039Y-18889698D02*
X13052563Y-18880174D01*
X13052563Y-18880174D02*
X13071610Y-18870650D01*
X13071610Y-18870650D02*
X13100182Y-18870650D01*
X13100182Y-18870650D02*
X13119230Y-18880174D01*
X13119230Y-18880174D02*
X13128753Y-18889698D01*
X13128753Y-18889698D02*
X13138277Y-18908746D01*
X13138277Y-18908746D02*
X13138277Y-18965889D01*
X13138277Y-18965889D02*
X13128753Y-18984936D01*
X13128753Y-18984936D02*
X13119230Y-18994460D01*
X13119230Y-18994460D02*
X13100182Y-19003984D01*
X13100182Y-19003984D02*
X13071610Y-19003984D01*
X13252563Y-19003984D02*
X13233515Y-18994460D01*
X13233515Y-18994460D02*
X13223991Y-18975412D01*
X13223991Y-18975412D02*
X13223991Y-18803984D01*
X13404944Y-18994460D02*
X13385896Y-19003984D01*
X13385896Y-19003984D02*
X13347801Y-19003984D01*
X13347801Y-19003984D02*
X13328753Y-18994460D01*
X13328753Y-18994460D02*
X13319230Y-18975412D01*
X13319230Y-18975412D02*
X13319230Y-18899222D01*
X13319230Y-18899222D02*
X13328753Y-18880174D01*
X13328753Y-18880174D02*
X13347801Y-18870650D01*
X13347801Y-18870650D02*
X13385896Y-18870650D01*
X13385896Y-18870650D02*
X13404944Y-18880174D01*
X13404944Y-18880174D02*
X13414468Y-18899222D01*
X13414468Y-18899222D02*
X13414468Y-18918270D01*
X13414468Y-18918270D02*
X13319230Y-18937317D01*
X13490658Y-18994460D02*
X13509706Y-19003984D01*
X13509706Y-19003984D02*
X13547801Y-19003984D01*
X13547801Y-19003984D02*
X13566849Y-18994460D01*
X13566849Y-18994460D02*
X13576372Y-18975412D01*
X13576372Y-18975412D02*
X13576372Y-18965889D01*
X13576372Y-18965889D02*
X13566849Y-18946841D01*
X13566849Y-18946841D02*
X13547801Y-18937317D01*
X13547801Y-18937317D02*
X13519230Y-18937317D01*
X13519230Y-18937317D02*
X13500182Y-18927793D01*
X13500182Y-18927793D02*
X13490658Y-18908746D01*
X13490658Y-18908746D02*
X13490658Y-18899222D01*
X13490658Y-18899222D02*
X13500182Y-18880174D01*
X13500182Y-18880174D02*
X13519230Y-18870650D01*
X13519230Y-18870650D02*
X13547801Y-18870650D01*
X13547801Y-18870650D02*
X13566849Y-18880174D01*
X13643039Y-19080174D02*
X13652563Y-19070650D01*
X13652563Y-19070650D02*
X13671611Y-19042079D01*
X13671611Y-19042079D02*
X13681134Y-19023031D01*
X13681134Y-19023031D02*
X13690658Y-18994460D01*
X13690658Y-18994460D02*
X13700182Y-18946841D01*
X13700182Y-18946841D02*
X13700182Y-18908746D01*
X13700182Y-18908746D02*
X13690658Y-18861127D01*
X13690658Y-18861127D02*
X13681134Y-18832555D01*
X13681134Y-18832555D02*
X13671611Y-18813508D01*
X13671611Y-18813508D02*
X13652563Y-18784936D01*
X13652563Y-18784936D02*
X13643039Y-18775412D01*
D13*
X8517500Y-19096500D02*
X8677500Y-19256500D01*
X8677500Y-19096500D02*
X8517500Y-19256500D01*
X8597500Y-19096500D02*
X8597500Y-19256500D01*
X8517500Y-19176500D02*
X8677500Y-19176500D01*
D11*
X9043039Y-19267984D02*
X8928753Y-19267984D01*
X8985896Y-19267984D02*
X8985896Y-19067984D01*
X8985896Y-19067984D02*
X8966848Y-19096555D01*
X8966848Y-19096555D02*
X8947801Y-19115603D01*
X8947801Y-19115603D02*
X8928753Y-19125127D01*
X9128753Y-19248936D02*
X9138277Y-19258460D01*
X9138277Y-19258460D02*
X9128753Y-19267984D01*
X9128753Y-19267984D02*
X9119229Y-19258460D01*
X9119229Y-19258460D02*
X9128753Y-19248936D01*
X9128753Y-19248936D02*
X9128753Y-19267984D01*
X9309705Y-19067984D02*
X9271610Y-19067984D01*
X9271610Y-19067984D02*
X9252563Y-19077508D01*
X9252563Y-19077508D02*
X9243039Y-19087031D01*
X9243039Y-19087031D02*
X9223991Y-19115603D01*
X9223991Y-19115603D02*
X9214467Y-19153698D01*
X9214467Y-19153698D02*
X9214467Y-19229889D01*
X9214467Y-19229889D02*
X9223991Y-19248936D01*
X9223991Y-19248936D02*
X9233515Y-19258460D01*
X9233515Y-19258460D02*
X9252563Y-19267984D01*
X9252563Y-19267984D02*
X9290658Y-19267984D01*
X9290658Y-19267984D02*
X9309705Y-19258460D01*
X9309705Y-19258460D02*
X9319229Y-19248936D01*
X9319229Y-19248936D02*
X9328753Y-19229889D01*
X9328753Y-19229889D02*
X9328753Y-19182270D01*
X9328753Y-19182270D02*
X9319229Y-19163222D01*
X9319229Y-19163222D02*
X9309705Y-19153698D01*
X9309705Y-19153698D02*
X9290658Y-19144174D01*
X9290658Y-19144174D02*
X9252563Y-19144174D01*
X9252563Y-19144174D02*
X9233515Y-19153698D01*
X9233515Y-19153698D02*
X9223991Y-19163222D01*
X9223991Y-19163222D02*
X9214467Y-19182270D01*
X9452563Y-19067984D02*
X9471610Y-19067984D01*
X9471610Y-19067984D02*
X9490658Y-19077508D01*
X9490658Y-19077508D02*
X9500182Y-19087031D01*
X9500182Y-19087031D02*
X9509705Y-19106079D01*
X9509705Y-19106079D02*
X9519229Y-19144174D01*
X9519229Y-19144174D02*
X9519229Y-19191793D01*
X9519229Y-19191793D02*
X9509705Y-19229889D01*
X9509705Y-19229889D02*
X9500182Y-19248936D01*
X9500182Y-19248936D02*
X9490658Y-19258460D01*
X9490658Y-19258460D02*
X9471610Y-19267984D01*
X9471610Y-19267984D02*
X9452563Y-19267984D01*
X9452563Y-19267984D02*
X9433515Y-19258460D01*
X9433515Y-19258460D02*
X9423991Y-19248936D01*
X9423991Y-19248936D02*
X9414467Y-19229889D01*
X9414467Y-19229889D02*
X9404944Y-19191793D01*
X9404944Y-19191793D02*
X9404944Y-19144174D01*
X9404944Y-19144174D02*
X9414467Y-19106079D01*
X9414467Y-19106079D02*
X9423991Y-19087031D01*
X9423991Y-19087031D02*
X9433515Y-19077508D01*
X9433515Y-19077508D02*
X9452563Y-19067984D01*
X9643039Y-19067984D02*
X9662086Y-19067984D01*
X9662086Y-19067984D02*
X9681134Y-19077508D01*
X9681134Y-19077508D02*
X9690658Y-19087031D01*
X9690658Y-19087031D02*
X9700182Y-19106079D01*
X9700182Y-19106079D02*
X9709705Y-19144174D01*
X9709705Y-19144174D02*
X9709705Y-19191793D01*
X9709705Y-19191793D02*
X9700182Y-19229889D01*
X9700182Y-19229889D02*
X9690658Y-19248936D01*
X9690658Y-19248936D02*
X9681134Y-19258460D01*
X9681134Y-19258460D02*
X9662086Y-19267984D01*
X9662086Y-19267984D02*
X9643039Y-19267984D01*
X9643039Y-19267984D02*
X9623991Y-19258460D01*
X9623991Y-19258460D02*
X9614467Y-19248936D01*
X9614467Y-19248936D02*
X9604944Y-19229889D01*
X9604944Y-19229889D02*
X9595420Y-19191793D01*
X9595420Y-19191793D02*
X9595420Y-19144174D01*
X9595420Y-19144174D02*
X9604944Y-19106079D01*
X9604944Y-19106079D02*
X9614467Y-19087031D01*
X9614467Y-19087031D02*
X9623991Y-19077508D01*
X9623991Y-19077508D02*
X9643039Y-19067984D01*
X9795420Y-19267984D02*
X9795420Y-19134650D01*
X9795420Y-19153698D02*
X9804944Y-19144174D01*
X9804944Y-19144174D02*
X9823991Y-19134650D01*
X9823991Y-19134650D02*
X9852563Y-19134650D01*
X9852563Y-19134650D02*
X9871610Y-19144174D01*
X9871610Y-19144174D02*
X9881134Y-19163222D01*
X9881134Y-19163222D02*
X9881134Y-19267984D01*
X9881134Y-19163222D02*
X9890658Y-19144174D01*
X9890658Y-19144174D02*
X9909705Y-19134650D01*
X9909705Y-19134650D02*
X9938277Y-19134650D01*
X9938277Y-19134650D02*
X9957325Y-19144174D01*
X9957325Y-19144174D02*
X9966848Y-19163222D01*
X9966848Y-19163222D02*
X9966848Y-19267984D01*
X10062086Y-19267984D02*
X10062086Y-19134650D01*
X10062086Y-19153698D02*
X10071610Y-19144174D01*
X10071610Y-19144174D02*
X10090658Y-19134650D01*
X10090658Y-19134650D02*
X10119229Y-19134650D01*
X10119229Y-19134650D02*
X10138277Y-19144174D01*
X10138277Y-19144174D02*
X10147801Y-19163222D01*
X10147801Y-19163222D02*
X10147801Y-19267984D01*
X10147801Y-19163222D02*
X10157325Y-19144174D01*
X10157325Y-19144174D02*
X10176372Y-19134650D01*
X10176372Y-19134650D02*
X10204944Y-19134650D01*
X10204944Y-19134650D02*
X10223991Y-19144174D01*
X10223991Y-19144174D02*
X10233515Y-19163222D01*
X10233515Y-19163222D02*
X10233515Y-19267984D01*
X10623991Y-19058460D02*
X10452563Y-19315603D01*
X10881134Y-19067984D02*
X10900182Y-19067984D01*
X10900182Y-19067984D02*
X10919229Y-19077508D01*
X10919229Y-19077508D02*
X10928753Y-19087031D01*
X10928753Y-19087031D02*
X10938277Y-19106079D01*
X10938277Y-19106079D02*
X10947801Y-19144174D01*
X10947801Y-19144174D02*
X10947801Y-19191793D01*
X10947801Y-19191793D02*
X10938277Y-19229889D01*
X10938277Y-19229889D02*
X10928753Y-19248936D01*
X10928753Y-19248936D02*
X10919229Y-19258460D01*
X10919229Y-19258460D02*
X10900182Y-19267984D01*
X10900182Y-19267984D02*
X10881134Y-19267984D01*
X10881134Y-19267984D02*
X10862087Y-19258460D01*
X10862087Y-19258460D02*
X10852563Y-19248936D01*
X10852563Y-19248936D02*
X10843039Y-19229889D01*
X10843039Y-19229889D02*
X10833515Y-19191793D01*
X10833515Y-19191793D02*
X10833515Y-19144174D01*
X10833515Y-19144174D02*
X10843039Y-19106079D01*
X10843039Y-19106079D02*
X10852563Y-19087031D01*
X10852563Y-19087031D02*
X10862087Y-19077508D01*
X10862087Y-19077508D02*
X10881134Y-19067984D01*
X11033515Y-19248936D02*
X11043039Y-19258460D01*
X11043039Y-19258460D02*
X11033515Y-19267984D01*
X11033515Y-19267984D02*
X11023991Y-19258460D01*
X11023991Y-19258460D02*
X11033515Y-19248936D01*
X11033515Y-19248936D02*
X11033515Y-19267984D01*
X11166848Y-19067984D02*
X11185896Y-19067984D01*
X11185896Y-19067984D02*
X11204944Y-19077508D01*
X11204944Y-19077508D02*
X11214467Y-19087031D01*
X11214467Y-19087031D02*
X11223991Y-19106079D01*
X11223991Y-19106079D02*
X11233515Y-19144174D01*
X11233515Y-19144174D02*
X11233515Y-19191793D01*
X11233515Y-19191793D02*
X11223991Y-19229889D01*
X11223991Y-19229889D02*
X11214467Y-19248936D01*
X11214467Y-19248936D02*
X11204944Y-19258460D01*
X11204944Y-19258460D02*
X11185896Y-19267984D01*
X11185896Y-19267984D02*
X11166848Y-19267984D01*
X11166848Y-19267984D02*
X11147801Y-19258460D01*
X11147801Y-19258460D02*
X11138277Y-19248936D01*
X11138277Y-19248936D02*
X11128753Y-19229889D01*
X11128753Y-19229889D02*
X11119229Y-19191793D01*
X11119229Y-19191793D02*
X11119229Y-19144174D01*
X11119229Y-19144174D02*
X11128753Y-19106079D01*
X11128753Y-19106079D02*
X11138277Y-19087031D01*
X11138277Y-19087031D02*
X11147801Y-19077508D01*
X11147801Y-19077508D02*
X11166848Y-19067984D01*
X11404944Y-19067984D02*
X11366848Y-19067984D01*
X11366848Y-19067984D02*
X11347801Y-19077508D01*
X11347801Y-19077508D02*
X11338277Y-19087031D01*
X11338277Y-19087031D02*
X11319229Y-19115603D01*
X11319229Y-19115603D02*
X11309706Y-19153698D01*
X11309706Y-19153698D02*
X11309706Y-19229889D01*
X11309706Y-19229889D02*
X11319229Y-19248936D01*
X11319229Y-19248936D02*
X11328753Y-19258460D01*
X11328753Y-19258460D02*
X11347801Y-19267984D01*
X11347801Y-19267984D02*
X11385896Y-19267984D01*
X11385896Y-19267984D02*
X11404944Y-19258460D01*
X11404944Y-19258460D02*
X11414467Y-19248936D01*
X11414467Y-19248936D02*
X11423991Y-19229889D01*
X11423991Y-19229889D02*
X11423991Y-19182270D01*
X11423991Y-19182270D02*
X11414467Y-19163222D01*
X11414467Y-19163222D02*
X11404944Y-19153698D01*
X11404944Y-19153698D02*
X11385896Y-19144174D01*
X11385896Y-19144174D02*
X11347801Y-19144174D01*
X11347801Y-19144174D02*
X11328753Y-19153698D01*
X11328753Y-19153698D02*
X11319229Y-19163222D01*
X11319229Y-19163222D02*
X11309706Y-19182270D01*
X11490658Y-19067984D02*
X11614467Y-19067984D01*
X11614467Y-19067984D02*
X11547801Y-19144174D01*
X11547801Y-19144174D02*
X11576372Y-19144174D01*
X11576372Y-19144174D02*
X11595420Y-19153698D01*
X11595420Y-19153698D02*
X11604944Y-19163222D01*
X11604944Y-19163222D02*
X11614467Y-19182270D01*
X11614467Y-19182270D02*
X11614467Y-19229889D01*
X11614467Y-19229889D02*
X11604944Y-19248936D01*
X11604944Y-19248936D02*
X11595420Y-19258460D01*
X11595420Y-19258460D02*
X11576372Y-19267984D01*
X11576372Y-19267984D02*
X11519229Y-19267984D01*
X11519229Y-19267984D02*
X11500182Y-19258460D01*
X11500182Y-19258460D02*
X11490658Y-19248936D01*
X11738277Y-19067984D02*
X11757325Y-19067984D01*
X11757325Y-19067984D02*
X11776372Y-19077508D01*
X11776372Y-19077508D02*
X11785896Y-19087031D01*
X11785896Y-19087031D02*
X11795420Y-19106079D01*
X11795420Y-19106079D02*
X11804944Y-19144174D01*
X11804944Y-19144174D02*
X11804944Y-19191793D01*
X11804944Y-19191793D02*
X11795420Y-19229889D01*
X11795420Y-19229889D02*
X11785896Y-19248936D01*
X11785896Y-19248936D02*
X11776372Y-19258460D01*
X11776372Y-19258460D02*
X11757325Y-19267984D01*
X11757325Y-19267984D02*
X11738277Y-19267984D01*
X11738277Y-19267984D02*
X11719229Y-19258460D01*
X11719229Y-19258460D02*
X11709706Y-19248936D01*
X11709706Y-19248936D02*
X11700182Y-19229889D01*
X11700182Y-19229889D02*
X11690658Y-19191793D01*
X11690658Y-19191793D02*
X11690658Y-19144174D01*
X11690658Y-19144174D02*
X11700182Y-19106079D01*
X11700182Y-19106079D02*
X11709706Y-19087031D01*
X11709706Y-19087031D02*
X11719229Y-19077508D01*
X11719229Y-19077508D02*
X11738277Y-19067984D01*
X11881134Y-19067984D02*
X11881134Y-19106079D01*
X11957325Y-19067984D02*
X11957325Y-19106079D01*
X12252563Y-19344174D02*
X12243039Y-19334650D01*
X12243039Y-19334650D02*
X12223991Y-19306079D01*
X12223991Y-19306079D02*
X12214468Y-19287031D01*
X12214468Y-19287031D02*
X12204944Y-19258460D01*
X12204944Y-19258460D02*
X12195420Y-19210841D01*
X12195420Y-19210841D02*
X12195420Y-19172746D01*
X12195420Y-19172746D02*
X12204944Y-19125127D01*
X12204944Y-19125127D02*
X12214468Y-19096555D01*
X12214468Y-19096555D02*
X12223991Y-19077508D01*
X12223991Y-19077508D02*
X12243039Y-19048936D01*
X12243039Y-19048936D02*
X12252563Y-19039412D01*
X12414468Y-19067984D02*
X12376372Y-19067984D01*
X12376372Y-19067984D02*
X12357325Y-19077508D01*
X12357325Y-19077508D02*
X12347801Y-19087031D01*
X12347801Y-19087031D02*
X12328753Y-19115603D01*
X12328753Y-19115603D02*
X12319229Y-19153698D01*
X12319229Y-19153698D02*
X12319229Y-19229889D01*
X12319229Y-19229889D02*
X12328753Y-19248936D01*
X12328753Y-19248936D02*
X12338277Y-19258460D01*
X12338277Y-19258460D02*
X12357325Y-19267984D01*
X12357325Y-19267984D02*
X12395420Y-19267984D01*
X12395420Y-19267984D02*
X12414468Y-19258460D01*
X12414468Y-19258460D02*
X12423991Y-19248936D01*
X12423991Y-19248936D02*
X12433515Y-19229889D01*
X12433515Y-19229889D02*
X12433515Y-19182270D01*
X12433515Y-19182270D02*
X12423991Y-19163222D01*
X12423991Y-19163222D02*
X12414468Y-19153698D01*
X12414468Y-19153698D02*
X12395420Y-19144174D01*
X12395420Y-19144174D02*
X12357325Y-19144174D01*
X12357325Y-19144174D02*
X12338277Y-19153698D01*
X12338277Y-19153698D02*
X12328753Y-19163222D01*
X12328753Y-19163222D02*
X12319229Y-19182270D01*
X12671610Y-19267984D02*
X12671610Y-19067984D01*
X12757325Y-19267984D02*
X12757325Y-19163222D01*
X12757325Y-19163222D02*
X12747801Y-19144174D01*
X12747801Y-19144174D02*
X12728753Y-19134650D01*
X12728753Y-19134650D02*
X12700182Y-19134650D01*
X12700182Y-19134650D02*
X12681134Y-19144174D01*
X12681134Y-19144174D02*
X12671610Y-19153698D01*
X12881134Y-19267984D02*
X12862087Y-19258460D01*
X12862087Y-19258460D02*
X12852563Y-19248936D01*
X12852563Y-19248936D02*
X12843039Y-19229889D01*
X12843039Y-19229889D02*
X12843039Y-19172746D01*
X12843039Y-19172746D02*
X12852563Y-19153698D01*
X12852563Y-19153698D02*
X12862087Y-19144174D01*
X12862087Y-19144174D02*
X12881134Y-19134650D01*
X12881134Y-19134650D02*
X12909706Y-19134650D01*
X12909706Y-19134650D02*
X12928753Y-19144174D01*
X12928753Y-19144174D02*
X12938277Y-19153698D01*
X12938277Y-19153698D02*
X12947801Y-19172746D01*
X12947801Y-19172746D02*
X12947801Y-19229889D01*
X12947801Y-19229889D02*
X12938277Y-19248936D01*
X12938277Y-19248936D02*
X12928753Y-19258460D01*
X12928753Y-19258460D02*
X12909706Y-19267984D01*
X12909706Y-19267984D02*
X12881134Y-19267984D01*
X13062087Y-19267984D02*
X13043039Y-19258460D01*
X13043039Y-19258460D02*
X13033515Y-19239412D01*
X13033515Y-19239412D02*
X13033515Y-19067984D01*
X13214468Y-19258460D02*
X13195420Y-19267984D01*
X13195420Y-19267984D02*
X13157325Y-19267984D01*
X13157325Y-19267984D02*
X13138277Y-19258460D01*
X13138277Y-19258460D02*
X13128753Y-19239412D01*
X13128753Y-19239412D02*
X13128753Y-19163222D01*
X13128753Y-19163222D02*
X13138277Y-19144174D01*
X13138277Y-19144174D02*
X13157325Y-19134650D01*
X13157325Y-19134650D02*
X13195420Y-19134650D01*
X13195420Y-19134650D02*
X13214468Y-19144174D01*
X13214468Y-19144174D02*
X13223991Y-19163222D01*
X13223991Y-19163222D02*
X13223991Y-19182270D01*
X13223991Y-19182270D02*
X13128753Y-19201317D01*
X13300182Y-19258460D02*
X13319230Y-19267984D01*
X13319230Y-19267984D02*
X13357325Y-19267984D01*
X13357325Y-19267984D02*
X13376372Y-19258460D01*
X13376372Y-19258460D02*
X13385896Y-19239412D01*
X13385896Y-19239412D02*
X13385896Y-19229889D01*
X13385896Y-19229889D02*
X13376372Y-19210841D01*
X13376372Y-19210841D02*
X13357325Y-19201317D01*
X13357325Y-19201317D02*
X13328753Y-19201317D01*
X13328753Y-19201317D02*
X13309706Y-19191793D01*
X13309706Y-19191793D02*
X13300182Y-19172746D01*
X13300182Y-19172746D02*
X13300182Y-19163222D01*
X13300182Y-19163222D02*
X13309706Y-19144174D01*
X13309706Y-19144174D02*
X13328753Y-19134650D01*
X13328753Y-19134650D02*
X13357325Y-19134650D01*
X13357325Y-19134650D02*
X13376372Y-19144174D01*
X13452563Y-19344174D02*
X13462087Y-19334650D01*
X13462087Y-19334650D02*
X13481134Y-19306079D01*
X13481134Y-19306079D02*
X13490658Y-19287031D01*
X13490658Y-19287031D02*
X13500182Y-19258460D01*
X13500182Y-19258460D02*
X13509706Y-19210841D01*
X13509706Y-19210841D02*
X13509706Y-19172746D01*
X13509706Y-19172746D02*
X13500182Y-19125127D01*
X13500182Y-19125127D02*
X13490658Y-19096555D01*
X13490658Y-19096555D02*
X13481134Y-19077508D01*
X13481134Y-19077508D02*
X13462087Y-19048936D01*
X13462087Y-19048936D02*
X13452563Y-19039412D01*
X8477500Y-19356500D02*
X8677500Y-19556500D01*
X8677500Y-19356500D02*
X8477500Y-19556500D01*
X8648211Y-19527211D02*
X8648211Y-19385789D01*
X8506789Y-19385789D01*
X8506789Y-19527211D01*
X8648211Y-19527211D01*
X8928753Y-19367031D02*
X8938277Y-19357508D01*
X8938277Y-19357508D02*
X8957324Y-19347984D01*
X8957324Y-19347984D02*
X9004944Y-19347984D01*
X9004944Y-19347984D02*
X9023991Y-19357508D01*
X9023991Y-19357508D02*
X9033515Y-19367031D01*
X9033515Y-19367031D02*
X9043039Y-19386079D01*
X9043039Y-19386079D02*
X9043039Y-19405127D01*
X9043039Y-19405127D02*
X9033515Y-19433698D01*
X9033515Y-19433698D02*
X8919229Y-19547984D01*
X8919229Y-19547984D02*
X9043039Y-19547984D01*
X9128753Y-19528936D02*
X9138277Y-19538460D01*
X9138277Y-19538460D02*
X9128753Y-19547984D01*
X9128753Y-19547984D02*
X9119229Y-19538460D01*
X9119229Y-19538460D02*
X9128753Y-19528936D01*
X9128753Y-19528936D02*
X9128753Y-19547984D01*
X9204944Y-19347984D02*
X9328753Y-19347984D01*
X9328753Y-19347984D02*
X9262086Y-19424174D01*
X9262086Y-19424174D02*
X9290658Y-19424174D01*
X9290658Y-19424174D02*
X9309705Y-19433698D01*
X9309705Y-19433698D02*
X9319229Y-19443222D01*
X9319229Y-19443222D02*
X9328753Y-19462270D01*
X9328753Y-19462270D02*
X9328753Y-19509889D01*
X9328753Y-19509889D02*
X9319229Y-19528936D01*
X9319229Y-19528936D02*
X9309705Y-19538460D01*
X9309705Y-19538460D02*
X9290658Y-19547984D01*
X9290658Y-19547984D02*
X9233515Y-19547984D01*
X9233515Y-19547984D02*
X9214467Y-19538460D01*
X9214467Y-19538460D02*
X9204944Y-19528936D01*
X9423991Y-19547984D02*
X9462086Y-19547984D01*
X9462086Y-19547984D02*
X9481134Y-19538460D01*
X9481134Y-19538460D02*
X9490658Y-19528936D01*
X9490658Y-19528936D02*
X9509705Y-19500365D01*
X9509705Y-19500365D02*
X9519229Y-19462270D01*
X9519229Y-19462270D02*
X9519229Y-19386079D01*
X9519229Y-19386079D02*
X9509705Y-19367031D01*
X9509705Y-19367031D02*
X9500182Y-19357508D01*
X9500182Y-19357508D02*
X9481134Y-19347984D01*
X9481134Y-19347984D02*
X9443039Y-19347984D01*
X9443039Y-19347984D02*
X9423991Y-19357508D01*
X9423991Y-19357508D02*
X9414467Y-19367031D01*
X9414467Y-19367031D02*
X9404944Y-19386079D01*
X9404944Y-19386079D02*
X9404944Y-19433698D01*
X9404944Y-19433698D02*
X9414467Y-19452746D01*
X9414467Y-19452746D02*
X9423991Y-19462270D01*
X9423991Y-19462270D02*
X9443039Y-19471793D01*
X9443039Y-19471793D02*
X9481134Y-19471793D01*
X9481134Y-19471793D02*
X9500182Y-19462270D01*
X9500182Y-19462270D02*
X9509705Y-19452746D01*
X9509705Y-19452746D02*
X9519229Y-19433698D01*
X9643039Y-19347984D02*
X9662086Y-19347984D01*
X9662086Y-19347984D02*
X9681134Y-19357508D01*
X9681134Y-19357508D02*
X9690658Y-19367031D01*
X9690658Y-19367031D02*
X9700182Y-19386079D01*
X9700182Y-19386079D02*
X9709705Y-19424174D01*
X9709705Y-19424174D02*
X9709705Y-19471793D01*
X9709705Y-19471793D02*
X9700182Y-19509889D01*
X9700182Y-19509889D02*
X9690658Y-19528936D01*
X9690658Y-19528936D02*
X9681134Y-19538460D01*
X9681134Y-19538460D02*
X9662086Y-19547984D01*
X9662086Y-19547984D02*
X9643039Y-19547984D01*
X9643039Y-19547984D02*
X9623991Y-19538460D01*
X9623991Y-19538460D02*
X9614467Y-19528936D01*
X9614467Y-19528936D02*
X9604944Y-19509889D01*
X9604944Y-19509889D02*
X9595420Y-19471793D01*
X9595420Y-19471793D02*
X9595420Y-19424174D01*
X9595420Y-19424174D02*
X9604944Y-19386079D01*
X9604944Y-19386079D02*
X9614467Y-19367031D01*
X9614467Y-19367031D02*
X9623991Y-19357508D01*
X9623991Y-19357508D02*
X9643039Y-19347984D01*
X9795420Y-19547984D02*
X9795420Y-19414650D01*
X9795420Y-19433698D02*
X9804944Y-19424174D01*
X9804944Y-19424174D02*
X9823991Y-19414650D01*
X9823991Y-19414650D02*
X9852563Y-19414650D01*
X9852563Y-19414650D02*
X9871610Y-19424174D01*
X9871610Y-19424174D02*
X9881134Y-19443222D01*
X9881134Y-19443222D02*
X9881134Y-19547984D01*
X9881134Y-19443222D02*
X9890658Y-19424174D01*
X9890658Y-19424174D02*
X9909705Y-19414650D01*
X9909705Y-19414650D02*
X9938277Y-19414650D01*
X9938277Y-19414650D02*
X9957325Y-19424174D01*
X9957325Y-19424174D02*
X9966848Y-19443222D01*
X9966848Y-19443222D02*
X9966848Y-19547984D01*
X10062086Y-19547984D02*
X10062086Y-19414650D01*
X10062086Y-19433698D02*
X10071610Y-19424174D01*
X10071610Y-19424174D02*
X10090658Y-19414650D01*
X10090658Y-19414650D02*
X10119229Y-19414650D01*
X10119229Y-19414650D02*
X10138277Y-19424174D01*
X10138277Y-19424174D02*
X10147801Y-19443222D01*
X10147801Y-19443222D02*
X10147801Y-19547984D01*
X10147801Y-19443222D02*
X10157325Y-19424174D01*
X10157325Y-19424174D02*
X10176372Y-19414650D01*
X10176372Y-19414650D02*
X10204944Y-19414650D01*
X10204944Y-19414650D02*
X10223991Y-19424174D01*
X10223991Y-19424174D02*
X10233515Y-19443222D01*
X10233515Y-19443222D02*
X10233515Y-19547984D01*
X10623991Y-19338460D02*
X10452563Y-19595603D01*
X10881134Y-19347984D02*
X10900182Y-19347984D01*
X10900182Y-19347984D02*
X10919229Y-19357508D01*
X10919229Y-19357508D02*
X10928753Y-19367031D01*
X10928753Y-19367031D02*
X10938277Y-19386079D01*
X10938277Y-19386079D02*
X10947801Y-19424174D01*
X10947801Y-19424174D02*
X10947801Y-19471793D01*
X10947801Y-19471793D02*
X10938277Y-19509889D01*
X10938277Y-19509889D02*
X10928753Y-19528936D01*
X10928753Y-19528936D02*
X10919229Y-19538460D01*
X10919229Y-19538460D02*
X10900182Y-19547984D01*
X10900182Y-19547984D02*
X10881134Y-19547984D01*
X10881134Y-19547984D02*
X10862087Y-19538460D01*
X10862087Y-19538460D02*
X10852563Y-19528936D01*
X10852563Y-19528936D02*
X10843039Y-19509889D01*
X10843039Y-19509889D02*
X10833515Y-19471793D01*
X10833515Y-19471793D02*
X10833515Y-19424174D01*
X10833515Y-19424174D02*
X10843039Y-19386079D01*
X10843039Y-19386079D02*
X10852563Y-19367031D01*
X10852563Y-19367031D02*
X10862087Y-19357508D01*
X10862087Y-19357508D02*
X10881134Y-19347984D01*
X11033515Y-19528936D02*
X11043039Y-19538460D01*
X11043039Y-19538460D02*
X11033515Y-19547984D01*
X11033515Y-19547984D02*
X11023991Y-19538460D01*
X11023991Y-19538460D02*
X11033515Y-19528936D01*
X11033515Y-19528936D02*
X11033515Y-19547984D01*
X11166848Y-19347984D02*
X11185896Y-19347984D01*
X11185896Y-19347984D02*
X11204944Y-19357508D01*
X11204944Y-19357508D02*
X11214467Y-19367031D01*
X11214467Y-19367031D02*
X11223991Y-19386079D01*
X11223991Y-19386079D02*
X11233515Y-19424174D01*
X11233515Y-19424174D02*
X11233515Y-19471793D01*
X11233515Y-19471793D02*
X11223991Y-19509889D01*
X11223991Y-19509889D02*
X11214467Y-19528936D01*
X11214467Y-19528936D02*
X11204944Y-19538460D01*
X11204944Y-19538460D02*
X11185896Y-19547984D01*
X11185896Y-19547984D02*
X11166848Y-19547984D01*
X11166848Y-19547984D02*
X11147801Y-19538460D01*
X11147801Y-19538460D02*
X11138277Y-19528936D01*
X11138277Y-19528936D02*
X11128753Y-19509889D01*
X11128753Y-19509889D02*
X11119229Y-19471793D01*
X11119229Y-19471793D02*
X11119229Y-19424174D01*
X11119229Y-19424174D02*
X11128753Y-19386079D01*
X11128753Y-19386079D02*
X11138277Y-19367031D01*
X11138277Y-19367031D02*
X11147801Y-19357508D01*
X11147801Y-19357508D02*
X11166848Y-19347984D01*
X11328753Y-19547984D02*
X11366848Y-19547984D01*
X11366848Y-19547984D02*
X11385896Y-19538460D01*
X11385896Y-19538460D02*
X11395420Y-19528936D01*
X11395420Y-19528936D02*
X11414467Y-19500365D01*
X11414467Y-19500365D02*
X11423991Y-19462270D01*
X11423991Y-19462270D02*
X11423991Y-19386079D01*
X11423991Y-19386079D02*
X11414467Y-19367031D01*
X11414467Y-19367031D02*
X11404944Y-19357508D01*
X11404944Y-19357508D02*
X11385896Y-19347984D01*
X11385896Y-19347984D02*
X11347801Y-19347984D01*
X11347801Y-19347984D02*
X11328753Y-19357508D01*
X11328753Y-19357508D02*
X11319229Y-19367031D01*
X11319229Y-19367031D02*
X11309706Y-19386079D01*
X11309706Y-19386079D02*
X11309706Y-19433698D01*
X11309706Y-19433698D02*
X11319229Y-19452746D01*
X11319229Y-19452746D02*
X11328753Y-19462270D01*
X11328753Y-19462270D02*
X11347801Y-19471793D01*
X11347801Y-19471793D02*
X11385896Y-19471793D01*
X11385896Y-19471793D02*
X11404944Y-19462270D01*
X11404944Y-19462270D02*
X11414467Y-19452746D01*
X11414467Y-19452746D02*
X11423991Y-19433698D01*
X11595420Y-19414650D02*
X11595420Y-19547984D01*
X11547801Y-19338460D02*
X11500182Y-19481317D01*
X11500182Y-19481317D02*
X11623991Y-19481317D01*
X11804944Y-19547984D02*
X11690658Y-19547984D01*
X11747801Y-19547984D02*
X11747801Y-19347984D01*
X11747801Y-19347984D02*
X11728753Y-19376555D01*
X11728753Y-19376555D02*
X11709706Y-19395603D01*
X11709706Y-19395603D02*
X11690658Y-19405127D01*
X11881134Y-19347984D02*
X11881134Y-19386079D01*
X11957325Y-19347984D02*
X11957325Y-19386079D01*
X12252563Y-19624174D02*
X12243039Y-19614650D01*
X12243039Y-19614650D02*
X12223991Y-19586079D01*
X12223991Y-19586079D02*
X12214468Y-19567031D01*
X12214468Y-19567031D02*
X12204944Y-19538460D01*
X12204944Y-19538460D02*
X12195420Y-19490841D01*
X12195420Y-19490841D02*
X12195420Y-19452746D01*
X12195420Y-19452746D02*
X12204944Y-19405127D01*
X12204944Y-19405127D02*
X12214468Y-19376555D01*
X12214468Y-19376555D02*
X12223991Y-19357508D01*
X12223991Y-19357508D02*
X12243039Y-19328936D01*
X12243039Y-19328936D02*
X12252563Y-19319412D01*
X12319229Y-19367031D02*
X12328753Y-19357508D01*
X12328753Y-19357508D02*
X12347801Y-19347984D01*
X12347801Y-19347984D02*
X12395420Y-19347984D01*
X12395420Y-19347984D02*
X12414468Y-19357508D01*
X12414468Y-19357508D02*
X12423991Y-19367031D01*
X12423991Y-19367031D02*
X12433515Y-19386079D01*
X12433515Y-19386079D02*
X12433515Y-19405127D01*
X12433515Y-19405127D02*
X12423991Y-19433698D01*
X12423991Y-19433698D02*
X12309706Y-19547984D01*
X12309706Y-19547984D02*
X12433515Y-19547984D01*
X12671610Y-19547984D02*
X12671610Y-19347984D01*
X12757325Y-19547984D02*
X12757325Y-19443222D01*
X12757325Y-19443222D02*
X12747801Y-19424174D01*
X12747801Y-19424174D02*
X12728753Y-19414650D01*
X12728753Y-19414650D02*
X12700182Y-19414650D01*
X12700182Y-19414650D02*
X12681134Y-19424174D01*
X12681134Y-19424174D02*
X12671610Y-19433698D01*
X12881134Y-19547984D02*
X12862087Y-19538460D01*
X12862087Y-19538460D02*
X12852563Y-19528936D01*
X12852563Y-19528936D02*
X12843039Y-19509889D01*
X12843039Y-19509889D02*
X12843039Y-19452746D01*
X12843039Y-19452746D02*
X12852563Y-19433698D01*
X12852563Y-19433698D02*
X12862087Y-19424174D01*
X12862087Y-19424174D02*
X12881134Y-19414650D01*
X12881134Y-19414650D02*
X12909706Y-19414650D01*
X12909706Y-19414650D02*
X12928753Y-19424174D01*
X12928753Y-19424174D02*
X12938277Y-19433698D01*
X12938277Y-19433698D02*
X12947801Y-19452746D01*
X12947801Y-19452746D02*
X12947801Y-19509889D01*
X12947801Y-19509889D02*
X12938277Y-19528936D01*
X12938277Y-19528936D02*
X12928753Y-19538460D01*
X12928753Y-19538460D02*
X12909706Y-19547984D01*
X12909706Y-19547984D02*
X12881134Y-19547984D01*
X13062087Y-19547984D02*
X13043039Y-19538460D01*
X13043039Y-19538460D02*
X13033515Y-19519412D01*
X13033515Y-19519412D02*
X13033515Y-19347984D01*
X13214468Y-19538460D02*
X13195420Y-19547984D01*
X13195420Y-19547984D02*
X13157325Y-19547984D01*
X13157325Y-19547984D02*
X13138277Y-19538460D01*
X13138277Y-19538460D02*
X13128753Y-19519412D01*
X13128753Y-19519412D02*
X13128753Y-19443222D01*
X13128753Y-19443222D02*
X13138277Y-19424174D01*
X13138277Y-19424174D02*
X13157325Y-19414650D01*
X13157325Y-19414650D02*
X13195420Y-19414650D01*
X13195420Y-19414650D02*
X13214468Y-19424174D01*
X13214468Y-19424174D02*
X13223991Y-19443222D01*
X13223991Y-19443222D02*
X13223991Y-19462270D01*
X13223991Y-19462270D02*
X13128753Y-19481317D01*
X13300182Y-19538460D02*
X13319230Y-19547984D01*
X13319230Y-19547984D02*
X13357325Y-19547984D01*
X13357325Y-19547984D02*
X13376372Y-19538460D01*
X13376372Y-19538460D02*
X13385896Y-19519412D01*
X13385896Y-19519412D02*
X13385896Y-19509889D01*
X13385896Y-19509889D02*
X13376372Y-19490841D01*
X13376372Y-19490841D02*
X13357325Y-19481317D01*
X13357325Y-19481317D02*
X13328753Y-19481317D01*
X13328753Y-19481317D02*
X13309706Y-19471793D01*
X13309706Y-19471793D02*
X13300182Y-19452746D01*
X13300182Y-19452746D02*
X13300182Y-19443222D01*
X13300182Y-19443222D02*
X13309706Y-19424174D01*
X13309706Y-19424174D02*
X13328753Y-19414650D01*
X13328753Y-19414650D02*
X13357325Y-19414650D01*
X13357325Y-19414650D02*
X13376372Y-19424174D01*
X13452563Y-19624174D02*
X13462087Y-19614650D01*
X13462087Y-19614650D02*
X13481134Y-19586079D01*
X13481134Y-19586079D02*
X13490658Y-19567031D01*
X13490658Y-19567031D02*
X13500182Y-19538460D01*
X13500182Y-19538460D02*
X13509706Y-19490841D01*
X13509706Y-19490841D02*
X13509706Y-19452746D01*
X13509706Y-19452746D02*
X13500182Y-19405127D01*
X13500182Y-19405127D02*
X13490658Y-19376555D01*
X13490658Y-19376555D02*
X13481134Y-19357508D01*
X13481134Y-19357508D02*
X13462087Y-19328936D01*
X13462087Y-19328936D02*
X13452563Y-19319412D01*
M02*
