G04 #@! TF.GenerationSoftware,KiCad,Pcbnew,8.0.4*
G04 #@! TF.CreationDate,2025-04-22T14:39:33+02:00*
G04 #@! TF.ProjectId,MarvinProjekt,4d617276-696e-4507-926f-6a656b742e6b,rev?*
G04 #@! TF.SameCoordinates,Original*
G04 #@! TF.FileFunction,Soldermask,Bot*
G04 #@! TF.FilePolarity,Negative*
%FSLAX46Y46*%
G04 Gerber Fmt 4.6, Leading zero omitted, Abs format (unit mm)*
G04 Created by KiCad (PCBNEW 8.0.4) date 2025-04-22 14:39:33*
%MOMM*%
%LPD*%
G01*
G04 APERTURE LIST*
G04 Aperture macros list*
%AMRoundRect*
0 Rectangle with rounded corners*
0 $1 Rounding radius*
0 $2 $3 $4 $5 $6 $7 $8 $9 X,Y pos of 4 corners*
0 Add a 4 corners polygon primitive as box body*
4,1,4,$2,$3,$4,$5,$6,$7,$8,$9,$2,$3,0*
0 Add four circle primitives for the rounded corners*
1,1,$1+$1,$2,$3*
1,1,$1+$1,$4,$5*
1,1,$1+$1,$6,$7*
1,1,$1+$1,$8,$9*
0 Add four rect primitives between the rounded corners*
20,1,$1+$1,$2,$3,$4,$5,0*
20,1,$1+$1,$4,$5,$6,$7,0*
20,1,$1+$1,$6,$7,$8,$9,0*
20,1,$1+$1,$8,$9,$2,$3,0*%
G04 Aperture macros list end*
%ADD10C,0.750000*%
%ADD11O,2.000000X1.100000*%
%ADD12O,1.800000X1.200000*%
%ADD13R,1.700000X1.700000*%
%ADD14O,1.700000X1.700000*%
%ADD15C,3.200000*%
%ADD16RoundRect,0.250000X1.000000X-0.500000X1.000000X0.500000X-1.000000X0.500000X-1.000000X-0.500000X0*%
%ADD17C,1.500000*%
%ADD18C,0.100000*%
%ADD19C,3.890000*%
%ADD20R,2.100000X1.400000*%
%ADD21RoundRect,0.250000X0.800000X0.450000X-0.800000X0.450000X-0.800000X-0.450000X0.800000X-0.450000X0*%
%ADD22RoundRect,0.250000X-0.800000X-0.450000X0.800000X-0.450000X0.800000X0.450000X-0.800000X0.450000X0*%
G04 APERTURE END LIST*
D10*
G04 #@! TO.C,X1*
X154090000Y-102410000D03*
X154090000Y-96630000D03*
D11*
X153480000Y-103840000D03*
D12*
X157680000Y-103840000D03*
D11*
X153480000Y-95200000D03*
D12*
X157680000Y-95200000D03*
G04 #@! TD*
D13*
G04 #@! TO.C,J2*
X89400000Y-94260000D03*
D14*
X89400000Y-96800000D03*
X89400000Y-99340000D03*
X89400000Y-101880000D03*
G04 #@! TD*
D15*
G04 #@! TO.C,LS1*
X97725000Y-166900000D03*
X103925000Y-166900000D03*
G04 #@! TD*
G04 #@! TO.C,REF\u002A\u002A*
X90700000Y-86600000D03*
G04 #@! TD*
G04 #@! TO.C,REF\u002A\u002A*
X156200000Y-165700000D03*
G04 #@! TD*
G04 #@! TO.C,U10*
X108800000Y-166900000D03*
X127400000Y-166900000D03*
X115000000Y-166900000D03*
X121200000Y-166900000D03*
G04 #@! TD*
G04 #@! TO.C,REF\u002A\u002A*
X90700000Y-165700000D03*
G04 #@! TD*
D13*
G04 #@! TO.C,J1*
X121000000Y-153160000D03*
D14*
X123540000Y-153160000D03*
X121000000Y-155700000D03*
X123540000Y-155700000D03*
X121000000Y-158240000D03*
X123540000Y-158240000D03*
G04 #@! TD*
D15*
G04 #@! TO.C,REF\u002A\u002A*
X156100000Y-86400000D03*
G04 #@! TD*
D16*
G04 #@! TO.C,SW7*
X158000000Y-150000000D03*
X158000000Y-141800000D03*
D17*
X158000000Y-147900000D03*
X158000000Y-145900000D03*
X158000000Y-143900000D03*
G04 #@! TD*
D18*
G04 #@! TO.C,BT1*
X133600000Y-151900000D03*
X149600000Y-106700000D03*
X133600000Y-93500000D03*
D19*
X141600000Y-93500000D03*
X141600000Y-165100000D03*
G04 #@! TD*
D20*
G04 #@! TO.C,SW9*
X107350000Y-110729456D03*
D21*
X107350000Y-115229456D03*
X98250000Y-115229456D03*
X98250000Y-110729456D03*
G04 #@! TD*
D20*
G04 #@! TO.C,SW8*
X98250000Y-122370544D03*
D22*
X98250000Y-117870544D03*
X107350000Y-117870544D03*
X107350000Y-122370544D03*
G04 #@! TD*
M02*
