G04 #@! TF.GenerationSoftware,KiCad,Pcbnew,8.0.4*
G04 #@! TF.CreationDate,2025-04-22T14:39:34+02:00*
G04 #@! TF.ProjectId,MarvinProjekt,4d617276-696e-4507-926f-6a656b742e6b,rev?*
G04 #@! TF.SameCoordinates,Original*
G04 #@! TF.FileFunction,Other,Comment*
%FSLAX46Y46*%
G04 Gerber Fmt 4.6, Leading zero omitted, Abs format (unit mm)*
G04 Created by KiCad (PCBNEW 8.0.4) date 2025-04-22 14:39:34*
%MOMM*%
%LPD*%
G01*
G04 APERTURE LIST*
%ADD10C,0.150000*%
%ADD11C,0.250000*%
G04 APERTURE END LIST*
D10*
X115788095Y-86669104D02*
X116264285Y-86669104D01*
X115692857Y-86954819D02*
X116026190Y-85954819D01*
X116026190Y-85954819D02*
X116359523Y-86954819D01*
X116692857Y-86288152D02*
X116692857Y-86954819D01*
X116692857Y-86383390D02*
X116740476Y-86335771D01*
X116740476Y-86335771D02*
X116835714Y-86288152D01*
X116835714Y-86288152D02*
X116978571Y-86288152D01*
X116978571Y-86288152D02*
X117073809Y-86335771D01*
X117073809Y-86335771D02*
X117121428Y-86431009D01*
X117121428Y-86431009D02*
X117121428Y-86954819D01*
X117454762Y-86288152D02*
X117835714Y-86288152D01*
X117597619Y-85954819D02*
X117597619Y-86811961D01*
X117597619Y-86811961D02*
X117645238Y-86907200D01*
X117645238Y-86907200D02*
X117740476Y-86954819D01*
X117740476Y-86954819D02*
X117835714Y-86954819D01*
X118550000Y-86907200D02*
X118454762Y-86954819D01*
X118454762Y-86954819D02*
X118264286Y-86954819D01*
X118264286Y-86954819D02*
X118169048Y-86907200D01*
X118169048Y-86907200D02*
X118121429Y-86811961D01*
X118121429Y-86811961D02*
X118121429Y-86431009D01*
X118121429Y-86431009D02*
X118169048Y-86335771D01*
X118169048Y-86335771D02*
X118264286Y-86288152D01*
X118264286Y-86288152D02*
X118454762Y-86288152D01*
X118454762Y-86288152D02*
X118550000Y-86335771D01*
X118550000Y-86335771D02*
X118597619Y-86431009D01*
X118597619Y-86431009D02*
X118597619Y-86526247D01*
X118597619Y-86526247D02*
X118121429Y-86621485D01*
X119026191Y-86288152D02*
X119026191Y-86954819D01*
X119026191Y-86383390D02*
X119073810Y-86335771D01*
X119073810Y-86335771D02*
X119169048Y-86288152D01*
X119169048Y-86288152D02*
X119311905Y-86288152D01*
X119311905Y-86288152D02*
X119407143Y-86335771D01*
X119407143Y-86335771D02*
X119454762Y-86431009D01*
X119454762Y-86431009D02*
X119454762Y-86954819D01*
X119930953Y-86288152D02*
X119930953Y-86954819D01*
X119930953Y-86383390D02*
X119978572Y-86335771D01*
X119978572Y-86335771D02*
X120073810Y-86288152D01*
X120073810Y-86288152D02*
X120216667Y-86288152D01*
X120216667Y-86288152D02*
X120311905Y-86335771D01*
X120311905Y-86335771D02*
X120359524Y-86431009D01*
X120359524Y-86431009D02*
X120359524Y-86954819D01*
X121264286Y-86954819D02*
X121264286Y-86431009D01*
X121264286Y-86431009D02*
X121216667Y-86335771D01*
X121216667Y-86335771D02*
X121121429Y-86288152D01*
X121121429Y-86288152D02*
X120930953Y-86288152D01*
X120930953Y-86288152D02*
X120835715Y-86335771D01*
X121264286Y-86907200D02*
X121169048Y-86954819D01*
X121169048Y-86954819D02*
X120930953Y-86954819D01*
X120930953Y-86954819D02*
X120835715Y-86907200D01*
X120835715Y-86907200D02*
X120788096Y-86811961D01*
X120788096Y-86811961D02*
X120788096Y-86716723D01*
X120788096Y-86716723D02*
X120835715Y-86621485D01*
X120835715Y-86621485D02*
X120930953Y-86573866D01*
X120930953Y-86573866D02*
X121169048Y-86573866D01*
X121169048Y-86573866D02*
X121264286Y-86526247D01*
X106457142Y-77937438D02*
X106457142Y-75937438D01*
X107599999Y-77937438D02*
X106742856Y-76794580D01*
X107599999Y-75937438D02*
X106457142Y-77080295D01*
X108457142Y-76889819D02*
X109123809Y-76889819D01*
X109409523Y-77937438D02*
X108457142Y-77937438D01*
X108457142Y-77937438D02*
X108457142Y-75937438D01*
X108457142Y-75937438D02*
X109409523Y-75937438D01*
X110266666Y-76889819D02*
X110933333Y-76889819D01*
X111219047Y-77937438D02*
X110266666Y-77937438D01*
X110266666Y-77937438D02*
X110266666Y-75937438D01*
X110266666Y-75937438D02*
X111219047Y-75937438D01*
X112076190Y-77937438D02*
X112076190Y-75937438D01*
X112076190Y-75937438D02*
X112838095Y-75937438D01*
X112838095Y-75937438D02*
X113028571Y-76032676D01*
X113028571Y-76032676D02*
X113123809Y-76127914D01*
X113123809Y-76127914D02*
X113219047Y-76318390D01*
X113219047Y-76318390D02*
X113219047Y-76604104D01*
X113219047Y-76604104D02*
X113123809Y-76794580D01*
X113123809Y-76794580D02*
X113028571Y-76889819D01*
X113028571Y-76889819D02*
X112838095Y-76985057D01*
X112838095Y-76985057D02*
X112076190Y-76985057D01*
X114076190Y-77175533D02*
X115600000Y-77175533D01*
X116933332Y-75937438D02*
X117314285Y-75937438D01*
X117314285Y-75937438D02*
X117504761Y-76032676D01*
X117504761Y-76032676D02*
X117695237Y-76223152D01*
X117695237Y-76223152D02*
X117790475Y-76604104D01*
X117790475Y-76604104D02*
X117790475Y-77270771D01*
X117790475Y-77270771D02*
X117695237Y-77651723D01*
X117695237Y-77651723D02*
X117504761Y-77842200D01*
X117504761Y-77842200D02*
X117314285Y-77937438D01*
X117314285Y-77937438D02*
X116933332Y-77937438D01*
X116933332Y-77937438D02*
X116742856Y-77842200D01*
X116742856Y-77842200D02*
X116552380Y-77651723D01*
X116552380Y-77651723D02*
X116457142Y-77270771D01*
X116457142Y-77270771D02*
X116457142Y-76604104D01*
X116457142Y-76604104D02*
X116552380Y-76223152D01*
X116552380Y-76223152D02*
X116742856Y-76032676D01*
X116742856Y-76032676D02*
X116933332Y-75937438D01*
X118647618Y-75937438D02*
X118647618Y-77556485D01*
X118647618Y-77556485D02*
X118742856Y-77746961D01*
X118742856Y-77746961D02*
X118838094Y-77842200D01*
X118838094Y-77842200D02*
X119028570Y-77937438D01*
X119028570Y-77937438D02*
X119409523Y-77937438D01*
X119409523Y-77937438D02*
X119599999Y-77842200D01*
X119599999Y-77842200D02*
X119695237Y-77746961D01*
X119695237Y-77746961D02*
X119790475Y-77556485D01*
X119790475Y-77556485D02*
X119790475Y-75937438D01*
X120457142Y-75937438D02*
X121599999Y-75937438D01*
X121028570Y-77937438D02*
X121028570Y-75937438D01*
X123600000Y-75937438D02*
X124933333Y-75937438D01*
X124933333Y-75937438D02*
X123600000Y-77937438D01*
X123600000Y-77937438D02*
X124933333Y-77937438D01*
X126076190Y-75937438D02*
X126457143Y-75937438D01*
X126457143Y-75937438D02*
X126647619Y-76032676D01*
X126647619Y-76032676D02*
X126838095Y-76223152D01*
X126838095Y-76223152D02*
X126933333Y-76604104D01*
X126933333Y-76604104D02*
X126933333Y-77270771D01*
X126933333Y-77270771D02*
X126838095Y-77651723D01*
X126838095Y-77651723D02*
X126647619Y-77842200D01*
X126647619Y-77842200D02*
X126457143Y-77937438D01*
X126457143Y-77937438D02*
X126076190Y-77937438D01*
X126076190Y-77937438D02*
X125885714Y-77842200D01*
X125885714Y-77842200D02*
X125695238Y-77651723D01*
X125695238Y-77651723D02*
X125600000Y-77270771D01*
X125600000Y-77270771D02*
X125600000Y-76604104D01*
X125600000Y-76604104D02*
X125695238Y-76223152D01*
X125695238Y-76223152D02*
X125885714Y-76032676D01*
X125885714Y-76032676D02*
X126076190Y-75937438D01*
X127790476Y-77937438D02*
X127790476Y-75937438D01*
X127790476Y-75937438D02*
X128933333Y-77937438D01*
X128933333Y-77937438D02*
X128933333Y-75937438D01*
X129885714Y-76889819D02*
X130552381Y-76889819D01*
X130838095Y-77937438D02*
X129885714Y-77937438D01*
X129885714Y-77937438D02*
X129885714Y-75937438D01*
X129885714Y-75937438D02*
X130838095Y-75937438D01*
D11*
G04 #@! TO.C,X1*
X154210000Y-96630000D02*
G75*
G02*
X153970000Y-96630000I-120000J0D01*
G01*
X153970000Y-96630000D02*
G75*
G02*
X154210000Y-96630000I120000J0D01*
G01*
X154210000Y-102410000D02*
G75*
G02*
X153970000Y-102410000I-120000J0D01*
G01*
X153970000Y-102410000D02*
G75*
G02*
X154210000Y-102410000I120000J0D01*
G01*
D10*
G04 #@! TO.C,REF\u002A\u002A*
X93900000Y-86600000D02*
G75*
G02*
X87500000Y-86600000I-3200000J0D01*
G01*
X87500000Y-86600000D02*
G75*
G02*
X93900000Y-86600000I3200000J0D01*
G01*
X159400000Y-165700000D02*
G75*
G02*
X153000000Y-165700000I-3200000J0D01*
G01*
X153000000Y-165700000D02*
G75*
G02*
X159400000Y-165700000I3200000J0D01*
G01*
X93900000Y-165700000D02*
G75*
G02*
X87500000Y-165700000I-3200000J0D01*
G01*
X87500000Y-165700000D02*
G75*
G02*
X93900000Y-165700000I3200000J0D01*
G01*
X159300000Y-86400000D02*
G75*
G02*
X152900000Y-86400000I-3200000J0D01*
G01*
X152900000Y-86400000D02*
G75*
G02*
X159300000Y-86400000I3200000J0D01*
G01*
G04 #@! TD*
M02*
