G04 #@! TF.GenerationSoftware,KiCad,Pcbnew,8.0.4*
G04 #@! TF.CreationDate,2025-04-22T14:39:34+02:00*
G04 #@! TF.ProjectId,MarvinProjekt,4d617276-696e-4507-926f-6a656b742e6b,rev?*
G04 #@! TF.SameCoordinates,Original*
G04 #@! TF.FileFunction,AssemblyDrawing,Top*
%FSLAX46Y46*%
G04 Gerber Fmt 4.6, Leading zero omitted, Abs format (unit mm)*
G04 Created by KiCad (PCBNEW 8.0.4) date 2025-04-22 14:39:34*
%MOMM*%
%LPD*%
G01*
G04 APERTURE LIST*
%ADD10C,0.150000*%
%ADD11C,0.100000*%
%ADD12C,0.060000*%
G04 APERTURE END LIST*
D10*
X147304819Y-105761904D02*
X148114342Y-105761904D01*
X148114342Y-105761904D02*
X148209580Y-105714285D01*
X148209580Y-105714285D02*
X148257200Y-105666666D01*
X148257200Y-105666666D02*
X148304819Y-105571428D01*
X148304819Y-105571428D02*
X148304819Y-105380952D01*
X148304819Y-105380952D02*
X148257200Y-105285714D01*
X148257200Y-105285714D02*
X148209580Y-105238095D01*
X148209580Y-105238095D02*
X148114342Y-105190476D01*
X148114342Y-105190476D02*
X147304819Y-105190476D01*
X148257200Y-104761904D02*
X148304819Y-104619047D01*
X148304819Y-104619047D02*
X148304819Y-104380952D01*
X148304819Y-104380952D02*
X148257200Y-104285714D01*
X148257200Y-104285714D02*
X148209580Y-104238095D01*
X148209580Y-104238095D02*
X148114342Y-104190476D01*
X148114342Y-104190476D02*
X148019104Y-104190476D01*
X148019104Y-104190476D02*
X147923866Y-104238095D01*
X147923866Y-104238095D02*
X147876247Y-104285714D01*
X147876247Y-104285714D02*
X147828628Y-104380952D01*
X147828628Y-104380952D02*
X147781009Y-104571428D01*
X147781009Y-104571428D02*
X147733390Y-104666666D01*
X147733390Y-104666666D02*
X147685771Y-104714285D01*
X147685771Y-104714285D02*
X147590533Y-104761904D01*
X147590533Y-104761904D02*
X147495295Y-104761904D01*
X147495295Y-104761904D02*
X147400057Y-104714285D01*
X147400057Y-104714285D02*
X147352438Y-104666666D01*
X147352438Y-104666666D02*
X147304819Y-104571428D01*
X147304819Y-104571428D02*
X147304819Y-104333333D01*
X147304819Y-104333333D02*
X147352438Y-104190476D01*
X147781009Y-103428571D02*
X147828628Y-103285714D01*
X147828628Y-103285714D02*
X147876247Y-103238095D01*
X147876247Y-103238095D02*
X147971485Y-103190476D01*
X147971485Y-103190476D02*
X148114342Y-103190476D01*
X148114342Y-103190476D02*
X148209580Y-103238095D01*
X148209580Y-103238095D02*
X148257200Y-103285714D01*
X148257200Y-103285714D02*
X148304819Y-103380952D01*
X148304819Y-103380952D02*
X148304819Y-103761904D01*
X148304819Y-103761904D02*
X147304819Y-103761904D01*
X147304819Y-103761904D02*
X147304819Y-103428571D01*
X147304819Y-103428571D02*
X147352438Y-103333333D01*
X147352438Y-103333333D02*
X147400057Y-103285714D01*
X147400057Y-103285714D02*
X147495295Y-103238095D01*
X147495295Y-103238095D02*
X147590533Y-103238095D01*
X147590533Y-103238095D02*
X147685771Y-103285714D01*
X147685771Y-103285714D02*
X147733390Y-103333333D01*
X147733390Y-103333333D02*
X147781009Y-103428571D01*
X147781009Y-103428571D02*
X147781009Y-103761904D01*
X147304819Y-102857142D02*
X147304819Y-102238095D01*
X147304819Y-102238095D02*
X147685771Y-102571428D01*
X147685771Y-102571428D02*
X147685771Y-102428571D01*
X147685771Y-102428571D02*
X147733390Y-102333333D01*
X147733390Y-102333333D02*
X147781009Y-102285714D01*
X147781009Y-102285714D02*
X147876247Y-102238095D01*
X147876247Y-102238095D02*
X148114342Y-102238095D01*
X148114342Y-102238095D02*
X148209580Y-102285714D01*
X148209580Y-102285714D02*
X148257200Y-102333333D01*
X148257200Y-102333333D02*
X148304819Y-102428571D01*
X148304819Y-102428571D02*
X148304819Y-102714285D01*
X148304819Y-102714285D02*
X148257200Y-102809523D01*
X148257200Y-102809523D02*
X148209580Y-102857142D01*
X148209580Y-101809523D02*
X148257200Y-101761904D01*
X148257200Y-101761904D02*
X148304819Y-101809523D01*
X148304819Y-101809523D02*
X148257200Y-101857142D01*
X148257200Y-101857142D02*
X148209580Y-101809523D01*
X148209580Y-101809523D02*
X148304819Y-101809523D01*
X148304819Y-100809524D02*
X148304819Y-101380952D01*
X148304819Y-101095238D02*
X147304819Y-101095238D01*
X147304819Y-101095238D02*
X147447676Y-101190476D01*
X147447676Y-101190476D02*
X147542914Y-101285714D01*
X147542914Y-101285714D02*
X147590533Y-101380952D01*
X148209580Y-99809524D02*
X148257200Y-99857143D01*
X148257200Y-99857143D02*
X148304819Y-100000000D01*
X148304819Y-100000000D02*
X148304819Y-100095238D01*
X148304819Y-100095238D02*
X148257200Y-100238095D01*
X148257200Y-100238095D02*
X148161961Y-100333333D01*
X148161961Y-100333333D02*
X148066723Y-100380952D01*
X148066723Y-100380952D02*
X147876247Y-100428571D01*
X147876247Y-100428571D02*
X147733390Y-100428571D01*
X147733390Y-100428571D02*
X147542914Y-100380952D01*
X147542914Y-100380952D02*
X147447676Y-100333333D01*
X147447676Y-100333333D02*
X147352438Y-100238095D01*
X147352438Y-100238095D02*
X147304819Y-100095238D01*
X147304819Y-100095238D02*
X147304819Y-100000000D01*
X147304819Y-100000000D02*
X147352438Y-99857143D01*
X147352438Y-99857143D02*
X147400057Y-99809524D01*
X148304819Y-98857143D02*
X148304819Y-99428571D01*
X148304819Y-99142857D02*
X147304819Y-99142857D01*
X147304819Y-99142857D02*
X147447676Y-99238095D01*
X147447676Y-99238095D02*
X147542914Y-99333333D01*
X147542914Y-99333333D02*
X147590533Y-99428571D01*
X147304819Y-98000000D02*
X147304819Y-98190476D01*
X147304819Y-98190476D02*
X147352438Y-98285714D01*
X147352438Y-98285714D02*
X147400057Y-98333333D01*
X147400057Y-98333333D02*
X147542914Y-98428571D01*
X147542914Y-98428571D02*
X147733390Y-98476190D01*
X147733390Y-98476190D02*
X148114342Y-98476190D01*
X148114342Y-98476190D02*
X148209580Y-98428571D01*
X148209580Y-98428571D02*
X148257200Y-98380952D01*
X148257200Y-98380952D02*
X148304819Y-98285714D01*
X148304819Y-98285714D02*
X148304819Y-98095238D01*
X148304819Y-98095238D02*
X148257200Y-98000000D01*
X148257200Y-98000000D02*
X148209580Y-97952381D01*
X148209580Y-97952381D02*
X148114342Y-97904762D01*
X148114342Y-97904762D02*
X147876247Y-97904762D01*
X147876247Y-97904762D02*
X147781009Y-97952381D01*
X147781009Y-97952381D02*
X147733390Y-98000000D01*
X147733390Y-98000000D02*
X147685771Y-98095238D01*
X147685771Y-98095238D02*
X147685771Y-98285714D01*
X147685771Y-98285714D02*
X147733390Y-98380952D01*
X147733390Y-98380952D02*
X147781009Y-98428571D01*
X147781009Y-98428571D02*
X147876247Y-98476190D01*
X148304819Y-97476190D02*
X147304819Y-97476190D01*
X147304819Y-97476190D02*
X147304819Y-97095238D01*
X147304819Y-97095238D02*
X147352438Y-97000000D01*
X147352438Y-97000000D02*
X147400057Y-96952381D01*
X147400057Y-96952381D02*
X147495295Y-96904762D01*
X147495295Y-96904762D02*
X147638152Y-96904762D01*
X147638152Y-96904762D02*
X147733390Y-96952381D01*
X147733390Y-96952381D02*
X147781009Y-97000000D01*
X147781009Y-97000000D02*
X147828628Y-97095238D01*
X147828628Y-97095238D02*
X147828628Y-97476190D01*
X147781009Y-96142857D02*
X147781009Y-96476190D01*
X148304819Y-96476190D02*
X147304819Y-96476190D01*
X147304819Y-96476190D02*
X147304819Y-96000000D01*
X148257200Y-95666666D02*
X148304819Y-95523809D01*
X148304819Y-95523809D02*
X148304819Y-95285714D01*
X148304819Y-95285714D02*
X148257200Y-95190476D01*
X148257200Y-95190476D02*
X148209580Y-95142857D01*
X148209580Y-95142857D02*
X148114342Y-95095238D01*
X148114342Y-95095238D02*
X148019104Y-95095238D01*
X148019104Y-95095238D02*
X147923866Y-95142857D01*
X147923866Y-95142857D02*
X147876247Y-95190476D01*
X147876247Y-95190476D02*
X147828628Y-95285714D01*
X147828628Y-95285714D02*
X147781009Y-95476190D01*
X147781009Y-95476190D02*
X147733390Y-95571428D01*
X147733390Y-95571428D02*
X147685771Y-95619047D01*
X147685771Y-95619047D02*
X147590533Y-95666666D01*
X147590533Y-95666666D02*
X147495295Y-95666666D01*
X147495295Y-95666666D02*
X147400057Y-95619047D01*
X147400057Y-95619047D02*
X147352438Y-95571428D01*
X147352438Y-95571428D02*
X147304819Y-95476190D01*
X147304819Y-95476190D02*
X147304819Y-95238095D01*
X147304819Y-95238095D02*
X147352438Y-95095238D01*
X148304819Y-94666666D02*
X147304819Y-94666666D01*
X147304819Y-94666666D02*
X148019104Y-94333333D01*
X148019104Y-94333333D02*
X147304819Y-94000000D01*
X147304819Y-94000000D02*
X148304819Y-94000000D01*
X147304819Y-93666666D02*
X147304819Y-93095238D01*
X148304819Y-93380952D02*
X147304819Y-93380952D01*
X148804819Y-100309523D02*
X149804819Y-99642857D01*
X148804819Y-99642857D02*
X149804819Y-100309523D01*
X149804819Y-98738095D02*
X149804819Y-99309523D01*
X149804819Y-99023809D02*
X148804819Y-99023809D01*
X148804819Y-99023809D02*
X148947676Y-99119047D01*
X148947676Y-99119047D02*
X149042914Y-99214285D01*
X149042914Y-99214285D02*
X149090533Y-99309523D01*
X168445180Y-115541190D02*
X168445180Y-116112618D01*
X167445180Y-115826904D02*
X168445180Y-115826904D01*
X167968990Y-116779285D02*
X167968990Y-116445952D01*
X167445180Y-116445952D02*
X168445180Y-116445952D01*
X168445180Y-116445952D02*
X168445180Y-116922142D01*
X167349942Y-117065000D02*
X167349942Y-117826904D01*
X167540419Y-118636428D02*
X167492800Y-118588809D01*
X167492800Y-118588809D02*
X167445180Y-118445952D01*
X167445180Y-118445952D02*
X167445180Y-118350714D01*
X167445180Y-118350714D02*
X167492800Y-118207857D01*
X167492800Y-118207857D02*
X167588038Y-118112619D01*
X167588038Y-118112619D02*
X167683276Y-118065000D01*
X167683276Y-118065000D02*
X167873752Y-118017381D01*
X167873752Y-118017381D02*
X168016609Y-118017381D01*
X168016609Y-118017381D02*
X168207085Y-118065000D01*
X168207085Y-118065000D02*
X168302323Y-118112619D01*
X168302323Y-118112619D02*
X168397561Y-118207857D01*
X168397561Y-118207857D02*
X168445180Y-118350714D01*
X168445180Y-118350714D02*
X168445180Y-118445952D01*
X168445180Y-118445952D02*
X168397561Y-118588809D01*
X168397561Y-118588809D02*
X168349942Y-118636428D01*
X167730895Y-119017381D02*
X167730895Y-119493571D01*
X167445180Y-118922143D02*
X168445180Y-119255476D01*
X168445180Y-119255476D02*
X167445180Y-119588809D01*
X167445180Y-120493571D02*
X167921371Y-120160238D01*
X167445180Y-119922143D02*
X168445180Y-119922143D01*
X168445180Y-119922143D02*
X168445180Y-120303095D01*
X168445180Y-120303095D02*
X168397561Y-120398333D01*
X168397561Y-120398333D02*
X168349942Y-120445952D01*
X168349942Y-120445952D02*
X168254704Y-120493571D01*
X168254704Y-120493571D02*
X168111847Y-120493571D01*
X168111847Y-120493571D02*
X168016609Y-120445952D01*
X168016609Y-120445952D02*
X167968990Y-120398333D01*
X167968990Y-120398333D02*
X167921371Y-120303095D01*
X167921371Y-120303095D02*
X167921371Y-119922143D01*
X167445180Y-120922143D02*
X168445180Y-120922143D01*
X168445180Y-120922143D02*
X168445180Y-121160238D01*
X168445180Y-121160238D02*
X168397561Y-121303095D01*
X168397561Y-121303095D02*
X168302323Y-121398333D01*
X168302323Y-121398333D02*
X168207085Y-121445952D01*
X168207085Y-121445952D02*
X168016609Y-121493571D01*
X168016609Y-121493571D02*
X167873752Y-121493571D01*
X167873752Y-121493571D02*
X167683276Y-121445952D01*
X167683276Y-121445952D02*
X167588038Y-121398333D01*
X167588038Y-121398333D02*
X167492800Y-121303095D01*
X167492800Y-121303095D02*
X167445180Y-121160238D01*
X167445180Y-121160238D02*
X167445180Y-120922143D01*
X166945180Y-117803095D02*
X166135657Y-117803095D01*
X166135657Y-117803095D02*
X166040419Y-117850714D01*
X166040419Y-117850714D02*
X165992800Y-117898333D01*
X165992800Y-117898333D02*
X165945180Y-117993571D01*
X165945180Y-117993571D02*
X165945180Y-118184047D01*
X165945180Y-118184047D02*
X165992800Y-118279285D01*
X165992800Y-118279285D02*
X166040419Y-118326904D01*
X166040419Y-118326904D02*
X166135657Y-118374523D01*
X166135657Y-118374523D02*
X166945180Y-118374523D01*
X166611847Y-119279285D02*
X165945180Y-119279285D01*
X166992800Y-119041190D02*
X166278514Y-118803095D01*
X166278514Y-118803095D02*
X166278514Y-119422142D01*
X88854819Y-98403333D02*
X89569104Y-98403333D01*
X89569104Y-98403333D02*
X89711961Y-98450952D01*
X89711961Y-98450952D02*
X89807200Y-98546190D01*
X89807200Y-98546190D02*
X89854819Y-98689047D01*
X89854819Y-98689047D02*
X89854819Y-98784285D01*
X88950057Y-97974761D02*
X88902438Y-97927142D01*
X88902438Y-97927142D02*
X88854819Y-97831904D01*
X88854819Y-97831904D02*
X88854819Y-97593809D01*
X88854819Y-97593809D02*
X88902438Y-97498571D01*
X88902438Y-97498571D02*
X88950057Y-97450952D01*
X88950057Y-97450952D02*
X89045295Y-97403333D01*
X89045295Y-97403333D02*
X89140533Y-97403333D01*
X89140533Y-97403333D02*
X89283390Y-97450952D01*
X89283390Y-97450952D02*
X89854819Y-98022380D01*
X89854819Y-98022380D02*
X89854819Y-97403333D01*
X98238095Y-159307200D02*
X98380952Y-159354819D01*
X98380952Y-159354819D02*
X98619047Y-159354819D01*
X98619047Y-159354819D02*
X98714285Y-159307200D01*
X98714285Y-159307200D02*
X98761904Y-159259580D01*
X98761904Y-159259580D02*
X98809523Y-159164342D01*
X98809523Y-159164342D02*
X98809523Y-159069104D01*
X98809523Y-159069104D02*
X98761904Y-158973866D01*
X98761904Y-158973866D02*
X98714285Y-158926247D01*
X98714285Y-158926247D02*
X98619047Y-158878628D01*
X98619047Y-158878628D02*
X98428571Y-158831009D01*
X98428571Y-158831009D02*
X98333333Y-158783390D01*
X98333333Y-158783390D02*
X98285714Y-158735771D01*
X98285714Y-158735771D02*
X98238095Y-158640533D01*
X98238095Y-158640533D02*
X98238095Y-158545295D01*
X98238095Y-158545295D02*
X98285714Y-158450057D01*
X98285714Y-158450057D02*
X98333333Y-158402438D01*
X98333333Y-158402438D02*
X98428571Y-158354819D01*
X98428571Y-158354819D02*
X98666666Y-158354819D01*
X98666666Y-158354819D02*
X98809523Y-158402438D01*
X99238095Y-158688152D02*
X99238095Y-159688152D01*
X99238095Y-158735771D02*
X99333333Y-158688152D01*
X99333333Y-158688152D02*
X99523809Y-158688152D01*
X99523809Y-158688152D02*
X99619047Y-158735771D01*
X99619047Y-158735771D02*
X99666666Y-158783390D01*
X99666666Y-158783390D02*
X99714285Y-158878628D01*
X99714285Y-158878628D02*
X99714285Y-159164342D01*
X99714285Y-159164342D02*
X99666666Y-159259580D01*
X99666666Y-159259580D02*
X99619047Y-159307200D01*
X99619047Y-159307200D02*
X99523809Y-159354819D01*
X99523809Y-159354819D02*
X99333333Y-159354819D01*
X99333333Y-159354819D02*
X99238095Y-159307200D01*
X100523809Y-159307200D02*
X100428571Y-159354819D01*
X100428571Y-159354819D02*
X100238095Y-159354819D01*
X100238095Y-159354819D02*
X100142857Y-159307200D01*
X100142857Y-159307200D02*
X100095238Y-159211961D01*
X100095238Y-159211961D02*
X100095238Y-158831009D01*
X100095238Y-158831009D02*
X100142857Y-158735771D01*
X100142857Y-158735771D02*
X100238095Y-158688152D01*
X100238095Y-158688152D02*
X100428571Y-158688152D01*
X100428571Y-158688152D02*
X100523809Y-158735771D01*
X100523809Y-158735771D02*
X100571428Y-158831009D01*
X100571428Y-158831009D02*
X100571428Y-158926247D01*
X100571428Y-158926247D02*
X100095238Y-159021485D01*
X101428571Y-159354819D02*
X101428571Y-158831009D01*
X101428571Y-158831009D02*
X101380952Y-158735771D01*
X101380952Y-158735771D02*
X101285714Y-158688152D01*
X101285714Y-158688152D02*
X101095238Y-158688152D01*
X101095238Y-158688152D02*
X101000000Y-158735771D01*
X101428571Y-159307200D02*
X101333333Y-159354819D01*
X101333333Y-159354819D02*
X101095238Y-159354819D01*
X101095238Y-159354819D02*
X101000000Y-159307200D01*
X101000000Y-159307200D02*
X100952381Y-159211961D01*
X100952381Y-159211961D02*
X100952381Y-159116723D01*
X100952381Y-159116723D02*
X101000000Y-159021485D01*
X101000000Y-159021485D02*
X101095238Y-158973866D01*
X101095238Y-158973866D02*
X101333333Y-158973866D01*
X101333333Y-158973866D02*
X101428571Y-158926247D01*
X101904762Y-159354819D02*
X101904762Y-158354819D01*
X102000000Y-158973866D02*
X102285714Y-159354819D01*
X102285714Y-158688152D02*
X101904762Y-159069104D01*
X103095238Y-159307200D02*
X103000000Y-159354819D01*
X103000000Y-159354819D02*
X102809524Y-159354819D01*
X102809524Y-159354819D02*
X102714286Y-159307200D01*
X102714286Y-159307200D02*
X102666667Y-159211961D01*
X102666667Y-159211961D02*
X102666667Y-158831009D01*
X102666667Y-158831009D02*
X102714286Y-158735771D01*
X102714286Y-158735771D02*
X102809524Y-158688152D01*
X102809524Y-158688152D02*
X103000000Y-158688152D01*
X103000000Y-158688152D02*
X103095238Y-158735771D01*
X103095238Y-158735771D02*
X103142857Y-158831009D01*
X103142857Y-158831009D02*
X103142857Y-158926247D01*
X103142857Y-158926247D02*
X102666667Y-159021485D01*
X103571429Y-159354819D02*
X103571429Y-158688152D01*
X103571429Y-158878628D02*
X103619048Y-158783390D01*
X103619048Y-158783390D02*
X103666667Y-158735771D01*
X103666667Y-158735771D02*
X103761905Y-158688152D01*
X103761905Y-158688152D02*
X103857143Y-158688152D01*
X100357142Y-160854819D02*
X99880952Y-160854819D01*
X99880952Y-160854819D02*
X99880952Y-159854819D01*
X100642857Y-160807200D02*
X100785714Y-160854819D01*
X100785714Y-160854819D02*
X101023809Y-160854819D01*
X101023809Y-160854819D02*
X101119047Y-160807200D01*
X101119047Y-160807200D02*
X101166666Y-160759580D01*
X101166666Y-160759580D02*
X101214285Y-160664342D01*
X101214285Y-160664342D02*
X101214285Y-160569104D01*
X101214285Y-160569104D02*
X101166666Y-160473866D01*
X101166666Y-160473866D02*
X101119047Y-160426247D01*
X101119047Y-160426247D02*
X101023809Y-160378628D01*
X101023809Y-160378628D02*
X100833333Y-160331009D01*
X100833333Y-160331009D02*
X100738095Y-160283390D01*
X100738095Y-160283390D02*
X100690476Y-160235771D01*
X100690476Y-160235771D02*
X100642857Y-160140533D01*
X100642857Y-160140533D02*
X100642857Y-160045295D01*
X100642857Y-160045295D02*
X100690476Y-159950057D01*
X100690476Y-159950057D02*
X100738095Y-159902438D01*
X100738095Y-159902438D02*
X100833333Y-159854819D01*
X100833333Y-159854819D02*
X101071428Y-159854819D01*
X101071428Y-159854819D02*
X101214285Y-159902438D01*
X102166666Y-160854819D02*
X101595238Y-160854819D01*
X101880952Y-160854819D02*
X101880952Y-159854819D01*
X101880952Y-159854819D02*
X101785714Y-159997676D01*
X101785714Y-159997676D02*
X101690476Y-160092914D01*
X101690476Y-160092914D02*
X101595238Y-160140533D01*
X110480953Y-110471009D02*
X110814286Y-110471009D01*
X110957143Y-110994819D02*
X110480953Y-110994819D01*
X110480953Y-110994819D02*
X110480953Y-109994819D01*
X110480953Y-109994819D02*
X110957143Y-109994819D01*
X111338096Y-110947200D02*
X111480953Y-110994819D01*
X111480953Y-110994819D02*
X111719048Y-110994819D01*
X111719048Y-110994819D02*
X111814286Y-110947200D01*
X111814286Y-110947200D02*
X111861905Y-110899580D01*
X111861905Y-110899580D02*
X111909524Y-110804342D01*
X111909524Y-110804342D02*
X111909524Y-110709104D01*
X111909524Y-110709104D02*
X111861905Y-110613866D01*
X111861905Y-110613866D02*
X111814286Y-110566247D01*
X111814286Y-110566247D02*
X111719048Y-110518628D01*
X111719048Y-110518628D02*
X111528572Y-110471009D01*
X111528572Y-110471009D02*
X111433334Y-110423390D01*
X111433334Y-110423390D02*
X111385715Y-110375771D01*
X111385715Y-110375771D02*
X111338096Y-110280533D01*
X111338096Y-110280533D02*
X111338096Y-110185295D01*
X111338096Y-110185295D02*
X111385715Y-110090057D01*
X111385715Y-110090057D02*
X111433334Y-110042438D01*
X111433334Y-110042438D02*
X111528572Y-109994819D01*
X111528572Y-109994819D02*
X111766667Y-109994819D01*
X111766667Y-109994819D02*
X111909524Y-110042438D01*
X112338096Y-110994819D02*
X112338096Y-109994819D01*
X112338096Y-109994819D02*
X112719048Y-109994819D01*
X112719048Y-109994819D02*
X112814286Y-110042438D01*
X112814286Y-110042438D02*
X112861905Y-110090057D01*
X112861905Y-110090057D02*
X112909524Y-110185295D01*
X112909524Y-110185295D02*
X112909524Y-110328152D01*
X112909524Y-110328152D02*
X112861905Y-110423390D01*
X112861905Y-110423390D02*
X112814286Y-110471009D01*
X112814286Y-110471009D02*
X112719048Y-110518628D01*
X112719048Y-110518628D02*
X112338096Y-110518628D01*
X113242858Y-109994819D02*
X113861905Y-109994819D01*
X113861905Y-109994819D02*
X113528572Y-110375771D01*
X113528572Y-110375771D02*
X113671429Y-110375771D01*
X113671429Y-110375771D02*
X113766667Y-110423390D01*
X113766667Y-110423390D02*
X113814286Y-110471009D01*
X113814286Y-110471009D02*
X113861905Y-110566247D01*
X113861905Y-110566247D02*
X113861905Y-110804342D01*
X113861905Y-110804342D02*
X113814286Y-110899580D01*
X113814286Y-110899580D02*
X113766667Y-110947200D01*
X113766667Y-110947200D02*
X113671429Y-110994819D01*
X113671429Y-110994819D02*
X113385715Y-110994819D01*
X113385715Y-110994819D02*
X113290477Y-110947200D01*
X113290477Y-110947200D02*
X113242858Y-110899580D01*
X114242858Y-110090057D02*
X114290477Y-110042438D01*
X114290477Y-110042438D02*
X114385715Y-109994819D01*
X114385715Y-109994819D02*
X114623810Y-109994819D01*
X114623810Y-109994819D02*
X114719048Y-110042438D01*
X114719048Y-110042438D02*
X114766667Y-110090057D01*
X114766667Y-110090057D02*
X114814286Y-110185295D01*
X114814286Y-110185295D02*
X114814286Y-110280533D01*
X114814286Y-110280533D02*
X114766667Y-110423390D01*
X114766667Y-110423390D02*
X114195239Y-110994819D01*
X114195239Y-110994819D02*
X114814286Y-110994819D01*
X115242858Y-110613866D02*
X116004763Y-110613866D01*
X116433334Y-110947200D02*
X116576191Y-110994819D01*
X116576191Y-110994819D02*
X116814286Y-110994819D01*
X116814286Y-110994819D02*
X116909524Y-110947200D01*
X116909524Y-110947200D02*
X116957143Y-110899580D01*
X116957143Y-110899580D02*
X117004762Y-110804342D01*
X117004762Y-110804342D02*
X117004762Y-110709104D01*
X117004762Y-110709104D02*
X116957143Y-110613866D01*
X116957143Y-110613866D02*
X116909524Y-110566247D01*
X116909524Y-110566247D02*
X116814286Y-110518628D01*
X116814286Y-110518628D02*
X116623810Y-110471009D01*
X116623810Y-110471009D02*
X116528572Y-110423390D01*
X116528572Y-110423390D02*
X116480953Y-110375771D01*
X116480953Y-110375771D02*
X116433334Y-110280533D01*
X116433334Y-110280533D02*
X116433334Y-110185295D01*
X116433334Y-110185295D02*
X116480953Y-110090057D01*
X116480953Y-110090057D02*
X116528572Y-110042438D01*
X116528572Y-110042438D02*
X116623810Y-109994819D01*
X116623810Y-109994819D02*
X116861905Y-109994819D01*
X116861905Y-109994819D02*
X117004762Y-110042438D01*
X117338096Y-109994819D02*
X117957143Y-109994819D01*
X117957143Y-109994819D02*
X117623810Y-110375771D01*
X117623810Y-110375771D02*
X117766667Y-110375771D01*
X117766667Y-110375771D02*
X117861905Y-110423390D01*
X117861905Y-110423390D02*
X117909524Y-110471009D01*
X117909524Y-110471009D02*
X117957143Y-110566247D01*
X117957143Y-110566247D02*
X117957143Y-110804342D01*
X117957143Y-110804342D02*
X117909524Y-110899580D01*
X117909524Y-110899580D02*
X117861905Y-110947200D01*
X117861905Y-110947200D02*
X117766667Y-110994819D01*
X117766667Y-110994819D02*
X117480953Y-110994819D01*
X117480953Y-110994819D02*
X117385715Y-110947200D01*
X117385715Y-110947200D02*
X117338096Y-110899580D01*
X118385715Y-110613866D02*
X119147620Y-110613866D01*
X119528572Y-109994819D02*
X119766667Y-110994819D01*
X119766667Y-110994819D02*
X119957143Y-110280533D01*
X119957143Y-110280533D02*
X120147619Y-110994819D01*
X120147619Y-110994819D02*
X120385715Y-109994819D01*
X121338095Y-110994819D02*
X121004762Y-110518628D01*
X120766667Y-110994819D02*
X120766667Y-109994819D01*
X120766667Y-109994819D02*
X121147619Y-109994819D01*
X121147619Y-109994819D02*
X121242857Y-110042438D01*
X121242857Y-110042438D02*
X121290476Y-110090057D01*
X121290476Y-110090057D02*
X121338095Y-110185295D01*
X121338095Y-110185295D02*
X121338095Y-110328152D01*
X121338095Y-110328152D02*
X121290476Y-110423390D01*
X121290476Y-110423390D02*
X121242857Y-110471009D01*
X121242857Y-110471009D02*
X121147619Y-110518628D01*
X121147619Y-110518628D02*
X120766667Y-110518628D01*
X121957143Y-109994819D02*
X122147619Y-109994819D01*
X122147619Y-109994819D02*
X122242857Y-110042438D01*
X122242857Y-110042438D02*
X122338095Y-110137676D01*
X122338095Y-110137676D02*
X122385714Y-110328152D01*
X122385714Y-110328152D02*
X122385714Y-110661485D01*
X122385714Y-110661485D02*
X122338095Y-110851961D01*
X122338095Y-110851961D02*
X122242857Y-110947200D01*
X122242857Y-110947200D02*
X122147619Y-110994819D01*
X122147619Y-110994819D02*
X121957143Y-110994819D01*
X121957143Y-110994819D02*
X121861905Y-110947200D01*
X121861905Y-110947200D02*
X121766667Y-110851961D01*
X121766667Y-110851961D02*
X121719048Y-110661485D01*
X121719048Y-110661485D02*
X121719048Y-110328152D01*
X121719048Y-110328152D02*
X121766667Y-110137676D01*
X121766667Y-110137676D02*
X121861905Y-110042438D01*
X121861905Y-110042438D02*
X121957143Y-109994819D01*
X123004762Y-109994819D02*
X123195238Y-109994819D01*
X123195238Y-109994819D02*
X123290476Y-110042438D01*
X123290476Y-110042438D02*
X123385714Y-110137676D01*
X123385714Y-110137676D02*
X123433333Y-110328152D01*
X123433333Y-110328152D02*
X123433333Y-110661485D01*
X123433333Y-110661485D02*
X123385714Y-110851961D01*
X123385714Y-110851961D02*
X123290476Y-110947200D01*
X123290476Y-110947200D02*
X123195238Y-110994819D01*
X123195238Y-110994819D02*
X123004762Y-110994819D01*
X123004762Y-110994819D02*
X122909524Y-110947200D01*
X122909524Y-110947200D02*
X122814286Y-110851961D01*
X122814286Y-110851961D02*
X122766667Y-110661485D01*
X122766667Y-110661485D02*
X122766667Y-110328152D01*
X122766667Y-110328152D02*
X122814286Y-110137676D01*
X122814286Y-110137676D02*
X122909524Y-110042438D01*
X122909524Y-110042438D02*
X123004762Y-109994819D01*
X123861905Y-110994819D02*
X123861905Y-109994819D01*
X123861905Y-109994819D02*
X124195238Y-110709104D01*
X124195238Y-110709104D02*
X124528571Y-109994819D01*
X124528571Y-109994819D02*
X124528571Y-110994819D01*
X125004762Y-110613866D02*
X125766667Y-110613866D01*
X126766666Y-110994819D02*
X126195238Y-110994819D01*
X126480952Y-110994819D02*
X126480952Y-109994819D01*
X126480952Y-109994819D02*
X126385714Y-110137676D01*
X126385714Y-110137676D02*
X126290476Y-110232914D01*
X126290476Y-110232914D02*
X126195238Y-110280533D01*
X117838095Y-94794819D02*
X117838095Y-95604342D01*
X117838095Y-95604342D02*
X117885714Y-95699580D01*
X117885714Y-95699580D02*
X117933333Y-95747200D01*
X117933333Y-95747200D02*
X118028571Y-95794819D01*
X118028571Y-95794819D02*
X118219047Y-95794819D01*
X118219047Y-95794819D02*
X118314285Y-95747200D01*
X118314285Y-95747200D02*
X118361904Y-95699580D01*
X118361904Y-95699580D02*
X118409523Y-95604342D01*
X118409523Y-95604342D02*
X118409523Y-94794819D01*
X119409523Y-95794819D02*
X118838095Y-95794819D01*
X119123809Y-95794819D02*
X119123809Y-94794819D01*
X119123809Y-94794819D02*
X119028571Y-94937676D01*
X119028571Y-94937676D02*
X118933333Y-95032914D01*
X118933333Y-95032914D02*
X118838095Y-95080533D01*
X116933333Y-155404819D02*
X117504761Y-155404819D01*
X117219047Y-156404819D02*
X117219047Y-155404819D01*
X117980952Y-156404819D02*
X117885714Y-156357200D01*
X117885714Y-156357200D02*
X117838095Y-156309580D01*
X117838095Y-156309580D02*
X117790476Y-156214342D01*
X117790476Y-156214342D02*
X117790476Y-155928628D01*
X117790476Y-155928628D02*
X117838095Y-155833390D01*
X117838095Y-155833390D02*
X117885714Y-155785771D01*
X117885714Y-155785771D02*
X117980952Y-155738152D01*
X117980952Y-155738152D02*
X118123809Y-155738152D01*
X118123809Y-155738152D02*
X118219047Y-155785771D01*
X118219047Y-155785771D02*
X118266666Y-155833390D01*
X118266666Y-155833390D02*
X118314285Y-155928628D01*
X118314285Y-155928628D02*
X118314285Y-156214342D01*
X118314285Y-156214342D02*
X118266666Y-156309580D01*
X118266666Y-156309580D02*
X118219047Y-156357200D01*
X118219047Y-156357200D02*
X118123809Y-156404819D01*
X118123809Y-156404819D02*
X117980952Y-156404819D01*
X119076190Y-155881009D02*
X118742857Y-155881009D01*
X118742857Y-156404819D02*
X118742857Y-155404819D01*
X118742857Y-155404819D02*
X119219047Y-155404819D01*
X116861905Y-156904819D02*
X116861905Y-157714342D01*
X116861905Y-157714342D02*
X116909524Y-157809580D01*
X116909524Y-157809580D02*
X116957143Y-157857200D01*
X116957143Y-157857200D02*
X117052381Y-157904819D01*
X117052381Y-157904819D02*
X117242857Y-157904819D01*
X117242857Y-157904819D02*
X117338095Y-157857200D01*
X117338095Y-157857200D02*
X117385714Y-157809580D01*
X117385714Y-157809580D02*
X117433333Y-157714342D01*
X117433333Y-157714342D02*
X117433333Y-156904819D01*
X118433333Y-157904819D02*
X117861905Y-157904819D01*
X118147619Y-157904819D02*
X118147619Y-156904819D01*
X118147619Y-156904819D02*
X118052381Y-157047676D01*
X118052381Y-157047676D02*
X117957143Y-157142914D01*
X117957143Y-157142914D02*
X117861905Y-157190533D01*
X119052381Y-156904819D02*
X119147619Y-156904819D01*
X119147619Y-156904819D02*
X119242857Y-156952438D01*
X119242857Y-156952438D02*
X119290476Y-157000057D01*
X119290476Y-157000057D02*
X119338095Y-157095295D01*
X119338095Y-157095295D02*
X119385714Y-157285771D01*
X119385714Y-157285771D02*
X119385714Y-157523866D01*
X119385714Y-157523866D02*
X119338095Y-157714342D01*
X119338095Y-157714342D02*
X119290476Y-157809580D01*
X119290476Y-157809580D02*
X119242857Y-157857200D01*
X119242857Y-157857200D02*
X119147619Y-157904819D01*
X119147619Y-157904819D02*
X119052381Y-157904819D01*
X119052381Y-157904819D02*
X118957143Y-157857200D01*
X118957143Y-157857200D02*
X118909524Y-157809580D01*
X118909524Y-157809580D02*
X118861905Y-157714342D01*
X118861905Y-157714342D02*
X118814286Y-157523866D01*
X118814286Y-157523866D02*
X118814286Y-157285771D01*
X118814286Y-157285771D02*
X118861905Y-157095295D01*
X118861905Y-157095295D02*
X118909524Y-157000057D01*
X118909524Y-157000057D02*
X118957143Y-156952438D01*
X118957143Y-156952438D02*
X119052381Y-156904819D01*
X121724819Y-156033333D02*
X122439104Y-156033333D01*
X122439104Y-156033333D02*
X122581961Y-156080952D01*
X122581961Y-156080952D02*
X122677200Y-156176190D01*
X122677200Y-156176190D02*
X122724819Y-156319047D01*
X122724819Y-156319047D02*
X122724819Y-156414285D01*
X122724819Y-155033333D02*
X122724819Y-155604761D01*
X122724819Y-155319047D02*
X121724819Y-155319047D01*
X121724819Y-155319047D02*
X121867676Y-155414285D01*
X121867676Y-155414285D02*
X121962914Y-155509523D01*
X121962914Y-155509523D02*
X122010533Y-155604761D01*
X150157200Y-157357143D02*
X150204819Y-157214286D01*
X150204819Y-157214286D02*
X150204819Y-156976191D01*
X150204819Y-156976191D02*
X150157200Y-156880953D01*
X150157200Y-156880953D02*
X150109580Y-156833334D01*
X150109580Y-156833334D02*
X150014342Y-156785715D01*
X150014342Y-156785715D02*
X149919104Y-156785715D01*
X149919104Y-156785715D02*
X149823866Y-156833334D01*
X149823866Y-156833334D02*
X149776247Y-156880953D01*
X149776247Y-156880953D02*
X149728628Y-156976191D01*
X149728628Y-156976191D02*
X149681009Y-157166667D01*
X149681009Y-157166667D02*
X149633390Y-157261905D01*
X149633390Y-157261905D02*
X149585771Y-157309524D01*
X149585771Y-157309524D02*
X149490533Y-157357143D01*
X149490533Y-157357143D02*
X149395295Y-157357143D01*
X149395295Y-157357143D02*
X149300057Y-157309524D01*
X149300057Y-157309524D02*
X149252438Y-157261905D01*
X149252438Y-157261905D02*
X149204819Y-157166667D01*
X149204819Y-157166667D02*
X149204819Y-156928572D01*
X149204819Y-156928572D02*
X149252438Y-156785715D01*
X149538152Y-156452381D02*
X150204819Y-156261905D01*
X150204819Y-156261905D02*
X149728628Y-156071429D01*
X149728628Y-156071429D02*
X150204819Y-155880953D01*
X150204819Y-155880953D02*
X149538152Y-155690477D01*
X150204819Y-155309524D02*
X149538152Y-155309524D01*
X149204819Y-155309524D02*
X149252438Y-155357143D01*
X149252438Y-155357143D02*
X149300057Y-155309524D01*
X149300057Y-155309524D02*
X149252438Y-155261905D01*
X149252438Y-155261905D02*
X149204819Y-155309524D01*
X149204819Y-155309524D02*
X149300057Y-155309524D01*
X149538152Y-154976191D02*
X149538152Y-154595239D01*
X149204819Y-154833334D02*
X150061961Y-154833334D01*
X150061961Y-154833334D02*
X150157200Y-154785715D01*
X150157200Y-154785715D02*
X150204819Y-154690477D01*
X150204819Y-154690477D02*
X150204819Y-154595239D01*
X150157200Y-153833334D02*
X150204819Y-153928572D01*
X150204819Y-153928572D02*
X150204819Y-154119048D01*
X150204819Y-154119048D02*
X150157200Y-154214286D01*
X150157200Y-154214286D02*
X150109580Y-154261905D01*
X150109580Y-154261905D02*
X150014342Y-154309524D01*
X150014342Y-154309524D02*
X149728628Y-154309524D01*
X149728628Y-154309524D02*
X149633390Y-154261905D01*
X149633390Y-154261905D02*
X149585771Y-154214286D01*
X149585771Y-154214286D02*
X149538152Y-154119048D01*
X149538152Y-154119048D02*
X149538152Y-153928572D01*
X149538152Y-153928572D02*
X149585771Y-153833334D01*
X150204819Y-153404762D02*
X149204819Y-153404762D01*
X150204819Y-152976191D02*
X149681009Y-152976191D01*
X149681009Y-152976191D02*
X149585771Y-153023810D01*
X149585771Y-153023810D02*
X149538152Y-153119048D01*
X149538152Y-153119048D02*
X149538152Y-153261905D01*
X149538152Y-153261905D02*
X149585771Y-153357143D01*
X149585771Y-153357143D02*
X149633390Y-153404762D01*
X150157200Y-151785714D02*
X150204819Y-151642857D01*
X150204819Y-151642857D02*
X150204819Y-151404762D01*
X150204819Y-151404762D02*
X150157200Y-151309524D01*
X150157200Y-151309524D02*
X150109580Y-151261905D01*
X150109580Y-151261905D02*
X150014342Y-151214286D01*
X150014342Y-151214286D02*
X149919104Y-151214286D01*
X149919104Y-151214286D02*
X149823866Y-151261905D01*
X149823866Y-151261905D02*
X149776247Y-151309524D01*
X149776247Y-151309524D02*
X149728628Y-151404762D01*
X149728628Y-151404762D02*
X149681009Y-151595238D01*
X149681009Y-151595238D02*
X149633390Y-151690476D01*
X149633390Y-151690476D02*
X149585771Y-151738095D01*
X149585771Y-151738095D02*
X149490533Y-151785714D01*
X149490533Y-151785714D02*
X149395295Y-151785714D01*
X149395295Y-151785714D02*
X149300057Y-151738095D01*
X149300057Y-151738095D02*
X149252438Y-151690476D01*
X149252438Y-151690476D02*
X149204819Y-151595238D01*
X149204819Y-151595238D02*
X149204819Y-151357143D01*
X149204819Y-151357143D02*
X149252438Y-151214286D01*
X150204819Y-150642857D02*
X150157200Y-150738095D01*
X150157200Y-150738095D02*
X150061961Y-150785714D01*
X150061961Y-150785714D02*
X149204819Y-150785714D01*
X150204819Y-150261904D02*
X149538152Y-150261904D01*
X149204819Y-150261904D02*
X149252438Y-150309523D01*
X149252438Y-150309523D02*
X149300057Y-150261904D01*
X149300057Y-150261904D02*
X149252438Y-150214285D01*
X149252438Y-150214285D02*
X149204819Y-150261904D01*
X149204819Y-150261904D02*
X149300057Y-150261904D01*
X150204819Y-149357143D02*
X149204819Y-149357143D01*
X150157200Y-149357143D02*
X150204819Y-149452381D01*
X150204819Y-149452381D02*
X150204819Y-149642857D01*
X150204819Y-149642857D02*
X150157200Y-149738095D01*
X150157200Y-149738095D02*
X150109580Y-149785714D01*
X150109580Y-149785714D02*
X150014342Y-149833333D01*
X150014342Y-149833333D02*
X149728628Y-149833333D01*
X149728628Y-149833333D02*
X149633390Y-149785714D01*
X149633390Y-149785714D02*
X149585771Y-149738095D01*
X149585771Y-149738095D02*
X149538152Y-149642857D01*
X149538152Y-149642857D02*
X149538152Y-149452381D01*
X149538152Y-149452381D02*
X149585771Y-149357143D01*
X150157200Y-148500000D02*
X150204819Y-148595238D01*
X150204819Y-148595238D02*
X150204819Y-148785714D01*
X150204819Y-148785714D02*
X150157200Y-148880952D01*
X150157200Y-148880952D02*
X150061961Y-148928571D01*
X150061961Y-148928571D02*
X149681009Y-148928571D01*
X149681009Y-148928571D02*
X149585771Y-148880952D01*
X149585771Y-148880952D02*
X149538152Y-148785714D01*
X149538152Y-148785714D02*
X149538152Y-148595238D01*
X149538152Y-148595238D02*
X149585771Y-148500000D01*
X149585771Y-148500000D02*
X149681009Y-148452381D01*
X149681009Y-148452381D02*
X149776247Y-148452381D01*
X149776247Y-148452381D02*
X149871485Y-148928571D01*
X150157200Y-147309523D02*
X150204819Y-147166666D01*
X150204819Y-147166666D02*
X150204819Y-146928571D01*
X150204819Y-146928571D02*
X150157200Y-146833333D01*
X150157200Y-146833333D02*
X150109580Y-146785714D01*
X150109580Y-146785714D02*
X150014342Y-146738095D01*
X150014342Y-146738095D02*
X149919104Y-146738095D01*
X149919104Y-146738095D02*
X149823866Y-146785714D01*
X149823866Y-146785714D02*
X149776247Y-146833333D01*
X149776247Y-146833333D02*
X149728628Y-146928571D01*
X149728628Y-146928571D02*
X149681009Y-147119047D01*
X149681009Y-147119047D02*
X149633390Y-147214285D01*
X149633390Y-147214285D02*
X149585771Y-147261904D01*
X149585771Y-147261904D02*
X149490533Y-147309523D01*
X149490533Y-147309523D02*
X149395295Y-147309523D01*
X149395295Y-147309523D02*
X149300057Y-147261904D01*
X149300057Y-147261904D02*
X149252438Y-147214285D01*
X149252438Y-147214285D02*
X149204819Y-147119047D01*
X149204819Y-147119047D02*
X149204819Y-146880952D01*
X149204819Y-146880952D02*
X149252438Y-146738095D01*
X150204819Y-146309523D02*
X149204819Y-146309523D01*
X149204819Y-146309523D02*
X149204819Y-145928571D01*
X149204819Y-145928571D02*
X149252438Y-145833333D01*
X149252438Y-145833333D02*
X149300057Y-145785714D01*
X149300057Y-145785714D02*
X149395295Y-145738095D01*
X149395295Y-145738095D02*
X149538152Y-145738095D01*
X149538152Y-145738095D02*
X149633390Y-145785714D01*
X149633390Y-145785714D02*
X149681009Y-145833333D01*
X149681009Y-145833333D02*
X149728628Y-145928571D01*
X149728628Y-145928571D02*
X149728628Y-146309523D01*
X150204819Y-145309523D02*
X149204819Y-145309523D01*
X149204819Y-145309523D02*
X149204819Y-145071428D01*
X149204819Y-145071428D02*
X149252438Y-144928571D01*
X149252438Y-144928571D02*
X149347676Y-144833333D01*
X149347676Y-144833333D02*
X149442914Y-144785714D01*
X149442914Y-144785714D02*
X149633390Y-144738095D01*
X149633390Y-144738095D02*
X149776247Y-144738095D01*
X149776247Y-144738095D02*
X149966723Y-144785714D01*
X149966723Y-144785714D02*
X150061961Y-144833333D01*
X150061961Y-144833333D02*
X150157200Y-144928571D01*
X150157200Y-144928571D02*
X150204819Y-145071428D01*
X150204819Y-145071428D02*
X150204819Y-145309523D01*
X149204819Y-144452380D02*
X149204819Y-143880952D01*
X150204819Y-144166666D02*
X149204819Y-144166666D01*
X150204819Y-142261904D02*
X150204819Y-142833332D01*
X150204819Y-142547618D02*
X149204819Y-142547618D01*
X149204819Y-142547618D02*
X149347676Y-142642856D01*
X149347676Y-142642856D02*
X149442914Y-142738094D01*
X149442914Y-142738094D02*
X149490533Y-142833332D01*
X149204819Y-141642856D02*
X149204819Y-141547618D01*
X149204819Y-141547618D02*
X149252438Y-141452380D01*
X149252438Y-141452380D02*
X149300057Y-141404761D01*
X149300057Y-141404761D02*
X149395295Y-141357142D01*
X149395295Y-141357142D02*
X149585771Y-141309523D01*
X149585771Y-141309523D02*
X149823866Y-141309523D01*
X149823866Y-141309523D02*
X150014342Y-141357142D01*
X150014342Y-141357142D02*
X150109580Y-141404761D01*
X150109580Y-141404761D02*
X150157200Y-141452380D01*
X150157200Y-141452380D02*
X150204819Y-141547618D01*
X150204819Y-141547618D02*
X150204819Y-141642856D01*
X150204819Y-141642856D02*
X150157200Y-141738094D01*
X150157200Y-141738094D02*
X150109580Y-141785713D01*
X150109580Y-141785713D02*
X150014342Y-141833332D01*
X150014342Y-141833332D02*
X149823866Y-141880951D01*
X149823866Y-141880951D02*
X149585771Y-141880951D01*
X149585771Y-141880951D02*
X149395295Y-141833332D01*
X149395295Y-141833332D02*
X149300057Y-141785713D01*
X149300057Y-141785713D02*
X149252438Y-141738094D01*
X149252438Y-141738094D02*
X149204819Y-141642856D01*
X149204819Y-140690475D02*
X149204819Y-140595237D01*
X149204819Y-140595237D02*
X149252438Y-140499999D01*
X149252438Y-140499999D02*
X149300057Y-140452380D01*
X149300057Y-140452380D02*
X149395295Y-140404761D01*
X149395295Y-140404761D02*
X149585771Y-140357142D01*
X149585771Y-140357142D02*
X149823866Y-140357142D01*
X149823866Y-140357142D02*
X150014342Y-140404761D01*
X150014342Y-140404761D02*
X150109580Y-140452380D01*
X150109580Y-140452380D02*
X150157200Y-140499999D01*
X150157200Y-140499999D02*
X150204819Y-140595237D01*
X150204819Y-140595237D02*
X150204819Y-140690475D01*
X150204819Y-140690475D02*
X150157200Y-140785713D01*
X150157200Y-140785713D02*
X150109580Y-140833332D01*
X150109580Y-140833332D02*
X150014342Y-140880951D01*
X150014342Y-140880951D02*
X149823866Y-140928570D01*
X149823866Y-140928570D02*
X149585771Y-140928570D01*
X149585771Y-140928570D02*
X149395295Y-140880951D01*
X149395295Y-140880951D02*
X149300057Y-140833332D01*
X149300057Y-140833332D02*
X149252438Y-140785713D01*
X149252438Y-140785713D02*
X149204819Y-140690475D01*
X150204819Y-139928570D02*
X149538152Y-139928570D01*
X149633390Y-139928570D02*
X149585771Y-139880951D01*
X149585771Y-139880951D02*
X149538152Y-139785713D01*
X149538152Y-139785713D02*
X149538152Y-139642856D01*
X149538152Y-139642856D02*
X149585771Y-139547618D01*
X149585771Y-139547618D02*
X149681009Y-139499999D01*
X149681009Y-139499999D02*
X150204819Y-139499999D01*
X149681009Y-139499999D02*
X149585771Y-139452380D01*
X149585771Y-139452380D02*
X149538152Y-139357142D01*
X149538152Y-139357142D02*
X149538152Y-139214285D01*
X149538152Y-139214285D02*
X149585771Y-139119046D01*
X149585771Y-139119046D02*
X149681009Y-139071427D01*
X149681009Y-139071427D02*
X150204819Y-139071427D01*
X149919104Y-138642856D02*
X149919104Y-138166666D01*
X150204819Y-138738094D02*
X149204819Y-138404761D01*
X149204819Y-138404761D02*
X150204819Y-138071428D01*
X150204819Y-136452380D02*
X150204819Y-137023808D01*
X150204819Y-136738094D02*
X149204819Y-136738094D01*
X149204819Y-136738094D02*
X149347676Y-136833332D01*
X149347676Y-136833332D02*
X149442914Y-136928570D01*
X149442914Y-136928570D02*
X149490533Y-137023808D01*
X149300057Y-136071427D02*
X149252438Y-136023808D01*
X149252438Y-136023808D02*
X149204819Y-135928570D01*
X149204819Y-135928570D02*
X149204819Y-135690475D01*
X149204819Y-135690475D02*
X149252438Y-135595237D01*
X149252438Y-135595237D02*
X149300057Y-135547618D01*
X149300057Y-135547618D02*
X149395295Y-135499999D01*
X149395295Y-135499999D02*
X149490533Y-135499999D01*
X149490533Y-135499999D02*
X149633390Y-135547618D01*
X149633390Y-135547618D02*
X150204819Y-136119046D01*
X150204819Y-136119046D02*
X150204819Y-135499999D01*
X149204819Y-135214284D02*
X150204819Y-134880951D01*
X150204819Y-134880951D02*
X149204819Y-134547618D01*
X151657200Y-147333332D02*
X151704819Y-147190475D01*
X151704819Y-147190475D02*
X151704819Y-146952380D01*
X151704819Y-146952380D02*
X151657200Y-146857142D01*
X151657200Y-146857142D02*
X151609580Y-146809523D01*
X151609580Y-146809523D02*
X151514342Y-146761904D01*
X151514342Y-146761904D02*
X151419104Y-146761904D01*
X151419104Y-146761904D02*
X151323866Y-146809523D01*
X151323866Y-146809523D02*
X151276247Y-146857142D01*
X151276247Y-146857142D02*
X151228628Y-146952380D01*
X151228628Y-146952380D02*
X151181009Y-147142856D01*
X151181009Y-147142856D02*
X151133390Y-147238094D01*
X151133390Y-147238094D02*
X151085771Y-147285713D01*
X151085771Y-147285713D02*
X150990533Y-147333332D01*
X150990533Y-147333332D02*
X150895295Y-147333332D01*
X150895295Y-147333332D02*
X150800057Y-147285713D01*
X150800057Y-147285713D02*
X150752438Y-147238094D01*
X150752438Y-147238094D02*
X150704819Y-147142856D01*
X150704819Y-147142856D02*
X150704819Y-146904761D01*
X150704819Y-146904761D02*
X150752438Y-146761904D01*
X150704819Y-146428570D02*
X151704819Y-146190475D01*
X151704819Y-146190475D02*
X150990533Y-145999999D01*
X150990533Y-145999999D02*
X151704819Y-145809523D01*
X151704819Y-145809523D02*
X150704819Y-145571428D01*
X150704819Y-145285713D02*
X150704819Y-144619047D01*
X150704819Y-144619047D02*
X151704819Y-145047618D01*
D11*
G04 #@! TO.C,C15*
X114300000Y-136837500D02*
X115900000Y-136837500D01*
X114300000Y-140037500D02*
X114300000Y-136837500D01*
X115900000Y-136837500D02*
X115900000Y-140037500D01*
X115900000Y-140037500D02*
X114300000Y-140037500D01*
G04 #@! TO.C,C9*
X123400000Y-133737500D02*
X125000000Y-133737500D01*
X123400000Y-136937500D02*
X123400000Y-133737500D01*
X125000000Y-133737500D02*
X125000000Y-136937500D01*
X125000000Y-136937500D02*
X123400000Y-136937500D01*
G04 #@! TO.C,R24*
X104500000Y-150975000D02*
X106500000Y-150975000D01*
X104500000Y-152225000D02*
X104500000Y-150975000D01*
X106500000Y-150975000D02*
X106500000Y-152225000D01*
X106500000Y-152225000D02*
X104500000Y-152225000D01*
G04 #@! TO.C,R41*
X152737500Y-90375000D02*
X154737500Y-90375000D01*
X152737500Y-91625000D02*
X152737500Y-90375000D01*
X154737500Y-90375000D02*
X154737500Y-91625000D01*
X154737500Y-91625000D02*
X152737500Y-91625000D01*
G04 #@! TO.C,R46*
X95575000Y-145500000D02*
X96825000Y-145500000D01*
X95575000Y-147500000D02*
X95575000Y-145500000D01*
X96825000Y-145500000D02*
X96825000Y-147500000D01*
X96825000Y-147500000D02*
X95575000Y-147500000D01*
G04 #@! TO.C,R16*
X111775000Y-113200000D02*
X113025000Y-113200000D01*
X111775000Y-115200000D02*
X111775000Y-113200000D01*
X113025000Y-113200000D02*
X113025000Y-115200000D01*
X113025000Y-115200000D02*
X111775000Y-115200000D01*
G04 #@! TO.C,R7*
X130300000Y-133212500D02*
X132300000Y-133212500D01*
X130300000Y-134462500D02*
X130300000Y-133212500D01*
X132300000Y-133212500D02*
X132300000Y-134462500D01*
X132300000Y-134462500D02*
X130300000Y-134462500D01*
G04 #@! TO.C,R21*
X134275000Y-159900000D02*
X135525000Y-159900000D01*
X134275000Y-161900000D02*
X134275000Y-159900000D01*
X135525000Y-159900000D02*
X135525000Y-161900000D01*
X135525000Y-161900000D02*
X134275000Y-161900000D01*
G04 #@! TO.C,C40*
X137075000Y-119837500D02*
X138325000Y-119837500D01*
X137075000Y-121837500D02*
X137075000Y-119837500D01*
X138325000Y-119837500D02*
X138325000Y-121837500D01*
X138325000Y-121837500D02*
X137075000Y-121837500D01*
G04 #@! TO.C,R29*
X131375000Y-124000000D02*
X132625000Y-124000000D01*
X131375000Y-126000000D02*
X131375000Y-124000000D01*
X132625000Y-124000000D02*
X132625000Y-126000000D01*
X132625000Y-126000000D02*
X131375000Y-126000000D01*
G04 #@! TO.C,C14*
X122000000Y-130600000D02*
X125200000Y-130600000D01*
X122000000Y-132200000D02*
X122000000Y-130600000D01*
X125200000Y-130600000D02*
X125200000Y-132200000D01*
X125200000Y-132200000D02*
X122000000Y-132200000D01*
G04 #@! TO.C,U6*
X134500000Y-102850000D02*
X135250000Y-102100000D01*
X134500000Y-105100000D02*
X134500000Y-102850000D01*
X135250000Y-102100000D02*
X138900000Y-102100000D01*
X138900000Y-102100000D02*
X138900000Y-105100000D01*
X138900000Y-105100000D02*
X134500000Y-105100000D01*
G04 #@! TO.C,U12*
X153700000Y-137600000D02*
X153700000Y-135600000D01*
X153700000Y-137600000D02*
X155350000Y-137600000D01*
X155350000Y-137600000D02*
X155900000Y-137050000D01*
X155900000Y-135600000D02*
X153700000Y-135600000D01*
X155900000Y-137050000D02*
X155900000Y-135600000D01*
X155300000Y-136200000D02*
X154850000Y-136200000D01*
X154850000Y-135600000D01*
X155300000Y-135600000D01*
X155300000Y-136200000D01*
G36*
X155300000Y-136200000D02*
G01*
X154850000Y-136200000D01*
X154850000Y-135600000D01*
X155300000Y-135600000D01*
X155300000Y-136200000D01*
G37*
X155300000Y-137600000D02*
X154850000Y-137600000D01*
X154850000Y-137050000D01*
X155300000Y-137050000D01*
X155300000Y-137600000D01*
G36*
X155300000Y-137600000D02*
G01*
X154850000Y-137600000D01*
X154850000Y-137050000D01*
X155300000Y-137050000D01*
X155300000Y-137600000D01*
G37*
G04 #@! TO.C,R20*
X118975000Y-143700000D02*
X120225000Y-143700000D01*
X118975000Y-145700000D02*
X118975000Y-143700000D01*
X120225000Y-143700000D02*
X120225000Y-145700000D01*
X120225000Y-145700000D02*
X118975000Y-145700000D01*
G04 #@! TO.C,R17*
X117175000Y-120937500D02*
X118425000Y-120937500D01*
X117175000Y-122937500D02*
X117175000Y-120937500D01*
X118425000Y-120937500D02*
X118425000Y-122937500D01*
X118425000Y-122937500D02*
X117175000Y-122937500D01*
G04 #@! TO.C,R39*
X129900000Y-121375000D02*
X131900000Y-121375000D01*
X129900000Y-122625000D02*
X129900000Y-121375000D01*
X131900000Y-121375000D02*
X131900000Y-122625000D01*
X131900000Y-122625000D02*
X129900000Y-122625000D01*
G04 #@! TO.C,D2*
X144400000Y-128787500D02*
X146800000Y-128787500D01*
X144400000Y-130087500D02*
X144400000Y-128787500D01*
X146800000Y-128787500D02*
X147300000Y-129287500D01*
X147300000Y-129287500D02*
X147300000Y-130087500D01*
X147300000Y-130087500D02*
X144400000Y-130087500D01*
G04 #@! TO.C,U2*
X115500000Y-130537500D02*
X116500000Y-129537500D01*
X115500000Y-133537500D02*
X115500000Y-130537500D01*
X116500000Y-129537500D02*
X119500000Y-129537500D01*
X119500000Y-129537500D02*
X119500000Y-133537500D01*
X119500000Y-133537500D02*
X115500000Y-133537500D01*
D12*
G04 #@! TO.C,X1*
X152460000Y-103990000D02*
G75*
G02*
X152400000Y-103990000I-30000J0D01*
G01*
X152400000Y-103990000D02*
G75*
G02*
X152460000Y-103990000I30000J0D01*
G01*
D11*
G04 #@! TO.C,R18*
X117175000Y-124837500D02*
X118425000Y-124837500D01*
X117175000Y-126837500D02*
X117175000Y-124837500D01*
X118425000Y-124837500D02*
X118425000Y-126837500D01*
X118425000Y-126837500D02*
X117175000Y-126837500D01*
G04 #@! TO.C,R3*
X103100000Y-94275000D02*
X105100000Y-94275000D01*
X103100000Y-95525000D02*
X103100000Y-94275000D01*
X105100000Y-94275000D02*
X105100000Y-95525000D01*
X105100000Y-95525000D02*
X103100000Y-95525000D01*
G04 #@! TO.C,R42*
X140875000Y-113000000D02*
X142125000Y-113000000D01*
X140875000Y-115000000D02*
X140875000Y-113000000D01*
X142125000Y-113000000D02*
X142125000Y-115000000D01*
X142125000Y-115000000D02*
X140875000Y-115000000D01*
G04 #@! TO.C,C13*
X121962500Y-126100000D02*
X125162500Y-126100000D01*
X121962500Y-127700000D02*
X121962500Y-126100000D01*
X125162500Y-126100000D02*
X125162500Y-127700000D01*
X125162500Y-127700000D02*
X121962500Y-127700000D01*
G04 #@! TO.C,R38*
X152800000Y-92275000D02*
X154800000Y-92275000D01*
X152800000Y-93525000D02*
X152800000Y-92275000D01*
X154800000Y-92275000D02*
X154800000Y-93525000D01*
X154800000Y-93525000D02*
X152800000Y-93525000D01*
G04 #@! TO.C,C42*
X101300000Y-138275000D02*
X103300000Y-138275000D01*
X101300000Y-139525000D02*
X101300000Y-138275000D01*
X103300000Y-138275000D02*
X103300000Y-139525000D01*
X103300000Y-139525000D02*
X101300000Y-139525000D01*
G04 #@! TO.C,R25*
X99775000Y-157300000D02*
X101025000Y-157300000D01*
X99775000Y-159300000D02*
X99775000Y-157300000D01*
X101025000Y-157300000D02*
X101025000Y-159300000D01*
X101025000Y-159300000D02*
X99775000Y-159300000D01*
G04 #@! TO.C,R12*
X107400000Y-132012500D02*
X109400000Y-132012500D01*
X107400000Y-133262500D02*
X107400000Y-132012500D01*
X109400000Y-132012500D02*
X109400000Y-133262500D01*
X109400000Y-133262500D02*
X107400000Y-133262500D01*
G04 #@! TO.C,D5*
X156437500Y-90600000D02*
X156437500Y-91500000D01*
X156437500Y-91500000D02*
X158437500Y-91500000D01*
X156737500Y-90300000D02*
X156437500Y-90600000D01*
X158437500Y-90300000D02*
X156737500Y-90300000D01*
X158437500Y-91500000D02*
X158437500Y-90300000D01*
G04 #@! TO.C,C21*
X152150000Y-147600000D02*
X153750000Y-147600000D01*
X152150000Y-150800000D02*
X152150000Y-147600000D01*
X153750000Y-147600000D02*
X153750000Y-150800000D01*
X153750000Y-150800000D02*
X152150000Y-150800000D01*
G04 #@! TO.C,C34*
X135500000Y-134100000D02*
X138700000Y-134100000D01*
X135500000Y-135700000D02*
X135500000Y-134100000D01*
X138700000Y-134100000D02*
X138700000Y-135700000D01*
X138700000Y-135700000D02*
X135500000Y-135700000D01*
G04 #@! TO.C,R35*
X139675000Y-98700000D02*
X140925000Y-98700000D01*
X139675000Y-100700000D02*
X139675000Y-98700000D01*
X140925000Y-98700000D02*
X140925000Y-100700000D01*
X140925000Y-100700000D02*
X139675000Y-100700000D01*
G04 #@! TO.C,R2*
X145300000Y-103475000D02*
X147300000Y-103475000D01*
X145300000Y-104725000D02*
X145300000Y-103475000D01*
X147300000Y-103475000D02*
X147300000Y-104725000D01*
X147300000Y-104725000D02*
X145300000Y-104725000D01*
G04 #@! TO.C,R1*
X148400000Y-93475000D02*
X150400000Y-93475000D01*
X148400000Y-94725000D02*
X148400000Y-93475000D01*
X150400000Y-93475000D02*
X150400000Y-94725000D01*
X150400000Y-94725000D02*
X148400000Y-94725000D01*
G04 #@! TO.C,R51*
X113775000Y-113200000D02*
X115025000Y-113200000D01*
X113775000Y-115200000D02*
X113775000Y-113200000D01*
X115025000Y-113200000D02*
X115025000Y-115200000D01*
X115025000Y-115200000D02*
X113775000Y-115200000D01*
G04 #@! TO.C,C37*
X149425000Y-148200000D02*
X150675000Y-148200000D01*
X149425000Y-150200000D02*
X149425000Y-148200000D01*
X150675000Y-148200000D02*
X150675000Y-150200000D01*
X150675000Y-150200000D02*
X149425000Y-150200000D01*
G04 #@! TO.C,R10*
X111775000Y-117037500D02*
X113025000Y-117037500D01*
X111775000Y-119037500D02*
X111775000Y-117037500D01*
X113025000Y-117037500D02*
X113025000Y-119037500D01*
X113025000Y-119037500D02*
X111775000Y-119037500D01*
G04 #@! TO.C,R31*
X140225000Y-132337500D02*
X141475000Y-132337500D01*
X140225000Y-134337500D02*
X140225000Y-132337500D01*
X141475000Y-132337500D02*
X141475000Y-134337500D01*
X141475000Y-134337500D02*
X140225000Y-134337500D01*
G04 #@! TO.C,C23*
X115375000Y-145400000D02*
X116625000Y-145400000D01*
X115375000Y-147400000D02*
X115375000Y-145400000D01*
X116625000Y-145400000D02*
X116625000Y-147400000D01*
X116625000Y-147400000D02*
X115375000Y-147400000D01*
G04 #@! TO.C,C19*
X121075000Y-139800000D02*
X122325000Y-139800000D01*
X121075000Y-141800000D02*
X121075000Y-139800000D01*
X122325000Y-139800000D02*
X122325000Y-141800000D01*
X122325000Y-141800000D02*
X121075000Y-141800000D01*
G04 #@! TO.C,J2*
X88130000Y-93625000D02*
X88765000Y-92990000D01*
X88130000Y-103150000D02*
X88130000Y-93625000D01*
X88765000Y-92990000D02*
X90670000Y-92990000D01*
X90670000Y-92990000D02*
X90670000Y-103150000D01*
X90670000Y-103150000D02*
X88130000Y-103150000D01*
G04 #@! TO.C,R5*
X102937500Y-127212500D02*
X104937500Y-127212500D01*
X102937500Y-128462500D02*
X102937500Y-127212500D01*
X104937500Y-127212500D02*
X104937500Y-128462500D01*
X104937500Y-128462500D02*
X102937500Y-128462500D01*
G04 #@! TO.C,R30*
X135475000Y-128300000D02*
X136725000Y-128300000D01*
X135475000Y-130300000D02*
X135475000Y-128300000D01*
X136725000Y-128300000D02*
X136725000Y-130300000D01*
X136725000Y-130300000D02*
X135475000Y-130300000D01*
G04 #@! TO.C,C31*
X106300000Y-158575000D02*
X108300000Y-158575000D01*
X106300000Y-159825000D02*
X106300000Y-158575000D01*
X108300000Y-158575000D02*
X108300000Y-159825000D01*
X108300000Y-159825000D02*
X106300000Y-159825000D01*
G04 #@! TO.C,C17*
X122000000Y-128575000D02*
X124000000Y-128575000D01*
X122000000Y-129825000D02*
X122000000Y-128575000D01*
X124000000Y-128575000D02*
X124000000Y-129825000D01*
X124000000Y-129825000D02*
X122000000Y-129825000D01*
G04 #@! TO.C,C7*
X121275000Y-133737500D02*
X122525000Y-133737500D01*
X121275000Y-135737500D02*
X121275000Y-133737500D01*
X122525000Y-133737500D02*
X122525000Y-135737500D01*
X122525000Y-135737500D02*
X121275000Y-135737500D01*
G04 #@! TO.C,C24*
X113275000Y-145362500D02*
X114525000Y-145362500D01*
X113275000Y-147362500D02*
X113275000Y-145362500D01*
X114525000Y-145362500D02*
X114525000Y-147362500D01*
X114525000Y-147362500D02*
X113275000Y-147362500D01*
G04 #@! TO.C,C36*
X136500000Y-105900000D02*
X139700000Y-105900000D01*
X136500000Y-107500000D02*
X136500000Y-105900000D01*
X139700000Y-105900000D02*
X139700000Y-107500000D01*
X139700000Y-107500000D02*
X136500000Y-107500000D01*
G04 #@! TO.C,R48*
X140537500Y-141825000D02*
X142537500Y-141825000D01*
X140537500Y-143075000D02*
X140537500Y-141825000D01*
X142537500Y-141825000D02*
X142537500Y-143075000D01*
X142537500Y-143075000D02*
X140537500Y-143075000D01*
G04 #@! TO.C,R33*
X103100000Y-98475000D02*
X105100000Y-98475000D01*
X103100000Y-99725000D02*
X103100000Y-98475000D01*
X105100000Y-98475000D02*
X105100000Y-99725000D01*
X105100000Y-99725000D02*
X103100000Y-99725000D01*
G04 #@! TO.C,R8*
X111775000Y-120837500D02*
X113025000Y-120837500D01*
X111775000Y-122837500D02*
X111775000Y-120837500D01*
X113025000Y-120837500D02*
X113025000Y-122837500D01*
X113025000Y-122837500D02*
X111775000Y-122837500D01*
G04 #@! TO.C,R11*
X113875000Y-117037500D02*
X115125000Y-117037500D01*
X113875000Y-119037500D02*
X113875000Y-117037500D01*
X115125000Y-117037500D02*
X115125000Y-119037500D01*
X115125000Y-119037500D02*
X113875000Y-119037500D01*
G04 #@! TO.C,U1*
X109600000Y-83190000D02*
X127600000Y-83190000D01*
X109600000Y-89190000D02*
X127600000Y-89190000D01*
X109600000Y-108690000D02*
X109600000Y-83190000D01*
X109600000Y-108690000D02*
X127600000Y-108690000D01*
X127600000Y-108690000D02*
X127600000Y-83190000D01*
G04 #@! TO.C,C2*
X104275000Y-90862500D02*
X105525000Y-90862500D01*
X104275000Y-92862500D02*
X104275000Y-90862500D01*
X105525000Y-90862500D02*
X105525000Y-92862500D01*
X105525000Y-92862500D02*
X104275000Y-92862500D01*
G04 #@! TO.C,C35*
X133275000Y-98700000D02*
X134525000Y-98700000D01*
X133275000Y-100700000D02*
X133275000Y-98700000D01*
X134525000Y-98700000D02*
X134525000Y-100700000D01*
X134525000Y-100700000D02*
X133275000Y-100700000D01*
G04 #@! TO.C,R15*
X107400000Y-136275000D02*
X109400000Y-136275000D01*
X107400000Y-137525000D02*
X107400000Y-136275000D01*
X109400000Y-136275000D02*
X109400000Y-137525000D01*
X109400000Y-137525000D02*
X107400000Y-137525000D01*
G04 #@! TO.C,C6*
X101737500Y-129237500D02*
X104937500Y-129237500D01*
X101737500Y-130837500D02*
X101737500Y-129237500D01*
X104937500Y-129237500D02*
X104937500Y-130837500D01*
X104937500Y-130837500D02*
X101737500Y-130837500D01*
G04 #@! TO.C,C29*
X100600000Y-150975000D02*
X102600000Y-150975000D01*
X100600000Y-152225000D02*
X100600000Y-150975000D01*
X102600000Y-150975000D02*
X102600000Y-152225000D01*
X102600000Y-152225000D02*
X100600000Y-152225000D01*
G04 #@! TO.C,U13*
X153700000Y-106350000D02*
X153700000Y-107800000D01*
X153700000Y-107800000D02*
X155900000Y-107800000D01*
X154250000Y-105800000D02*
X153700000Y-106350000D01*
X155900000Y-105800000D02*
X154250000Y-105800000D01*
X155900000Y-105800000D02*
X155900000Y-107800000D01*
X154300000Y-105800000D02*
X154750000Y-105800000D01*
X154750000Y-106350000D01*
X154300000Y-106350000D01*
X154300000Y-105800000D01*
G36*
X154300000Y-105800000D02*
G01*
X154750000Y-105800000D01*
X154750000Y-106350000D01*
X154300000Y-106350000D01*
X154300000Y-105800000D01*
G37*
X154300000Y-107200000D02*
X154750000Y-107200000D01*
X154750000Y-107800000D01*
X154300000Y-107800000D01*
X154300000Y-107200000D01*
G36*
X154300000Y-107200000D02*
G01*
X154750000Y-107200000D01*
X154750000Y-107800000D01*
X154300000Y-107800000D01*
X154300000Y-107200000D01*
G37*
G04 #@! TO.C,C4*
X106475000Y-94900000D02*
X107725000Y-94900000D01*
X106475000Y-96900000D02*
X106475000Y-94900000D01*
X107725000Y-94900000D02*
X107725000Y-96900000D01*
X107725000Y-96900000D02*
X106475000Y-96900000D01*
G04 #@! TO.C,D1*
X144750000Y-97750000D02*
X147150000Y-97750000D01*
X144750000Y-99050000D02*
X144750000Y-97750000D01*
X147150000Y-97750000D02*
X147650000Y-98250000D01*
X147650000Y-98250000D02*
X147650000Y-99050000D01*
X147650000Y-99050000D02*
X144750000Y-99050000D01*
G04 #@! TO.C,R4*
X108612500Y-127737500D02*
X109862500Y-127737500D01*
X108612500Y-129737500D02*
X108612500Y-127737500D01*
X109862500Y-127737500D02*
X109862500Y-129737500D01*
X109862500Y-129737500D02*
X108612500Y-129737500D01*
G04 #@! TO.C,U11*
X101400000Y-137500000D02*
X101400000Y-135500000D01*
X101400000Y-137500000D02*
X103050000Y-137500000D01*
X103050000Y-137500000D02*
X103600000Y-136950000D01*
X103600000Y-135500000D02*
X101400000Y-135500000D01*
X103600000Y-136950000D02*
X103600000Y-135500000D01*
X103000000Y-136100000D02*
X102550000Y-136100000D01*
X102550000Y-135500000D01*
X103000000Y-135500000D01*
X103000000Y-136100000D01*
G36*
X103000000Y-136100000D02*
G01*
X102550000Y-136100000D01*
X102550000Y-135500000D01*
X103000000Y-135500000D01*
X103000000Y-136100000D01*
G37*
X103000000Y-137500000D02*
X102550000Y-137500000D01*
X102550000Y-136950000D01*
X103000000Y-136950000D01*
X103000000Y-137500000D01*
G36*
X103000000Y-137500000D02*
G01*
X102550000Y-137500000D01*
X102550000Y-136950000D01*
X103000000Y-136950000D01*
X103000000Y-137500000D01*
G37*
G04 #@! TO.C,Q2*
X144837500Y-142400000D02*
X145237500Y-142000000D01*
X144837500Y-144900000D02*
X144837500Y-142400000D01*
X145237500Y-142000000D02*
X146437500Y-142000000D01*
X146437500Y-142000000D02*
X146437500Y-144900000D01*
X146437500Y-144900000D02*
X144837500Y-144900000D01*
G04 #@! TO.C,D3*
X133350000Y-120187500D02*
X135750000Y-120187500D01*
X133350000Y-121487500D02*
X133350000Y-120187500D01*
X135750000Y-120187500D02*
X136250000Y-120687500D01*
X136250000Y-120687500D02*
X136250000Y-121487500D01*
X136250000Y-121487500D02*
X133350000Y-121487500D01*
G04 #@! TO.C,C32*
X104300000Y-160675000D02*
X106300000Y-160675000D01*
X104300000Y-161925000D02*
X104300000Y-160675000D01*
X106300000Y-160675000D02*
X106300000Y-161925000D01*
X106300000Y-161925000D02*
X104300000Y-161925000D01*
G04 #@! TO.C,R9*
X113875000Y-120837500D02*
X115125000Y-120837500D01*
X113875000Y-122837500D02*
X113875000Y-120837500D01*
X115125000Y-120837500D02*
X115125000Y-122837500D01*
X115125000Y-122837500D02*
X113875000Y-122837500D01*
G04 #@! TO.C,U7*
X131925000Y-111815000D02*
X136495000Y-111815000D01*
X131925000Y-116385000D02*
X131925000Y-111815000D01*
X135495000Y-116385000D02*
X131925000Y-116385000D01*
X136495000Y-111815000D02*
X136495000Y-115385000D01*
X136495000Y-115385000D02*
X135495000Y-116385000D01*
G04 #@! TO.C,U5*
X136300000Y-98250000D02*
X137900000Y-98250000D01*
X136300000Y-101150000D02*
X136300000Y-98250000D01*
X137500000Y-101150000D02*
X136300000Y-101150000D01*
X137900000Y-98250000D02*
X137900000Y-100750000D01*
X137900000Y-100750000D02*
X137500000Y-101150000D01*
G04 #@! TO.C,C28*
X100600000Y-153075000D02*
X102600000Y-153075000D01*
X100600000Y-154325000D02*
X100600000Y-153075000D01*
X102600000Y-153075000D02*
X102600000Y-154325000D01*
X102600000Y-154325000D02*
X100600000Y-154325000D01*
G04 #@! TO.C,C41*
X99175000Y-105800000D02*
X100425000Y-105800000D01*
X99175000Y-107800000D02*
X99175000Y-105800000D01*
X100425000Y-105800000D02*
X100425000Y-107800000D01*
X100425000Y-107800000D02*
X99175000Y-107800000D01*
G04 #@! TO.C,R32*
X142325000Y-132337500D02*
X143575000Y-132337500D01*
X142325000Y-134337500D02*
X142325000Y-132337500D01*
X143575000Y-132337500D02*
X143575000Y-134337500D01*
X143575000Y-134337500D02*
X142325000Y-134337500D01*
G04 #@! TO.C,R19*
X121075000Y-143700000D02*
X122325000Y-143700000D01*
X121075000Y-145700000D02*
X121075000Y-143700000D01*
X122325000Y-143700000D02*
X122325000Y-145700000D01*
X122325000Y-145700000D02*
X121075000Y-145700000D01*
G04 #@! TO.C,Q1*
X136550000Y-160000000D02*
X139450000Y-160000000D01*
X136550000Y-161200000D02*
X136550000Y-160000000D01*
X136950000Y-161600000D02*
X136550000Y-161200000D01*
X139450000Y-160000000D02*
X139450000Y-161600000D01*
X139450000Y-161600000D02*
X136950000Y-161600000D01*
G04 #@! TO.C,C43*
X153800000Y-138375000D02*
X155800000Y-138375000D01*
X153800000Y-139625000D02*
X153800000Y-138375000D01*
X155800000Y-138375000D02*
X155800000Y-139625000D01*
X155800000Y-139625000D02*
X153800000Y-139625000D01*
G04 #@! TO.C,U8*
X144850000Y-147550000D02*
X146650000Y-147550000D01*
X144850000Y-150650000D02*
X144850000Y-147550000D01*
X144850000Y-150650000D02*
X146000000Y-150650000D01*
X146650000Y-150000000D02*
X146000000Y-150650000D01*
X146650000Y-150000000D02*
X146650000Y-147550000D01*
G04 #@! TO.C,R43*
X95475000Y-119900000D02*
X96725000Y-119900000D01*
X95475000Y-121900000D02*
X95475000Y-119900000D01*
X96725000Y-119900000D02*
X96725000Y-121900000D01*
X96725000Y-121900000D02*
X95475000Y-121900000D01*
G04 #@! TO.C,C26*
X100600000Y-148875000D02*
X102600000Y-148875000D01*
X100600000Y-150125000D02*
X100600000Y-148875000D01*
X102600000Y-148875000D02*
X102600000Y-150125000D01*
X102600000Y-150125000D02*
X100600000Y-150125000D01*
G04 #@! TO.C,R44*
X95775000Y-132500000D02*
X97025000Y-132500000D01*
X95775000Y-134500000D02*
X95775000Y-132500000D01*
X97025000Y-132500000D02*
X97025000Y-134500000D01*
X97025000Y-134500000D02*
X95775000Y-134500000D01*
G04 #@! TO.C,R26*
X109575000Y-157300000D02*
X110825000Y-157300000D01*
X109575000Y-159300000D02*
X109575000Y-157300000D01*
X110825000Y-157300000D02*
X110825000Y-159300000D01*
X110825000Y-159300000D02*
X109575000Y-159300000D01*
G04 #@! TO.C,C44*
X153800000Y-108575000D02*
X155800000Y-108575000D01*
X153800000Y-109825000D02*
X153800000Y-108575000D01*
X155800000Y-108575000D02*
X155800000Y-109825000D01*
X155800000Y-109825000D02*
X153800000Y-109825000D01*
G04 #@! TO.C,J1*
X119730000Y-153160000D02*
X121000000Y-151890000D01*
X119730000Y-159510000D02*
X119730000Y-153160000D01*
X121000000Y-151890000D02*
X124810000Y-151890000D01*
X124810000Y-151890000D02*
X124810000Y-159510000D01*
X124810000Y-159510000D02*
X119730000Y-159510000D01*
G04 #@! TO.C,C25*
X111175000Y-145362500D02*
X112425000Y-145362500D01*
X111175000Y-147362500D02*
X111175000Y-145362500D01*
X112425000Y-145362500D02*
X112425000Y-147362500D01*
X112425000Y-147362500D02*
X111175000Y-147362500D01*
G04 #@! TO.C,C12*
X111775000Y-124737500D02*
X113025000Y-124737500D01*
X111775000Y-126737500D02*
X111775000Y-124737500D01*
X113025000Y-124737500D02*
X113025000Y-126737500D01*
X113025000Y-126737500D02*
X111775000Y-126737500D01*
G04 #@! TO.C,R27*
X103100000Y-96375000D02*
X105100000Y-96375000D01*
X103100000Y-97625000D02*
X103100000Y-96375000D01*
X105100000Y-96375000D02*
X105100000Y-97625000D01*
X105100000Y-97625000D02*
X103100000Y-97625000D01*
G04 #@! TO.C,R13*
X107400000Y-134162500D02*
X109400000Y-134162500D01*
X107400000Y-135412500D02*
X107400000Y-134162500D01*
X109400000Y-134162500D02*
X109400000Y-135412500D01*
X109400000Y-135412500D02*
X107400000Y-135412500D01*
G04 #@! TO.C,R50*
X140537500Y-139725000D02*
X142537500Y-139725000D01*
X140537500Y-140975000D02*
X140537500Y-139725000D01*
X142537500Y-139725000D02*
X142537500Y-140975000D01*
X142537500Y-140975000D02*
X140537500Y-140975000D01*
G04 #@! TO.C,R45*
X95775000Y-107000000D02*
X97025000Y-107000000D01*
X95775000Y-109000000D02*
X95775000Y-107000000D01*
X97025000Y-107000000D02*
X97025000Y-109000000D01*
X97025000Y-109000000D02*
X95775000Y-109000000D01*
G04 #@! TO.C,R34*
X133800000Y-96175000D02*
X135800000Y-96175000D01*
X133800000Y-97425000D02*
X133800000Y-96175000D01*
X135800000Y-96175000D02*
X135800000Y-97425000D01*
X135800000Y-97425000D02*
X133800000Y-97425000D01*
G04 #@! TO.C,R6*
X126400000Y-133212500D02*
X128400000Y-133212500D01*
X126400000Y-134462500D02*
X126400000Y-133212500D01*
X128400000Y-133212500D02*
X128400000Y-134462500D01*
X128400000Y-134462500D02*
X126400000Y-134462500D01*
G04 #@! TO.C,C20*
X118975000Y-139800000D02*
X120225000Y-139800000D01*
X118975000Y-141800000D02*
X118975000Y-139800000D01*
X120225000Y-139800000D02*
X120225000Y-141800000D01*
X120225000Y-141800000D02*
X118975000Y-141800000D01*
G04 #@! TO.C,R49*
X144437500Y-139725000D02*
X146437500Y-139725000D01*
X144437500Y-140975000D02*
X144437500Y-139725000D01*
X146437500Y-139725000D02*
X146437500Y-140975000D01*
X146437500Y-140975000D02*
X144437500Y-140975000D01*
G04 #@! TO.C,C11*
X113875000Y-124737500D02*
X115125000Y-124737500D01*
X113875000Y-126737500D02*
X113875000Y-124737500D01*
X115125000Y-124737500D02*
X115125000Y-126737500D01*
X115125000Y-126737500D02*
X113875000Y-126737500D01*
G04 #@! TO.C,C5*
X106312500Y-127737500D02*
X107562500Y-127737500D01*
X106312500Y-129737500D02*
X106312500Y-127737500D01*
X107562500Y-127737500D02*
X107562500Y-129737500D01*
X107562500Y-129737500D02*
X106312500Y-129737500D01*
G04 #@! TO.C,R14*
X107400000Y-138375000D02*
X109400000Y-138375000D01*
X107400000Y-139625000D02*
X107400000Y-138375000D01*
X109400000Y-138375000D02*
X109400000Y-139625000D01*
X109400000Y-139625000D02*
X107400000Y-139625000D01*
G04 #@! TO.C,R47*
X136575000Y-163900000D02*
X137825000Y-163900000D01*
X136575000Y-165900000D02*
X136575000Y-163900000D01*
X137825000Y-163900000D02*
X137825000Y-165900000D01*
X137825000Y-165900000D02*
X136575000Y-165900000D01*
G04 #@! TO.C,C16*
X122000000Y-124075000D02*
X124000000Y-124075000D01*
X122000000Y-125325000D02*
X122000000Y-124075000D01*
X124000000Y-124075000D02*
X124000000Y-125325000D01*
X124000000Y-125325000D02*
X122000000Y-125325000D01*
G04 #@! TO.C,FB1*
X107937500Y-146950000D02*
X109937500Y-146950000D01*
X107937500Y-147850000D02*
X107937500Y-146950000D01*
X109937500Y-146950000D02*
X109937500Y-147850000D01*
X109937500Y-147850000D02*
X107937500Y-147850000D01*
G04 #@! TO.C,R40*
X129900000Y-119275000D02*
X131900000Y-119275000D01*
X129900000Y-120525000D02*
X129900000Y-119275000D01*
X131900000Y-119275000D02*
X131900000Y-120525000D01*
X131900000Y-120525000D02*
X129900000Y-120525000D01*
G04 #@! TO.C,C1*
X147700000Y-101475000D02*
X149700000Y-101475000D01*
X147700000Y-102725000D02*
X147700000Y-101475000D01*
X149700000Y-101475000D02*
X149700000Y-102725000D01*
X149700000Y-102725000D02*
X147700000Y-102725000D01*
G04 #@! TO.C,C39*
X141550000Y-152737500D02*
X141550000Y-157337500D01*
X141550000Y-152737500D02*
X142550000Y-151737500D01*
X141550000Y-157337500D02*
X142550000Y-158337500D01*
X142145162Y-153707500D02*
X142775162Y-153707500D01*
X142460162Y-153392500D02*
X142460162Y-154022500D01*
X142550000Y-151737500D02*
X148150000Y-151737500D01*
X142550000Y-158337500D02*
X148150000Y-158337500D01*
X148150000Y-151737500D02*
X148150000Y-158337500D01*
X148000000Y-155037500D02*
G75*
G02*
X141700000Y-155037500I-3150000J0D01*
G01*
X141700000Y-155037500D02*
G75*
G02*
X148000000Y-155037500I3150000J0D01*
G01*
G04 #@! TO.C,R37*
X141000000Y-127575000D02*
X143000000Y-127575000D01*
X141000000Y-128825000D02*
X141000000Y-127575000D01*
X143000000Y-127575000D02*
X143000000Y-128825000D01*
X143000000Y-128825000D02*
X141000000Y-128825000D01*
G04 #@! TO.C,C3*
X106475000Y-90862500D02*
X107725000Y-90862500D01*
X106475000Y-92862500D02*
X106475000Y-90862500D01*
X107725000Y-90862500D02*
X107725000Y-92862500D01*
X107725000Y-92862500D02*
X106475000Y-92862500D01*
G04 #@! TO.C,C10*
X125900000Y-135837500D02*
X127500000Y-135837500D01*
X125900000Y-139037500D02*
X125900000Y-135837500D01*
X127500000Y-135837500D02*
X127500000Y-139037500D01*
X127500000Y-139037500D02*
X125900000Y-139037500D01*
G04 #@! TO.C,R36*
X141000000Y-129675000D02*
X143000000Y-129675000D01*
X141000000Y-130925000D02*
X141000000Y-129675000D01*
X143000000Y-129675000D02*
X143000000Y-130925000D01*
X143000000Y-130925000D02*
X141000000Y-130925000D01*
G04 #@! TO.C,C8*
X129475000Y-135800000D02*
X130725000Y-135800000D01*
X129475000Y-137800000D02*
X129475000Y-135800000D01*
X130725000Y-135800000D02*
X130725000Y-137800000D01*
X130725000Y-137800000D02*
X129475000Y-137800000D01*
G04 #@! TO.C,C22*
X148125000Y-128437500D02*
X149375000Y-128437500D01*
X148125000Y-130437500D02*
X148125000Y-128437500D01*
X149375000Y-128437500D02*
X149375000Y-130437500D01*
X149375000Y-130437500D02*
X148125000Y-130437500D01*
G04 #@! TO.C,R28*
X129275000Y-124000000D02*
X130525000Y-124000000D01*
X129275000Y-126000000D02*
X129275000Y-124000000D01*
X130525000Y-124000000D02*
X130525000Y-126000000D01*
X130525000Y-126000000D02*
X129275000Y-126000000D01*
G04 #@! TO.C,Q3*
X136925000Y-139700000D02*
X138225000Y-139700000D01*
X136925000Y-142600000D02*
X136925000Y-139700000D01*
X137900000Y-142600000D02*
X136925000Y-142600000D01*
X138225000Y-139700000D02*
X138225000Y-142275000D01*
X138225000Y-142275000D02*
X137900000Y-142600000D01*
G04 #@! TO.C,C30*
X102400000Y-158575000D02*
X104400000Y-158575000D01*
X102400000Y-159825000D02*
X102400000Y-158575000D01*
X104400000Y-158575000D02*
X104400000Y-159825000D01*
X104400000Y-159825000D02*
X102400000Y-159825000D01*
G04 #@! TO.C,U9*
X101500000Y-105700000D02*
X101500000Y-107350000D01*
X101500000Y-105700000D02*
X103500000Y-105700000D01*
X101500000Y-107350000D02*
X102050000Y-107900000D01*
X102050000Y-107900000D02*
X103500000Y-107900000D01*
X103500000Y-107900000D02*
X103500000Y-105700000D01*
X101500000Y-107300000D02*
X102050000Y-107300000D01*
X102050000Y-106850000D01*
X101500000Y-106850000D01*
X101500000Y-107300000D01*
G36*
X101500000Y-107300000D02*
G01*
X102050000Y-107300000D01*
X102050000Y-106850000D01*
X101500000Y-106850000D01*
X101500000Y-107300000D01*
G37*
X102900000Y-107300000D02*
X103500000Y-107300000D01*
X103500000Y-106850000D01*
X102900000Y-106850000D01*
X102900000Y-107300000D01*
G36*
X102900000Y-107300000D02*
G01*
X103500000Y-107300000D01*
X103500000Y-106850000D01*
X102900000Y-106850000D01*
X102900000Y-107300000D01*
G37*
G04 #@! TO.C,R23*
X104500000Y-153075000D02*
X106500000Y-153075000D01*
X104500000Y-154325000D02*
X104500000Y-153075000D01*
X106500000Y-153075000D02*
X106500000Y-154325000D01*
X106500000Y-154325000D02*
X104500000Y-154325000D01*
G04 #@! TO.C,R22*
X104500000Y-148875000D02*
X106500000Y-148875000D01*
X104500000Y-150125000D02*
X104500000Y-148875000D01*
X106500000Y-148875000D02*
X106500000Y-150125000D01*
X106500000Y-150125000D02*
X104500000Y-150125000D01*
G04 #@! TO.C,C18*
X112075000Y-136875000D02*
X113325000Y-136875000D01*
X112075000Y-138875000D02*
X112075000Y-136875000D01*
X113325000Y-136875000D02*
X113325000Y-138875000D01*
X113325000Y-138875000D02*
X112075000Y-138875000D01*
G04 #@! TO.C,C33*
X136100000Y-131775000D02*
X138100000Y-131775000D01*
X136100000Y-133025000D02*
X136100000Y-131775000D01*
X138100000Y-131775000D02*
X138100000Y-133025000D01*
X138100000Y-133025000D02*
X136100000Y-133025000D01*
G04 #@! TO.C,C27*
X100600000Y-146775000D02*
X102600000Y-146775000D01*
X100600000Y-148025000D02*
X100600000Y-146775000D01*
X102600000Y-146775000D02*
X102600000Y-148025000D01*
X102600000Y-148025000D02*
X100600000Y-148025000D01*
G04 #@! TO.C,C38*
X141425000Y-148200000D02*
X142675000Y-148200000D01*
X141425000Y-150200000D02*
X141425000Y-148200000D01*
X142675000Y-148200000D02*
X142675000Y-150200000D01*
X142675000Y-150200000D02*
X141425000Y-150200000D01*
G04 #@! TO.C,D4*
X156500000Y-92700000D02*
X156500000Y-93600000D01*
X156500000Y-93600000D02*
X158500000Y-93600000D01*
X156800000Y-92400000D02*
X156500000Y-92700000D01*
X158500000Y-92400000D02*
X156800000Y-92400000D01*
X158500000Y-93600000D02*
X158500000Y-92400000D01*
G04 #@! TD*
M02*
