G04 #@! TF.GenerationSoftware,KiCad,Pcbnew,8.0.4*
G04 #@! TF.CreationDate,2025-04-22T14:39:33+02:00*
G04 #@! TF.ProjectId,MarvinProjekt,4d617276-696e-4507-926f-6a656b742e6b,rev?*
G04 #@! TF.SameCoordinates,Original*
G04 #@! TF.FileFunction,Legend,Top*
G04 #@! TF.FilePolarity,Positive*
%FSLAX46Y46*%
G04 Gerber Fmt 4.6, Leading zero omitted, Abs format (unit mm)*
G04 Created by KiCad (PCBNEW 8.0.4) date 2025-04-22 14:39:33*
%MOMM*%
%LPD*%
G01*
G04 APERTURE LIST*
G04 Aperture macros list*
%AMRoundRect*
0 Rectangle with rounded corners*
0 $1 Rounding radius*
0 $2 $3 $4 $5 $6 $7 $8 $9 X,Y pos of 4 corners*
0 Add a 4 corners polygon primitive as box body*
4,1,4,$2,$3,$4,$5,$6,$7,$8,$9,$2,$3,0*
0 Add four circle primitives for the rounded corners*
1,1,$1+$1,$2,$3*
1,1,$1+$1,$4,$5*
1,1,$1+$1,$6,$7*
1,1,$1+$1,$8,$9*
0 Add four rect primitives between the rounded corners*
20,1,$1+$1,$2,$3,$4,$5,0*
20,1,$1+$1,$4,$5,$6,$7,0*
20,1,$1+$1,$6,$7,$8,$9,0*
20,1,$1+$1,$8,$9,$2,$3,0*%
G04 Aperture macros list end*
%ADD10C,0.200000*%
%ADD11C,0.120000*%
%ADD12C,0.250000*%
%ADD13C,0.100000*%
%ADD14RoundRect,0.250000X-0.650000X0.412500X-0.650000X-0.412500X0.650000X-0.412500X0.650000X0.412500X0*%
%ADD15RoundRect,0.250000X0.350000X0.450000X-0.350000X0.450000X-0.350000X-0.450000X0.350000X-0.450000X0*%
%ADD16RoundRect,0.250000X-0.350000X-0.450000X0.350000X-0.450000X0.350000X0.450000X-0.350000X0.450000X0*%
%ADD17RoundRect,0.250000X-0.450000X0.350000X-0.450000X-0.350000X0.450000X-0.350000X0.450000X0.350000X0*%
%ADD18RoundRect,0.250000X0.450000X-0.350000X0.450000X0.350000X-0.450000X0.350000X-0.450000X-0.350000X0*%
%ADD19RoundRect,0.250000X0.475000X-0.337500X0.475000X0.337500X-0.475000X0.337500X-0.475000X-0.337500X0*%
%ADD20RoundRect,0.250000X-0.412500X-0.650000X0.412500X-0.650000X0.412500X0.650000X-0.412500X0.650000X0*%
%ADD21RoundRect,0.100000X-0.637500X-0.100000X0.637500X-0.100000X0.637500X0.100000X-0.637500X0.100000X0*%
%ADD22R,0.700000X0.700000*%
%ADD23RoundRect,0.250000X-0.250000X0.600000X-0.250000X-0.600000X0.250000X-0.600000X0.250000X0.600000X0*%
%ADD24RoundRect,0.150000X-0.150000X0.700000X-0.150000X-0.700000X0.150000X-0.700000X0.150000X0.700000X0*%
%ADD25RoundRect,0.050000X-0.362500X-0.050000X0.362500X-0.050000X0.362500X0.050000X-0.362500X0.050000X0*%
%ADD26RoundRect,0.050000X-0.050000X-0.362500X0.050000X-0.362500X0.050000X0.362500X-0.050000X0.362500X0*%
%ADD27R,2.300000X2.300000*%
%ADD28C,0.750000*%
%ADD29O,2.000000X1.100000*%
%ADD30O,1.800000X1.200000*%
%ADD31R,1.300000X0.500000*%
%ADD32R,1.300000X0.280000*%
%ADD33RoundRect,0.250000X-0.337500X-0.475000X0.337500X-0.475000X0.337500X0.475000X-0.337500X0.475000X0*%
%ADD34R,2.100000X1.400000*%
%ADD35RoundRect,0.250000X-0.800000X-0.450000X0.800000X-0.450000X0.800000X0.450000X-0.800000X0.450000X0*%
%ADD36RoundRect,0.243750X-0.243750X-0.456250X0.243750X-0.456250X0.243750X0.456250X-0.243750X0.456250X0*%
%ADD37R,1.400000X2.100000*%
%ADD38RoundRect,0.250000X0.450000X-0.800000X0.450000X0.800000X-0.450000X0.800000X-0.450000X-0.800000X0*%
%ADD39RoundRect,0.250000X-0.475000X0.337500X-0.475000X-0.337500X0.475000X-0.337500X0.475000X0.337500X0*%
%ADD40RoundRect,0.250000X0.800000X0.450000X-0.800000X0.450000X-0.800000X-0.450000X0.800000X-0.450000X0*%
%ADD41RoundRect,0.200000X-0.400000X0.200000X-0.400000X-0.200000X0.400000X-0.200000X0.400000X0.200000X0*%
%ADD42RoundRect,0.325000X-0.525000X0.325000X-0.525000X-0.325000X0.525000X-0.325000X0.525000X0.325000X0*%
%ADD43RoundRect,0.325000X-1.175000X0.325000X-1.175000X-0.325000X1.175000X-0.325000X1.175000X0.325000X0*%
%ADD44R,1.700000X1.700000*%
%ADD45O,1.700000X1.700000*%
%ADD46C,3.200000*%
%ADD47RoundRect,0.250000X0.412500X0.650000X-0.412500X0.650000X-0.412500X-0.650000X0.412500X-0.650000X0*%
%ADD48RoundRect,0.075000X0.425000X-0.075000X0.425000X0.075000X-0.425000X0.075000X-0.425000X-0.075000X0*%
%ADD49RoundRect,0.475000X0.475000X-0.795000X0.475000X0.795000X-0.475000X0.795000X-0.475000X-0.795000X0*%
%ADD50R,1.500000X0.900000*%
%ADD51R,0.900000X1.500000*%
%ADD52C,0.600000*%
%ADD53R,3.900000X3.900000*%
%ADD54RoundRect,0.150000X-0.512500X-0.150000X0.512500X-0.150000X0.512500X0.150000X-0.512500X0.150000X0*%
%ADD55RoundRect,0.175000X1.250000X0.175000X-1.250000X0.175000X-1.250000X-0.175000X1.250000X-0.175000X0*%
%ADD56R,4.570000X4.450000*%
%ADD57RoundRect,0.150000X0.512500X0.150000X-0.512500X0.150000X-0.512500X-0.150000X0.512500X-0.150000X0*%
%ADD58RoundRect,0.150000X0.150000X-0.512500X0.150000X0.512500X-0.150000X0.512500X-0.150000X-0.512500X0*%
%ADD59RoundRect,0.162500X0.617500X0.162500X-0.617500X0.162500X-0.617500X-0.162500X0.617500X-0.162500X0*%
%ADD60RoundRect,0.250000X0.337500X0.475000X-0.337500X0.475000X-0.337500X-0.475000X0.337500X-0.475000X0*%
%ADD61RoundRect,0.218750X-0.218750X-0.381250X0.218750X-0.381250X0.218750X0.381250X-0.218750X0.381250X0*%
%ADD62RoundRect,0.250000X1.000000X-0.500000X1.000000X0.500000X-1.000000X0.500000X-1.000000X-0.500000X0*%
%ADD63C,1.500000*%
%ADD64RoundRect,0.250000X-1.500000X-0.550000X1.500000X-0.550000X1.500000X0.550000X-1.500000X0.550000X0*%
%ADD65RoundRect,0.150000X0.587500X0.150000X-0.587500X0.150000X-0.587500X-0.150000X0.587500X-0.150000X0*%
%ADD66C,0.100000*%
%ADD67C,3.890000*%
G04 APERTURE END LIST*
D10*
X103670863Y-164617219D02*
X103194673Y-164617219D01*
X103194673Y-164617219D02*
X103194673Y-163617219D01*
X103956578Y-164569600D02*
X104099435Y-164617219D01*
X104099435Y-164617219D02*
X104337530Y-164617219D01*
X104337530Y-164617219D02*
X104432768Y-164569600D01*
X104432768Y-164569600D02*
X104480387Y-164521980D01*
X104480387Y-164521980D02*
X104528006Y-164426742D01*
X104528006Y-164426742D02*
X104528006Y-164331504D01*
X104528006Y-164331504D02*
X104480387Y-164236266D01*
X104480387Y-164236266D02*
X104432768Y-164188647D01*
X104432768Y-164188647D02*
X104337530Y-164141028D01*
X104337530Y-164141028D02*
X104147054Y-164093409D01*
X104147054Y-164093409D02*
X104051816Y-164045790D01*
X104051816Y-164045790D02*
X104004197Y-163998171D01*
X104004197Y-163998171D02*
X103956578Y-163902933D01*
X103956578Y-163902933D02*
X103956578Y-163807695D01*
X103956578Y-163807695D02*
X104004197Y-163712457D01*
X104004197Y-163712457D02*
X104051816Y-163664838D01*
X104051816Y-163664838D02*
X104147054Y-163617219D01*
X104147054Y-163617219D02*
X104385149Y-163617219D01*
X104385149Y-163617219D02*
X104528006Y-163664838D01*
X104956578Y-164236266D02*
X105718483Y-164236266D01*
X96920863Y-164567219D02*
X96444673Y-164567219D01*
X96444673Y-164567219D02*
X96444673Y-163567219D01*
X97206578Y-164519600D02*
X97349435Y-164567219D01*
X97349435Y-164567219D02*
X97587530Y-164567219D01*
X97587530Y-164567219D02*
X97682768Y-164519600D01*
X97682768Y-164519600D02*
X97730387Y-164471980D01*
X97730387Y-164471980D02*
X97778006Y-164376742D01*
X97778006Y-164376742D02*
X97778006Y-164281504D01*
X97778006Y-164281504D02*
X97730387Y-164186266D01*
X97730387Y-164186266D02*
X97682768Y-164138647D01*
X97682768Y-164138647D02*
X97587530Y-164091028D01*
X97587530Y-164091028D02*
X97397054Y-164043409D01*
X97397054Y-164043409D02*
X97301816Y-163995790D01*
X97301816Y-163995790D02*
X97254197Y-163948171D01*
X97254197Y-163948171D02*
X97206578Y-163852933D01*
X97206578Y-163852933D02*
X97206578Y-163757695D01*
X97206578Y-163757695D02*
X97254197Y-163662457D01*
X97254197Y-163662457D02*
X97301816Y-163614838D01*
X97301816Y-163614838D02*
X97397054Y-163567219D01*
X97397054Y-163567219D02*
X97635149Y-163567219D01*
X97635149Y-163567219D02*
X97778006Y-163614838D01*
X98206578Y-164186266D02*
X98968483Y-164186266D01*
X98587530Y-164567219D02*
X98587530Y-163805314D01*
D11*
G04 #@! TO.C,C15*
X114190000Y-137726248D02*
X114190000Y-139148752D01*
X116010000Y-137726248D02*
X116010000Y-139148752D01*
G04 #@! TO.C,C9*
X123290000Y-134626248D02*
X123290000Y-136048752D01*
X125110000Y-134626248D02*
X125110000Y-136048752D01*
G04 #@! TO.C,R24*
X105727064Y-150865000D02*
X105272936Y-150865000D01*
X105727064Y-152335000D02*
X105272936Y-152335000D01*
G04 #@! TO.C,R41*
X153510436Y-90265000D02*
X153964564Y-90265000D01*
X153510436Y-91735000D02*
X153964564Y-91735000D01*
G04 #@! TO.C,R46*
X95465000Y-146272936D02*
X95465000Y-146727064D01*
X96935000Y-146272936D02*
X96935000Y-146727064D01*
G04 #@! TO.C,R16*
X111665000Y-114427064D02*
X111665000Y-113972936D01*
X113135000Y-114427064D02*
X113135000Y-113972936D01*
G04 #@! TO.C,R7*
X131527064Y-133102500D02*
X131072936Y-133102500D01*
X131527064Y-134572500D02*
X131072936Y-134572500D01*
G04 #@! TO.C,R21*
X134165000Y-161127064D02*
X134165000Y-160672936D01*
X135635000Y-161127064D02*
X135635000Y-160672936D01*
G04 #@! TO.C,C40*
X136965000Y-121098752D02*
X136965000Y-120576248D01*
X138435000Y-121098752D02*
X138435000Y-120576248D01*
G04 #@! TO.C,R29*
X131265000Y-124772936D02*
X131265000Y-125227064D01*
X132735000Y-124772936D02*
X132735000Y-125227064D01*
G04 #@! TO.C,C14*
X122888748Y-130490000D02*
X124311252Y-130490000D01*
X122888748Y-132310000D02*
X124311252Y-132310000D01*
G04 #@! TO.C,U6*
X136700000Y-101990000D02*
X134500000Y-101990000D01*
X136700000Y-101990000D02*
X138900000Y-101990000D01*
X136700000Y-105210000D02*
X134500000Y-105210000D01*
X136700000Y-105210000D02*
X138900000Y-105210000D01*
X133800000Y-102165000D02*
X133560000Y-101835000D01*
X134040000Y-101835000D01*
X133800000Y-102165000D01*
G36*
X133800000Y-102165000D02*
G01*
X133560000Y-101835000D01*
X134040000Y-101835000D01*
X133800000Y-102165000D01*
G37*
G04 #@! TO.C,U12*
X156220000Y-135450000D02*
X153380000Y-135450000D01*
X156220000Y-137750000D02*
X153380000Y-137750000D01*
X156220000Y-137750000D02*
X156220000Y-137100000D01*
G04 #@! TO.C,R20*
X118865000Y-144927064D02*
X118865000Y-144472936D01*
X120335000Y-144927064D02*
X120335000Y-144472936D01*
G04 #@! TO.C,R17*
X117065000Y-121710436D02*
X117065000Y-122164564D01*
X118535000Y-121710436D02*
X118535000Y-122164564D01*
G04 #@! TO.C,R39*
X131127064Y-121265000D02*
X130672936Y-121265000D01*
X131127064Y-122735000D02*
X130672936Y-122735000D01*
G04 #@! TO.C,D2*
X144290000Y-128787500D02*
X144290000Y-130087500D01*
X147410000Y-130087500D02*
X147410000Y-128817500D01*
X147690000Y-128677500D02*
X147360000Y-128437500D01*
X147690000Y-128197500D01*
X147690000Y-128677500D01*
G36*
X147690000Y-128677500D02*
G01*
X147360000Y-128437500D01*
X147690000Y-128197500D01*
X147690000Y-128677500D01*
G37*
G04 #@! TO.C,U2*
X115390000Y-129977500D02*
X115390000Y-129667500D01*
X115390000Y-133647500D02*
X115390000Y-133097500D01*
X115940000Y-129427500D02*
X115690000Y-129427500D01*
X115940000Y-133647500D02*
X115390000Y-133647500D01*
X119060000Y-129427500D02*
X119610000Y-129427500D01*
X119060000Y-133647500D02*
X119610000Y-133647500D01*
X119610000Y-129427500D02*
X119610000Y-129977500D01*
X119610000Y-133647500D02*
X119610000Y-133097500D01*
X115390000Y-129427500D02*
X115150000Y-129097500D01*
X115630000Y-129097500D01*
X115390000Y-129427500D01*
G36*
X115390000Y-129427500D02*
G01*
X115150000Y-129097500D01*
X115630000Y-129097500D01*
X115390000Y-129427500D01*
G37*
D12*
G04 #@! TO.C,X1*
X153460000Y-96520000D02*
X153300000Y-96520000D01*
X153460000Y-102520000D02*
X153300000Y-102520000D01*
X153820000Y-98270000D02*
X153300000Y-98270000D01*
X153820000Y-98270000D02*
X153820000Y-97160000D01*
X153820000Y-100770000D02*
X153300000Y-100770000D01*
X153820000Y-101880000D02*
X153820000Y-100770000D01*
X156530000Y-95200000D02*
X154720000Y-95200000D01*
X156530000Y-103840000D02*
X154720000Y-103840000D01*
X160270000Y-95200000D02*
X158800000Y-95200000D01*
X160270000Y-95200000D02*
X160270000Y-103840000D01*
X160270000Y-103840000D02*
X158800000Y-103840000D01*
D11*
G04 #@! TO.C,R18*
X117065000Y-125610436D02*
X117065000Y-126064564D01*
X118535000Y-125610436D02*
X118535000Y-126064564D01*
G04 #@! TO.C,R3*
X103872936Y-94165000D02*
X104327064Y-94165000D01*
X103872936Y-95635000D02*
X104327064Y-95635000D01*
G04 #@! TO.C,R42*
X140765000Y-114227064D02*
X140765000Y-113772936D01*
X142235000Y-114227064D02*
X142235000Y-113772936D01*
G04 #@! TO.C,C13*
X122851248Y-125990000D02*
X124273752Y-125990000D01*
X122851248Y-127810000D02*
X124273752Y-127810000D01*
G04 #@! TO.C,R38*
X153572936Y-92165000D02*
X154027064Y-92165000D01*
X153572936Y-93635000D02*
X154027064Y-93635000D01*
G04 #@! TO.C,C42*
X102038748Y-138165000D02*
X102561252Y-138165000D01*
X102038748Y-139635000D02*
X102561252Y-139635000D01*
G04 #@! TO.C,R25*
X99665000Y-158527064D02*
X99665000Y-158072936D01*
X101135000Y-158527064D02*
X101135000Y-158072936D01*
G04 #@! TO.C,R12*
X108627064Y-131902500D02*
X108172936Y-131902500D01*
X108627064Y-133372500D02*
X108172936Y-133372500D01*
G04 #@! TO.C,D5*
X155752500Y-89940000D02*
X155752500Y-91860000D01*
X155752500Y-91860000D02*
X158437500Y-91860000D01*
X158437500Y-89940000D02*
X155752500Y-89940000D01*
G04 #@! TO.C,C21*
X152040000Y-148488748D02*
X152040000Y-149911252D01*
X153860000Y-148488748D02*
X153860000Y-149911252D01*
G04 #@! TO.C,C34*
X136388748Y-133990000D02*
X137811252Y-133990000D01*
X136388748Y-135810000D02*
X137811252Y-135810000D01*
G04 #@! TO.C,R35*
X139565000Y-99927064D02*
X139565000Y-99472936D01*
X141035000Y-99927064D02*
X141035000Y-99472936D01*
G04 #@! TO.C,R2*
X146527064Y-103365000D02*
X146072936Y-103365000D01*
X146527064Y-104835000D02*
X146072936Y-104835000D01*
G04 #@! TO.C,R1*
X149627064Y-93365000D02*
X149172936Y-93365000D01*
X149627064Y-94835000D02*
X149172936Y-94835000D01*
G04 #@! TO.C,R51*
X113665000Y-113972936D02*
X113665000Y-114427064D01*
X115135000Y-113972936D02*
X115135000Y-114427064D01*
G04 #@! TO.C,C37*
X149315000Y-148938748D02*
X149315000Y-149461252D01*
X150785000Y-148938748D02*
X150785000Y-149461252D01*
G04 #@! TO.C,R10*
X111665000Y-117810436D02*
X111665000Y-118264564D01*
X113135000Y-117810436D02*
X113135000Y-118264564D01*
G04 #@! TO.C,R31*
X140115000Y-133110436D02*
X140115000Y-133564564D01*
X141585000Y-133110436D02*
X141585000Y-133564564D01*
G04 #@! TO.C,C23*
X115265000Y-146661252D02*
X115265000Y-146138748D01*
X116735000Y-146661252D02*
X116735000Y-146138748D01*
D13*
G04 #@! TO.C,U4*
X144100000Y-111765000D02*
X160550000Y-111765000D01*
X144100000Y-126065000D02*
X144100000Y-111765000D01*
X160550000Y-111765000D02*
X160550000Y-116065000D01*
X160550000Y-115965000D02*
X160550000Y-125965000D01*
X160550000Y-125965000D02*
X144100000Y-125965000D01*
D11*
G04 #@! TO.C,C19*
X120965000Y-141061252D02*
X120965000Y-140538748D01*
X122435000Y-141061252D02*
X122435000Y-140538748D01*
G04 #@! TO.C,J2*
X88070000Y-92930000D02*
X89400000Y-92930000D01*
X88070000Y-94260000D02*
X88070000Y-92930000D01*
X88070000Y-95530000D02*
X88070000Y-103210000D01*
X88070000Y-95530000D02*
X90730000Y-95530000D01*
X88070000Y-103210000D02*
X90730000Y-103210000D01*
X90730000Y-95530000D02*
X90730000Y-103210000D01*
D13*
G04 #@! TO.C,LS1*
X100650000Y-166150000D02*
X101450000Y-165450000D01*
X101450000Y-165450000D02*
X101450000Y-168400000D01*
X101450000Y-168400000D02*
X100650000Y-167650000D01*
X100150000Y-166150000D02*
X100650000Y-166150000D01*
X100650000Y-167650000D01*
X100150000Y-167650000D01*
X100150000Y-166150000D01*
D11*
G04 #@! TO.C,R5*
X104164564Y-127102500D02*
X103710436Y-127102500D01*
X104164564Y-128572500D02*
X103710436Y-128572500D01*
G04 #@! TO.C,R30*
X135365000Y-129072936D02*
X135365000Y-129527064D01*
X136835000Y-129072936D02*
X136835000Y-129527064D01*
G04 #@! TO.C,C31*
X107038748Y-158465000D02*
X107561252Y-158465000D01*
X107038748Y-159935000D02*
X107561252Y-159935000D01*
G04 #@! TO.C,C17*
X122738748Y-128465000D02*
X123261252Y-128465000D01*
X122738748Y-129935000D02*
X123261252Y-129935000D01*
G04 #@! TO.C,C7*
X121165000Y-134476248D02*
X121165000Y-134998752D01*
X122635000Y-134476248D02*
X122635000Y-134998752D01*
G04 #@! TO.C,C24*
X113165000Y-146623752D02*
X113165000Y-146101248D01*
X114635000Y-146623752D02*
X114635000Y-146101248D01*
G04 #@! TO.C,C36*
X138811252Y-105790000D02*
X137388748Y-105790000D01*
X138811252Y-107610000D02*
X137388748Y-107610000D01*
G04 #@! TO.C,R48*
X141764564Y-141715000D02*
X141310436Y-141715000D01*
X141764564Y-143185000D02*
X141310436Y-143185000D01*
G04 #@! TO.C,R33*
X103872936Y-98365000D02*
X104327064Y-98365000D01*
X103872936Y-99835000D02*
X104327064Y-99835000D01*
G04 #@! TO.C,R8*
X111665000Y-122064564D02*
X111665000Y-121610436D01*
X113135000Y-122064564D02*
X113135000Y-121610436D01*
G04 #@! TO.C,R11*
X113765000Y-117810436D02*
X113765000Y-118264564D01*
X115235000Y-117810436D02*
X115235000Y-118264564D01*
G04 #@! TO.C,U3*
D10*
X110850000Y-149850000D02*
X113950000Y-149850000D01*
X113950000Y-152950000D01*
X110850000Y-152950000D01*
X110850000Y-149850000D01*
D11*
G04 #@! TO.C,U1*
X109400000Y-83040000D02*
X109400000Y-89240000D01*
X109400000Y-83040000D02*
X127800000Y-83040000D01*
X109400000Y-107890000D02*
X109400000Y-108890000D01*
X109400000Y-108890000D02*
X110900000Y-108890000D01*
X127800000Y-83040000D02*
X127800000Y-89240000D01*
X127800000Y-108890000D02*
X126300000Y-108890000D01*
X127800000Y-108890000D02*
X127800000Y-107890000D01*
X109400000Y-89915000D02*
X108900000Y-89915000D01*
X109400000Y-89415000D01*
X109400000Y-89915000D01*
G36*
X109400000Y-89915000D02*
G01*
X108900000Y-89915000D01*
X109400000Y-89415000D01*
X109400000Y-89915000D01*
G37*
G04 #@! TO.C,C2*
X104165000Y-92123752D02*
X104165000Y-91601248D01*
X105635000Y-92123752D02*
X105635000Y-91601248D01*
G04 #@! TO.C,C35*
X133165000Y-99438748D02*
X133165000Y-99961252D01*
X134635000Y-99438748D02*
X134635000Y-99961252D01*
G04 #@! TO.C,R15*
X108627064Y-136165000D02*
X108172936Y-136165000D01*
X108627064Y-137635000D02*
X108172936Y-137635000D01*
G04 #@! TO.C,C6*
X102626248Y-129127500D02*
X104048752Y-129127500D01*
X102626248Y-130947500D02*
X104048752Y-130947500D01*
G04 #@! TO.C,C29*
X101338748Y-150865000D02*
X101861252Y-150865000D01*
X101338748Y-152335000D02*
X101861252Y-152335000D01*
G04 #@! TO.C,U13*
X153380000Y-105650000D02*
X153380000Y-106300000D01*
X153380000Y-105650000D02*
X156220000Y-105650000D01*
X153380000Y-107950000D02*
X156220000Y-107950000D01*
G04 #@! TO.C,C4*
X106365000Y-95638748D02*
X106365000Y-96161252D01*
X107835000Y-95638748D02*
X107835000Y-96161252D01*
G04 #@! TO.C,D1*
X144640000Y-97750000D02*
X144640000Y-99050000D01*
X147760000Y-99050000D02*
X147760000Y-97780000D01*
X148040000Y-97640000D02*
X147710000Y-97400000D01*
X148040000Y-97160000D01*
X148040000Y-97640000D01*
G36*
X148040000Y-97640000D02*
G01*
X147710000Y-97400000D01*
X148040000Y-97160000D01*
X148040000Y-97640000D01*
G37*
G04 #@! TO.C,R4*
X108502500Y-128510436D02*
X108502500Y-128964564D01*
X109972500Y-128510436D02*
X109972500Y-128964564D01*
G04 #@! TO.C,U11*
X103920000Y-135350000D02*
X101080000Y-135350000D01*
X103920000Y-137650000D02*
X101080000Y-137650000D01*
X103920000Y-137650000D02*
X103920000Y-137000000D01*
G04 #@! TO.C,Q2*
X145637500Y-141890000D02*
X144837500Y-141890000D01*
X145637500Y-141890000D02*
X146437500Y-141890000D01*
X145637500Y-145010000D02*
X144837500Y-145010000D01*
X145637500Y-145010000D02*
X146437500Y-145010000D01*
X144337500Y-141940000D02*
X144097500Y-141610000D01*
X144577500Y-141610000D01*
X144337500Y-141940000D01*
G36*
X144337500Y-141940000D02*
G01*
X144097500Y-141610000D01*
X144577500Y-141610000D01*
X144337500Y-141940000D01*
G37*
G04 #@! TO.C,D3*
X133240000Y-120187500D02*
X133240000Y-121487500D01*
X136360000Y-121487500D02*
X136360000Y-120217500D01*
X136640000Y-120077500D02*
X136310000Y-119837500D01*
X136640000Y-119597500D01*
X136640000Y-120077500D01*
G36*
X136640000Y-120077500D02*
G01*
X136310000Y-119837500D01*
X136640000Y-119597500D01*
X136640000Y-120077500D01*
G37*
G04 #@! TO.C,C32*
X105038748Y-160565000D02*
X105561252Y-160565000D01*
X105038748Y-162035000D02*
X105561252Y-162035000D01*
G04 #@! TO.C,R9*
X113765000Y-122064564D02*
X113765000Y-121610436D01*
X115235000Y-122064564D02*
X115235000Y-121610436D01*
G04 #@! TO.C,U7*
X134210000Y-111585000D02*
X131925000Y-111585000D01*
X134210000Y-111585000D02*
X136495000Y-111585000D01*
X134210000Y-116615000D02*
X131925000Y-116615000D01*
X134210000Y-116615000D02*
X136495000Y-116615000D01*
X140375000Y-116245000D02*
X140045000Y-116005000D01*
X140375000Y-115765000D01*
X140375000Y-116245000D01*
G36*
X140375000Y-116245000D02*
G01*
X140045000Y-116005000D01*
X140375000Y-115765000D01*
X140375000Y-116245000D01*
G37*
G04 #@! TO.C,U5*
X137100000Y-98140000D02*
X136300000Y-98140000D01*
X137100000Y-98140000D02*
X137900000Y-98140000D01*
X137100000Y-101260000D02*
X136300000Y-101260000D01*
X137100000Y-101260000D02*
X137900000Y-101260000D01*
X138640000Y-101540000D02*
X138160000Y-101540000D01*
X138400000Y-101210000D01*
X138640000Y-101540000D01*
G36*
X138640000Y-101540000D02*
G01*
X138160000Y-101540000D01*
X138400000Y-101210000D01*
X138640000Y-101540000D01*
G37*
G04 #@! TO.C,C28*
X101338748Y-152965000D02*
X101861252Y-152965000D01*
X101338748Y-154435000D02*
X101861252Y-154435000D01*
G04 #@! TO.C,C41*
X99065000Y-106538748D02*
X99065000Y-107061252D01*
X100535000Y-106538748D02*
X100535000Y-107061252D01*
G04 #@! TO.C,R32*
X142215000Y-133110436D02*
X142215000Y-133564564D01*
X143685000Y-133110436D02*
X143685000Y-133564564D01*
G04 #@! TO.C,R19*
X120965000Y-144927064D02*
X120965000Y-144472936D01*
X122435000Y-144927064D02*
X122435000Y-144472936D01*
G04 #@! TO.C,U10*
D13*
X106600000Y-164700000D02*
X129600000Y-164700000D01*
X129600000Y-169100000D01*
X106600000Y-169100000D01*
X106600000Y-164700000D01*
D11*
G04 #@! TO.C,Q1*
X136440000Y-160800000D02*
X136440000Y-160000000D01*
X136440000Y-160800000D02*
X136440000Y-161600000D01*
X139560000Y-160800000D02*
X139560000Y-160000000D01*
X139560000Y-160800000D02*
X139560000Y-161600000D01*
X136490000Y-162100000D02*
X136160000Y-162340000D01*
X136160000Y-161860000D01*
X136490000Y-162100000D01*
G36*
X136490000Y-162100000D02*
G01*
X136160000Y-162340000D01*
X136160000Y-161860000D01*
X136490000Y-162100000D01*
G37*
G04 #@! TO.C,C43*
X154538748Y-138265000D02*
X155061252Y-138265000D01*
X154538748Y-139735000D02*
X155061252Y-139735000D01*
G04 #@! TO.C,U8*
X145650000Y-150710000D02*
X144850000Y-150710000D01*
X145650000Y-150710000D02*
X146450000Y-150710000D01*
X146650000Y-147490000D02*
X144850000Y-147490000D01*
X147190000Y-150990000D02*
X146710000Y-150990000D01*
X146950000Y-150660000D01*
X147190000Y-150990000D01*
G36*
X147190000Y-150990000D02*
G01*
X146710000Y-150990000D01*
X146950000Y-150660000D01*
X147190000Y-150990000D01*
G37*
G04 #@! TO.C,R43*
X95365000Y-120672936D02*
X95365000Y-121127064D01*
X96835000Y-120672936D02*
X96835000Y-121127064D01*
G04 #@! TO.C,C26*
X101861252Y-148765000D02*
X101338748Y-148765000D01*
X101861252Y-150235000D02*
X101338748Y-150235000D01*
G04 #@! TO.C,R44*
X95665000Y-133272936D02*
X95665000Y-133727064D01*
X97135000Y-133272936D02*
X97135000Y-133727064D01*
G04 #@! TO.C,R26*
X109465000Y-158527064D02*
X109465000Y-158072936D01*
X110935000Y-158527064D02*
X110935000Y-158072936D01*
G04 #@! TO.C,C44*
X155061252Y-108465000D02*
X154538748Y-108465000D01*
X155061252Y-109935000D02*
X154538748Y-109935000D01*
G04 #@! TO.C,J1*
X119670000Y-151830000D02*
X121000000Y-151830000D01*
X119670000Y-153160000D02*
X119670000Y-151830000D01*
X119670000Y-154430000D02*
X119670000Y-159570000D01*
X119670000Y-154430000D02*
X122270000Y-154430000D01*
X119670000Y-159570000D02*
X124870000Y-159570000D01*
X122270000Y-151830000D02*
X124870000Y-151830000D01*
X122270000Y-154430000D02*
X122270000Y-151830000D01*
X124870000Y-151830000D02*
X124870000Y-159570000D01*
G04 #@! TO.C,C25*
X111065000Y-146623752D02*
X111065000Y-146101248D01*
X112535000Y-146623752D02*
X112535000Y-146101248D01*
G04 #@! TO.C,C12*
X111665000Y-125476248D02*
X111665000Y-125998752D01*
X113135000Y-125476248D02*
X113135000Y-125998752D01*
G04 #@! TO.C,R27*
X103872936Y-96265000D02*
X104327064Y-96265000D01*
X103872936Y-97735000D02*
X104327064Y-97735000D01*
G04 #@! TO.C,R13*
X108627064Y-134052500D02*
X108172936Y-134052500D01*
X108627064Y-135522500D02*
X108172936Y-135522500D01*
G04 #@! TO.C,R50*
X141310436Y-139615000D02*
X141764564Y-139615000D01*
X141310436Y-141085000D02*
X141764564Y-141085000D01*
G04 #@! TO.C,R45*
X95665000Y-107772936D02*
X95665000Y-108227064D01*
X97135000Y-107772936D02*
X97135000Y-108227064D01*
G04 #@! TO.C,R34*
X135027064Y-96065000D02*
X134572936Y-96065000D01*
X135027064Y-97535000D02*
X134572936Y-97535000D01*
G04 #@! TO.C,R6*
X127627064Y-133102500D02*
X127172936Y-133102500D01*
X127627064Y-134572500D02*
X127172936Y-134572500D01*
G04 #@! TO.C,C20*
X118865000Y-141061252D02*
X118865000Y-140538748D01*
X120335000Y-141061252D02*
X120335000Y-140538748D01*
G04 #@! TO.C,R49*
X145210436Y-139615000D02*
X145664564Y-139615000D01*
X145210436Y-141085000D02*
X145664564Y-141085000D01*
G04 #@! TO.C,C11*
X113765000Y-125476248D02*
X113765000Y-125998752D01*
X115235000Y-125476248D02*
X115235000Y-125998752D01*
G04 #@! TO.C,C5*
X106202500Y-128476248D02*
X106202500Y-128998752D01*
X107672500Y-128476248D02*
X107672500Y-128998752D01*
G04 #@! TO.C,R14*
X108627064Y-138265000D02*
X108172936Y-138265000D01*
X108627064Y-139735000D02*
X108172936Y-139735000D01*
G04 #@! TO.C,R47*
X136465000Y-164672936D02*
X136465000Y-165127064D01*
X137935000Y-164672936D02*
X137935000Y-165127064D01*
G04 #@! TO.C,C16*
X122738748Y-123965000D02*
X123261252Y-123965000D01*
X122738748Y-125435000D02*
X123261252Y-125435000D01*
G04 #@! TO.C,FB1*
X108537878Y-146840000D02*
X109337122Y-146840000D01*
X108537878Y-147960000D02*
X109337122Y-147960000D01*
G04 #@! TO.C,R40*
X131127064Y-119165000D02*
X130672936Y-119165000D01*
X131127064Y-120635000D02*
X130672936Y-120635000D01*
D13*
G04 #@! TO.C,SW7*
X155800000Y-141700000D02*
X160200000Y-141700000D01*
X155800000Y-150400000D02*
X155800000Y-141700000D01*
X155800000Y-150400000D02*
X160200000Y-150400000D01*
X160000000Y-143900000D02*
X160200000Y-143900000D01*
X160000000Y-147900000D02*
X160000000Y-143900000D01*
X160200000Y-141700000D02*
X160200000Y-150400000D01*
X160200000Y-144300000D02*
X164200000Y-144300000D01*
X160200000Y-147900000D02*
X160000000Y-147900000D01*
X164200000Y-144300000D02*
X164200000Y-146300000D01*
X164200000Y-146300000D02*
X160200000Y-146300000D01*
D11*
G04 #@! TO.C,C1*
X148961252Y-101365000D02*
X148438748Y-101365000D01*
X148961252Y-102835000D02*
X148438748Y-102835000D01*
G04 #@! TO.C,C39*
X140412500Y-153190000D02*
X141200000Y-153190000D01*
X140806250Y-152796250D02*
X140806250Y-153583750D01*
X141440000Y-152691937D02*
X141440000Y-153977500D01*
X141440000Y-152691937D02*
X142504437Y-151627500D01*
X141440000Y-157383063D02*
X141440000Y-156097500D01*
X141440000Y-157383063D02*
X142504437Y-158447500D01*
X142504437Y-151627500D02*
X148260000Y-151627500D01*
X142504437Y-158447500D02*
X148260000Y-158447500D01*
X148260000Y-151627500D02*
X148260000Y-153977500D01*
X148260000Y-158447500D02*
X148260000Y-156097500D01*
G04 #@! TO.C,R37*
X142227064Y-127465000D02*
X141772936Y-127465000D01*
X142227064Y-128935000D02*
X141772936Y-128935000D01*
G04 #@! TO.C,C3*
X106365000Y-92123752D02*
X106365000Y-91601248D01*
X107835000Y-92123752D02*
X107835000Y-91601248D01*
G04 #@! TO.C,C10*
X125790000Y-136726248D02*
X125790000Y-138148752D01*
X127610000Y-136726248D02*
X127610000Y-138148752D01*
G04 #@! TO.C,R36*
X142227064Y-129565000D02*
X141772936Y-129565000D01*
X142227064Y-131035000D02*
X141772936Y-131035000D01*
G04 #@! TO.C,C8*
X129365000Y-136538748D02*
X129365000Y-137061252D01*
X130835000Y-136538748D02*
X130835000Y-137061252D01*
G04 #@! TO.C,C22*
X148015000Y-129698752D02*
X148015000Y-129176248D01*
X149485000Y-129698752D02*
X149485000Y-129176248D01*
G04 #@! TO.C,R28*
X129165000Y-124772936D02*
X129165000Y-125227064D01*
X130635000Y-124772936D02*
X130635000Y-125227064D01*
G04 #@! TO.C,Q3*
X137575000Y-139590000D02*
X136925000Y-139590000D01*
X137575000Y-139590000D02*
X138225000Y-139590000D01*
X137575000Y-142710000D02*
X136925000Y-142710000D01*
X137575000Y-142710000D02*
X138225000Y-142710000D01*
X138977500Y-142990000D02*
X138497500Y-142990000D01*
X138737500Y-142660000D01*
X138977500Y-142990000D01*
G36*
X138977500Y-142990000D02*
G01*
X138497500Y-142990000D01*
X138737500Y-142660000D01*
X138977500Y-142990000D01*
G37*
G04 #@! TO.C,C30*
X103138748Y-158465000D02*
X103661252Y-158465000D01*
X103138748Y-159935000D02*
X103661252Y-159935000D01*
G04 #@! TO.C,U9*
X101350000Y-108220000D02*
X101350000Y-105380000D01*
X101350000Y-108220000D02*
X102000000Y-108220000D01*
X103650000Y-108220000D02*
X103650000Y-105380000D01*
G04 #@! TO.C,R23*
X105272936Y-152965000D02*
X105727064Y-152965000D01*
X105272936Y-154435000D02*
X105727064Y-154435000D01*
G04 #@! TO.C,R22*
X105272936Y-148765000D02*
X105727064Y-148765000D01*
X105272936Y-150235000D02*
X105727064Y-150235000D01*
G04 #@! TO.C,C18*
X111965000Y-137613748D02*
X111965000Y-138136252D01*
X113435000Y-137613748D02*
X113435000Y-138136252D01*
G04 #@! TO.C,C33*
X136838748Y-131665000D02*
X137361252Y-131665000D01*
X136838748Y-133135000D02*
X137361252Y-133135000D01*
G04 #@! TO.C,C27*
X101338748Y-146665000D02*
X101861252Y-146665000D01*
X101338748Y-148135000D02*
X101861252Y-148135000D01*
G04 #@! TO.C,C38*
X141315000Y-149461252D02*
X141315000Y-148938748D01*
X142785000Y-149461252D02*
X142785000Y-148938748D01*
G04 #@! TO.C,D4*
X155815000Y-92040000D02*
X155815000Y-93960000D01*
X155815000Y-93960000D02*
X158500000Y-93960000D01*
X158500000Y-92040000D02*
X155815000Y-92040000D01*
G04 #@! TD*
%LPC*%
D14*
G04 #@! TO.C,C15*
X115100000Y-136875000D03*
X115100000Y-140000000D03*
G04 #@! TD*
G04 #@! TO.C,C9*
X124200000Y-133775000D03*
X124200000Y-136900000D03*
G04 #@! TD*
D15*
G04 #@! TO.C,R24*
X106500000Y-151600000D03*
X104500000Y-151600000D03*
G04 #@! TD*
D16*
G04 #@! TO.C,R41*
X152737500Y-91000000D03*
X154737500Y-91000000D03*
G04 #@! TD*
D17*
G04 #@! TO.C,R46*
X96200000Y-145500000D03*
X96200000Y-147500000D03*
G04 #@! TD*
D18*
G04 #@! TO.C,R16*
X112400000Y-115200000D03*
X112400000Y-113200000D03*
G04 #@! TD*
D15*
G04 #@! TO.C,R7*
X132300000Y-133837500D03*
X130300000Y-133837500D03*
G04 #@! TD*
D18*
G04 #@! TO.C,R21*
X134900000Y-161900000D03*
X134900000Y-159900000D03*
G04 #@! TD*
D19*
G04 #@! TO.C,C40*
X137700000Y-121875000D03*
X137700000Y-119800000D03*
G04 #@! TD*
D17*
G04 #@! TO.C,R29*
X132000000Y-124000000D03*
X132000000Y-126000000D03*
G04 #@! TD*
D20*
G04 #@! TO.C,C14*
X122037500Y-131400000D03*
X125162500Y-131400000D03*
G04 #@! TD*
D21*
G04 #@! TO.C,U6*
X133837500Y-102625000D03*
X133837500Y-103275000D03*
X133837500Y-103925000D03*
X133837500Y-104575000D03*
X139562500Y-104575000D03*
X139562500Y-103925000D03*
X139562500Y-103275000D03*
X139562500Y-102625000D03*
G04 #@! TD*
D22*
G04 #@! TO.C,U12*
X155715000Y-137150000D03*
X155715000Y-136050000D03*
X153885000Y-136050000D03*
X153885000Y-137150000D03*
G04 #@! TD*
D18*
G04 #@! TO.C,R20*
X119600000Y-145700000D03*
X119600000Y-143700000D03*
G04 #@! TD*
D17*
G04 #@! TO.C,R17*
X117800000Y-120937500D03*
X117800000Y-122937500D03*
G04 #@! TD*
D15*
G04 #@! TO.C,R39*
X131900000Y-122000000D03*
X129900000Y-122000000D03*
G04 #@! TD*
D23*
G04 #@! TO.C,D2*
X146600000Y-127937500D03*
D24*
X144900000Y-127937500D03*
X144900000Y-130937500D03*
X146800000Y-130937500D03*
G04 #@! TD*
D25*
G04 #@! TO.C,U2*
X115562500Y-130337500D03*
X115562500Y-130737500D03*
X115562500Y-131137500D03*
X115562500Y-131537500D03*
X115562500Y-131937500D03*
X115562500Y-132337500D03*
X115562500Y-132737500D03*
D26*
X116300000Y-133475000D03*
X116700000Y-133475000D03*
X117100000Y-133475000D03*
X117500000Y-133475000D03*
X117900000Y-133475000D03*
X118300000Y-133475000D03*
X118700000Y-133475000D03*
D25*
X119437500Y-132737500D03*
X119437500Y-132337500D03*
X119437500Y-131937500D03*
X119437500Y-131537500D03*
X119437500Y-131137500D03*
X119437500Y-130737500D03*
X119437500Y-130337500D03*
D26*
X118700000Y-129600000D03*
X118300000Y-129600000D03*
X117900000Y-129600000D03*
X117500000Y-129600000D03*
X117100000Y-129600000D03*
X116700000Y-129600000D03*
X116300000Y-129600000D03*
D27*
X117500000Y-131537500D03*
G04 #@! TD*
D28*
G04 #@! TO.C,X1*
X154090000Y-102410000D03*
X154090000Y-96630000D03*
D29*
X153480000Y-103840000D03*
D30*
X157680000Y-103840000D03*
D29*
X153480000Y-95200000D03*
D30*
X157680000Y-95200000D03*
D31*
X152420000Y-102720000D03*
X152420000Y-101920000D03*
D32*
X152420000Y-100770000D03*
X152420000Y-99770000D03*
X152420000Y-99270000D03*
X152420000Y-98270000D03*
D31*
X152420000Y-97120000D03*
X152420000Y-96320000D03*
D32*
X152420000Y-97770000D03*
X152420000Y-98770000D03*
X152420000Y-100270000D03*
X152420000Y-101270000D03*
G04 #@! TD*
D17*
G04 #@! TO.C,R18*
X117800000Y-124837500D03*
X117800000Y-126837500D03*
G04 #@! TD*
D16*
G04 #@! TO.C,R3*
X103100000Y-94900000D03*
X105100000Y-94900000D03*
G04 #@! TD*
D18*
G04 #@! TO.C,R42*
X141500000Y-115000000D03*
X141500000Y-113000000D03*
G04 #@! TD*
D20*
G04 #@! TO.C,C13*
X122000000Y-126900000D03*
X125125000Y-126900000D03*
G04 #@! TD*
D16*
G04 #@! TO.C,R38*
X152800000Y-92900000D03*
X154800000Y-92900000D03*
G04 #@! TD*
D33*
G04 #@! TO.C,C42*
X101262500Y-138900000D03*
X103337500Y-138900000D03*
G04 #@! TD*
D34*
G04 #@! TO.C,SW2*
X98250000Y-110729456D03*
D35*
X98250000Y-115229456D03*
X107350000Y-115229456D03*
X107350000Y-110729456D03*
G04 #@! TD*
D18*
G04 #@! TO.C,R25*
X100400000Y-159300000D03*
X100400000Y-157300000D03*
G04 #@! TD*
D15*
G04 #@! TO.C,R12*
X109400000Y-132637500D03*
X107400000Y-132637500D03*
G04 #@! TD*
D36*
G04 #@! TO.C,D5*
X156500000Y-90900000D03*
X158375000Y-90900000D03*
G04 #@! TD*
D14*
G04 #@! TO.C,C21*
X152950000Y-147637500D03*
X152950000Y-150762500D03*
G04 #@! TD*
D20*
G04 #@! TO.C,C34*
X135537500Y-134900000D03*
X138662500Y-134900000D03*
G04 #@! TD*
D18*
G04 #@! TO.C,R35*
X140300000Y-100700000D03*
X140300000Y-98700000D03*
G04 #@! TD*
D37*
G04 #@! TO.C,SW6*
X88529456Y-156050000D03*
D38*
X93029456Y-156050000D03*
X93029456Y-146950000D03*
X88529456Y-146950000D03*
G04 #@! TD*
D15*
G04 #@! TO.C,R2*
X147300000Y-104100000D03*
X145300000Y-104100000D03*
G04 #@! TD*
G04 #@! TO.C,R1*
X150400000Y-94100000D03*
X148400000Y-94100000D03*
G04 #@! TD*
D17*
G04 #@! TO.C,R51*
X114400000Y-113200000D03*
X114400000Y-115200000D03*
G04 #@! TD*
D37*
G04 #@! TO.C,SW3*
X88529456Y-130750000D03*
D38*
X93029456Y-130750000D03*
X93029456Y-121650000D03*
X88529456Y-121650000D03*
G04 #@! TD*
D39*
G04 #@! TO.C,C37*
X150050000Y-148162500D03*
X150050000Y-150237500D03*
G04 #@! TD*
D17*
G04 #@! TO.C,R10*
X112400000Y-117037500D03*
X112400000Y-119037500D03*
G04 #@! TD*
D34*
G04 #@! TO.C,SW1*
X107350000Y-122370544D03*
D40*
X107350000Y-117870544D03*
X98250000Y-117870544D03*
X98250000Y-122370544D03*
G04 #@! TD*
D17*
G04 #@! TO.C,R31*
X140850000Y-132337500D03*
X140850000Y-134337500D03*
G04 #@! TD*
D19*
G04 #@! TO.C,C23*
X116000000Y-147437500D03*
X116000000Y-145362500D03*
G04 #@! TD*
D41*
G04 #@! TO.C,U4*
X144400000Y-116545000D03*
X144400000Y-117645000D03*
X144400000Y-118745000D03*
X144400000Y-119845000D03*
X144400000Y-120945000D03*
X144400000Y-122045000D03*
X144400000Y-123145000D03*
X144400000Y-124245000D03*
X144400000Y-125245000D03*
D42*
X150700000Y-126165000D03*
D23*
X152300000Y-125965000D03*
D43*
X157250000Y-126165000D03*
X157250000Y-111635000D03*
X148750000Y-111635000D03*
G04 #@! TD*
D19*
G04 #@! TO.C,C19*
X121700000Y-141837500D03*
X121700000Y-139762500D03*
G04 #@! TD*
D44*
G04 #@! TO.C,J2*
X89400000Y-94260000D03*
D45*
X89400000Y-96800000D03*
X89400000Y-99340000D03*
X89400000Y-101880000D03*
G04 #@! TD*
D46*
G04 #@! TO.C,LS1*
X97725000Y-166900000D03*
X103925000Y-166900000D03*
G04 #@! TD*
D15*
G04 #@! TO.C,R5*
X104937500Y-127837500D03*
X102937500Y-127837500D03*
G04 #@! TD*
D17*
G04 #@! TO.C,R30*
X136100000Y-128300000D03*
X136100000Y-130300000D03*
G04 #@! TD*
D46*
G04 #@! TO.C,REF\u002A\u002A*
X90700000Y-86600000D03*
G04 #@! TD*
D33*
G04 #@! TO.C,C31*
X106262500Y-159200000D03*
X108337500Y-159200000D03*
G04 #@! TD*
G04 #@! TO.C,C17*
X121962500Y-129200000D03*
X124037500Y-129200000D03*
G04 #@! TD*
D39*
G04 #@! TO.C,C7*
X121900000Y-133700000D03*
X121900000Y-135775000D03*
G04 #@! TD*
D19*
G04 #@! TO.C,C24*
X113900000Y-147400000D03*
X113900000Y-145325000D03*
G04 #@! TD*
D47*
G04 #@! TO.C,C36*
X139662500Y-106700000D03*
X136537500Y-106700000D03*
G04 #@! TD*
D37*
G04 #@! TO.C,SW4*
X88529456Y-117450000D03*
D38*
X93029456Y-117450000D03*
X93029456Y-108350000D03*
X88529456Y-108350000D03*
G04 #@! TD*
D15*
G04 #@! TO.C,R48*
X142537500Y-142450000D03*
X140537500Y-142450000D03*
G04 #@! TD*
D16*
G04 #@! TO.C,R33*
X103100000Y-99100000D03*
X105100000Y-99100000D03*
G04 #@! TD*
D18*
G04 #@! TO.C,R8*
X112400000Y-122837500D03*
X112400000Y-120837500D03*
G04 #@! TD*
D17*
G04 #@! TO.C,R11*
X114500000Y-117037500D03*
X114500000Y-119037500D03*
G04 #@! TD*
D48*
G04 #@! TO.C,U3*
X110100000Y-150400000D03*
X110100000Y-150900000D03*
X110100000Y-151400000D03*
X110100000Y-151900000D03*
X110100000Y-152400000D03*
X114700000Y-152400000D03*
X114700000Y-151900000D03*
X114700000Y-151400000D03*
X114700000Y-150900000D03*
X114700000Y-150400000D03*
D49*
X112400000Y-151400000D03*
G04 #@! TD*
D50*
G04 #@! TO.C,U1*
X109850000Y-90680000D03*
X109850000Y-91950000D03*
X109850000Y-93220000D03*
X109850000Y-94490000D03*
X109850000Y-95760000D03*
X109850000Y-97030000D03*
X109850000Y-98300000D03*
X109850000Y-99570000D03*
X109850000Y-100840000D03*
X109850000Y-102110000D03*
X109850000Y-103380000D03*
X109850000Y-104650000D03*
X109850000Y-105920000D03*
X109850000Y-107190000D03*
D51*
X111615000Y-108440000D03*
X112885000Y-108440000D03*
X114155000Y-108440000D03*
X115425000Y-108440000D03*
X116695000Y-108440000D03*
X117965000Y-108440000D03*
X119235000Y-108440000D03*
X120505000Y-108440000D03*
X121775000Y-108440000D03*
X123045000Y-108440000D03*
X124315000Y-108440000D03*
X125585000Y-108440000D03*
D50*
X127350000Y-107190000D03*
X127350000Y-105920000D03*
X127350000Y-104650000D03*
X127350000Y-103380000D03*
X127350000Y-102110000D03*
X127350000Y-100840000D03*
X127350000Y-99570000D03*
X127350000Y-98300000D03*
X127350000Y-97030000D03*
X127350000Y-95760000D03*
X127350000Y-94490000D03*
X127350000Y-93220000D03*
X127350000Y-91950000D03*
X127350000Y-90680000D03*
D52*
X115700000Y-97700000D03*
X115700000Y-99100000D03*
X116400000Y-97000000D03*
X116400000Y-98400000D03*
X116400000Y-99800000D03*
X117100000Y-97700000D03*
D53*
X117100000Y-98400000D03*
D52*
X117100000Y-99100000D03*
X117800000Y-97000000D03*
X117800000Y-98400000D03*
X117800000Y-99800000D03*
X118500000Y-97700000D03*
X118500000Y-99100000D03*
G04 #@! TD*
D19*
G04 #@! TO.C,C2*
X104900000Y-92900000D03*
X104900000Y-90825000D03*
G04 #@! TD*
D39*
G04 #@! TO.C,C35*
X133900000Y-98662500D03*
X133900000Y-100737500D03*
G04 #@! TD*
D15*
G04 #@! TO.C,R15*
X109400000Y-136900000D03*
X107400000Y-136900000D03*
G04 #@! TD*
D20*
G04 #@! TO.C,C6*
X101775000Y-130037500D03*
X104900000Y-130037500D03*
G04 #@! TD*
D33*
G04 #@! TO.C,C29*
X100562500Y-151600000D03*
X102637500Y-151600000D03*
G04 #@! TD*
D22*
G04 #@! TO.C,U13*
X153885000Y-106250000D03*
X153885000Y-107350000D03*
X155715000Y-107350000D03*
X155715000Y-106250000D03*
G04 #@! TD*
D46*
G04 #@! TO.C,REF\u002A\u002A*
X156200000Y-165700000D03*
G04 #@! TD*
D39*
G04 #@! TO.C,C4*
X107100000Y-94862500D03*
X107100000Y-96937500D03*
G04 #@! TD*
D23*
G04 #@! TO.C,D1*
X146950000Y-96900000D03*
D24*
X145250000Y-96900000D03*
X145250000Y-99900000D03*
X147150000Y-99900000D03*
G04 #@! TD*
D17*
G04 #@! TO.C,R4*
X109237500Y-127737500D03*
X109237500Y-129737500D03*
G04 #@! TD*
D22*
G04 #@! TO.C,U11*
X103415000Y-137050000D03*
X103415000Y-135950000D03*
X101585000Y-135950000D03*
X101585000Y-137050000D03*
G04 #@! TD*
D54*
G04 #@! TO.C,Q2*
X144500000Y-142500000D03*
X144500000Y-144400000D03*
X146775000Y-143450000D03*
G04 #@! TD*
D23*
G04 #@! TO.C,D3*
X135550000Y-119337500D03*
D24*
X133850000Y-119337500D03*
X133850000Y-122337500D03*
X135750000Y-122337500D03*
G04 #@! TD*
D33*
G04 #@! TO.C,C32*
X104262500Y-161300000D03*
X106337500Y-161300000D03*
G04 #@! TD*
D18*
G04 #@! TO.C,R9*
X114500000Y-122837500D03*
X114500000Y-120837500D03*
G04 #@! TD*
D55*
G04 #@! TO.C,U7*
X138360000Y-116005000D03*
X138360000Y-114735000D03*
X138360000Y-113465000D03*
X138360000Y-112195000D03*
X130060000Y-112195000D03*
X130060000Y-113465000D03*
X130060000Y-114735000D03*
X130060000Y-116005000D03*
D56*
X134210000Y-114100000D03*
G04 #@! TD*
D57*
G04 #@! TO.C,U5*
X138237500Y-100650000D03*
X138237500Y-99700000D03*
X138237500Y-98750000D03*
X135962500Y-98750000D03*
X135962500Y-99700000D03*
X135962500Y-100650000D03*
G04 #@! TD*
D33*
G04 #@! TO.C,C28*
X100562500Y-153700000D03*
X102637500Y-153700000D03*
G04 #@! TD*
D39*
G04 #@! TO.C,C41*
X99800000Y-105762500D03*
X99800000Y-107837500D03*
G04 #@! TD*
D17*
G04 #@! TO.C,R32*
X142950000Y-132337500D03*
X142950000Y-134337500D03*
G04 #@! TD*
D18*
G04 #@! TO.C,R19*
X121700000Y-145700000D03*
X121700000Y-143700000D03*
G04 #@! TD*
D46*
G04 #@! TO.C,U10*
X108800000Y-166900000D03*
X127400000Y-166900000D03*
X115000000Y-166900000D03*
X121200000Y-166900000D03*
G04 #@! TD*
D58*
G04 #@! TO.C,Q1*
X137050000Y-161937500D03*
X138950000Y-161937500D03*
X138000000Y-159662500D03*
G04 #@! TD*
D33*
G04 #@! TO.C,C43*
X153762500Y-139000000D03*
X155837500Y-139000000D03*
G04 #@! TD*
D59*
G04 #@! TO.C,U8*
X147100000Y-150050000D03*
X147100000Y-149100000D03*
X147100000Y-148150000D03*
X144400000Y-148150000D03*
X144400000Y-150050000D03*
G04 #@! TD*
D17*
G04 #@! TO.C,R43*
X96100000Y-119900000D03*
X96100000Y-121900000D03*
G04 #@! TD*
D60*
G04 #@! TO.C,C26*
X102637500Y-149500000D03*
X100562500Y-149500000D03*
G04 #@! TD*
D17*
G04 #@! TO.C,R44*
X96400000Y-132500000D03*
X96400000Y-134500000D03*
G04 #@! TD*
D18*
G04 #@! TO.C,R26*
X110200000Y-159300000D03*
X110200000Y-157300000D03*
G04 #@! TD*
D60*
G04 #@! TO.C,C44*
X155837500Y-109200000D03*
X153762500Y-109200000D03*
G04 #@! TD*
D46*
G04 #@! TO.C,REF\u002A\u002A*
X90700000Y-165700000D03*
G04 #@! TD*
D44*
G04 #@! TO.C,J1*
X121000000Y-153160000D03*
D45*
X123540000Y-153160000D03*
X121000000Y-155700000D03*
X123540000Y-155700000D03*
X121000000Y-158240000D03*
X123540000Y-158240000D03*
G04 #@! TD*
D19*
G04 #@! TO.C,C25*
X111800000Y-147400000D03*
X111800000Y-145325000D03*
G04 #@! TD*
D39*
G04 #@! TO.C,C12*
X112400000Y-124700000D03*
X112400000Y-126775000D03*
G04 #@! TD*
D16*
G04 #@! TO.C,R27*
X103100000Y-97000000D03*
X105100000Y-97000000D03*
G04 #@! TD*
D15*
G04 #@! TO.C,R13*
X109400000Y-134787500D03*
X107400000Y-134787500D03*
G04 #@! TD*
D16*
G04 #@! TO.C,R50*
X140537500Y-140350000D03*
X142537500Y-140350000D03*
G04 #@! TD*
D17*
G04 #@! TO.C,R45*
X96400000Y-107000000D03*
X96400000Y-109000000D03*
G04 #@! TD*
D15*
G04 #@! TO.C,R34*
X135800000Y-96800000D03*
X133800000Y-96800000D03*
G04 #@! TD*
G04 #@! TO.C,R6*
X128400000Y-133837500D03*
X126400000Y-133837500D03*
G04 #@! TD*
D19*
G04 #@! TO.C,C20*
X119600000Y-141837500D03*
X119600000Y-139762500D03*
G04 #@! TD*
D16*
G04 #@! TO.C,R49*
X144437500Y-140350000D03*
X146437500Y-140350000D03*
G04 #@! TD*
D39*
G04 #@! TO.C,C11*
X114500000Y-124700000D03*
X114500000Y-126775000D03*
G04 #@! TD*
G04 #@! TO.C,C5*
X106937500Y-127700000D03*
X106937500Y-129775000D03*
G04 #@! TD*
D15*
G04 #@! TO.C,R14*
X109400000Y-139000000D03*
X107400000Y-139000000D03*
G04 #@! TD*
D17*
G04 #@! TO.C,R47*
X137200000Y-163900000D03*
X137200000Y-165900000D03*
G04 #@! TD*
D33*
G04 #@! TO.C,C16*
X121962500Y-124700000D03*
X124037500Y-124700000D03*
G04 #@! TD*
D61*
G04 #@! TO.C,FB1*
X107875000Y-147400000D03*
X110000000Y-147400000D03*
G04 #@! TD*
D15*
G04 #@! TO.C,R40*
X131900000Y-119900000D03*
X129900000Y-119900000D03*
G04 #@! TD*
D46*
G04 #@! TO.C,REF\u002A\u002A*
X156100000Y-86400000D03*
G04 #@! TD*
D62*
G04 #@! TO.C,SW7*
X158000000Y-150000000D03*
X158000000Y-141800000D03*
D63*
X158000000Y-147900000D03*
X158000000Y-145900000D03*
X158000000Y-143900000D03*
G04 #@! TD*
D60*
G04 #@! TO.C,C1*
X149737500Y-102100000D03*
X147662500Y-102100000D03*
G04 #@! TD*
D64*
G04 #@! TO.C,C39*
X142050000Y-155037500D03*
X147650000Y-155037500D03*
G04 #@! TD*
D15*
G04 #@! TO.C,R37*
X143000000Y-128200000D03*
X141000000Y-128200000D03*
G04 #@! TD*
D19*
G04 #@! TO.C,C3*
X107100000Y-92900000D03*
X107100000Y-90825000D03*
G04 #@! TD*
D14*
G04 #@! TO.C,C10*
X126700000Y-135875000D03*
X126700000Y-139000000D03*
G04 #@! TD*
D15*
G04 #@! TO.C,R36*
X143000000Y-130300000D03*
X141000000Y-130300000D03*
G04 #@! TD*
D39*
G04 #@! TO.C,C8*
X130100000Y-135762500D03*
X130100000Y-137837500D03*
G04 #@! TD*
D19*
G04 #@! TO.C,C22*
X148750000Y-130475000D03*
X148750000Y-128400000D03*
G04 #@! TD*
D17*
G04 #@! TO.C,R28*
X129900000Y-124000000D03*
X129900000Y-126000000D03*
G04 #@! TD*
D65*
G04 #@! TO.C,Q3*
X138512500Y-142100000D03*
X138512500Y-140200000D03*
X136637500Y-141150000D03*
G04 #@! TD*
D33*
G04 #@! TO.C,C30*
X102362500Y-159200000D03*
X104437500Y-159200000D03*
G04 #@! TD*
D22*
G04 #@! TO.C,U9*
X101950000Y-107715000D03*
X103050000Y-107715000D03*
X103050000Y-105885000D03*
X101950000Y-105885000D03*
G04 #@! TD*
D16*
G04 #@! TO.C,R23*
X104500000Y-153700000D03*
X106500000Y-153700000D03*
G04 #@! TD*
G04 #@! TO.C,R22*
X104500000Y-149500000D03*
X106500000Y-149500000D03*
G04 #@! TD*
D39*
G04 #@! TO.C,C18*
X112700000Y-136837500D03*
X112700000Y-138912500D03*
G04 #@! TD*
D33*
G04 #@! TO.C,C33*
X136062500Y-132400000D03*
X138137500Y-132400000D03*
G04 #@! TD*
D37*
G04 #@! TO.C,SW5*
X88529456Y-143350000D03*
D38*
X93029456Y-143350000D03*
X93029456Y-134250000D03*
X88529456Y-134250000D03*
G04 #@! TD*
D33*
G04 #@! TO.C,C27*
X100562500Y-147400000D03*
X102637500Y-147400000D03*
G04 #@! TD*
D19*
G04 #@! TO.C,C38*
X142050000Y-150237500D03*
X142050000Y-148162500D03*
G04 #@! TD*
D36*
G04 #@! TO.C,D4*
X156562500Y-93000000D03*
X158437500Y-93000000D03*
G04 #@! TD*
D66*
G04 #@! TO.C,BT1*
X133600000Y-151900000D03*
X149600000Y-106700000D03*
X133600000Y-93500000D03*
D67*
X141600000Y-93500000D03*
X141600000Y-165100000D03*
G04 #@! TD*
%LPD*%
M02*
