G04 #@! TF.GenerationSoftware,KiCad,Pcbnew,8.0.4*
G04 #@! TF.CreationDate,2025-04-22T14:39:34+02:00*
G04 #@! TF.ProjectId,MarvinProjekt,4d617276-696e-4507-926f-6a656b742e6b,rev?*
G04 #@! TF.SameCoordinates,Original*
G04 #@! TF.FileFunction,AssemblyDrawing,Bot*
%FSLAX46Y46*%
G04 Gerber Fmt 4.6, Leading zero omitted, Abs format (unit mm)*
G04 Created by KiCad (PCBNEW 8.0.4) date 2025-04-22 14:39:34*
%MOMM*%
%LPD*%
G01*
G04 APERTURE LIST*
%ADD10C,0.150000*%
G04 APERTURE END LIST*
D10*
X156518990Y-133204763D02*
X156471371Y-133061906D01*
X156471371Y-133061906D02*
X156423752Y-133014287D01*
X156423752Y-133014287D02*
X156328514Y-132966668D01*
X156328514Y-132966668D02*
X156185657Y-132966668D01*
X156185657Y-132966668D02*
X156090419Y-133014287D01*
X156090419Y-133014287D02*
X156042800Y-133061906D01*
X156042800Y-133061906D02*
X155995180Y-133157144D01*
X155995180Y-133157144D02*
X155995180Y-133538096D01*
X155995180Y-133538096D02*
X156995180Y-133538096D01*
X156995180Y-133538096D02*
X156995180Y-133204763D01*
X156995180Y-133204763D02*
X156947561Y-133109525D01*
X156947561Y-133109525D02*
X156899942Y-133061906D01*
X156899942Y-133061906D02*
X156804704Y-133014287D01*
X156804704Y-133014287D02*
X156709466Y-133014287D01*
X156709466Y-133014287D02*
X156614228Y-133061906D01*
X156614228Y-133061906D02*
X156566609Y-133109525D01*
X156566609Y-133109525D02*
X156518990Y-133204763D01*
X156518990Y-133204763D02*
X156518990Y-133538096D01*
X155995180Y-132109525D02*
X156518990Y-132109525D01*
X156518990Y-132109525D02*
X156614228Y-132157144D01*
X156614228Y-132157144D02*
X156661847Y-132252382D01*
X156661847Y-132252382D02*
X156661847Y-132442858D01*
X156661847Y-132442858D02*
X156614228Y-132538096D01*
X156042800Y-132109525D02*
X155995180Y-132204763D01*
X155995180Y-132204763D02*
X155995180Y-132442858D01*
X155995180Y-132442858D02*
X156042800Y-132538096D01*
X156042800Y-132538096D02*
X156138038Y-132585715D01*
X156138038Y-132585715D02*
X156233276Y-132585715D01*
X156233276Y-132585715D02*
X156328514Y-132538096D01*
X156328514Y-132538096D02*
X156376133Y-132442858D01*
X156376133Y-132442858D02*
X156376133Y-132204763D01*
X156376133Y-132204763D02*
X156423752Y-132109525D01*
X156661847Y-131776191D02*
X156661847Y-131395239D01*
X156995180Y-131633334D02*
X156138038Y-131633334D01*
X156138038Y-131633334D02*
X156042800Y-131585715D01*
X156042800Y-131585715D02*
X155995180Y-131490477D01*
X155995180Y-131490477D02*
X155995180Y-131395239D01*
X156661847Y-131204762D02*
X156661847Y-130823810D01*
X156995180Y-131061905D02*
X156138038Y-131061905D01*
X156138038Y-131061905D02*
X156042800Y-131014286D01*
X156042800Y-131014286D02*
X155995180Y-130919048D01*
X155995180Y-130919048D02*
X155995180Y-130823810D01*
X156042800Y-130109524D02*
X155995180Y-130204762D01*
X155995180Y-130204762D02*
X155995180Y-130395238D01*
X155995180Y-130395238D02*
X156042800Y-130490476D01*
X156042800Y-130490476D02*
X156138038Y-130538095D01*
X156138038Y-130538095D02*
X156518990Y-130538095D01*
X156518990Y-130538095D02*
X156614228Y-130490476D01*
X156614228Y-130490476D02*
X156661847Y-130395238D01*
X156661847Y-130395238D02*
X156661847Y-130204762D01*
X156661847Y-130204762D02*
X156614228Y-130109524D01*
X156614228Y-130109524D02*
X156518990Y-130061905D01*
X156518990Y-130061905D02*
X156423752Y-130061905D01*
X156423752Y-130061905D02*
X156328514Y-130538095D01*
X155995180Y-129633333D02*
X156661847Y-129633333D01*
X156471371Y-129633333D02*
X156566609Y-129585714D01*
X156566609Y-129585714D02*
X156614228Y-129538095D01*
X156614228Y-129538095D02*
X156661847Y-129442857D01*
X156661847Y-129442857D02*
X156661847Y-129347619D01*
X156661847Y-129109523D02*
X155995180Y-128871428D01*
X156661847Y-128633333D02*
X155995180Y-128871428D01*
X155995180Y-128871428D02*
X155757085Y-128966666D01*
X155757085Y-128966666D02*
X155709466Y-129014285D01*
X155709466Y-129014285D02*
X155661847Y-129109523D01*
X155899942Y-128490476D02*
X155899942Y-127728571D01*
X156090419Y-126919047D02*
X156042800Y-126966666D01*
X156042800Y-126966666D02*
X155995180Y-127109523D01*
X155995180Y-127109523D02*
X155995180Y-127204761D01*
X155995180Y-127204761D02*
X156042800Y-127347618D01*
X156042800Y-127347618D02*
X156138038Y-127442856D01*
X156138038Y-127442856D02*
X156233276Y-127490475D01*
X156233276Y-127490475D02*
X156423752Y-127538094D01*
X156423752Y-127538094D02*
X156566609Y-127538094D01*
X156566609Y-127538094D02*
X156757085Y-127490475D01*
X156757085Y-127490475D02*
X156852323Y-127442856D01*
X156852323Y-127442856D02*
X156947561Y-127347618D01*
X156947561Y-127347618D02*
X156995180Y-127204761D01*
X156995180Y-127204761D02*
X156995180Y-127109523D01*
X156995180Y-127109523D02*
X156947561Y-126966666D01*
X156947561Y-126966666D02*
X156899942Y-126919047D01*
X156042800Y-126109523D02*
X155995180Y-126204761D01*
X155995180Y-126204761D02*
X155995180Y-126395237D01*
X155995180Y-126395237D02*
X156042800Y-126490475D01*
X156042800Y-126490475D02*
X156138038Y-126538094D01*
X156138038Y-126538094D02*
X156518990Y-126538094D01*
X156518990Y-126538094D02*
X156614228Y-126490475D01*
X156614228Y-126490475D02*
X156661847Y-126395237D01*
X156661847Y-126395237D02*
X156661847Y-126204761D01*
X156661847Y-126204761D02*
X156614228Y-126109523D01*
X156614228Y-126109523D02*
X156518990Y-126061904D01*
X156518990Y-126061904D02*
X156423752Y-126061904D01*
X156423752Y-126061904D02*
X156328514Y-126538094D01*
X155995180Y-125490475D02*
X156042800Y-125585713D01*
X156042800Y-125585713D02*
X156138038Y-125633332D01*
X156138038Y-125633332D02*
X156995180Y-125633332D01*
X155995180Y-124966665D02*
X156042800Y-125061903D01*
X156042800Y-125061903D02*
X156138038Y-125109522D01*
X156138038Y-125109522D02*
X156995180Y-125109522D01*
X155018990Y-130085714D02*
X154971371Y-129942857D01*
X154971371Y-129942857D02*
X154923752Y-129895238D01*
X154923752Y-129895238D02*
X154828514Y-129847619D01*
X154828514Y-129847619D02*
X154685657Y-129847619D01*
X154685657Y-129847619D02*
X154590419Y-129895238D01*
X154590419Y-129895238D02*
X154542800Y-129942857D01*
X154542800Y-129942857D02*
X154495180Y-130038095D01*
X154495180Y-130038095D02*
X154495180Y-130419047D01*
X154495180Y-130419047D02*
X155495180Y-130419047D01*
X155495180Y-130419047D02*
X155495180Y-130085714D01*
X155495180Y-130085714D02*
X155447561Y-129990476D01*
X155447561Y-129990476D02*
X155399942Y-129942857D01*
X155399942Y-129942857D02*
X155304704Y-129895238D01*
X155304704Y-129895238D02*
X155209466Y-129895238D01*
X155209466Y-129895238D02*
X155114228Y-129942857D01*
X155114228Y-129942857D02*
X155066609Y-129990476D01*
X155066609Y-129990476D02*
X155018990Y-130085714D01*
X155018990Y-130085714D02*
X155018990Y-130419047D01*
X155495180Y-129561904D02*
X155495180Y-128990476D01*
X154495180Y-129276190D02*
X155495180Y-129276190D01*
X154495180Y-128133333D02*
X154495180Y-128704761D01*
X154495180Y-128419047D02*
X155495180Y-128419047D01*
X155495180Y-128419047D02*
X155352323Y-128514285D01*
X155352323Y-128514285D02*
X155257085Y-128609523D01*
X155257085Y-128609523D02*
X155209466Y-128704761D01*
X103919047Y-106631009D02*
X103776190Y-106678628D01*
X103776190Y-106678628D02*
X103728571Y-106726247D01*
X103728571Y-106726247D02*
X103680952Y-106821485D01*
X103680952Y-106821485D02*
X103680952Y-106964342D01*
X103680952Y-106964342D02*
X103728571Y-107059580D01*
X103728571Y-107059580D02*
X103776190Y-107107200D01*
X103776190Y-107107200D02*
X103871428Y-107154819D01*
X103871428Y-107154819D02*
X104252380Y-107154819D01*
X104252380Y-107154819D02*
X104252380Y-106154819D01*
X104252380Y-106154819D02*
X103919047Y-106154819D01*
X103919047Y-106154819D02*
X103823809Y-106202438D01*
X103823809Y-106202438D02*
X103776190Y-106250057D01*
X103776190Y-106250057D02*
X103728571Y-106345295D01*
X103728571Y-106345295D02*
X103728571Y-106440533D01*
X103728571Y-106440533D02*
X103776190Y-106535771D01*
X103776190Y-106535771D02*
X103823809Y-106583390D01*
X103823809Y-106583390D02*
X103919047Y-106631009D01*
X103919047Y-106631009D02*
X104252380Y-106631009D01*
X103109523Y-107154819D02*
X103204761Y-107107200D01*
X103204761Y-107107200D02*
X103252380Y-107059580D01*
X103252380Y-107059580D02*
X103299999Y-106964342D01*
X103299999Y-106964342D02*
X103299999Y-106678628D01*
X103299999Y-106678628D02*
X103252380Y-106583390D01*
X103252380Y-106583390D02*
X103204761Y-106535771D01*
X103204761Y-106535771D02*
X103109523Y-106488152D01*
X103109523Y-106488152D02*
X102966666Y-106488152D01*
X102966666Y-106488152D02*
X102871428Y-106535771D01*
X102871428Y-106535771D02*
X102823809Y-106583390D01*
X102823809Y-106583390D02*
X102776190Y-106678628D01*
X102776190Y-106678628D02*
X102776190Y-106964342D01*
X102776190Y-106964342D02*
X102823809Y-107059580D01*
X102823809Y-107059580D02*
X102871428Y-107107200D01*
X102871428Y-107107200D02*
X102966666Y-107154819D01*
X102966666Y-107154819D02*
X103109523Y-107154819D01*
X102204761Y-107154819D02*
X102299999Y-107107200D01*
X102299999Y-107107200D02*
X102347618Y-107059580D01*
X102347618Y-107059580D02*
X102395237Y-106964342D01*
X102395237Y-106964342D02*
X102395237Y-106678628D01*
X102395237Y-106678628D02*
X102347618Y-106583390D01*
X102347618Y-106583390D02*
X102299999Y-106535771D01*
X102299999Y-106535771D02*
X102204761Y-106488152D01*
X102204761Y-106488152D02*
X102061904Y-106488152D01*
X102061904Y-106488152D02*
X101966666Y-106535771D01*
X101966666Y-106535771D02*
X101919047Y-106583390D01*
X101919047Y-106583390D02*
X101871428Y-106678628D01*
X101871428Y-106678628D02*
X101871428Y-106964342D01*
X101871428Y-106964342D02*
X101919047Y-107059580D01*
X101919047Y-107059580D02*
X101966666Y-107107200D01*
X101966666Y-107107200D02*
X102061904Y-107154819D01*
X102061904Y-107154819D02*
X102204761Y-107154819D01*
X101585713Y-106488152D02*
X101204761Y-106488152D01*
X101442856Y-106154819D02*
X101442856Y-107011961D01*
X101442856Y-107011961D02*
X101395237Y-107107200D01*
X101395237Y-107107200D02*
X101299999Y-107154819D01*
X101299999Y-107154819D02*
X101204761Y-107154819D01*
X104133332Y-108607200D02*
X103990475Y-108654819D01*
X103990475Y-108654819D02*
X103752380Y-108654819D01*
X103752380Y-108654819D02*
X103657142Y-108607200D01*
X103657142Y-108607200D02*
X103609523Y-108559580D01*
X103609523Y-108559580D02*
X103561904Y-108464342D01*
X103561904Y-108464342D02*
X103561904Y-108369104D01*
X103561904Y-108369104D02*
X103609523Y-108273866D01*
X103609523Y-108273866D02*
X103657142Y-108226247D01*
X103657142Y-108226247D02*
X103752380Y-108178628D01*
X103752380Y-108178628D02*
X103942856Y-108131009D01*
X103942856Y-108131009D02*
X104038094Y-108083390D01*
X104038094Y-108083390D02*
X104085713Y-108035771D01*
X104085713Y-108035771D02*
X104133332Y-107940533D01*
X104133332Y-107940533D02*
X104133332Y-107845295D01*
X104133332Y-107845295D02*
X104085713Y-107750057D01*
X104085713Y-107750057D02*
X104038094Y-107702438D01*
X104038094Y-107702438D02*
X103942856Y-107654819D01*
X103942856Y-107654819D02*
X103704761Y-107654819D01*
X103704761Y-107654819D02*
X103561904Y-107702438D01*
X103228570Y-107654819D02*
X102990475Y-108654819D01*
X102990475Y-108654819D02*
X102799999Y-107940533D01*
X102799999Y-107940533D02*
X102609523Y-108654819D01*
X102609523Y-108654819D02*
X102371428Y-107654819D01*
X101942856Y-108654819D02*
X101752380Y-108654819D01*
X101752380Y-108654819D02*
X101657142Y-108607200D01*
X101657142Y-108607200D02*
X101609523Y-108559580D01*
X101609523Y-108559580D02*
X101514285Y-108416723D01*
X101514285Y-108416723D02*
X101466666Y-108226247D01*
X101466666Y-108226247D02*
X101466666Y-107845295D01*
X101466666Y-107845295D02*
X101514285Y-107750057D01*
X101514285Y-107750057D02*
X101561904Y-107702438D01*
X101561904Y-107702438D02*
X101657142Y-107654819D01*
X101657142Y-107654819D02*
X101847618Y-107654819D01*
X101847618Y-107654819D02*
X101942856Y-107702438D01*
X101942856Y-107702438D02*
X101990475Y-107750057D01*
X101990475Y-107750057D02*
X102038094Y-107845295D01*
X102038094Y-107845295D02*
X102038094Y-108083390D01*
X102038094Y-108083390D02*
X101990475Y-108178628D01*
X101990475Y-108178628D02*
X101942856Y-108226247D01*
X101942856Y-108226247D02*
X101847618Y-108273866D01*
X101847618Y-108273866D02*
X101657142Y-108273866D01*
X101657142Y-108273866D02*
X101561904Y-108226247D01*
X101561904Y-108226247D02*
X101514285Y-108178628D01*
X101514285Y-108178628D02*
X101466666Y-108083390D01*
X104133332Y-114886656D02*
X103990475Y-114934275D01*
X103990475Y-114934275D02*
X103752380Y-114934275D01*
X103752380Y-114934275D02*
X103657142Y-114886656D01*
X103657142Y-114886656D02*
X103609523Y-114839036D01*
X103609523Y-114839036D02*
X103561904Y-114743798D01*
X103561904Y-114743798D02*
X103561904Y-114648560D01*
X103561904Y-114648560D02*
X103609523Y-114553322D01*
X103609523Y-114553322D02*
X103657142Y-114505703D01*
X103657142Y-114505703D02*
X103752380Y-114458084D01*
X103752380Y-114458084D02*
X103942856Y-114410465D01*
X103942856Y-114410465D02*
X104038094Y-114362846D01*
X104038094Y-114362846D02*
X104085713Y-114315227D01*
X104085713Y-114315227D02*
X104133332Y-114219989D01*
X104133332Y-114219989D02*
X104133332Y-114124751D01*
X104133332Y-114124751D02*
X104085713Y-114029513D01*
X104085713Y-114029513D02*
X104038094Y-113981894D01*
X104038094Y-113981894D02*
X103942856Y-113934275D01*
X103942856Y-113934275D02*
X103704761Y-113934275D01*
X103704761Y-113934275D02*
X103561904Y-113981894D01*
X103228570Y-113934275D02*
X102990475Y-114934275D01*
X102990475Y-114934275D02*
X102799999Y-114219989D01*
X102799999Y-114219989D02*
X102609523Y-114934275D01*
X102609523Y-114934275D02*
X102371428Y-113934275D01*
X101942856Y-114934275D02*
X101752380Y-114934275D01*
X101752380Y-114934275D02*
X101657142Y-114886656D01*
X101657142Y-114886656D02*
X101609523Y-114839036D01*
X101609523Y-114839036D02*
X101514285Y-114696179D01*
X101514285Y-114696179D02*
X101466666Y-114505703D01*
X101466666Y-114505703D02*
X101466666Y-114124751D01*
X101466666Y-114124751D02*
X101514285Y-114029513D01*
X101514285Y-114029513D02*
X101561904Y-113981894D01*
X101561904Y-113981894D02*
X101657142Y-113934275D01*
X101657142Y-113934275D02*
X101847618Y-113934275D01*
X101847618Y-113934275D02*
X101942856Y-113981894D01*
X101942856Y-113981894D02*
X101990475Y-114029513D01*
X101990475Y-114029513D02*
X102038094Y-114124751D01*
X102038094Y-114124751D02*
X102038094Y-114362846D01*
X102038094Y-114362846D02*
X101990475Y-114458084D01*
X101990475Y-114458084D02*
X101942856Y-114505703D01*
X101942856Y-114505703D02*
X101847618Y-114553322D01*
X101847618Y-114553322D02*
X101657142Y-114553322D01*
X101657142Y-114553322D02*
X101561904Y-114505703D01*
X101561904Y-114505703D02*
X101514285Y-114458084D01*
X101514285Y-114458084D02*
X101466666Y-114362846D01*
X101561904Y-125945180D02*
X101228571Y-126421371D01*
X100990476Y-125945180D02*
X100990476Y-126945180D01*
X100990476Y-126945180D02*
X101371428Y-126945180D01*
X101371428Y-126945180D02*
X101466666Y-126897561D01*
X101466666Y-126897561D02*
X101514285Y-126849942D01*
X101514285Y-126849942D02*
X101561904Y-126754704D01*
X101561904Y-126754704D02*
X101561904Y-126611847D01*
X101561904Y-126611847D02*
X101514285Y-126516609D01*
X101514285Y-126516609D02*
X101466666Y-126468990D01*
X101466666Y-126468990D02*
X101371428Y-126421371D01*
X101371428Y-126421371D02*
X100990476Y-126421371D01*
X102371428Y-125992800D02*
X102276190Y-125945180D01*
X102276190Y-125945180D02*
X102085714Y-125945180D01*
X102085714Y-125945180D02*
X101990476Y-125992800D01*
X101990476Y-125992800D02*
X101942857Y-126088038D01*
X101942857Y-126088038D02*
X101942857Y-126468990D01*
X101942857Y-126468990D02*
X101990476Y-126564228D01*
X101990476Y-126564228D02*
X102085714Y-126611847D01*
X102085714Y-126611847D02*
X102276190Y-126611847D01*
X102276190Y-126611847D02*
X102371428Y-126564228D01*
X102371428Y-126564228D02*
X102419047Y-126468990D01*
X102419047Y-126468990D02*
X102419047Y-126373752D01*
X102419047Y-126373752D02*
X101942857Y-126278514D01*
X102800000Y-125992800D02*
X102895238Y-125945180D01*
X102895238Y-125945180D02*
X103085714Y-125945180D01*
X103085714Y-125945180D02*
X103180952Y-125992800D01*
X103180952Y-125992800D02*
X103228571Y-126088038D01*
X103228571Y-126088038D02*
X103228571Y-126135657D01*
X103228571Y-126135657D02*
X103180952Y-126230895D01*
X103180952Y-126230895D02*
X103085714Y-126278514D01*
X103085714Y-126278514D02*
X102942857Y-126278514D01*
X102942857Y-126278514D02*
X102847619Y-126326133D01*
X102847619Y-126326133D02*
X102800000Y-126421371D01*
X102800000Y-126421371D02*
X102800000Y-126468990D01*
X102800000Y-126468990D02*
X102847619Y-126564228D01*
X102847619Y-126564228D02*
X102942857Y-126611847D01*
X102942857Y-126611847D02*
X103085714Y-126611847D01*
X103085714Y-126611847D02*
X103180952Y-126564228D01*
X104038095Y-125992800D02*
X103942857Y-125945180D01*
X103942857Y-125945180D02*
X103752381Y-125945180D01*
X103752381Y-125945180D02*
X103657143Y-125992800D01*
X103657143Y-125992800D02*
X103609524Y-126088038D01*
X103609524Y-126088038D02*
X103609524Y-126468990D01*
X103609524Y-126468990D02*
X103657143Y-126564228D01*
X103657143Y-126564228D02*
X103752381Y-126611847D01*
X103752381Y-126611847D02*
X103942857Y-126611847D01*
X103942857Y-126611847D02*
X104038095Y-126564228D01*
X104038095Y-126564228D02*
X104085714Y-126468990D01*
X104085714Y-126468990D02*
X104085714Y-126373752D01*
X104085714Y-126373752D02*
X103609524Y-126278514D01*
X104371429Y-126611847D02*
X104752381Y-126611847D01*
X104514286Y-126945180D02*
X104514286Y-126088038D01*
X104514286Y-126088038D02*
X104561905Y-125992800D01*
X104561905Y-125992800D02*
X104657143Y-125945180D01*
X104657143Y-125945180D02*
X104752381Y-125945180D01*
X101466667Y-118213344D02*
X101609524Y-118165724D01*
X101609524Y-118165724D02*
X101847619Y-118165724D01*
X101847619Y-118165724D02*
X101942857Y-118213344D01*
X101942857Y-118213344D02*
X101990476Y-118260963D01*
X101990476Y-118260963D02*
X102038095Y-118356201D01*
X102038095Y-118356201D02*
X102038095Y-118451439D01*
X102038095Y-118451439D02*
X101990476Y-118546677D01*
X101990476Y-118546677D02*
X101942857Y-118594296D01*
X101942857Y-118594296D02*
X101847619Y-118641915D01*
X101847619Y-118641915D02*
X101657143Y-118689534D01*
X101657143Y-118689534D02*
X101561905Y-118737153D01*
X101561905Y-118737153D02*
X101514286Y-118784772D01*
X101514286Y-118784772D02*
X101466667Y-118880010D01*
X101466667Y-118880010D02*
X101466667Y-118975248D01*
X101466667Y-118975248D02*
X101514286Y-119070486D01*
X101514286Y-119070486D02*
X101561905Y-119118105D01*
X101561905Y-119118105D02*
X101657143Y-119165724D01*
X101657143Y-119165724D02*
X101895238Y-119165724D01*
X101895238Y-119165724D02*
X102038095Y-119118105D01*
X102371429Y-119165724D02*
X102609524Y-118165724D01*
X102609524Y-118165724D02*
X102800000Y-118880010D01*
X102800000Y-118880010D02*
X102990476Y-118165724D01*
X102990476Y-118165724D02*
X103228572Y-119165724D01*
X103752381Y-118737153D02*
X103657143Y-118784772D01*
X103657143Y-118784772D02*
X103609524Y-118832391D01*
X103609524Y-118832391D02*
X103561905Y-118927629D01*
X103561905Y-118927629D02*
X103561905Y-118975248D01*
X103561905Y-118975248D02*
X103609524Y-119070486D01*
X103609524Y-119070486D02*
X103657143Y-119118105D01*
X103657143Y-119118105D02*
X103752381Y-119165724D01*
X103752381Y-119165724D02*
X103942857Y-119165724D01*
X103942857Y-119165724D02*
X104038095Y-119118105D01*
X104038095Y-119118105D02*
X104085714Y-119070486D01*
X104085714Y-119070486D02*
X104133333Y-118975248D01*
X104133333Y-118975248D02*
X104133333Y-118927629D01*
X104133333Y-118927629D02*
X104085714Y-118832391D01*
X104085714Y-118832391D02*
X104038095Y-118784772D01*
X104038095Y-118784772D02*
X103942857Y-118737153D01*
X103942857Y-118737153D02*
X103752381Y-118737153D01*
X103752381Y-118737153D02*
X103657143Y-118689534D01*
X103657143Y-118689534D02*
X103609524Y-118641915D01*
X103609524Y-118641915D02*
X103561905Y-118546677D01*
X103561905Y-118546677D02*
X103561905Y-118356201D01*
X103561905Y-118356201D02*
X103609524Y-118260963D01*
X103609524Y-118260963D02*
X103657143Y-118213344D01*
X103657143Y-118213344D02*
X103752381Y-118165724D01*
X103752381Y-118165724D02*
X103942857Y-118165724D01*
X103942857Y-118165724D02*
X104038095Y-118213344D01*
X104038095Y-118213344D02*
X104085714Y-118260963D01*
X104085714Y-118260963D02*
X104133333Y-118356201D01*
X104133333Y-118356201D02*
X104133333Y-118546677D01*
X104133333Y-118546677D02*
X104085714Y-118641915D01*
X104085714Y-118641915D02*
X104038095Y-118689534D01*
X104038095Y-118689534D02*
X103942857Y-118737153D01*
X101466667Y-124492800D02*
X101609524Y-124445180D01*
X101609524Y-124445180D02*
X101847619Y-124445180D01*
X101847619Y-124445180D02*
X101942857Y-124492800D01*
X101942857Y-124492800D02*
X101990476Y-124540419D01*
X101990476Y-124540419D02*
X102038095Y-124635657D01*
X102038095Y-124635657D02*
X102038095Y-124730895D01*
X102038095Y-124730895D02*
X101990476Y-124826133D01*
X101990476Y-124826133D02*
X101942857Y-124873752D01*
X101942857Y-124873752D02*
X101847619Y-124921371D01*
X101847619Y-124921371D02*
X101657143Y-124968990D01*
X101657143Y-124968990D02*
X101561905Y-125016609D01*
X101561905Y-125016609D02*
X101514286Y-125064228D01*
X101514286Y-125064228D02*
X101466667Y-125159466D01*
X101466667Y-125159466D02*
X101466667Y-125254704D01*
X101466667Y-125254704D02*
X101514286Y-125349942D01*
X101514286Y-125349942D02*
X101561905Y-125397561D01*
X101561905Y-125397561D02*
X101657143Y-125445180D01*
X101657143Y-125445180D02*
X101895238Y-125445180D01*
X101895238Y-125445180D02*
X102038095Y-125397561D01*
X102371429Y-125445180D02*
X102609524Y-124445180D01*
X102609524Y-124445180D02*
X102800000Y-125159466D01*
X102800000Y-125159466D02*
X102990476Y-124445180D01*
X102990476Y-124445180D02*
X103228572Y-125445180D01*
X103752381Y-125016609D02*
X103657143Y-125064228D01*
X103657143Y-125064228D02*
X103609524Y-125111847D01*
X103609524Y-125111847D02*
X103561905Y-125207085D01*
X103561905Y-125207085D02*
X103561905Y-125254704D01*
X103561905Y-125254704D02*
X103609524Y-125349942D01*
X103609524Y-125349942D02*
X103657143Y-125397561D01*
X103657143Y-125397561D02*
X103752381Y-125445180D01*
X103752381Y-125445180D02*
X103942857Y-125445180D01*
X103942857Y-125445180D02*
X104038095Y-125397561D01*
X104038095Y-125397561D02*
X104085714Y-125349942D01*
X104085714Y-125349942D02*
X104133333Y-125254704D01*
X104133333Y-125254704D02*
X104133333Y-125207085D01*
X104133333Y-125207085D02*
X104085714Y-125111847D01*
X104085714Y-125111847D02*
X104038095Y-125064228D01*
X104038095Y-125064228D02*
X103942857Y-125016609D01*
X103942857Y-125016609D02*
X103752381Y-125016609D01*
X103752381Y-125016609D02*
X103657143Y-124968990D01*
X103657143Y-124968990D02*
X103609524Y-124921371D01*
X103609524Y-124921371D02*
X103561905Y-124826133D01*
X103561905Y-124826133D02*
X103561905Y-124635657D01*
X103561905Y-124635657D02*
X103609524Y-124540419D01*
X103609524Y-124540419D02*
X103657143Y-124492800D01*
X103657143Y-124492800D02*
X103752381Y-124445180D01*
X103752381Y-124445180D02*
X103942857Y-124445180D01*
X103942857Y-124445180D02*
X104038095Y-124492800D01*
X104038095Y-124492800D02*
X104085714Y-124540419D01*
X104085714Y-124540419D02*
X104133333Y-124635657D01*
X104133333Y-124635657D02*
X104133333Y-124826133D01*
X104133333Y-124826133D02*
X104085714Y-124921371D01*
X104085714Y-124921371D02*
X104038095Y-124968990D01*
X104038095Y-124968990D02*
X103942857Y-125016609D01*
M02*
